999
dxflib 2.0.4.8
  0
SECTION
  2
HEADER
  9
$ACADVER
  1
AC1015
  9
$HANDSEED
  5
FFFF
  9
$DIMASZ
 40
2.5
  9
$DIMGAP
 40
0.625
  9
$INSUNITS
 70
4
  9
$DIMEXO
 40
0.625
  9
$DIMTXT
 40
2.5
  9
$DIMSTYLE
  2
Standard
  9
$PLIMMIN
 10
0.0
 20
0.0
  9
$PLIMMAX
 10
210.0
 20
297.0
  9
$DIMEXE
 40
1.25
  0
ENDSEC
  0
SECTION
  2
TABLES
  0
TABLE
  2
VPORT
  5
8
100
AcDbSymbolTable
 70
1
  0
VPORT
  5
30
100
AcDbSymbolTableRecord
100
AcDbViewportTableRecord
  2
*Active
 70
0
 10
0.0
 20
0.0
 11
1.0
 21
1.0
 12
286.3055555555554861
 22
148.5
 13
0.0
 23
0.0
 14
10.0
 24
10.0
 15
10.0
 25
10.0
 16
0.0
 26
0.0
 36
1.0
 17
0.0
 27
0.0
 37
0.0
 40
297.0
 41
1.92798353909465
 42
50.0
 43
0.0
 44
0.0
 50
0.0
 51
0.0
 71
0
 72
100
 73
1
 74
3
 75
1
 76
1
 77
0
 78
0
281
0
 65
1
110
0.0
120
0.0
130
0.0
111
1.0
121
0.0
131
0.0
112
0.0
122
1.0
132
0.0
 79
0
146
0.0
  0
ENDTAB
  0
TABLE
  2
LTYPE
  5
5
100
AcDbSymbolTable
 70
21
  0
LTYPE
  5
14
100
AcDbSymbolTableRecord
100
AcDbLinetypeTableRecord
  2
ByBlock
 70
0
  3

 72
65
 73
0
 40
0.0
  0
LTYPE
  5
15
100
AcDbSymbolTableRecord
100
AcDbLinetypeTableRecord
  2
ByLayer
 70
0
  3

 72
65
 73
0
 40
0.0
  0
LTYPE
  5
16
100
AcDbSymbolTableRecord
100
AcDbLinetypeTableRecord
  2
CONTINUOUS
 70
0
  3
Solid line
 72
65
 73
0
 40
0.0
  0
LTYPE
  5
31
100
AcDbSymbolTableRecord
100
AcDbLinetypeTableRecord
  2
DOT
 70
0
  3
Dot . . . . . . . . . . . . . . . . . . . . . .
 72
65
 73
2
 40
6.3499999999999996
 49
0.0
 74
0
 49
-6.3499999999999996
 74
0
  0
LTYPE
  5
32
100
AcDbSymbolTableRecord
100
AcDbLinetypeTableRecord
  2
DOT2
 70
0
  3
Dot (.5x) .....................................
 72
65
 73
2
 40
3.1749999999999998
 49
0.0
 74
0
 49
-3.1749999999999998
 74
0
  0
LTYPE
  5
33
100
AcDbSymbolTableRecord
100
AcDbLinetypeTableRecord
  2
DOTX2
 70
0
  3
Dot (2x) .  .  .  .  .  .  .  .  .  .  .  .  .
 72
65
 73
2
 40
12.6999999999999993
 49
0.0
 74
0
 49
-12.6999999999999993
 74
0
  0
LTYPE
  5
34
100
AcDbSymbolTableRecord
100
AcDbLinetypeTableRecord
  2
DASHED
 70
0
  3
Dashed __ __ __ __ __ __ __ __ __ __ __ __ __ _
 72
65
 73
2
 40
19.0500000000000007
 49
12.6999999999999993
 74
0
 49
-6.3499999999999996
 74
0
  0
LTYPE
  5
35
100
AcDbSymbolTableRecord
100
AcDbLinetypeTableRecord
  2
DASHED2
 70
0
  3
Dashed (.5x) _ _ _ _ _ _ _ _ _ _ _ _ _ _ _ _ _
 72
65
 73
2
 40
9.5250000000000004
 49
6.3499999999999996
 74
0
 49
-3.1749999999999998
 74
0
  0
LTYPE
  5
36
100
AcDbSymbolTableRecord
100
AcDbLinetypeTableRecord
  2
DASHEDX2
 70
0
  3
Dashed (2x) ____  ____  ____  ____  ____  ___
 72
65
 73
2
 40
38.1000000000000014
 49
25.3999999999999986
 74
0
 49
-12.6999999999999993
 74
0
  0
LTYPE
  5
37
100
AcDbSymbolTableRecord
100
AcDbLinetypeTableRecord
  2
DASHDOT
 70
0
  3
Dash dot __ . __ . __ . __ . __ . __ . __ . __
 72
65
 73
4
 40
25.3999999999999986
 49
12.6999999999999993
 74
0
 49
-6.3499999999999996
 74
0
 49
0.0
 74
0
 49
-6.3499999999999996
 74
0
  0
LTYPE
  5
38
100
AcDbSymbolTableRecord
100
AcDbLinetypeTableRecord
  2
DASHDOT2
 70
0
  3
Dash dot (.5x) _._._._._._._._._._._._._._._.
 72
65
 73
4
 40
12.6999999999999993
 49
6.3499999999999996
 74
0
 49
-3.1749999999999998
 74
0
 49
0.0
 74
0
 49
-3.1749999999999998
 74
0
  0
LTYPE
  5
39
100
AcDbSymbolTableRecord
100
AcDbLinetypeTableRecord
  2
DASHDOTX2
 70
0
  3
Dash dot (2x) ____  .  ____  .  ____  .  ___
 72
65
 73
4
 40
50.7999999999999972
 49
25.3999999999999986
 74
0
 49
-12.6999999999999993
 74
0
 49
0.0
 74
0
 49
-12.6999999999999993
 74
0
  0
LTYPE
  5
3A
100
AcDbSymbolTableRecord
100
AcDbLinetypeTableRecord
  2
DIVIDE
 70
0
  3
Divide ____ . . ____ . . ____ . . ____ . . ____
 72
65
 73
6
 40
31.75
 49
12.6999999999999993
 74
0
 49
-6.3499999999999996
 74
0
 49
0.0
 74
0
 49
-6.3499999999999996
 74
0
 49
0.0
 74
0
 49
-6.3499999999999996
 74
0
  0
LTYPE
  5
3B
100
AcDbSymbolTableRecord
100
AcDbLinetypeTableRecord
  2
DIVIDE2
 70
0
  3
Divide (.5x) __..__..__..__..__..__..__..__.._
 72
65
 73
6
 40
15.875
 49
6.3499999999999996
 74
0
 49
-3.1749999999999998
 74
0
 49
0.0
 74
0
 49
-3.1749999999999998
 74
0
 49
0.0
 74
0
 49
-3.1749999999999998
 74
0
  0
LTYPE
  5
3C
100
AcDbSymbolTableRecord
100
AcDbLinetypeTableRecord
  2
DIVIDEX2
 70
0
  3
Divide (2x) ________  .  .  ________  .  .  _
 72
65
 73
6
 40
63.5
 49
25.3999999999999986
 74
0
 49
-12.6999999999999993
 74
0
 49
0.0
 74
0
 49
-12.6999999999999993
 74
0
 49
0.0
 74
0
 49
-12.6999999999999993
 74
0
  0
LTYPE
  5
3D
100
AcDbSymbolTableRecord
100
AcDbLinetypeTableRecord
  2
CENTER
 70
0
  3
Center ____ _ ____ _ ____ _ ____ _ ____ _ ____
 72
65
 73
4
 40
50.7999999999999972
 49
31.75
 74
0
 49
-6.3499999999999996
 74
0
 49
6.3499999999999996
 74
0
 49
-6.3499999999999996
 74
0
  0
LTYPE
  5
3E
100
AcDbSymbolTableRecord
100
AcDbLinetypeTableRecord
  2
CENTER2
 70
0
  3
Center (.5x) ___ _ ___ _ ___ _ ___ _ ___ _ ___
 72
65
 73
4
 40
28.5749999999999993
 49
19.0500000000000007
 74
0
 49
-3.1749999999999998
 74
0
 49
3.1749999999999998
 74
0
 49
-3.1749999999999998
 74
0
  0
LTYPE
  5
3F
100
AcDbSymbolTableRecord
100
AcDbLinetypeTableRecord
  2
CENTERX2
 70
0
  3
Center (2x) ________  __  ________  __  _____
 72
65
 73
4
 40
101.5999999999999943
 49
63.5
 74
0
 49
-12.6999999999999993
 74
0
 49
12.6999999999999993
 74
0
 49
-12.6999999999999993
 74
0
  0
LTYPE
  5
40
100
AcDbSymbolTableRecord
100
AcDbLinetypeTableRecord
  2
BORDER
 70
0
  3
Border __ __ . __ __ . __ __ . __ __ . __ __ .
 72
65
 73
6
 40
44.4500000000000028
 49
12.6999999999999993
 74
0
 49
-6.3499999999999996
 74
0
 49
12.6999999999999993
 74
0
 49
-6.3499999999999996
 74
0
 49
0.0
 74
0
 49
-6.3499999999999996
 74
0
  0
LTYPE
  5
41
100
AcDbSymbolTableRecord
100
AcDbLinetypeTableRecord
  2
BORDER2
 70
0
  3
Border (.5x) __.__.__.__.__.__.__.__.__.__.__.
 72
65
 73
6
 40
22.2250000000000014
 49
6.3499999999999996
 74
0
 49
-3.1749999999999998
 74
0
 49
6.3499999999999996
 74
0
 49
-3.1749999999999998
 74
0
 49
0.0
 74
0
 49
-3.1749999999999998
 74
0
  0
LTYPE
  5
42
100
AcDbSymbolTableRecord
100
AcDbLinetypeTableRecord
  2
BORDERX2
 70
0
  3
Border (2x) ____  ____  .  ____  ____  .  ___
 72
65
 73
6
 40
88.9000000000000057
 49
25.3999999999999986
 74
0
 49
-12.6999999999999993
 74
0
 49
25.3999999999999986
 74
0
 49
-12.6999999999999993
 74
0
 49
0.0
 74
0
 49
-12.6999999999999993
 74
0
  0
ENDTAB
  0
TABLE
  2
LAYER
  5
2
100
AcDbSymbolTable
 70
3
  0
LAYER
  5
10
100
AcDbSymbolTableRecord
100
AcDbLayerTableRecord
  2
0
 70
0
 62
7
  6
CONTINUOUS
370
0
390
F
  0
LAYER
  5
43
100
AcDbSymbolTableRecord
100
AcDbLayerTableRecord
  2
helper
 70
1
 62
5
  6
CONTINUOUS
370
0
390
F
  0
LAYER
  5
44
100
AcDbSymbolTableRecord
100
AcDbLayerTableRecord
  2
dimensions
 70
1
 62
1
  6
CONTINUOUS
370
0
390
F
  0
ENDTAB
  0
TABLE
  2
STYLE
  5
3
100
AcDbSymbolTable
 70
1
  0
STYLE
  5
11
100
AcDbSymbolTableRecord
100
AcDbTextStyleTableRecord
  2
Standard
 70
0
 40
0.0
 41
0.75
 50
0.0
 71
0
 42
2.5
  3
txt
  4

  0
ENDTAB
  0
TABLE
  2
VIEW
  5
6
100
AcDbSymbolTable
 70
0
  0
ENDTAB
  0
TABLE
  2
UCS
  5
7
100
AcDbSymbolTable
 70
0
  0
ENDTAB
  0
TABLE
  2
APPID
  5
9
100
AcDbSymbolTable
 70
1
  0
APPID
  5
12
100
AcDbSymbolTableRecord
100
AcDbRegAppTableRecord
  2
ACAD
 70
0
  0
ENDTAB
  0
TABLE
  2
DIMSTYLE
  5
A
100
AcDbSymbolTable
 70
1
100
AcDbDimStyleTable
 71
0
  0
DIMSTYLE
105
27
100
AcDbSymbolTableRecord
100
AcDbDimStyleTableRecord
  2
Standard
 41
2.5
 42
0.625
 43
3.75
 44
1.25
 70
0
 73
0
 74
0
 77
1
 78
8
140
2.5
141
2.5
143
0.03937007874016
147
0.625
171
3
172
1
271
2
272
2
274
3
278
44
283
0
284
8
340
11
  0
ENDTAB
  0
TABLE
  2
BLOCK_RECORD
  5
1
100
AcDbSymbolTable
 70
1
  0
BLOCK_RECORD
  5
1F
100
AcDbSymbolTableRecord
100
AcDbBlockTableRecord
  2
*Model_Space
340
22
  0
BLOCK_RECORD
  5
1B
100
AcDbSymbolTableRecord
100
AcDbBlockTableRecord
  2
*Paper_Space
340
1E
  0
BLOCK_RECORD
  5
23
100
AcDbSymbolTableRecord
100
AcDbBlockTableRecord
  2
*Paper_Space0
340
26
  0
ENDTAB
  0
ENDSEC
  0
SECTION
  2
BLOCKS
  0
BLOCK
  5
20
100
AcDbEntity
  8
0
100
AcDbBlockBegin
  2
*Model_Space
 70
0
 10
0.0
 20
0.0
 30
0.0
  3
*Model_Space
  1

  0
ENDBLK
  5
21
100
AcDbEntity
  8
0
100
AcDbBlockEnd
  0
BLOCK
  5
1C
100
AcDbEntity
 67
1
  8
0
100
AcDbBlockBegin
  2
*Paper_Space
 70
0
 10
0.0
 20
0.0
 30
0.0
  3
*Paper_Space
  1

  0
ENDBLK
  5
1D
100
AcDbEntity
 67
1
  8
0
100
AcDbBlockEnd
  0
BLOCK
  5
24
100
AcDbEntity
  8
0
100
AcDbBlockBegin
  2
*Paper_Space0
 70
0
 10
0.0
 20
0.0
 30
0.0
  3
*Paper_Space0
  1

  0
ENDBLK
  5
25
100
AcDbEntity
  8
0
100
AcDbBlockEnd
  0
ENDSEC
  0
SECTION
  2
ENTITIES
  0
CIRCLE
  5
45
100
AcDbEntity
100
AcDbCircle
  8
0
 62
256
370
-1
  6
ByLayer
 10
60.0
 20
60.0
 30
0.0
 40
7.0
  0
CIRCLE
  5
46
100
AcDbEntity
100
AcDbCircle
  8
0
 62
256
370
-1
  6
ByLayer
 10
72.7279220613578161
 20
72.7279220613578161
 30
0.0
 40
1.5
  0
CIRCLE
  5
47
100
AcDbEntity
100
AcDbCircle
  8
0
 62
256
370
-1
  6
ByLayer
 10
72.7279220613578161
 20
47.2720779386421839
 30
0.0
 40
1.5
  0
CIRCLE
  5
48
100
AcDbEntity
100
AcDbCircle
  8
0
 62
256
370
-1
  6
ByLayer
 10
47.2720779386421697
 20
47.2720779386421697
 30
0.0
 40
1.5
  0
CIRCLE
  5
49
100
AcDbEntity
100
AcDbCircle
  8
0
 62
256
370
-1
  6
ByLayer
 10
47.2720779386421697
 20
72.7279220613578303
 30
0.0
 40
1.5
  0
CIRCLE
  5
4A
100
AcDbEntity
100
AcDbCircle
  8
0
 62
256
370
-1
  6
ByLayer
 10
6.6629354950987185
 20
113.3370645049012779
 30
0.0
 40
1.5
  0
CIRCLE
  5
4B
100
AcDbEntity
100
AcDbCircle
  8
0
 62
256
370
-1
  6
ByLayer
 10
113.3370645049012779
 20
113.3370645049012779
 30
0.0
 40
1.5
  0
CIRCLE
  5
4C
100
AcDbEntity
100
AcDbCircle
  8
0
 62
256
370
-1
  6
ByLayer
 10
113.3370645049012779
 20
6.6629354950987185
 30
0.0
 40
1.5
  0
CIRCLE
  5
4D
100
AcDbEntity
100
AcDbCircle
  8
0
 62
256
370
-1
  6
ByLayer
 10
6.6629354950987114
 20
6.6629354950987114
 30
0.0
 40
1.5
  0
CIRCLE
  5
4E
100
AcDbEntity
100
AcDbCircle
  8
0
 62
256
370
-1
  6
ByLayer
 10
60.0
 20
105.5
 30
0.0
 40
1.5
  0
CIRCLE
  5
4F
100
AcDbEntity
100
AcDbCircle
  8
0
 62
256
370
-1
  6
ByLayer
 10
105.5
 20
60.0
 30
0.0
 40
1.5
  0
CIRCLE
  5
50
100
AcDbEntity
100
AcDbCircle
  8
0
 62
256
370
-1
  6
ByLayer
 10
60.0
 20
14.5
 30
0.0
 40
1.5
  0
CIRCLE
  5
51
100
AcDbEntity
100
AcDbCircle
  8
0
 62
256
370
-1
  6
ByLayer
 10
14.5
 20
60.0
 30
0.0
 40
1.5
  0
DIMENSION
  5
52
100
AcDbEntity
  8
dimensions
 62
256
370
-1
  6
ByLayer
100
AcDbDimension
 10
113.3370645049012779
 20
113.3370645049012779
 30
0.0
 11
91.706668068404781
 21
94.3583184978543272
 31
0.0
 70
1
 71
5
 72
0
 41
1.0
 42
0.0
  1

  3
Standard
100
AcDbAlignedDimension
 13
72.7279220613578161
 23
72.7279220613578161
 33
0.0
 14
113.3370645049012779
 24
113.3370645049012779
 34
0.0
  0
DIMENSION
  5
53
100
AcDbEntity
  8
dimensions
 62
256
370
-1
  6
ByLayer
100
AcDbDimension
 10
6.6629354950987185
 20
113.3370645049012779
 30
0.0
 11
60.0
 21
115.2120645049012779
 31
0.0
 70
1
 71
5
 72
0
 41
1.0
 42
0.0
  1

  3
Standard
100
AcDbAlignedDimension
 13
113.3370645049012779
 23
113.3370645049012779
 33
0.0
 14
6.6629354950987185
 24
113.3370645049012779
 34
0.0
  0
LINE
  5
54
100
AcDbEntity
100
AcDbLine
  8
helper
 62
256
370
-1
  6
ByLayer
 10
0.0
 20
60.0
 30
0.0
 11
120.0
 21
60.0
 31
0.0
  0
LINE
  5
55
100
AcDbEntity
100
AcDbLine
  8
helper
 62
256
370
-1
  6
ByLayer
 10
60.0
 20
120.0
 30
0.0
 11
60.0
 21
0.0
 31
0.0
  0
LINE
  5
56
100
AcDbEntity
100
AcDbLine
  8
helper
 62
256
370
-1
  6
ByLayer
 10
0.0
 20
120.0
 30
0.0
 11
120.0
 21
0.0
 31
0.0
  0
LINE
  5
57
100
AcDbEntity
100
AcDbLine
  8
helper
 62
256
370
-1
  6
ByLayer
 10
0.0
 20
0.0
 30
0.0
 11
120.0
 21
120.0
 31
0.0
  0
DIMENSION
  5
58
100
AcDbEntity
  8
dimensions
 62
256
370
-1
  6
ByLayer
100
AcDbDimension
 10
14.5
 20
60.0000000000000071
 30
0.0
 11
37.2500000000000071
 21
61.875
 31
0.0
 70
1
 71
5
 72
1
 41
1.0
 42
0.0
  1

  3
Standard
100
AcDbAlignedDimension
 13
60.0
 23
60.0
 33
0.0
 14
14.5
 24
60.0
 34
0.0
  0
LINE
  5
59
100
AcDbEntity
100
AcDbLine
  8
helper
 62
256
370
-1
  6
ByLayer
 10
14.5
 20
120.0000000000000142
 30
0.0
 11
14.5
 21
0.0000000000000167
 31
0.0
  0
LINE
  5
5A
100
AcDbEntity
100
AcDbLine
  8
helper
 62
256
370
-1
  6
ByLayer
 10
105.5
 20
119.9999999999999858
 30
0.0
 11
105.5
 21
-0.0000000000000111
 31
0.0
  0
LINE
  5
5B
100
AcDbEntity
100
AcDbLine
  8
helper
 62
256
370
-1
  6
ByLayer
 10
-0.0000000000000084
 20
14.5
 30
0.0
 11
119.9999999999999858
 21
14.5
 31
0.0
  0
LINE
  5
5C
100
AcDbEntity
100
AcDbLine
  8
helper
 62
256
370
-1
  6
ByLayer
 10
0.0000000000000028
 20
105.5
 30
0.0
 11
120.0
 21
105.5
 31
0.0
  0
LINE
  5
5D
100
AcDbEntity
100
AcDbLine
  8
helper
 62
256
370
-1
  6
ByLayer
 10
9.5
 20
120.0000000000000142
 30
0.0
 11
9.5
 21
0.0000000000000186
 31
0.0
  0
LINE
  5
5E
100
AcDbEntity
100
AcDbLine
  8
helper
 62
256
370
-1
  6
ByLayer
 10
110.5
 20
119.9999999999999858
 30
0.0
 11
110.5
 21
-0.0000000000000124
 31
0.0
  0
LINE
  5
5F
100
AcDbEntity
100
AcDbLine
  8
helper
 62
256
370
-1
  6
ByLayer
 10
-0.0000000000000093
 20
9.5
 30
0.0
 11
119.9999999999999858
 21
9.5
 31
0.0
  0
LINE
  5
60
100
AcDbEntity
100
AcDbLine
  8
helper
 62
256
370
-1
  6
ByLayer
 10
0.0000000000000031
 20
110.5
 30
0.0
 11
120.0
 21
110.5
 31
0.0
  0
LINE
  5
61
100
AcDbEntity
100
AcDbLine
  8
helper
 62
256
370
-1
  6
ByLayer
 10
65.0
 20
120.0
 30
0.0
 11
65.0
 21
-0.0000000000000012
 31
0.0
  0
LINE
  5
62
100
AcDbEntity
100
AcDbLine
  8
helper
 62
256
370
-1
  6
ByLayer
 10
55.0
 20
120.0
 30
0.0
 11
55.0
 21
0.0000000000000018
 31
0.0
  0
LINE
  5
63
100
AcDbEntity
100
AcDbLine
  8
helper
 62
256
370
-1
  6
ByLayer
 10
0.0000000000000003
 20
65.0
 30
0.0
 11
120.0
 21
65.0
 31
0.0
  0
LINE
  5
64
100
AcDbEntity
100
AcDbLine
  8
helper
 62
256
370
-1
  6
ByLayer
 10
-0.0000000000000009
 20
55.0
 30
0.0
 11
120.0
 21
55.0
 31
0.0
  0
LINE
  5
65
100
AcDbEntity
100
AcDbLine
  8
helper
 62
256
370
-1
  6
ByLayer
 10
-3.5355339059327373
 20
3.5355339059327378
 30
0.0
 11
116.4644660940672622
 21
123.5355339059327378
 31
0.0
  0
LINE
  5
66
100
AcDbEntity
100
AcDbLine
  8
helper
 62
256
370
-1
  6
ByLayer
 10
3.5355339059327369
 20
-3.5355339059327386
 30
0.0
 11
123.5355339059327378
 21
116.4644660940672622
 31
0.0
  0
LINE
  5
67
100
AcDbEntity
100
AcDbLine
  8
helper
 62
256
370
-1
  6
ByLayer
 10
3.5355339059327386
 20
123.5355339059327378
 30
0.0
 11
123.5355339059327378
 21
3.5355339059327369
 31
0.0
  0
LINE
  5
68
100
AcDbEntity
100
AcDbLine
  8
helper
 62
256
370
-1
  6
ByLayer
 10
-3.5355339059327355
 20
116.4644660940672622
 30
0.0
 11
116.4644660940672622
 21
-3.5355339059327395
 31
0.0
  0
LINE
  5
69
100
AcDbEntity
100
AcDbLine
  8
helper
 62
256
370
-1
  6
ByLayer
 10
19.5
 20
120.0000000000000142
 30
0.0
 11
19.5
 21
0.0000000000000155
 31
0.0
  0
LINE
  5
6A
100
AcDbEntity
100
AcDbLine
  8
helper
 62
256
370
-1
  6
ByLayer
 10
100.5
 20
119.9999999999999858
 30
0.0
 11
100.5
 21
-0.0000000000000093
 31
0.0
  0
LINE
  5
6B
100
AcDbEntity
100
AcDbLine
  8
helper
 62
256
370
-1
  6
ByLayer
 10
0.0000000000000019
 20
100.5
 30
0.0
 11
120.0
 21
100.5
 31
0.0
  0
LINE
  5
6C
100
AcDbEntity
100
AcDbLine
  8
helper
 62
256
370
-1
  6
ByLayer
 10
-0.0000000000000081
 20
19.5
 30
0.0
 11
119.9999999999999858
 21
19.5
 31
0.0
  0
ARC
  5
6D
100
AcDbEntity
  8
0
 62
256
370
-1
  6
ByLayer
100
AcDbCircle
 10
12.3413410033936515
 20
98.4662708411812275
 30
0.0
 40
1.5
100
AcDbArc
 50
45.000000000000199
 51
194.5860549773736636
  0
LINE
  5
6E
100
AcDbEntity
100
AcDbLine
  8
0
 62
256
370
-1
  6
ByLayer
 10
45.3682720163547017
 20
67.5606601717798299
 30
0.0
 11
13.4020011751734742
 21
99.5269310129610574
 31
0.0
  0
ARC
  5
6F
100
AcDbEntity
  8
0
 62
256
370
-1
  6
ByLayer
100
AcDbCircle
 10
44.307611844574879
 20
66.5
 30
0.0
 40
1.5
100
AcDbArc
 50
270.0
 51
45.000000000000199
  0
LINE
  5
70
100
AcDbEntity
100
AcDbLine
  8
0
 62
256
370
-1
  6
ByLayer
 10
20.6596233550045731
 20
65.0
 30
0.0
 11
44.307611844574879
 21
65.0
 31
0.0
  0
LINE
  5
71
100
AcDbEntity
100
AcDbLine
  8
0
 62
256
370
-1
  6
ByLayer
 10
10.8896852652241254
 20
98.0885201061197591
 30
0.0
 11
19.2079676168350488
 21
66.1222492649385316
 31
0.0
  0
ARC
  5
72
100
AcDbEntity
  8
0
 62
256
370
-1
  6
ByLayer
100
AcDbCircle
 10
20.6596233550045731
 20
66.5
 30
0.0
 40
1.5
100
AcDbArc
 50
194.5860549773736636
 51
270.0
  0
ARC
  5
73
100
AcDbEntity
  8
0
 62
256
370
-1
  6
ByLayer
100
AcDbCircle
 10
20.6596233550045767
 20
53.5
 30
0.0
 40
1.5
100
AcDbArc
 50
90.0
 51
165.4139450226263932
  0
LINE
  5
74
100
AcDbEntity
100
AcDbLine
  8
0
 62
256
370
-1
  6
ByLayer
 10
10.8896852652241272
 20
21.911479893880248
 30
0.0
 11
19.2079676168350488
 21
53.8777507350614684
 31
0.0
  0
ARC
  5
75
100
AcDbEntity
  8
0
 62
256
370
-1
  6
ByLayer
100
AcDbCircle
 10
12.341341003393655
 20
21.533729158818776
 30
0.0
 40
1.5
100
AcDbArc
 50
165.4139450226262511
 51
314.9999999999997726
  0
LINE
  5
76
100
AcDbEntity
100
AcDbLine
  8
0
 62
256
370
-1
  6
ByLayer
 10
45.3682720163547017
 20
52.4393398282201773
 30
0.0
 11
13.4020011751734742
 21
20.4730689870389497
 31
0.0
  0
LINE
  5
77
100
AcDbEntity
100
AcDbLine
  8
0
 62
256
370
-1
  6
ByLayer
 10
20.6596233550045767
 20
55.0
 30
0.0
 11
44.307611844574879
 21
55.0
 31
0.0
  0
ARC
  5
78
100
AcDbEntity
  8
0
 62
256
370
-1
  6
ByLayer
100
AcDbCircle
 10
44.307611844574879
 20
53.5
 30
0.0
 40
1.5
100
AcDbArc
 50
315.0
 51
90.0
  0
ARC
  5
79
100
AcDbEntity
  8
0
 62
256
370
-1
  6
ByLayer
100
AcDbCircle
 10
53.5
 20
44.307611844574879
 30
0.0
 40
1.5
100
AcDbArc
 50
0.0
 51
135.0
  0
LINE
  5
7A
100
AcDbEntity
100
AcDbLine
  8
0
 62
256
370
-1
  6
ByLayer
 10
55.0000000000000071
 20
20.6596233550045731
 30
0.0
 11
55.0
 21
44.307611844574879
 31
0.0
  0
ARC
  5
7B
100
AcDbEntity
  8
0
 62
256
370
-1
  6
ByLayer
100
AcDbCircle
 10
53.5000000000000071
 20
20.6596233550045731
 30
0.0
 40
1.5
100
AcDbArc
 50
284.5860549773736921
 51
0.0
  0
LINE
  5
7C
100
AcDbEntity
100
AcDbLine
  8
0
 62
256
370
-1
  6
ByLayer
 10
21.911479893880248
 20
10.8896852652241272
 30
0.0
 11
53.8777507350614755
 21
19.2079676168350488
 31
0.0
  0
LINE
  5
7D
100
AcDbEntity
100
AcDbLine
  8
0
 62
256
370
-1
  6
ByLayer
 10
52.4393398282201773
 20
45.3682720163547017
 30
0.0
 11
20.4730689870389568
 21
13.4020011751734813
 31
0.0
  0
ARC
  5
7E
100
AcDbEntity
  8
0
 62
256
370
-1
  6
ByLayer
100
AcDbCircle
 10
21.533729158818776
 20
12.341341003393655
 30
0.0
 40
1.5
100
AcDbArc
 50
134.9999999999998295
 51
284.5860549773738057
  0
ARC
  5
7F
100
AcDbEntity
  8
0
 62
256
370
-1
  6
ByLayer
100
AcDbCircle
 10
66.5
 20
20.6596233550045731
 30
0.0
 40
1.5
100
AcDbArc
 50
180.0
 51
255.4139450226263079
  0
LINE
  5
80
100
AcDbEntity
100
AcDbLine
  8
0
 62
256
370
-1
  6
ByLayer
 10
98.0885201061197591
 20
10.8896852652241272
 30
0.0
 11
66.1222492649385316
 21
19.2079676168350488
 31
0.0
  0
ARC
  5
81
100
AcDbEntity
  8
0
 62
256
370
-1
  6
ByLayer
100
AcDbCircle
 10
98.4662708411812275
 20
12.3413410033936515
 30
0.0
 40
1.5
100
AcDbArc
 50
255.4139450226263079
 51
44.9999999999998082
  0
LINE
  5
82
100
AcDbEntity
100
AcDbLine
  8
0
 62
256
370
-1
  6
ByLayer
 10
67.5606601717798299
 20
45.3682720163547017
 30
0.0
 11
99.5269310129610574
 21
13.4020011751734742
 31
0.0
  0
LINE
  5
83
100
AcDbEntity
100
AcDbLine
  8
0
 62
256
370
-1
  6
ByLayer
 10
65.0
 20
20.6596233550045731
 30
0.0
 11
65.0
 21
44.307611844574879
 31
0.0
  0
ARC
  5
84
100
AcDbEntity
  8
0
 62
256
370
-1
  6
ByLayer
100
AcDbCircle
 10
66.5
 20
44.307611844574879
 30
0.0
 40
1.5
100
AcDbArc
 50
44.9999999999998082
 51
180.0
  0
ARC
  5
85
100
AcDbEntity
  8
0
 62
256
370
-1
  6
ByLayer
100
AcDbCircle
 10
107.6586589966063343
 20
21.5337291588187689
 30
0.0
 40
1.5
100
AcDbArc
 50
224.9999999999993179
 51
14.5860549773738537
  0
LINE
  5
86
100
AcDbEntity
100
AcDbLine
  8
0
 62
256
370
-1
  6
ByLayer
 10
109.1103147347758693
 20
21.9114798938802444
 30
0.0
 11
100.7920323831649512
 21
53.8777507350614755
 31
0.0
  0
ARC
  5
87
100
AcDbEntity
  8
0
 62
256
370
-1
  6
ByLayer
100
AcDbCircle
 10
99.3403766449954162
 20
53.5
 30
0.0
 40
1.5
100
AcDbArc
 50
14.5860549773738537
 51
90.0
  0
LINE
  5
88
100
AcDbEntity
100
AcDbLine
  8
0
 62
256
370
-1
  6
ByLayer
 10
99.3403766449954162
 20
55.0
 30
0.0
 11
75.6923881554251068
 21
55.0
 31
0.0
  0
LINE
  5
89
100
AcDbEntity
100
AcDbLine
  8
0
 62
256
370
-1
  6
ByLayer
 10
74.6317279836452911
 20
52.4393398282201844
 30
0.0
 11
106.5979988248265045
 21
20.4730689870389639
 31
0.0
  0
ARC
  5
8A
100
AcDbEntity
  8
0
 62
256
370
-1
  6
ByLayer
100
AcDbCircle
 10
75.6923881554251068
 20
53.5
 30
0.0
 40
1.5
100
AcDbArc
 50
90.0
 51
225.0
  0
ARC
  5
8B
100
AcDbEntity
  8
0
 62
256
370
-1
  6
ByLayer
100
AcDbCircle
 10
99.3403766449954162
 20
66.5
 30
0.0
 40
1.5
100
AcDbArc
 50
270.0
 51
345.4139450226264216
  0
LINE
  5
8C
100
AcDbEntity
100
AcDbLine
  8
0
 62
256
370
-1
  6
ByLayer
 10
109.1103147347758693
 20
98.0885201061197591
 30
0.0
 11
100.7920323831649512
 21
66.1222492649385316
 31
0.0
  0
ARC
  5
8D
100
AcDbEntity
  8
0
 62
256
370
-1
  6
ByLayer
100
AcDbCircle
 10
107.6586589966063343
 20
98.4662708411812275
 30
0.0
 40
1.5
100
AcDbArc
 50
345.4139450226264216
 51
135.0000000000007674
  0
LINE
  5
8E
100
AcDbEntity
100
AcDbLine
  8
0
 62
256
370
-1
  6
ByLayer
 10
74.6317279836452911
 20
67.5606601717798156
 30
0.0
 11
106.5979988248265045
 21
99.526931012961029
 31
0.0
  0
LINE
  5
8F
100
AcDbEntity
100
AcDbLine
  8
0
 62
256
370
-1
  6
ByLayer
 10
99.3403766449954162
 20
65.0
 30
0.0
 11
75.6923881554251068
 21
65.0
 31
0.0
  0
ARC
  5
90
100
AcDbEntity
  8
0
 62
256
370
-1
  6
ByLayer
100
AcDbCircle
 10
75.6923881554251068
 20
66.5
 30
0.0
 40
1.5
100
AcDbArc
 50
135.0
 51
270.0
  0
ARC
  5
91
100
AcDbEntity
  8
0
 62
256
370
-1
  6
ByLayer
100
AcDbCircle
 10
98.4662708411812275
 20
107.6586589966063343
 30
0.0
 40
1.5
100
AcDbArc
 50
314.999999999999261
 51
104.5860549773735926
  0
LINE
  5
92
100
AcDbEntity
100
AcDbLine
  8
0
 62
256
370
-1
  6
ByLayer
 10
98.0885201061197591
 20
109.1103147347758693
 30
0.0
 11
66.1222492649385316
 21
100.7920323831649512
 31
0.0
  0
ARC
  5
93
100
AcDbEntity
  8
0
 62
256
370
-1
  6
ByLayer
100
AcDbCircle
 10
66.5
 20
99.3403766449954162
 30
0.0
 40
1.5
100
AcDbArc
 50
104.5860549773735926
 51
180.0
  0
LINE
  5
94
100
AcDbEntity
100
AcDbLine
  8
0
 62
256
370
-1
  6
ByLayer
 10
65.0
 20
99.3403766449954162
 30
0.0
 11
65.0
 21
75.6923881554251068
 31
0.0
  0
LINE
  5
95
100
AcDbEntity
100
AcDbLine
  8
0
 62
256
370
-1
  6
ByLayer
 10
67.5606601717798156
 20
74.6317279836452911
 30
0.0
 11
99.526931012961029
 21
106.5979988248265045
 31
0.0
  0
ARC
  5
96
100
AcDbEntity
  8
0
 62
256
370
-1
  6
ByLayer
100
AcDbCircle
 10
66.5
 20
75.6923881554251068
 30
0.0
 40
1.5
100
AcDbArc
 50
180.0
 51
315.0
  0
ARC
  5
97
100
AcDbEntity
  8
0
 62
256
370
-1
  6
ByLayer
100
AcDbCircle
 10
53.5
 20
99.3403766449954304
 30
0.0
 40
1.5
100
AcDbArc
 50
0.0
 51
75.4139450226262795
  0
LINE
  5
98
100
AcDbEntity
100
AcDbLine
  8
0
 62
256
370
-1
  6
ByLayer
 10
21.9114798938802302
 20
109.1103147347758835
 30
0.0
 11
53.8777507350614684
 21
100.7920323831649512
 31
0.0
  0
ARC
  5
99
100
AcDbEntity
  8
0
 62
256
370
-1
  6
ByLayer
100
AcDbCircle
 10
21.5337291588187583
 20
107.6586589966063485
 30
0.0
 40
1.5
100
AcDbArc
 50
75.4139450226262795
 51
225.0
  0
LINE
  5
9A
100
AcDbEntity
100
AcDbLine
  8
0
 62
256
370
-1
  6
ByLayer
 10
52.4393398282201844
 20
74.6317279836452911
 30
0.0
 11
20.4730689870389426
 21
106.5979988248265329
 31
0.0
  0
LINE
  5
9B
100
AcDbEntity
100
AcDbLine
  8
0
 62
256
370
-1
  6
ByLayer
 10
55.0
 20
99.3403766449954304
 30
0.0
 11
55.0
 21
75.6923881554251068
 31
0.0
  0
ARC
  5
9C
100
AcDbEntity
  8
0
 62
256
370
-1
  6
ByLayer
100
AcDbCircle
 10
53.5
 20
75.6923881554251068
 30
0.0
 40
1.5
100
AcDbArc
 50
225.0
 51
0.0
  0
LINE
  5
9D
100
AcDbEntity
100
AcDbLine
  8
0
 62
256
370
-1
  6
ByLayer
 10
54.8310163278472302
 20
110.5396381453197847
 30
0.0
 11
14.5
 21
120.0000000000000142
 31
0.0
  0
ARC
  5
9E
100
AcDbEntity
  8
0
 62
256
370
-1
  6
ByLayer
100
AcDbCircle
 10
55.1735703431425932
 20
112.0
 30
0.0
 40
1.5
100
AcDbArc
 50
256.7989128242942343
 51
270.0
  0
LINE
  5
9F
100
AcDbEntity
100
AcDbLine
  8
0
 62
256
370
-1
  6
ByLayer
 10
64.8264296568573997
 20
110.5
 30
0.0
 11
55.1735703431425932
 21
110.5
 31
0.0
  0
LINE
  5
A0
100
AcDbEntity
100
AcDbLine
  8
0
 62
256
370
-1
  6
ByLayer
 10
105.5
 20
119.9999999999999858
 30
0.0
 11
65.1689836721527627
 21
110.5396381453197847
 31
0.0
  0
ARC
  5
A1
100
AcDbEntity
  8
0
 62
256
370
-1
  6
ByLayer
100
AcDbCircle
 10
64.8264296568573997
 20
112.0
 30
0.0
 40
1.5
100
AcDbArc
 50
270.0
 51
283.2010871757057089
  0
LINE
  5
A2
100
AcDbEntity
100
AcDbLine
  8
0
 62
256
370
-1
  6
ByLayer
 10
110.5396381453197847
 20
65.1689836721527627
 30
0.0
 11
120.0
 21
105.5
 31
0.0
  0
ARC
  5
A3
100
AcDbEntity
  8
0
 62
256
370
-1
  6
ByLayer
100
AcDbCircle
 10
112.0
 20
64.8264296568573997
 30
0.0
 40
1.5
100
AcDbArc
 50
166.7989128242942911
 51
180.0
  0
LINE
  5
A4
100
AcDbEntity
100
AcDbLine
  8
0
 62
256
370
-1
  6
ByLayer
 10
110.5
 20
55.1735703431425932
 30
0.0
 11
110.5
 21
64.8264296568573997
 31
0.0
  0
LINE
  5
A5
100
AcDbEntity
100
AcDbLine
  8
0
 62
256
370
-1
  6
ByLayer
 10
119.9999999999999858
 20
14.5
 30
0.0
 11
110.5396381453197847
 21
54.8310163278472373
 31
0.0
  0
ARC
  5
A6
100
AcDbEntity
  8
0
 62
256
370
-1
  6
ByLayer
100
AcDbCircle
 10
112.0
 20
55.1735703431425932
 30
0.0
 40
1.5
100
AcDbArc
 50
180.0
 51
193.2010871757054815
  0
LINE
  5
A7
100
AcDbEntity
100
AcDbLine
  8
0
 62
256
370
-1
  6
ByLayer
 10
65.1689836721527769
 20
9.4603618546802135
 30
0.0
 11
105.5
 21
-0.0000000000000111
 31
0.0
  0
ARC
  5
A8
100
AcDbEntity
  8
0
 62
256
370
-1
  6
ByLayer
100
AcDbCircle
 10
64.8264296568574139
 20
8.0
 30
0.0
 40
1.5
100
AcDbArc
 50
76.7989128242942769
 51
90.0
  0
LINE
  5
A9
100
AcDbEntity
100
AcDbLine
  8
0
 62
256
370
-1
  6
ByLayer
 10
55.1735703431425719
 20
9.5
 30
0.0
 11
64.8264296568574139
 21
9.5
 31
0.0
  0
LINE
  5
AA
100
AcDbEntity
100
AcDbLine
  8
0
 62
256
370
-1
  6
ByLayer
 10
14.5
 20
0.0000000000000167
 30
0.0
 11
54.8310163278472089
 21
9.46036185468021
 31
0.0
  0
ARC
  5
AB
100
AcDbEntity
  8
0
 62
256
370
-1
  6
ByLayer
100
AcDbCircle
 10
55.1735703431425719
 20
8.0
 30
0.0
 40
1.5
100
AcDbArc
 50
90.0
 51
103.2010871757057799
  0
LINE
  5
AC
100
AcDbEntity
100
AcDbLine
  8
0
 62
256
370
-1
  6
ByLayer
 10
9.46036185468021
 20
54.831016327847216
 30
0.0
 11
-0.0000000000000084
 21
14.5
 31
0.0
  0
ARC
  5
AD
100
AcDbEntity
  8
0
 62
256
370
-1
  6
ByLayer
100
AcDbCircle
 10
8.0
 20
55.1735703431425719
 30
0.0
 40
1.5
100
AcDbArc
 50
346.7989128242945185
 51
0.0
  0
LINE
  5
AE
100
AcDbEntity
100
AcDbLine
  8
0
 62
256
370
-1
  6
ByLayer
 10
9.5
 20
64.8264296568574139
 30
0.0
 11
9.5
 21
55.1735703431425719
 31
0.0
  0
LINE
  5
AF
100
AcDbEntity
100
AcDbLine
  8
0
 62
256
370
-1
  6
ByLayer
 10
0.0000000000000028
 20
105.5
 30
0.0
 11
9.4603618546802153
 21
65.1689836721527627
 31
0.0
  0
ARC
  5
B0
100
AcDbEntity
  8
0
 62
256
370
-1
  6
ByLayer
100
AcDbCircle
 10
8.0
 20
64.8264296568574139
 30
0.0
 40
1.5
100
AcDbArc
 50
0.0
 51
13.201087175705176
  0
LINE
  5
B1
100
AcDbEntity
100
AcDbLine
  8
0
 62
256
370
-1
  6
ByLayer
 10
0.0000000000000003
 20
118.5
 30
0.0
 11
0.0000000000000028
 21
105.5
 31
0.0
  0
LINE
  5
B2
100
AcDbEntity
100
AcDbLine
  8
0
 62
256
370
-1
  6
ByLayer
 10
14.5
 20
120.0000000000000142
 30
0.0
 11
1.4999999999999982
 21
120.0
 31
0.0
  0
ARC
  5
B3
100
AcDbEntity
  8
0
 62
256
370
-1
  6
ByLayer
100
AcDbCircle
 10
1.5000000000000002
 20
118.5
 30
0.0
 40
1.5
100
AcDbArc
 50
90.0000000000000711
 51
180.0
  0
LINE
  5
B4
100
AcDbEntity
100
AcDbLine
  8
0
 62
256
370
-1
  6
ByLayer
 10
118.5
 20
120.0
 30
0.0
 11
105.5
 21
119.9999999999999858
 31
0.0
  0
LINE
  5
B5
100
AcDbEntity
100
AcDbLine
  8
0
 62
256
370
-1
  6
ByLayer
 10
120.0
 20
105.5
 30
0.0
 11
120.0
 21
118.5
 31
0.0
  0
ARC
  5
B6
100
AcDbEntity
  8
0
 62
256
370
-1
  6
ByLayer
100
AcDbCircle
 10
118.5
 20
118.5
 30
0.0
 40
1.5
100
AcDbArc
 50
0.0
 51
90.0
  0
LINE
  5
B7
100
AcDbEntity
100
AcDbLine
  8
0
 62
256
370
-1
  6
ByLayer
 10
120.0
 20
1.5000000000000002
 30
0.0
 11
119.9999999999999858
 21
14.5
 31
0.0
  0
LINE
  5
B8
100
AcDbEntity
100
AcDbLine
  8
0
 62
256
370
-1
  6
ByLayer
 10
105.5
 20
-0.0000000000000111
 30
0.0
 11
118.5
 21
-0.0000000000000012
 31
0.0
  0
ARC
  5
B9
100
AcDbEntity
  8
0
 62
256
370
-1
  6
ByLayer
100
AcDbCircle
 10
118.5
 20
1.4999999999999989
 30
0.0
 40
1.5
100
AcDbArc
 50
270.0
 51
0.0
  0
LINE
  5
BA
100
AcDbEntity
100
AcDbLine
  8
0
 62
256
370
-1
  6
ByLayer
 10
-0.0000000000000084
 20
14.5
 30
0.0
 11
-0.0000000000000009
 21
1.5
 31
0.0
  0
LINE
  5
BB
100
AcDbEntity
100
AcDbLine
  8
0
 62
256
370
-1
  6
ByLayer
 10
1.5000000000000009
 20
0.0000000000000017
 30
0.0
 11
14.5
 21
0.0000000000000167
 31
0.0
  0
ARC
  5
BC
100
AcDbEntity
  8
0
 62
256
370
-1
  6
ByLayer
100
AcDbCircle
 10
1.4999999999999991
 20
1.5000000000000018
 30
0.0
 40
1.5
100
AcDbArc
 50
180.0
 51
270.0000000000000568
  0
ENDSEC
  0
SECTION
  2
OBJECTS
  0
DICTIONARY
  5
C
100
AcDbDictionary
280
0
281
1
  3
ACAD_GROUP
350
D
  3
ACAD_LAYOUT
350
1A
  3
ACAD_MLINESTYLE
350
17
  3
ACAD_PLOTSETTINGS
350
19
  3
ACAD_PLOTSTYLENAME
350
E
  3
AcDbVariableDictionary
350
BD
  0
DICTIONARY
  5
D
100
AcDbDictionary
280
0
281
1
  0
ACDBDICTIONARYWDFLT
  5
E
100
AcDbDictionary
281
1
  3
Normal
350
F
100
AcDbDictionaryWithDefault
340
F
  0
ACDBPLACEHOLDER
  5
F
  0
DICTIONARY
  5
17
100
AcDbDictionary
280
0
281
1
  3
Standard
350
18
  0
MLINESTYLE
  5
18
100
AcDbMlineStyle
  2
STANDARD
 70
0
  3

 62
256
 51
90.0
 52
90.0
 71
2
 49
0.5
 62
256
  6
BYLAYER
 49
-0.5
 62
256
  6
BYLAYER
  0
DICTIONARY
  5
19
100
AcDbDictionary
280
0
281
1
  0
DICTIONARY
  5
1A
100
AcDbDictionary
281
1
  3
Layout1
350
1E
  3
Layout2
350
26
  3
Model
350
22
  0
LAYOUT
  5
1E
100
AcDbPlotSettings
  1

  2
C:\Program Files\AutoCAD 2002\plotters\DWF ePlot (optimized for plotting).pc3
  4

  6

 40
0.0
 41
0.0
 42
0.0
 43
0.0
 44
0.0
 45
0.0
 46
0.0
 47
0.0
 48
0.0
 49
0.0
140
0.0
141
0.0
142
1.0
143
1.0
 70
688
 72
0
 73
0
 74
5
  7

 75
16
147
1.0
148
0.0
149
0.0
100
AcDbLayout
  1
Layout1
 70
1
 71
1
 10
0.0
 20
0.0
 11
420.0
 21
297.0
 12
0.0
 22
0.0
 32
0.0
 14
100000000000000000000.0
 24
100000000000000000000.0
 34
100000000000000000000.0
 15
-100000000000000000000.0
 25
-100000000000000000000.0
 35
-100000000000000000000.0
146
0.0
 13
0.0
 23
0.0
 33
0.0
 16
1.0
 26
0.0
 36
0.0
 17
0.0
 27
1.0
 37
0.0
 76
0
330
1B
  0
LAYOUT
  5
22
100
AcDbPlotSettings
  1

  2
C:\Program Files\AutoCAD 2002\plotters\DWF ePlot (optimized for plotting).pc3
  4

  6

 40
0.0
 41
0.0
 42
0.0
 43
0.0
 44
0.0
 45
0.0
 46
0.0
 47
0.0
 48
0.0
 49
0.0
140
0.0
141
0.0
142
1.0
143
1.0
 70
1712
 72
0
 73
0
 74
0
  7

 75
0
147
1.0
148
0.0
149
0.0
100
AcDbLayout
  1
Model
 70
1
 71
0
 10
0.0
 20
0.0
 11
12.0
 21
9.0
 12
0.0
 22
0.0
 32
0.0
 14
0.0
 24
0.0
 34
0.0
 15
0.0
 25
0.0
 35
0.0
146
0.0
 13
0.0
 23
0.0
 33
0.0
 16
1.0
 26
0.0
 36
0.0
 17
0.0
 27
1.0
 37
0.0
 76
0
330
1F
  0
LAYOUT
  5
26
100
AcDbPlotSettings
  1

  2
C:\Program Files\AutoCAD 2002\plotters\DWF ePlot (optimized for plotting).pc3
  4

  6

 40
0.0
 41
0.0
 42
0.0
 43
0.0
 44
0.0
 45
0.0
 46
0.0
 47
0.0
 48
0.0
 49
0.0
140
0.0
141
0.0
142
1.0
143
1.0
 70
688
 72
0
 73
0
 74
5
  7

 75
16
147
1.0
148
0.0
149
0.0
100
AcDbLayout
  1
Layout2
 70
1
 71
2
 10
0.0
 20
0.0
 11
12.0
 21
9.0
 12
0.0
 22
0.0
 32
0.0
 14
0.0
 24
0.0
 34
0.0
 15
0.0
 25
0.0
 35
0.0
146
0.0
 13
0.0
 23
0.0
 33
0.0
 16
1.0
 26
0.0
 36
0.0
 17
0.0
 27
1.0
 37
0.0
 76
0
330
23
  0
DICTIONARY
  5
BD
100
AcDbDictionary
281
1
  3
DIMASSOC
350
BF
  3
HIDETEXT
350
BE
  0
DICTIONARYVAR
  5
BE
100
DictionaryVariables
280
0
  1
2
  0
DICTIONARYVAR
  5
BF
100
DictionaryVariables
280
0
  1
1
  0
ENDSEC
  0
EOF
