999
dxflib 2.2.0.0
  0
SECTION
  2
HEADER
  9
$ACADVER
  1
AC1015
  9
$HANDSEED
  5
FFFF
  9
$DIMASZ
 40
2.5
  9
$PLIMMIN
 10
0.0
 20
0.0
  9
$DIMEXE
 40
1.25
  9
$DIMGAP
 40
0.625
  9
$PLIMMAX
 10
210.0
 20
297.0
  9
$PSVPSCALE
 40
1.0
  9
$PINSBASE
 10
74.8947368421052175
 20
221.4473684210525448
 30
0.0
  9
$INSUNITS
 70
4
  9
$DIMSTYLE
  2
Standard
  9
$DIMEXO
 40
0.625
  9
$DIMTXT
 40
2.5
  0
ENDSEC
  0
SECTION
  2
TABLES
  0
TABLE
  2
VPORT
  5
8
100
AcDbSymbolTable
 70
1
  0
VPORT
  5
30
100
AcDbSymbolTableRecord
100
AcDbViewportTableRecord
  2
*Active
 70
0
 10
0.0
 20
0.0
 11
1.0
 21
1.0
 12
286.3055555555554861
 22
148.5
 13
0.0
 23
0.0
 14
10.0
 24
10.0
 15
10.0
 25
10.0
 16
0.0
 26
0.0
 36
1.0
 17
0.0
 27
0.0
 37
0.0
 40
297.0
 41
1.92798353909465
 42
50.0
 43
0.0
 44
0.0
 50
0.0
 51
0.0
 71
0
 72
100
 73
1
 74
3
 75
1
 76
1
 77
0
 78
0
281
0
 65
1
110
0.0
120
0.0
130
0.0
111
1.0
121
0.0
131
0.0
112
0.0
122
1.0
132
0.0
 79
0
146
0.0
  0
ENDTAB
  0
TABLE
  2
LTYPE
  5
5
100
AcDbSymbolTable
 70
21
  0
LTYPE
  5
14
100
AcDbSymbolTableRecord
100
AcDbLinetypeTableRecord
  2
ByBlock
 70
0
  3

 72
65
 73
0
 40
0.0
  0
LTYPE
  5
15
100
AcDbSymbolTableRecord
100
AcDbLinetypeTableRecord
  2
ByLayer
 70
0
  3

 72
65
 73
0
 40
0.0
  0
LTYPE
  5
16
100
AcDbSymbolTableRecord
100
AcDbLinetypeTableRecord
  2
CONTINUOUS
 70
0
  3
Solid line
 72
65
 73
0
 40
0.0
  0
LTYPE
  5
31
100
AcDbSymbolTableRecord
100
AcDbLinetypeTableRecord
  2
DOT
 70
0
  3
Dot . . . . . . . . . . . . . . . . . . . . . .
 72
65
 73
2
 40
6.3499999999999996
 49
0.0
 74
0
 49
-6.3499999999999996
 74
0
  0
LTYPE
  5
32
100
AcDbSymbolTableRecord
100
AcDbLinetypeTableRecord
  2
DOT2
 70
0
  3
Dot (.5x) .....................................
 72
65
 73
2
 40
3.1749999999999998
 49
0.0
 74
0
 49
-3.1749999999999998
 74
0
  0
LTYPE
  5
33
100
AcDbSymbolTableRecord
100
AcDbLinetypeTableRecord
  2
DOTX2
 70
0
  3
Dot (2x) .  .  .  .  .  .  .  .  .  .  .  .  .
 72
65
 73
2
 40
12.6999999999999993
 49
0.0
 74
0
 49
-12.6999999999999993
 74
0
  0
LTYPE
  5
34
100
AcDbSymbolTableRecord
100
AcDbLinetypeTableRecord
  2
DASHED
 70
0
  3
Dashed __ __ __ __ __ __ __ __ __ __ __ __ __ _
 72
65
 73
2
 40
19.0500000000000007
 49
12.6999999999999993
 74
0
 49
-6.3499999999999996
 74
0
  0
LTYPE
  5
35
100
AcDbSymbolTableRecord
100
AcDbLinetypeTableRecord
  2
DASHED2
 70
0
  3
Dashed (.5x) _ _ _ _ _ _ _ _ _ _ _ _ _ _ _ _ _
 72
65
 73
2
 40
9.5250000000000004
 49
6.3499999999999996
 74
0
 49
-3.1749999999999998
 74
0
  0
LTYPE
  5
36
100
AcDbSymbolTableRecord
100
AcDbLinetypeTableRecord
  2
DASHEDX2
 70
0
  3
Dashed (2x) ____  ____  ____  ____  ____  ___
 72
65
 73
2
 40
38.1000000000000014
 49
25.3999999999999986
 74
0
 49
-12.6999999999999993
 74
0
  0
LTYPE
  5
37
100
AcDbSymbolTableRecord
100
AcDbLinetypeTableRecord
  2
DASHDOT
 70
0
  3
Dash dot __ . __ . __ . __ . __ . __ . __ . __
 72
65
 73
4
 40
25.3999999999999986
 49
12.6999999999999993
 74
0
 49
-6.3499999999999996
 74
0
 49
0.0
 74
0
 49
-6.3499999999999996
 74
0
  0
LTYPE
  5
38
100
AcDbSymbolTableRecord
100
AcDbLinetypeTableRecord
  2
DASHDOT2
 70
0
  3
Dash dot (.5x) _._._._._._._._._._._._._._._.
 72
65
 73
4
 40
12.6999999999999993
 49
6.3499999999999996
 74
0
 49
-3.1749999999999998
 74
0
 49
0.0
 74
0
 49
-3.1749999999999998
 74
0
  0
LTYPE
  5
39
100
AcDbSymbolTableRecord
100
AcDbLinetypeTableRecord
  2
DASHDOTX2
 70
0
  3
Dash dot (2x) ____  .  ____  .  ____  .  ___
 72
65
 73
4
 40
50.7999999999999972
 49
25.3999999999999986
 74
0
 49
-12.6999999999999993
 74
0
 49
0.0
 74
0
 49
-12.6999999999999993
 74
0
  0
LTYPE
  5
3A
100
AcDbSymbolTableRecord
100
AcDbLinetypeTableRecord
  2
DIVIDE
 70
0
  3
Divide ____ . . ____ . . ____ . . ____ . . ____
 72
65
 73
6
 40
31.75
 49
12.6999999999999993
 74
0
 49
-6.3499999999999996
 74
0
 49
0.0
 74
0
 49
-6.3499999999999996
 74
0
 49
0.0
 74
0
 49
-6.3499999999999996
 74
0
  0
LTYPE
  5
3B
100
AcDbSymbolTableRecord
100
AcDbLinetypeTableRecord
  2
DIVIDE2
 70
0
  3
Divide (.5x) __..__..__..__..__..__..__..__.._
 72
65
 73
6
 40
15.875
 49
6.3499999999999996
 74
0
 49
-3.1749999999999998
 74
0
 49
0.0
 74
0
 49
-3.1749999999999998
 74
0
 49
0.0
 74
0
 49
-3.1749999999999998
 74
0
  0
LTYPE
  5
3C
100
AcDbSymbolTableRecord
100
AcDbLinetypeTableRecord
  2
DIVIDEX2
 70
0
  3
Divide (2x) ________  .  .  ________  .  .  _
 72
65
 73
6
 40
63.5
 49
25.3999999999999986
 74
0
 49
-12.6999999999999993
 74
0
 49
0.0
 74
0
 49
-12.6999999999999993
 74
0
 49
0.0
 74
0
 49
-12.6999999999999993
 74
0
  0
LTYPE
  5
3D
100
AcDbSymbolTableRecord
100
AcDbLinetypeTableRecord
  2
CENTER
 70
0
  3
Center ____ _ ____ _ ____ _ ____ _ ____ _ ____
 72
65
 73
4
 40
50.7999999999999972
 49
31.75
 74
0
 49
-6.3499999999999996
 74
0
 49
6.3499999999999996
 74
0
 49
-6.3499999999999996
 74
0
  0
LTYPE
  5
3E
100
AcDbSymbolTableRecord
100
AcDbLinetypeTableRecord
  2
CENTER2
 70
0
  3
Center (.5x) ___ _ ___ _ ___ _ ___ _ ___ _ ___
 72
65
 73
4
 40
28.5749999999999993
 49
19.0500000000000007
 74
0
 49
-3.1749999999999998
 74
0
 49
3.1749999999999998
 74
0
 49
-3.1749999999999998
 74
0
  0
LTYPE
  5
3F
100
AcDbSymbolTableRecord
100
AcDbLinetypeTableRecord
  2
CENTERX2
 70
0
  3
Center (2x) ________  __  ________  __  _____
 72
65
 73
4
 40
101.5999999999999943
 49
63.5
 74
0
 49
-12.6999999999999993
 74
0
 49
12.6999999999999993
 74
0
 49
-12.6999999999999993
 74
0
  0
LTYPE
  5
40
100
AcDbSymbolTableRecord
100
AcDbLinetypeTableRecord
  2
BORDER
 70
0
  3
Border __ __ . __ __ . __ __ . __ __ . __ __ .
 72
65
 73
6
 40
44.4500000000000028
 49
12.6999999999999993
 74
0
 49
-6.3499999999999996
 74
0
 49
12.6999999999999993
 74
0
 49
-6.3499999999999996
 74
0
 49
0.0
 74
0
 49
-6.3499999999999996
 74
0
  0
LTYPE
  5
41
100
AcDbSymbolTableRecord
100
AcDbLinetypeTableRecord
  2
BORDER2
 70
0
  3
Border (.5x) __.__.__.__.__.__.__.__.__.__.__.
 72
65
 73
6
 40
22.2250000000000014
 49
6.3499999999999996
 74
0
 49
-3.1749999999999998
 74
0
 49
6.3499999999999996
 74
0
 49
-3.1749999999999998
 74
0
 49
0.0
 74
0
 49
-3.1749999999999998
 74
0
  0
LTYPE
  5
42
100
AcDbSymbolTableRecord
100
AcDbLinetypeTableRecord
  2
BORDERX2
 70
0
  3
Border (2x) ____  ____  .  ____  ____  .  ___
 72
65
 73
6
 40
88.9000000000000057
 49
25.3999999999999986
 74
0
 49
-12.6999999999999993
 74
0
 49
25.3999999999999986
 74
0
 49
-12.6999999999999993
 74
0
 49
0.0
 74
0
 49
-12.6999999999999993
 74
0
  0
ENDTAB
  0
TABLE
  2
LAYER
  5
2
100
AcDbSymbolTable
 70
14
  0
LAYER
  5
10
100
AcDbSymbolTableRecord
100
AcDbLayerTableRecord
  2
0
 70
1
 62
7
  6
CONTINUOUS
290
1
370
0
390
F
  0
LAYER
  5
43
100
AcDbSymbolTableRecord
100
AcDbLayerTableRecord
  2
props_8inch
 70
0
 62
9
  6
CONTINUOUS
290
1
370
0
390
F
  0
LAYER
  5
44
100
AcDbSymbolTableRecord
100
AcDbLayerTableRecord
  2
motor
 70
0
 62
8
  6
CONTINUOUS
290
1
370
0
390
F
  0
LAYER
  5
45
100
AcDbSymbolTableRecord
100
AcDbLayerTableRecord
  2
motor_mount
 70
0
 62
6
  6
CONTINUOUS
290
1
370
0
390
F
  0
LAYER
  5
46
100
AcDbSymbolTableRecord
100
AcDbLayerTableRecord
  2
helper
 70
1
 62
5
  6
CONTINUOUS
290
1
370
0
390
F
  0
LAYER
  5
47
100
AcDbSymbolTableRecord
100
AcDbLayerTableRecord
  2
dimensions
 70
1
 62
1
  6
CONTINUOUS
290
1
370
0
390
F
  0
LAYER
  5
48
100
AcDbSymbolTableRecord
100
AcDbLayerTableRecord
  2
boom
 70
1
 62
2
  6
CONTINUOUS
290
1
370
0
390
F
  0
LAYER
  5
49
100
AcDbSymbolTableRecord
100
AcDbLayerTableRecord
  2
boom_holder
 70
1
 62
6
  6
CONTINUOUS
290
1
370
0
390
F
  0
LAYER
  5
4A
100
AcDbSymbolTableRecord
100
AcDbLayerTableRecord
  2
helper_center
 70
1
 62
5
  6
DOT
290
1
370
0
390
F
  0
LAYER
  5
4B
100
AcDbSymbolTableRecord
100
AcDbLayerTableRecord
  2
carrier_cc_top
 70
0
 62
4
  6
CONTINUOUS
290
1
370
0
390
F
  0
LAYER
  5
4C
100
AcDbSymbolTableRecord
100
AcDbLayerTableRecord
  2
helper_cc
 70
1
 62
5
  6
CENTER
290
1
370
0
390
F
  0
LAYER
  5
4D
100
AcDbSymbolTableRecord
100
AcDbLayerTableRecord
  2
center_plate
 70
1
 62
3
  6
CONTINUOUS
290
1
370
0
390
F
  0
LAYER
  5
4E
100
AcDbSymbolTableRecord
100
AcDbLayerTableRecord
  2
carrier_cc_bottom
 70
1
 62
134
  6
CONTINUOUS
290
1
370
0
390
F
  0
LAYER
  5
4F
100
AcDbSymbolTableRecord
100
AcDbLayerTableRecord
  2
helper_carrier
 70
1
 62
5
  6
DASHED
290
1
370
0
390
F
  0
ENDTAB
  0
TABLE
  2
STYLE
  5
3
100
AcDbSymbolTable
 70
1
  0
STYLE
  5
11
100
AcDbSymbolTableRecord
100
AcDbTextStyleTableRecord
  2
Standard
 70
0
 40
0.0
 41
0.75
 50
0.0
 71
0
 42
2.5
  3
txt
  4

  0
ENDTAB
  0
TABLE
  2
VIEW
  5
6
100
AcDbSymbolTable
 70
0
  0
ENDTAB
  0
TABLE
  2
UCS
  5
7
100
AcDbSymbolTable
 70
0
  0
ENDTAB
  0
TABLE
  2
APPID
  5
9
100
AcDbSymbolTable
 70
1
  0
APPID
  5
12
100
AcDbSymbolTableRecord
100
AcDbRegAppTableRecord
  2
ACAD
 70
0
  0
ENDTAB
  0
TABLE
  2
DIMSTYLE
  5
A
100
AcDbSymbolTable
 70
1
100
AcDbDimStyleTable
 71
0
  0
DIMSTYLE
105
27
100
AcDbSymbolTableRecord
100
AcDbDimStyleTableRecord
  2
Standard
 41
2.5
 42
0.625
 43
3.75
 44
1.25
 70
0
 73
0
 74
0
 77
1
 78
8
140
2.5
141
2.5
143
0.03937007874016
147
0.625
171
3
172
1
271
2
272
2
274
3
278
44
283
0
284
8
340
11
  0
ENDTAB
  0
TABLE
  2
BLOCK_RECORD
  5
1
100
AcDbSymbolTable
 70
1
  0
BLOCK_RECORD
  5
1F
100
AcDbSymbolTableRecord
100
AcDbBlockTableRecord
  2
*Model_Space
340
22
  0
BLOCK_RECORD
  5
1B
100
AcDbSymbolTableRecord
100
AcDbBlockTableRecord
  2
*Paper_Space
340
1E
  0
BLOCK_RECORD
  5
23
100
AcDbSymbolTableRecord
100
AcDbBlockTableRecord
  2
*Paper_Space0
340
26
  0
ENDTAB
  0
ENDSEC
  0
SECTION
  2
BLOCKS
  0
BLOCK
  5
20
100
AcDbEntity
  8
0
100
AcDbBlockBegin
  2
*Model_Space
 70
0
 10
0.0
 20
0.0
 30
0.0
  3
*Model_Space
  1

  0
ENDBLK
  5
21
100
AcDbEntity
  8
0
100
AcDbBlockEnd
  0
BLOCK
  5
1C
100
AcDbEntity
 67
1
  8
0
100
AcDbBlockBegin
  2
*Paper_Space
 70
0
 10
0.0
 20
0.0
 30
0.0
  3
*Paper_Space
  1

  0
ENDBLK
  5
1D
100
AcDbEntity
 67
1
  8
0
100
AcDbBlockEnd
  0
BLOCK
  5
24
100
AcDbEntity
  8
0
100
AcDbBlockBegin
  2
*Paper_Space0
 70
0
 10
0.0
 20
0.0
 30
0.0
  3
*Paper_Space0
  1

  0
ENDBLK
  5
25
100
AcDbEntity
  8
0
100
AcDbBlockEnd
  0
ENDSEC
  0
SECTION
  2
ENTITIES
  0
LINE
  5
50
100
AcDbEntity
100
AcDbLine
  8
helper
 62
256
370
-1
  6
ByLayer
 10
-400.0
 20
0.0
 30
0.0
 11
400.0
 21
0.0
 31
0.0
  0
LINE
  5
51
100
AcDbEntity
100
AcDbLine
  8
helper
 62
256
370
-1
  6
ByLayer
 10
0.0
 20
400.0
 30
0.0
 11
0.0
 21
-400.0
 31
0.0
  0
CIRCLE
  5
52
100
AcDbEntity
100
AcDbCircle
  8
helper
 62
256
370
-1
  6
ByLayer
 10
0.0
 20
0.0
 30
0.0
 40
31.5
  0
LINE
  5
53
100
AcDbEntity
100
AcDbLine
  8
helper
 62
256
370
-1
  6
ByLayer
 10
-200.0
 20
200.0
 30
0.0
 11
200.0
 21
-200.0
 31
0.0
  0
LINE
  5
54
100
AcDbEntity
100
AcDbLine
  8
helper
 62
256
370
-1
  6
ByLayer
 10
200.0
 20
200.0
 30
0.0
 11
-200.0
 21
-200.0
 31
0.0
  0
CIRCLE
  5
55
100
AcDbEntity
100
AcDbCircle
  8
boom_holder
 62
256
370
-1
  6
ByLayer
 10
-55.0
 20
0.0
 30
0.0
 40
1.55
  0
CIRCLE
  5
56
100
AcDbEntity
100
AcDbCircle
  8
boom
 62
256
370
-1
  6
ByLayer
 10
-55.0
 20
0.0
 30
0.0
 40
1.55
  0
DIMENSION
  5
57
100
AcDbEntity
  8
dimensions
 62
256
370
-1
  6
ByLayer
100
AcDbDimension
 10
-4.9999999999999813
 20
62.5
 30
0.0
 11
-35.075825214724766
 21
35.0758252147247731
 31
0.0
 70
1
 71
5
 72
0
 41
1.0
 42
0.0
  1

  3
Standard
100
AcDbAlignedDimension
 13
-62.5
 23
5.0
 33
0.0
 14
-4.9999999999999813
 24
62.5
 34
0.0
  0
CIRCLE
  5
58
100
AcDbEntity
100
AcDbCircle
  8
helper_cc
 62
256
370
-1
  6
ByLayer
 10
0.0
 20
0.0
 30
0.0
 40
21.5667568261896996
  0
LINE
  5
59
100
AcDbEntity
100
AcDbLine
  8
helper_cc
 62
256
370
-1
  6
ByLayer
 10
-400.0
 20
18.0
 30
0.0
 11
400.0
 21
18.0
 31
0.0
  0
LINE
  5
5A
100
AcDbEntity
100
AcDbLine
  8
helper_cc
 62
256
370
-1
  6
ByLayer
 10
-400.0
 20
-18.0
 30
0.0
 11
400.0
 21
-18.0
 31
0.0
  0
LINE
  5
5B
100
AcDbEntity
100
AcDbLine
  8
helper_cc
 62
256
370
-1
  6
ByLayer
 10
18.0
 20
400.0
 30
0.0
 11
18.0
 21
-400.0
 31
0.0
  0
LINE
  5
5C
100
AcDbEntity
100
AcDbLine
  8
helper_cc
 62
256
370
-1
  6
ByLayer
 10
-18.0
 20
400.0
 30
0.0
 11
-18.0
 21
-400.0
 31
0.0
  0
LINE
  5
5D
100
AcDbEntity
100
AcDbLine
  8
helper_cc
 62
256
370
-1
  6
ByLayer
 10
-187.2720779386421555
 20
212.7279220613578445
 30
0.0
 11
212.7279220613578445
 21
-187.2720779386421555
 31
0.0
  0
LINE
  5
5E
100
AcDbEntity
100
AcDbLine
  8
helper_cc
 62
256
370
-1
  6
ByLayer
 10
-212.7279220613578445
 20
187.272077938642127
 30
0.0
 11
187.2720779386421555
 21
-212.727922061357873
 31
0.0
  0
LINE
  5
5F
100
AcDbEntity
100
AcDbLine
  8
helper_cc
 62
256
370
-1
  6
ByLayer
 10
212.7279220613578445
 20
187.2720779386421555
 30
0.0
 11
-187.2720779386421555
 21
-212.7279220613578445
 31
0.0
  0
LINE
  5
60
100
AcDbEntity
100
AcDbLine
  8
helper_cc
 62
256
370
-1
  6
ByLayer
 10
187.2720779386421555
 20
212.727922061357873
 30
0.0
 11
-212.7279220613578445
 21
-187.272077938642127
 31
0.0
  0
CIRCLE
  5
61
100
AcDbEntity
100
AcDbCircle
  8
helper_cc
 62
256
370
-1
  6
ByLayer
 10
0.0
 20
0.0
 30
0.0
 40
27.5
  0
CIRCLE
  5
62
100
AcDbEntity
100
AcDbCircle
  8
helper_cc
 62
256
370
-1
  6
ByLayer
 10
0.0
 20
0.0
 30
0.0
 40
12.5
  0
CIRCLE
  5
63
100
AcDbEntity
100
AcDbCircle
  8
center_plate
 62
256
370
-1
  6
ByLayer
 10
-55.0
 20
0.0
 30
0.0
 40
1.55
  0
CIRCLE
  5
64
100
AcDbEntity
100
AcDbCircle
  8
center_plate
 62
256
370
-1
  6
ByLayer
 10
-17.5
 20
0.0
 30
0.0
 40
1.55
  0
CIRCLE
  5
65
100
AcDbEntity
100
AcDbCircle
  8
center_plate
 62
256
370
-1
  6
ByLayer
 10
0.0000000000000054
 20
17.5
 30
0.0
 40
1.55
  0
CIRCLE
  5
66
100
AcDbEntity
100
AcDbCircle
  8
center_plate
 62
256
370
-1
  6
ByLayer
 10
0.0000000000000168
 20
55.0
 30
0.0
 40
1.55
  0
CIRCLE
  5
67
100
AcDbEntity
100
AcDbCircle
  8
center_plate
 62
256
370
-1
  6
ByLayer
 10
17.5
 20
-0.0000000000000043
 30
0.0
 40
1.55
  0
CIRCLE
  5
68
100
AcDbEntity
100
AcDbCircle
  8
center_plate
 62
256
370
-1
  6
ByLayer
 10
55.0
 20
-0.0000000000000135
 30
0.0
 40
1.55
  0
CIRCLE
  5
69
100
AcDbEntity
100
AcDbCircle
  8
center_plate
 62
256
370
-1
  6
ByLayer
 10
-0.0000000000000032
 20
-17.5
 30
0.0
 40
1.55
  0
CIRCLE
  5
6A
100
AcDbEntity
100
AcDbCircle
  8
center_plate
 62
256
370
-1
  6
ByLayer
 10
-0.0000000000000101
 20
-55.0
 30
0.0
 40
1.55
  0
CIRCLE
  5
6B
100
AcDbEntity
100
AcDbCircle
  8
center_plate
 62
256
370
-1
  6
ByLayer
 10
19.5144167945285218
 20
-19.5144167945285325
 30
0.0
 40
1.55
  0
CIRCLE
  5
6C
100
AcDbEntity
100
AcDbCircle
  8
center_plate
 62
256
370
-1
  6
ByLayer
 10
19.5144167945285325
 20
19.5144167945285218
 30
0.0
 40
1.55
  0
CIRCLE
  5
6D
100
AcDbEntity
100
AcDbCircle
  8
center_plate
 62
256
370
-1
  6
ByLayer
 10
-19.514416794528529
 20
19.514416794528529
 30
0.0
 40
1.55
  0
CIRCLE
  5
6E
100
AcDbEntity
100
AcDbCircle
  8
center_plate
 62
256
370
-1
  6
ByLayer
 10
-19.5144167945285325
 20
-19.5144167945285254
 30
0.0
 40
1.55
  0
CIRCLE
  5
6F
100
AcDbEntity
100
AcDbCircle
  8
center_plate
 62
256
370
-1
  6
ByLayer
 10
0.0
 20
0.0
 30
0.0
 40
4.0
  0
POINT
  5
70
100
AcDbEntity
100
AcDbPoint
  8
center_plate
 62
256
370
-1
  6
ByLayer
 10
-19.514416794528529
 20
19.514416794528529
 30
0.0
  0
POINT
  5
71
100
AcDbEntity
100
AcDbPoint
  8
center_plate
 62
256
370
-1
  6
ByLayer
 10
0.0000000000000054
 20
17.5
 30
0.0
  0
POINT
  5
72
100
AcDbEntity
100
AcDbPoint
  8
center_plate
 62
256
370
-1
  6
ByLayer
 10
19.5144167945285325
 20
19.5144167945285218
 30
0.0
  0
POINT
  5
73
100
AcDbEntity
100
AcDbPoint
  8
center_plate
 62
256
370
-1
  6
ByLayer
 10
19.5144167945285218
 20
-19.5144167945285325
 30
0.0
  0
POINT
  5
74
100
AcDbEntity
100
AcDbPoint
  8
center_plate
 62
256
370
-1
  6
ByLayer
 10
-0.0000000000000032
 20
-17.5
 30
0.0
  0
POINT
  5
75
100
AcDbEntity
100
AcDbPoint
  8
center_plate
 62
256
370
-1
  6
ByLayer
 10
-19.5144167945285325
 20
-19.5144167945285254
 30
0.0
  0
POINT
  5
76
100
AcDbEntity
100
AcDbPoint
  8
center_plate
 62
256
370
-1
  6
ByLayer
 10
-55.0
 20
0.0
 30
0.0
  0
POINT
  5
77
100
AcDbEntity
100
AcDbPoint
  8
center_plate
 62
256
370
-1
  6
ByLayer
 10
-17.5
 20
0.0
 30
0.0
  0
POINT
  5
78
100
AcDbEntity
100
AcDbPoint
  8
center_plate
 62
256
370
-1
  6
ByLayer
 10
17.5
 20
-0.0000000000000043
 30
0.0
  0
POINT
  5
79
100
AcDbEntity
100
AcDbPoint
  8
center_plate
 62
256
370
-1
  6
ByLayer
 10
55.0
 20
-0.0000000000000135
 30
0.0
  0
POINT
  5
7A
100
AcDbEntity
100
AcDbPoint
  8
center_plate
 62
256
370
-1
  6
ByLayer
 10
-0.0000000000000101
 20
-55.0
 30
0.0
  0
POINT
  5
7B
100
AcDbEntity
100
AcDbPoint
  8
center_plate
 62
256
370
-1
  6
ByLayer
 10
0.0000000000000168
 20
55.0
 30
0.0
  0
POINT
  5
7C
100
AcDbEntity
100
AcDbPoint
  8
center_plate
 62
256
370
-1
  6
ByLayer
 10
-31.5
 20
0.0
 30
0.0
  0
POINT
  5
7D
100
AcDbEntity
100
AcDbPoint
  8
center_plate
 62
256
370
-1
  6
ByLayer
 10
31.5
 20
0.0
 30
0.0
  0
POINT
  5
7E
100
AcDbEntity
100
AcDbPoint
  8
center_plate
 62
256
370
-1
  6
ByLayer
 10
0.0
 20
31.5
 30
0.0
  0
POINT
  5
7F
100
AcDbEntity
100
AcDbPoint
  8
center_plate
 62
256
370
-1
  6
ByLayer
 10
0.0
 20
-31.5
 30
0.0
  0
CIRCLE
  5
80
100
AcDbEntity
100
AcDbCircle
  8
center_plate
 62
256
370
-1
  6
ByLayer
 10
0.0
 20
31.5
 30
0.0
 40
1.55
  0
CIRCLE
  5
81
100
AcDbEntity
100
AcDbCircle
  8
center_plate
 62
256
370
-1
  6
ByLayer
 10
31.5
 20
0.0
 30
0.0
 40
1.55
  0
CIRCLE
  5
82
100
AcDbEntity
100
AcDbCircle
  8
center_plate
 62
256
370
-1
  6
ByLayer
 10
0.0
 20
-31.5
 30
0.0
 40
1.55
  0
CIRCLE
  5
83
100
AcDbEntity
100
AcDbCircle
  8
center_plate
 62
256
370
-1
  6
ByLayer
 10
-31.5
 20
0.0
 30
0.0
 40
1.55
  0
CIRCLE
  5
84
100
AcDbEntity
100
AcDbCircle
  8
carrier_cc_bottom
 62
256
370
-1
  6
ByLayer
 10
-31.5
 20
0.0
 30
0.0
 40
1.55
  0
CIRCLE
  5
85
100
AcDbEntity
100
AcDbCircle
  8
carrier_cc_bottom
 62
256
370
-1
  6
ByLayer
 10
-21.5667568261896463
 20
0.0
 30
0.0
 40
1.55
  0
CIRCLE
  5
86
100
AcDbEntity
100
AcDbCircle
  8
carrier_cc_bottom
 62
256
370
-1
  6
ByLayer
 10
-15.25
 20
15.25
 30
0.0
 40
1.55
  0
CIRCLE
  5
87
100
AcDbEntity
100
AcDbCircle
  8
carrier_cc_bottom
 62
256
370
-1
  6
ByLayer
 10
-0.0000000000000058
 20
-31.5
 30
0.0
 40
1.55
  0
CIRCLE
  5
88
100
AcDbEntity
100
AcDbCircle
  8
carrier_cc_bottom
 62
256
370
-1
  6
ByLayer
 10
-0.000000000000004
 20
-21.5667568261896463
 30
0.0
 40
1.55
  0
CIRCLE
  5
89
100
AcDbEntity
100
AcDbCircle
  8
carrier_cc_bottom
 62
256
370
-1
  6
ByLayer
 10
-15.2500000000000036
 20
-15.2499999999999982
 30
0.0
 40
1.55
  0
CIRCLE
  5
8A
100
AcDbEntity
100
AcDbCircle
  8
carrier_cc_bottom
 62
256
370
-1
  6
ByLayer
 10
31.5
 20
-0.0000000000000077
 30
0.0
 40
1.55
  0
CIRCLE
  5
8B
100
AcDbEntity
100
AcDbCircle
  8
carrier_cc_bottom
 62
256
370
-1
  6
ByLayer
 10
21.5667568261896463
 20
-0.0000000000000053
 30
0.0
 40
1.55
  0
CIRCLE
  5
8C
100
AcDbEntity
100
AcDbCircle
  8
carrier_cc_bottom
 62
256
370
-1
  6
ByLayer
 10
15.2499999999999964
 20
-15.2500000000000036
 30
0.0
 40
1.55
  0
CIRCLE
  5
8D
100
AcDbEntity
100
AcDbCircle
  8
carrier_cc_bottom
 62
256
370
-1
  6
ByLayer
 10
0.0000000000000096
 20
31.5
 30
0.0
 40
1.55
  0
CIRCLE
  5
8E
100
AcDbEntity
100
AcDbCircle
  8
carrier_cc_bottom
 62
256
370
-1
  6
ByLayer
 10
0.0000000000000066
 20
21.5667568261896463
 30
0.0
 40
1.55
  0
CIRCLE
  5
8F
100
AcDbEntity
100
AcDbCircle
  8
carrier_cc_bottom
 62
256
370
-1
  6
ByLayer
 10
15.2500000000000036
 20
15.2499999999999964
 30
0.0
 40
1.55
  0
CIRCLE
  5
90
100
AcDbEntity
100
AcDbCircle
  8
carrier_cc_bottom
 62
256
370
-1
  6
ByLayer
 10
0.0
 20
0.0
 30
0.0
 40
17.5
  0
ARC
  5
91
100
AcDbEntity
  8
carrier_cc_bottom
 62
256
370
-1
  6
ByLayer
100
AcDbCircle
 10
-30.186917696247157
 20
9.0
 30
0.0
 40
4.0
100
AcDbArc
 50
270.0
 51
343.3984504009799821
  0
ARC
  5
92
100
AcDbEntity
  8
carrier_cc_bottom
 62
256
370
-1
  6
ByLayer
100
AcDbCircle
 10
-30.186917696247157
 20
-9.0
 30
0.0
 40
4.0
100
AcDbArc
 50
16.6015495990201778
 51
90.0
  0
ARC
  5
93
100
AcDbEntity
  8
carrier_cc_bottom
 62
256
370
-1
  6
ByLayer
100
AcDbCircle
 10
30.1869176962471535
 20
-9.0000000000000018
 30
0.0
 40
4.0
100
AcDbArc
 50
89.9999999999999005
 51
163.3984504009800389
  0
ARC
  5
94
100
AcDbEntity
  8
carrier_cc_bottom
 62
256
370
-1
  6
ByLayer
100
AcDbCircle
 10
30.1869176962471641
 20
8.9999999999999876
 30
0.0
 40
4.0
100
AcDbArc
 50
196.6015495990200179
 51
270.0000000000001137
  0
ARC
  5
95
100
AcDbEntity
  8
carrier_cc_bottom
 62
256
370
-1
  6
ByLayer
100
AcDbCircle
 10
-0.0000000000001477
 20
0.0000000000001527
 30
0.0
 40
27.4999999999998082
100
AcDbArc
 50
106.6015495990200321
 51
163.3984504009799537
  0
ARC
  5
96
100
AcDbEntity
  8
carrier_cc_bottom
 62
256
370
-1
  6
ByLayer
100
AcDbCircle
 10
-8.9999999999999858
 20
30.1869176962471641
 30
0.0
 40
4.0
100
AcDbArc
 50
286.6015495990200748
 51
0.0000000000001018
  0
ARC
  5
97
100
AcDbEntity
  8
carrier_cc_bottom
 62
256
370
-1
  6
ByLayer
100
AcDbCircle
 10
0.0000000000001527
 20
0.0000000000001477
 30
0.0
 40
27.4999999999998082
100
AcDbArc
 50
16.6015495990200357
 51
73.3984504009799537
  0
ARC
  5
98
100
AcDbEntity
  8
carrier_cc_bottom
 62
256
370
-1
  6
ByLayer
100
AcDbCircle
 10
9.0000000000000036
 20
30.1869176962471535
 30
0.0
 40
4.0
100
AcDbArc
 50
179.9999999999998579
 51
253.3984504009798968
  0
ARC
  5
99
100
AcDbEntity
  8
carrier_cc_bottom
 62
256
370
-1
  6
ByLayer
100
AcDbCircle
 10
0.0000000000001477
 20
-0.0000000000001527
 30
0.0
 40
27.4999999999998082
100
AcDbArc
 50
286.6015495990200748
 51
343.3984504009799252
  0
ARC
  5
9A
100
AcDbEntity
  8
carrier_cc_bottom
 62
256
370
-1
  6
ByLayer
100
AcDbCircle
 10
8.9999999999999893
 20
-30.1869176962471606
 30
0.0
 40
4.0
100
AcDbArc
 50
106.6015495990200463
 51
180.0000000000001137
  0
ARC
  5
9B
100
AcDbEntity
  8
carrier_cc_bottom
 62
256
370
-1
  6
ByLayer
100
AcDbCircle
 10
-0.0000000000001527
 20
-0.0000000000001477
 30
0.0
 40
27.4999999999998082
100
AcDbArc
 50
196.6015495990200179
 51
253.3984504009799537
  0
ARC
  5
9C
100
AcDbEntity
  8
carrier_cc_bottom
 62
256
370
-1
  6
ByLayer
100
AcDbCircle
 10
-9.0
 20
-30.186917696247157
 30
0.0
 40
4.0
100
AcDbArc
 50
359.9999999999998863
 51
73.3984504009800247
  0
POINT
  5
9D
100
AcDbEntity
100
AcDbPoint
  8
carrier_cc_bottom
 62
256
370
-1
  6
ByLayer
 10
-31.5
 20
0.0
 30
0.0
  0
POINT
  5
9E
100
AcDbEntity
100
AcDbPoint
  8
carrier_cc_bottom
 62
256
370
-1
  6
ByLayer
 10
-21.5667568261896463
 20
0.0
 30
0.0
  0
POINT
  5
9F
100
AcDbEntity
100
AcDbPoint
  8
carrier_cc_bottom
 62
256
370
-1
  6
ByLayer
 10
-15.25
 20
15.25
 30
0.0
  0
POINT
  5
A0
100
AcDbEntity
100
AcDbPoint
  8
carrier_cc_bottom
 62
256
370
-1
  6
ByLayer
 10
0.0000000000000066
 20
21.5667568261896463
 30
0.0
  0
POINT
  5
A1
100
AcDbEntity
100
AcDbPoint
  8
carrier_cc_bottom
 62
256
370
-1
  6
ByLayer
 10
15.2500000000000036
 20
15.2499999999999964
 30
0.0
  0
POINT
  5
A2
100
AcDbEntity
100
AcDbPoint
  8
carrier_cc_bottom
 62
256
370
-1
  6
ByLayer
 10
21.5667568261896463
 20
-0.0000000000000053
 30
0.0
  0
POINT
  5
A3
100
AcDbEntity
100
AcDbPoint
  8
carrier_cc_bottom
 62
256
370
-1
  6
ByLayer
 10
31.5
 20
-0.0000000000000077
 30
0.0
  0
POINT
  5
A4
100
AcDbEntity
100
AcDbPoint
  8
carrier_cc_bottom
 62
256
370
-1
  6
ByLayer
 10
15.2499999999999964
 20
-15.2500000000000036
 30
0.0
  0
POINT
  5
A5
100
AcDbEntity
100
AcDbPoint
  8
carrier_cc_bottom
 62
256
370
-1
  6
ByLayer
 10
-0.000000000000004
 20
-21.5667568261896463
 30
0.0
  0
POINT
  5
A6
100
AcDbEntity
100
AcDbPoint
  8
carrier_cc_bottom
 62
256
370
-1
  6
ByLayer
 10
-15.2500000000000036
 20
-15.2499999999999982
 30
0.0
  0
POINT
  5
A7
100
AcDbEntity
100
AcDbPoint
  8
carrier_cc_bottom
 62
256
370
-1
  6
ByLayer
 10
-0.0000000000000058
 20
-31.5
 30
0.0
  0
POINT
  5
A8
100
AcDbEntity
100
AcDbPoint
  8
carrier_cc_bottom
 62
256
370
-1
  6
ByLayer
 10
0.0000000000000096
 20
31.5
 30
0.0
  0
CIRCLE
  5
A9
100
AcDbEntity
100
AcDbCircle
  8
props_8inch
 62
256
370
-1
  6
ByLayer
 10
-160.0
 20
0.0
 30
0.0
 40
101.5999999999999943
  0
CIRCLE
  5
AA
100
AcDbEntity
100
AcDbCircle
  8
props_8inch
 62
256
370
-1
  6
ByLayer
 10
-0.0000000000000294
 20
-160.0
 30
0.0
 40
101.5999999999999943
  0
CIRCLE
  5
AB
100
AcDbEntity
100
AcDbCircle
  8
props_8inch
 62
256
370
-1
  6
ByLayer
 10
160.0
 20
-0.0000000000000392
 30
0.0
 40
101.5999999999999943
  0
CIRCLE
  5
AC
100
AcDbEntity
100
AcDbCircle
  8
props_8inch
 62
256
370
-1
  6
ByLayer
 10
0.000000000000049
 20
160.0
 30
0.0
 40
101.5999999999999943
  0
DIMENSION
  5
AD
100
AcDbEntity
  8
dimensions
 62
256
370
-1
  6
ByLayer
100
AcDbDimension
 10
160.0
 20
-0.0000000000000392
 30
0.0
 11
0.0000000000000006
 21
1.8749999999999805
 31
0.0
 70
1
 71
5
 72
1
 41
1.0
 42
0.0
  1

  3
Standard
100
AcDbAlignedDimension
 13
-160.0
 23
0.0
 33
0.0
 14
160.0
 24
-0.0000000000000392
 34
0.0
  0
LINE
  5
AE
100
AcDbEntity
100
AcDbLine
  8
helper
 62
256
370
-1
  6
ByLayer
 10
-400.0
 20
-3.0
 30
0.0
 11
400.0
 21
-3.0
 31
0.0
  0
LINE
  5
AF
100
AcDbEntity
100
AcDbLine
  8
helper
 62
256
370
-1
  6
ByLayer
 10
-400.0
 20
3.0
 30
0.0
 11
400.0
 21
3.0
 31
0.0
  0
LINE
  5
B0
100
AcDbEntity
100
AcDbLine
  8
helper
 62
256
370
-1
  6
ByLayer
 10
3.0
 20
400.0
 30
0.0
 11
3.0
 21
-400.0
 31
0.0
  0
LINE
  5
B1
100
AcDbEntity
100
AcDbLine
  8
helper
 62
256
370
-1
  6
ByLayer
 10
-3.0
 20
400.0
 30
0.0
 11
-3.0
 21
-400.0
 31
0.0
  0
CIRCLE
  5
B2
100
AcDbEntity
100
AcDbCircle
  8
motor
 62
256
370
-1
  6
ByLayer
 10
160.0
 20
-0.0000000000000392
 30
0.0
 40
14.0
  0
CIRCLE
  5
B3
100
AcDbEntity
100
AcDbCircle
  8
motor
 62
256
370
-1
  6
ByLayer
 10
-0.0000000000000294
 20
-160.0
 30
0.0
 40
14.0
  0
CIRCLE
  5
B4
100
AcDbEntity
100
AcDbCircle
  8
motor
 62
256
370
-1
  6
ByLayer
 10
-160.0
 20
0.0
 30
0.0
 40
14.0
  0
CIRCLE
  5
B5
100
AcDbEntity
100
AcDbCircle
  8
motor
 62
256
370
-1
  6
ByLayer
 10
0.000000000000049
 20
160.0
 30
0.0
 40
14.0
  0
LINE
  5
B6
100
AcDbEntity
100
AcDbLine
  8
helper
 62
256
370
-1
  6
ByLayer
 10
-400.0
 20
4.0
 30
0.0
 11
400.0
 21
4.0
 31
0.0
  0
LINE
  5
B7
100
AcDbEntity
100
AcDbLine
  8
helper
 62
256
370
-1
  6
ByLayer
 10
-400.0
 20
-4.0
 30
0.0
 11
400.0
 21
-4.0
 31
0.0
  0
LINE
  5
B8
100
AcDbEntity
100
AcDbLine
  8
helper
 62
256
370
-1
  6
ByLayer
 10
4.0
 20
400.0
 30
0.0
 11
4.0
 21
-400.0
 31
0.0
  0
LINE
  5
B9
100
AcDbEntity
100
AcDbLine
  8
helper
 62
256
370
-1
  6
ByLayer
 10
-4.0
 20
400.0
 30
0.0
 11
-4.0
 21
-400.0
 31
0.0
  0
LINE
  5
BA
100
AcDbEntity
100
AcDbLine
  8
helper
 62
256
370
-1
  6
ByLayer
 10
-160.0
 20
-4.0
 30
0.0
 11
-160.0
 21
4.0
 31
0.0
  0
LINE
  5
BB
100
AcDbEntity
100
AcDbLine
  8
helper
 62
256
370
-1
  6
ByLayer
 10
-145.0
 20
-4.0000000000000036
 30
0.0
 11
-145.0
 21
3.9999999999999964
 31
0.0
  0
LINE
  5
BC
100
AcDbEntity
100
AcDbLine
  8
helper
 62
256
370
-1
  6
ByLayer
 10
-175.0
 20
-3.9999999999999982
 30
0.0
 11
-175.0
 21
4.0000000000000018
 31
0.0
  0
LINE
  5
BD
100
AcDbEntity
100
AcDbLine
  8
helper
 62
256
370
-1
  6
ByLayer
 10
3.9999999999998539
 20
-160.0
 30
0.0
 11
-3.9999999999999125
 21
-160.0
 31
0.0
  0
LINE
  5
BE
100
AcDbEntity
100
AcDbLine
  8
helper
 62
256
370
-1
  6
ByLayer
 10
3.9999999999999605
 20
-145.0
 30
0.0
 11
-4.0000000000000133
 21
-145.0
 31
0.0
  0
LINE
  5
BF
100
AcDbEntity
100
AcDbLine
  8
helper
 62
256
370
-1
  6
ByLayer
 10
3.9999999999999334
 20
-175.0000000000000284
 30
0.0
 11
-3.9999999999999969
 21
-175.0000000000000284
 31
0.0
  0
LINE
  5
C0
100
AcDbEntity
100
AcDbLine
  8
helper
 62
256
370
-1
  6
ByLayer
 10
160.0
 20
3.9999999999998437
 30
0.0
 11
160.0
 21
-3.9999999999999223
 31
0.0
  0
LINE
  5
C1
100
AcDbEntity
100
AcDbLine
  8
helper
 62
256
370
-1
  6
ByLayer
 10
145.0
 20
3.9999999999999516
 30
0.0
 11
145.0
 21
-4.0000000000000231
 31
0.0
  0
LINE
  5
C2
100
AcDbEntity
100
AcDbLine
  8
helper
 62
256
370
-1
  6
ByLayer
 10
175.0000000000000284
 20
3.9999999999999223
 30
0.0
 11
175.0000000000000284
 21
-4.000000000000008
 31
0.0
  0
LINE
  5
C3
100
AcDbEntity
100
AcDbLine
  8
helper
 62
256
370
-1
  6
ByLayer
 10
-3.9999999999998344
 20
160.0
 30
0.0
 11
3.9999999999999321
 21
160.0
 31
0.0
  0
LINE
  5
C4
100
AcDbEntity
100
AcDbLine
  8
helper
 62
256
370
-1
  6
ByLayer
 10
-3.9999999999999427
 20
145.0
 30
0.0
 11
4.0000000000000311
 21
145.0
 31
0.0
  0
LINE
  5
C5
100
AcDbEntity
100
AcDbLine
  8
helper
 62
256
370
-1
  6
ByLayer
 10
-3.9999999999999112
 20
175.0000000000000284
 30
0.0
 11
4.0000000000000187
 21
175.0000000000000284
 31
0.0
  0
CIRCLE
  5
C6
100
AcDbEntity
100
AcDbCircle
  8
boom
 62
256
370
-1
  6
ByLayer
 10
-169.5
 20
0.0
 30
0.0
 40
1.55
  0
CIRCLE
  5
C7
100
AcDbEntity
100
AcDbCircle
  8
boom
 62
256
370
-1
  6
ByLayer
 10
-150.5
 20
0.0
 30
0.0
 40
1.55
  0
CIRCLE
  5
C8
100
AcDbEntity
100
AcDbCircle
  8
boom
 62
256
370
-1
  6
ByLayer
 10
-160.0
 20
0.0
 30
0.0
 40
2.5
  0
CIRCLE
  5
C9
100
AcDbEntity
100
AcDbCircle
  8
boom
 62
256
370
-1
  6
ByLayer
 10
-17.5
 20
0.0
 30
0.0
 40
1.55
  0
LINE
  5
CA
100
AcDbEntity
100
AcDbLine
  8
boom
 62
256
370
-1
  6
ByLayer
 10
-175.0
 20
3.0
 30
0.0
 11
-175.0
 21
-3.0
 31
0.0
  0
LINE
  5
CB
100
AcDbEntity
100
AcDbLine
  8
helper
 62
256
370
-1
  6
ByLayer
 10
-17.5
 20
-4.0
 30
0.0
 11
-17.5
 21
4.0
 31
0.0
  0
LINE
  5
CC
100
AcDbEntity
100
AcDbLine
  8
helper
 62
256
370
-1
  6
ByLayer
 10
-55.0
 20
-4.0
 30
0.0
 11
-55.0
 21
4.0
 31
0.0
  0
LINE
  5
CD
100
AcDbEntity
100
AcDbLine
  8
helper
 62
256
370
-1
  6
ByLayer
 10
-12.5
 20
-4.0000000000000009
 30
0.0
 11
-12.5
 21
3.9999999999999987
 31
0.0
  0
LINE
  5
CE
100
AcDbEntity
100
AcDbLine
  8
helper
 62
256
370
-1
  6
ByLayer
 10
-22.5
 20
-3.9999999999999996
 30
0.0
 11
-22.5
 21
4.0000000000000009
 31
0.0
  0
LINE
  5
CF
100
AcDbEntity
100
AcDbLine
  8
helper
 62
256
370
-1
  6
ByLayer
 10
-50.0
 20
-4.0000000000000009
 30
0.0
 11
-50.0
 21
3.9999999999999987
 31
0.0
  0
LINE
  5
D0
100
AcDbEntity
100
AcDbLine
  8
helper
 62
256
370
-1
  6
ByLayer
 10
-60.0
 20
-3.9999999999999996
 30
0.0
 11
-60.0
 21
4.0000000000000009
 31
0.0
  0
LINE
  5
D1
100
AcDbEntity
100
AcDbLine
  8
boom
 62
256
370
-1
  6
ByLayer
 10
-175.0
 20
3.0
 30
0.0
 11
-12.5
 21
3.0
 31
0.0
  0
LINE
  5
D2
100
AcDbEntity
100
AcDbLine
  8
boom
 62
256
370
-1
  6
ByLayer
 10
-12.5
 20
3.0
 30
0.0
 11
-12.5
 21
-3.0
 31
0.0
  0
LINE
  5
D3
100
AcDbEntity
100
AcDbLine
  8
boom
 62
256
370
-1
  6
ByLayer
 10
-12.5
 20
-3.0
 30
0.0
 11
-175.0
 21
-3.0
 31
0.0
  0
DIMENSION
  5
D4
100
AcDbEntity
  8
dimensions
 62
256
370
-1
  6
ByLayer
100
AcDbDimension
 10
-175.0
 20
10.0000000000000071
 30
0.0
 11
-93.75
 21
11.8749999999999982
 31
0.0
 70
1
 71
5
 72
1
 41
1.0
 42
0.0
  1

  3
Standard
100
AcDbAlignedDimension
 13
-12.5
 23
-0.0000000000000181
 33
0.0
 14
-175.0
 24
0.0
 34
0.0
  0
DIMENSION
  5
D5
100
AcDbEntity
  8
dimensions
 62
256
370
-1
  6
ByLayer
100
AcDbDimension
 10
-12.4999999999999982
 20
10.0
 30
0.0
 11
-6.2499999999999964
 21
11.875
 31
0.0
 70
1
 71
5
 72
1
 41
1.0
 42
0.0
  1

  3
Standard
100
AcDbAlignedDimension
 13
0.0
 23
0.0
 33
0.0
 14
-12.5
 24
0.0
 34
0.0
  0
LINE
  5
D6
100
AcDbEntity
100
AcDbLine
  8
boom_holder
 62
256
370
-1
  6
ByLayer
 10
-60.0
 20
4.0
 30
0.0
 11
-50.0
 21
4.0
 31
0.0
  0
LINE
  5
D7
100
AcDbEntity
100
AcDbLine
  8
boom_holder
 62
256
370
-1
  6
ByLayer
 10
-50.0
 20
4.0
 30
0.0
 11
-50.0
 21
-4.0
 31
0.0
  0
LINE
  5
D8
100
AcDbEntity
100
AcDbLine
  8
boom_holder
 62
256
370
-1
  6
ByLayer
 10
-50.0
 20
-4.0
 30
0.0
 11
-60.0
 21
-4.0
 31
0.0
  0
LINE
  5
D9
100
AcDbEntity
100
AcDbLine
  8
boom_holder
 62
256
370
-1
  6
ByLayer
 10
-60.0
 20
-4.0
 30
0.0
 11
-60.0
 21
4.0
 31
0.0
  0
LINE
  5
DA
100
AcDbEntity
100
AcDbLine
  8
boom_holder
 62
256
370
-1
  6
ByLayer
 10
-22.5
 20
-4.0
 30
0.0
 11
-12.5
 21
-4.0
 31
0.0
  0
LINE
  5
DB
100
AcDbEntity
100
AcDbLine
  8
boom_holder
 62
256
370
-1
  6
ByLayer
 10
-12.5
 20
-4.0
 30
0.0
 11
-12.5
 21
4.0
 31
0.0
  0
LINE
  5
DC
100
AcDbEntity
100
AcDbLine
  8
boom_holder
 62
256
370
-1
  6
ByLayer
 10
-12.5
 20
4.0
 30
0.0
 11
-22.5
 21
4.0
 31
0.0
  0
LINE
  5
DD
100
AcDbEntity
100
AcDbLine
  8
boom_holder
 62
256
370
-1
  6
ByLayer
 10
-22.5
 20
4.0
 30
0.0
 11
-22.5
 21
-4.0
 31
0.0
  0
CIRCLE
  5
DE
100
AcDbEntity
100
AcDbCircle
  8
boom_holder
 62
256
370
-1
  6
ByLayer
 10
-17.5
 20
0.0
 30
0.0
 40
1.55
  0
LINE
  5
DF
100
AcDbEntity
100
AcDbLine
  8
motor_mount
 62
256
370
-1
  6
ByLayer
 10
-175.0
 20
4.0
 30
0.0
 11
-145.0
 21
4.0
 31
0.0
  0
LINE
  5
E0
100
AcDbEntity
100
AcDbLine
  8
motor_mount
 62
256
370
-1
  6
ByLayer
 10
-145.0
 20
4.0
 30
0.0
 11
-145.0
 21
-4.0
 31
0.0
  0
LINE
  5
E1
100
AcDbEntity
100
AcDbLine
  8
motor_mount
 62
256
370
-1
  6
ByLayer
 10
-145.0
 20
-4.0
 30
0.0
 11
-175.0
 21
-4.0
 31
0.0
  0
LINE
  5
E2
100
AcDbEntity
100
AcDbLine
  8
motor_mount
 62
256
370
-1
  6
ByLayer
 10
-175.0
 20
-4.0
 30
0.0
 11
-175.0
 21
4.0
 31
0.0
  0
CIRCLE
  5
E3
100
AcDbEntity
100
AcDbCircle
  8
motor_mount
 62
256
370
-1
  6
ByLayer
 10
-150.5
 20
0.0
 30
0.0
 40
1.55
  0
CIRCLE
  5
E4
100
AcDbEntity
100
AcDbCircle
  8
motor_mount
 62
256
370
-1
  6
ByLayer
 10
-169.5
 20
0.0
 30
0.0
 40
1.55
  0
CIRCLE
  5
E5
100
AcDbEntity
100
AcDbCircle
  8
motor_mount
 62
256
370
-1
  6
ByLayer
 10
-160.0
 20
0.0
 30
0.0
 40
2.5
  0
CIRCLE
  5
E6
100
AcDbEntity
100
AcDbCircle
  8
boom
 62
256
370
-1
  6
ByLayer
 10
-0.0000000000000101
 20
-55.0
 30
0.0
 40
1.55
  0
CIRCLE
  5
E7
100
AcDbEntity
100
AcDbCircle
  8
boom
 62
256
370
-1
  6
ByLayer
 10
-0.0000000000000311
 20
-169.5
 30
0.0
 40
1.55
  0
CIRCLE
  5
E8
100
AcDbEntity
100
AcDbCircle
  8
boom
 62
256
370
-1
  6
ByLayer
 10
-0.0000000000000276
 20
-150.5
 30
0.0
 40
1.55
  0
CIRCLE
  5
E9
100
AcDbEntity
100
AcDbCircle
  8
boom
 62
256
370
-1
  6
ByLayer
 10
-0.0000000000000294
 20
-160.0
 30
0.0
 40
2.5
  0
CIRCLE
  5
EA
100
AcDbEntity
100
AcDbCircle
  8
boom
 62
256
370
-1
  6
ByLayer
 10
-0.0000000000000032
 20
-17.5
 30
0.0
 40
1.55
  0
LINE
  5
EB
100
AcDbEntity
100
AcDbLine
  8
boom
 62
256
370
-1
  6
ByLayer
 10
-2.9999999999999849
 20
-175.0
 30
0.0
 11
2.9999999999999205
 21
-175.0
 31
0.0
  0
LINE
  5
EC
100
AcDbEntity
100
AcDbLine
  8
boom
 62
256
370
-1
  6
ByLayer
 10
-2.9999999999999849
 20
-175.0
 30
0.0
 11
-3.0000000000000058
 21
-12.4999999999999982
 31
0.0
  0
LINE
  5
ED
100
AcDbEntity
100
AcDbLine
  8
boom
 62
256
370
-1
  6
ByLayer
 10
-3.0000000000000058
 20
-12.4999999999999982
 30
0.0
 11
3.0000000000000009
 21
-12.5
 31
0.0
  0
LINE
  5
EE
100
AcDbEntity
100
AcDbLine
  8
boom
 62
256
370
-1
  6
ByLayer
 10
3.0000000000000009
 20
-12.5
 30
0.0
 11
2.9999999999999205
 21
-175.0
 31
0.0
  0
CIRCLE
  5
EF
100
AcDbEntity
100
AcDbCircle
  8
boom
 62
256
370
-1
  6
ByLayer
 10
55.0
 20
-0.0000000000000135
 30
0.0
 40
1.55
  0
CIRCLE
  5
F0
100
AcDbEntity
100
AcDbCircle
  8
boom
 62
256
370
-1
  6
ByLayer
 10
169.5
 20
-0.0000000000000415
 30
0.0
 40
1.55
  0
CIRCLE
  5
F1
100
AcDbEntity
100
AcDbCircle
  8
boom
 62
256
370
-1
  6
ByLayer
 10
150.5
 20
-0.0000000000000369
 30
0.0
 40
1.55
  0
CIRCLE
  5
F2
100
AcDbEntity
100
AcDbCircle
  8
boom
 62
256
370
-1
  6
ByLayer
 10
160.0
 20
-0.0000000000000392
 30
0.0
 40
2.5
  0
CIRCLE
  5
F3
100
AcDbEntity
100
AcDbCircle
  8
boom
 62
256
370
-1
  6
ByLayer
 10
17.5
 20
-0.0000000000000043
 30
0.0
 40
1.55
  0
LINE
  5
F4
100
AcDbEntity
100
AcDbLine
  8
boom
 62
256
370
-1
  6
ByLayer
 10
175.0
 20
-2.999999999999996
 30
0.0
 11
175.0
 21
2.9999999999999103
 31
0.0
  0
LINE
  5
F5
100
AcDbEntity
100
AcDbLine
  8
boom
 62
256
370
-1
  6
ByLayer
 10
175.0
 20
-2.999999999999996
 30
0.0
 11
12.4999999999999982
 21
-3.0000000000000067
 31
0.0
  0
LINE
  5
F6
100
AcDbEntity
100
AcDbLine
  8
boom
 62
256
370
-1
  6
ByLayer
 10
12.4999999999999982
 20
-3.0000000000000067
 30
0.0
 11
12.5
 21
3.0000000000000004
 31
0.0
  0
LINE
  5
F7
100
AcDbEntity
100
AcDbLine
  8
boom
 62
256
370
-1
  6
ByLayer
 10
12.5
 20
3.0000000000000004
 30
0.0
 11
175.0
 21
2.9999999999999103
 31
0.0
  0
CIRCLE
  5
F8
100
AcDbEntity
100
AcDbCircle
  8
boom
 62
256
370
-1
  6
ByLayer
 10
0.0000000000000168
 20
55.0
 30
0.0
 40
1.55
  0
CIRCLE
  5
F9
100
AcDbEntity
100
AcDbCircle
  8
boom
 62
256
370
-1
  6
ByLayer
 10
0.0000000000000519
 20
169.5
 30
0.0
 40
1.55
  0
CIRCLE
  5
FA
100
AcDbEntity
100
AcDbCircle
  8
boom
 62
256
370
-1
  6
ByLayer
 10
0.0000000000000461
 20
150.5
 30
0.0
 40
1.55
  0
CIRCLE
  5
FB
100
AcDbEntity
100
AcDbCircle
  8
boom
 62
256
370
-1
  6
ByLayer
 10
0.000000000000049
 20
160.0
 30
0.0
 40
2.5
  0
CIRCLE
  5
FC
100
AcDbEntity
100
AcDbCircle
  8
boom
 62
256
370
-1
  6
ByLayer
 10
0.0000000000000054
 20
17.5
 30
0.0
 40
1.55
  0
LINE
  5
FD
100
AcDbEntity
100
AcDbLine
  8
boom
 62
256
370
-1
  6
ByLayer
 10
3.0000000000000067
 20
175.0
 30
0.0
 11
-2.9999999999998992
 21
175.0
 31
0.0
  0
LINE
  5
FE
100
AcDbEntity
100
AcDbLine
  8
boom
 62
256
370
-1
  6
ByLayer
 10
3.0000000000000067
 20
175.0
 30
0.0
 11
3.0000000000000071
 21
12.4999999999999982
 31
0.0
  0
LINE
  5
FF
100
AcDbEntity
100
AcDbLine
  8
boom
 62
256
370
-1
  6
ByLayer
 10
3.0000000000000071
 20
12.4999999999999982
 30
0.0
 11
-2.9999999999999996
 21
12.5
 31
0.0
  0
LINE
  5
100
100
AcDbEntity
100
AcDbLine
  8
boom
 62
256
370
-1
  6
ByLayer
 10
-2.9999999999999996
 20
12.5
 30
0.0
 11
-2.9999999999998992
 21
175.0
 31
0.0
  0
CIRCLE
  5
101
100
AcDbEntity
100
AcDbCircle
  8
boom_holder
 62
256
370
-1
  6
ByLayer
 10
-0.0000000000000101
 20
-55.0
 30
0.0
 40
1.55
  0
LINE
  5
102
100
AcDbEntity
100
AcDbLine
  8
boom_holder
 62
256
370
-1
  6
ByLayer
 10
-3.9999999999999818
 20
-60.0
 30
0.0
 11
-4.0000000000000098
 21
-50.0
 31
0.0
  0
LINE
  5
103
100
AcDbEntity
100
AcDbLine
  8
boom_holder
 62
256
370
-1
  6
ByLayer
 10
-4.0000000000000098
 20
-50.0
 30
0.0
 11
3.9999999999999911
 21
-50.0000000000000071
 31
0.0
  0
LINE
  5
104
100
AcDbEntity
100
AcDbLine
  8
boom_holder
 62
256
370
-1
  6
ByLayer
 10
3.9999999999999911
 20
-50.0000000000000071
 30
0.0
 11
3.9999999999999591
 21
-60.0000000000000071
 31
0.0
  0
LINE
  5
105
100
AcDbEntity
100
AcDbLine
  8
boom_holder
 62
256
370
-1
  6
ByLayer
 10
3.9999999999999591
 20
-60.0000000000000071
 30
0.0
 11
-3.9999999999999818
 21
-60.0
 31
0.0
  0
LINE
  5
106
100
AcDbEntity
100
AcDbLine
  8
boom_holder
 62
256
370
-1
  6
ByLayer
 10
3.9999999999999916
 20
-22.5000000000000036
 30
0.0
 11
4.0
 21
-12.5000000000000018
 31
0.0
  0
LINE
  5
107
100
AcDbEntity
100
AcDbLine
  8
boom_holder
 62
256
370
-1
  6
ByLayer
 10
4.0
 20
-12.5000000000000018
 30
0.0
 11
-4.0000000000000044
 21
-12.5
 31
0.0
  0
LINE
  5
108
100
AcDbEntity
100
AcDbLine
  8
boom_holder
 62
256
370
-1
  6
ByLayer
 10
-4.0000000000000044
 20
-12.5
 30
0.0
 11
-3.9999999999999996
 21
-22.5000000000000036
 31
0.0
  0
LINE
  5
109
100
AcDbEntity
100
AcDbLine
  8
boom_holder
 62
256
370
-1
  6
ByLayer
 10
-3.9999999999999996
 20
-22.5000000000000036
 30
0.0
 11
3.9999999999999916
 21
-22.5000000000000036
 31
0.0
  0
CIRCLE
  5
10A
100
AcDbEntity
100
AcDbCircle
  8
boom_holder
 62
256
370
-1
  6
ByLayer
 10
-0.0000000000000032
 20
-17.5
 30
0.0
 40
1.55
  0
CIRCLE
  5
10B
100
AcDbEntity
100
AcDbCircle
  8
boom_holder
 62
256
370
-1
  6
ByLayer
 10
55.0
 20
-0.0000000000000135
 30
0.0
 40
1.55
  0
LINE
  5
10C
100
AcDbEntity
100
AcDbLine
  8
boom_holder
 62
256
370
-1
  6
ByLayer
 10
60.0
 20
-3.9999999999999849
 30
0.0
 11
50.0
 21
-4.0000000000000124
 31
0.0
  0
LINE
  5
10D
100
AcDbEntity
100
AcDbLine
  8
boom_holder
 62
256
370
-1
  6
ByLayer
 10
50.0
 20
-4.0000000000000124
 30
0.0
 11
50.0000000000000071
 21
3.999999999999988
 31
0.0
  0
LINE
  5
10E
100
AcDbEntity
100
AcDbLine
  8
boom_holder
 62
256
370
-1
  6
ByLayer
 10
50.0000000000000071
 20
3.999999999999988
 30
0.0
 11
60.0000000000000071
 21
3.9999999999999556
 31
0.0
  0
LINE
  5
10F
100
AcDbEntity
100
AcDbLine
  8
boom_holder
 62
256
370
-1
  6
ByLayer
 10
60.0000000000000071
 20
3.9999999999999556
 30
0.0
 11
60.0
 21
-3.9999999999999849
 31
0.0
  0
LINE
  5
110
100
AcDbEntity
100
AcDbLine
  8
boom_holder
 62
256
370
-1
  6
ByLayer
 10
22.5000000000000036
 20
3.9999999999999893
 30
0.0
 11
12.5000000000000018
 21
3.9999999999999996
 31
0.0
  0
LINE
  5
111
100
AcDbEntity
100
AcDbLine
  8
boom_holder
 62
256
370
-1
  6
ByLayer
 10
12.5000000000000018
 20
3.9999999999999996
 30
0.0
 11
12.4999999999999982
 21
-4.0000000000000053
 31
0.0
  0
LINE
  5
112
100
AcDbEntity
100
AcDbLine
  8
boom_holder
 62
256
370
-1
  6
ByLayer
 10
12.4999999999999982
 20
-4.0000000000000053
 30
0.0
 11
22.5000000000000036
 21
-4.0000000000000009
 31
0.0
  0
LINE
  5
113
100
AcDbEntity
100
AcDbLine
  8
boom_holder
 62
256
370
-1
  6
ByLayer
 10
22.5000000000000036
 20
-4.0000000000000009
 30
0.0
 11
22.5000000000000036
 21
3.9999999999999893
 31
0.0
  0
CIRCLE
  5
114
100
AcDbEntity
100
AcDbCircle
  8
boom_holder
 62
256
370
-1
  6
ByLayer
 10
17.5
 20
-0.0000000000000043
 30
0.0
 40
1.55
  0
CIRCLE
  5
115
100
AcDbEntity
100
AcDbCircle
  8
boom_holder
 62
256
370
-1
  6
ByLayer
 10
0.0000000000000168
 20
55.0
 30
0.0
 40
1.55
  0
LINE
  5
116
100
AcDbEntity
100
AcDbLine
  8
boom_holder
 62
256
370
-1
  6
ByLayer
 10
3.9999999999999885
 20
60.0
 30
0.0
 11
4.000000000000016
 21
50.0
 31
0.0
  0
LINE
  5
117
100
AcDbEntity
100
AcDbLine
  8
boom_holder
 62
256
370
-1
  6
ByLayer
 10
4.000000000000016
 20
50.0
 30
0.0
 11
-3.9999999999999853
 21
50.0000000000000071
 31
0.0
  0
LINE
  5
118
100
AcDbEntity
100
AcDbLine
  8
boom_holder
 62
256
370
-1
  6
ByLayer
 10
-3.9999999999999853
 20
50.0000000000000071
 30
0.0
 11
-3.9999999999999516
 21
60.0000000000000071
 31
0.0
  0
LINE
  5
119
100
AcDbEntity
100
AcDbLine
  8
boom_holder
 62
256
370
-1
  6
ByLayer
 10
-3.9999999999999516
 20
60.0000000000000071
 30
0.0
 11
3.9999999999999885
 21
60.0
 31
0.0
  0
LINE
  5
11A
100
AcDbEntity
100
AcDbLine
  8
boom_holder
 62
256
370
-1
  6
ByLayer
 10
-3.9999999999999685
 20
22.5000000000000071
 30
0.0
 11
-3.9999999999999991
 21
12.5000000000000018
 31
0.0
  0
LINE
  5
11B
100
AcDbEntity
100
AcDbLine
  8
boom_holder
 62
256
370
-1
  6
ByLayer
 10
-3.9999999999999991
 20
12.5000000000000018
 30
0.0
 11
4.0000000000000062
 21
12.4999999999999982
 31
0.0
  0
LINE
  5
11C
100
AcDbEntity
100
AcDbLine
  8
boom_holder
 62
256
370
-1
  6
ByLayer
 10
4.0000000000000062
 20
12.4999999999999982
 30
0.0
 11
4.0000000000000018
 21
22.5000000000000036
 31
0.0
  0
LINE
  5
11D
100
AcDbEntity
100
AcDbLine
  8
boom_holder
 62
256
370
-1
  6
ByLayer
 10
4.0000000000000018
 20
22.5000000000000036
 30
0.0
 11
-3.9999999999999685
 21
22.5000000000000071
 31
0.0
  0
CIRCLE
  5
11E
100
AcDbEntity
100
AcDbCircle
  8
boom_holder
 62
256
370
-1
  6
ByLayer
 10
0.0000000000000054
 20
17.5
 30
0.0
 40
1.55
  0
LINE
  5
11F
100
AcDbEntity
100
AcDbLine
  8
motor_mount
 62
256
370
-1
  6
ByLayer
 10
-3.9999999999999969
 20
-175.0000000000000284
 30
0.0
 11
-4.0000000000000133
 21
-145.0
 31
0.0
  0
LINE
  5
120
100
AcDbEntity
100
AcDbLine
  8
motor_mount
 62
256
370
-1
  6
ByLayer
 10
-4.0000000000000133
 20
-145.0
 30
0.0
 11
3.9999999999999605
 21
-145.0
 31
0.0
  0
LINE
  5
121
100
AcDbEntity
100
AcDbLine
  8
motor_mount
 62
256
370
-1
  6
ByLayer
 10
3.9999999999999605
 20
-145.0
 30
0.0
 11
3.9999999999999334
 21
-175.0000000000000284
 31
0.0
  0
LINE
  5
122
100
AcDbEntity
100
AcDbLine
  8
motor_mount
 62
256
370
-1
  6
ByLayer
 10
3.9999999999999334
 20
-175.0000000000000284
 30
0.0
 11
-3.9999999999999969
 21
-175.0000000000000284
 31
0.0
  0
CIRCLE
  5
123
100
AcDbEntity
100
AcDbCircle
  8
motor_mount
 62
256
370
-1
  6
ByLayer
 10
-0.0000000000000276
 20
-150.5
 30
0.0
 40
1.55
  0
CIRCLE
  5
124
100
AcDbEntity
100
AcDbCircle
  8
motor_mount
 62
256
370
-1
  6
ByLayer
 10
-0.0000000000000311
 20
-169.5
 30
0.0
 40
1.55
  0
CIRCLE
  5
125
100
AcDbEntity
100
AcDbCircle
  8
motor_mount
 62
256
370
-1
  6
ByLayer
 10
-0.0000000000000294
 20
-160.0
 30
0.0
 40
2.5
  0
LINE
  5
126
100
AcDbEntity
100
AcDbLine
  8
motor_mount
 62
256
370
-1
  6
ByLayer
 10
175.0000000000000284
 20
-4.000000000000008
 30
0.0
 11
145.0
 21
-4.0000000000000231
 31
0.0
  0
LINE
  5
127
100
AcDbEntity
100
AcDbLine
  8
motor_mount
 62
256
370
-1
  6
ByLayer
 10
145.0
 20
-4.0000000000000231
 30
0.0
 11
145.0
 21
3.9999999999999516
 31
0.0
  0
LINE
  5
128
100
AcDbEntity
100
AcDbLine
  8
motor_mount
 62
256
370
-1
  6
ByLayer
 10
145.0
 20
3.9999999999999516
 30
0.0
 11
175.0000000000000284
 21
3.9999999999999223
 31
0.0
  0
LINE
  5
129
100
AcDbEntity
100
AcDbLine
  8
motor_mount
 62
256
370
-1
  6
ByLayer
 10
175.0000000000000284
 20
3.9999999999999223
 30
0.0
 11
175.0000000000000284
 21
-4.000000000000008
 31
0.0
  0
CIRCLE
  5
12A
100
AcDbEntity
100
AcDbCircle
  8
motor_mount
 62
256
370
-1
  6
ByLayer
 10
150.5
 20
-0.0000000000000369
 30
0.0
 40
1.55
  0
CIRCLE
  5
12B
100
AcDbEntity
100
AcDbCircle
  8
motor_mount
 62
256
370
-1
  6
ByLayer
 10
169.5
 20
-0.0000000000000415
 30
0.0
 40
1.55
  0
CIRCLE
  5
12C
100
AcDbEntity
100
AcDbCircle
  8
motor_mount
 62
256
370
-1
  6
ByLayer
 10
160.0
 20
-0.0000000000000392
 30
0.0
 40
2.5
  0
LINE
  5
12D
100
AcDbEntity
100
AcDbLine
  8
motor_mount
 62
256
370
-1
  6
ByLayer
 10
4.0000000000000187
 20
175.0000000000000284
 30
0.0
 11
4.0000000000000311
 21
145.0
 31
0.0
  0
LINE
  5
12E
100
AcDbEntity
100
AcDbLine
  8
motor_mount
 62
256
370
-1
  6
ByLayer
 10
4.0000000000000311
 20
145.0
 30
0.0
 11
-3.9999999999999427
 21
145.0
 31
0.0
  0
LINE
  5
12F
100
AcDbEntity
100
AcDbLine
  8
motor_mount
 62
256
370
-1
  6
ByLayer
 10
-3.9999999999999427
 20
145.0
 30
0.0
 11
-3.9999999999999112
 21
175.0000000000000284
 31
0.0
  0
LINE
  5
130
100
AcDbEntity
100
AcDbLine
  8
motor_mount
 62
256
370
-1
  6
ByLayer
 10
-3.9999999999999112
 20
175.0000000000000284
 30
0.0
 11
4.0000000000000187
 21
175.0000000000000284
 31
0.0
  0
CIRCLE
  5
131
100
AcDbEntity
100
AcDbCircle
  8
motor_mount
 62
256
370
-1
  6
ByLayer
 10
0.0000000000000461
 20
150.5
 30
0.0
 40
1.55
  0
CIRCLE
  5
132
100
AcDbEntity
100
AcDbCircle
  8
motor_mount
 62
256
370
-1
  6
ByLayer
 10
0.0000000000000519
 20
169.5
 30
0.0
 40
1.55
  0
CIRCLE
  5
133
100
AcDbEntity
100
AcDbCircle
  8
motor_mount
 62
256
370
-1
  6
ByLayer
 10
0.000000000000049
 20
160.0
 30
0.0
 40
2.5
  0
ARC
  5
134
100
AcDbEntity
  8
helper_center
 62
256
370
-1
  6
ByLayer
100
AcDbCircle
 10
-73.6256685051815225
 20
73.6256685051815509
 30
0.0
 40
73.5248660461897998
100
AcDbArc
 50
288.743313608392782
 51
341.256686391607218
  0
ARC
  5
135
100
AcDbEntity
  8
helper_center
 62
256
370
-1
  6
ByLayer
100
AcDbCircle
 10
-73.6256685051815225
 20
73.6256685051815509
 30
0.0
 40
79.5248660461897998
100
AcDbArc
 50
288.743313608392782
 51
341.256686391607218
  0
LINE
  5
136
100
AcDbEntity
100
AcDbLine
  8
center_plate
 62
256
370
-1
  6
ByLayer
 10
-50.0
 20
-4.0
 30
0.0
 11
-60.0
 21
-4.0
 31
0.0
  0
LINE
  5
137
100
AcDbEntity
100
AcDbLine
  8
center_plate
 62
256
370
-1
  6
ByLayer
 10
-60.0
 20
-4.0
 30
0.0
 11
-60.0
 21
4.0
 31
0.0
  0
LINE
  5
138
100
AcDbEntity
100
AcDbLine
  8
center_plate
 62
256
370
-1
  6
ByLayer
 10
-60.0
 20
4.0
 30
0.0
 11
-50.0000000000000568
 21
4.0
 31
0.0
  0
ARC
  5
139
100
AcDbEntity
  8
center_plate
 62
256
370
-1
  6
ByLayer
100
AcDbCircle
 10
-73.6256685051811104
 20
73.6256685051811814
 30
0.0
 40
73.5248660461893309
100
AcDbArc
 50
288.7433136083925547
 51
341.2566863916073316
  0
LINE
  5
13A
100
AcDbEntity
100
AcDbLine
  8
center_plate
 62
256
370
-1
  6
ByLayer
 10
3.9999999999999911
 20
-50.0000000000000071
 30
0.0
 11
3.9999999999999591
 21
-60.0000000000000071
 31
0.0
  0
LINE
  5
13B
100
AcDbEntity
100
AcDbLine
  8
center_plate
 62
256
370
-1
  6
ByLayer
 10
3.9999999999999591
 20
-60.0000000000000071
 30
0.0
 11
-3.9999999999999818
 21
-60.0
 31
0.0
  0
LINE
  5
13C
100
AcDbEntity
100
AcDbLine
  8
center_plate
 62
256
370
-1
  6
ByLayer
 10
-3.9999999999999818
 20
-60.0
 30
0.0
 11
-4.0000000000000133
 21
-50.0000000000000497
 31
0.0
  0
ARC
  5
13D
100
AcDbEntity
  8
center_plate
 62
256
370
-1
  6
ByLayer
100
AcDbCircle
 10
-73.6256685051811814
 20
-73.6256685051810962
 30
0.0
 40
73.5248660461893309
100
AcDbArc
 50
18.7433136083925795
 51
71.2566863916073174
  0
LINE
  5
13E
100
AcDbEntity
100
AcDbLine
  8
center_plate
 62
256
370
-1
  6
ByLayer
 10
50.0000000000000071
 20
3.999999999999988
 30
0.0
 11
60.0000000000000071
 21
3.9999999999999556
 31
0.0
  0
LINE
  5
13F
100
AcDbEntity
100
AcDbLine
  8
center_plate
 62
256
370
-1
  6
ByLayer
 10
60.0000000000000071
 20
3.9999999999999556
 30
0.0
 11
60.0
 21
-3.9999999999999849
 31
0.0
  0
LINE
  5
140
100
AcDbEntity
100
AcDbLine
  8
center_plate
 62
256
370
-1
  6
ByLayer
 10
60.0
 20
-3.9999999999999849
 30
0.0
 11
50.0000000000000497
 21
-4.0000000000000169
 31
0.0
  0
ARC
  5
141
100
AcDbEntity
  8
center_plate
 62
256
370
-1
  6
ByLayer
100
AcDbCircle
 10
73.6256685051810678
 20
-73.6256685051812241
 30
0.0
 40
73.5248660461893309
100
AcDbArc
 50
108.7433136083925831
 51
161.2566863916073032
  0
LINE
  5
142
100
AcDbEntity
100
AcDbLine
  8
center_plate
 62
256
370
-1
  6
ByLayer
 10
-3.9999999999999853
 20
50.0000000000000071
 30
0.0
 11
-3.9999999999999516
 21
60.0000000000000071
 31
0.0
  0
LINE
  5
143
100
AcDbEntity
100
AcDbLine
  8
center_plate
 62
256
370
-1
  6
ByLayer
 10
-3.9999999999999516
 20
60.0000000000000071
 30
0.0
 11
3.9999999999999885
 21
60.0
 31
0.0
  0
LINE
  5
144
100
AcDbEntity
100
AcDbLine
  8
center_plate
 62
256
370
-1
  6
ByLayer
 10
3.9999999999999885
 20
60.0
 30
0.0
 11
4.0000000000000195
 21
50.0000000000000497
 31
0.0
  0
ARC
  5
145
100
AcDbEntity
  8
center_plate
 62
256
370
-1
  6
ByLayer
100
AcDbCircle
 10
73.6256685051812241
 20
73.6256685051810535
 30
0.0
 40
73.5248660461893309
100
AcDbArc
 50
198.7433136083925831
 51
251.2566863916073032
  0
ARC
  5
146
100
AcDbEntity
  8
center_plate
 62
256
370
-1
  6
ByLayer
100
AcDbCircle
 10
-8.0
 20
8.0
 30
0.0
 40
4.0
100
AcDbArc
 50
270.0
 51
0.0
  0
LINE
  5
147
100
AcDbEntity
100
AcDbLine
  8
center_plate
 62
256
370
-1
  6
ByLayer
 10
-8.0
 20
4.0
 30
0.0
 11
-29.763130861708202
 21
4.0
 31
0.0
  0
ARC
  5
148
100
AcDbEntity
  8
center_plate
 62
256
370
-1
  6
ByLayer
100
AcDbCircle
 10
-29.7631308617081984
 20
5.5
 30
0.0
 40
1.5
100
AcDbArc
 50
122.775356463819989
 51
269.9999999999998295
  0
ARC
  5
149
100
AcDbEntity
  8
center_plate
 62
256
370
-1
  6
ByLayer
100
AcDbCircle
 10
-73.6256685051808262
 20
73.6256685051810393
 30
0.0
 40
79.5248660461889898
100
AcDbArc
 50
302.7753564638199464
 51
327.2246435361798262
  0
LINE
  5
14A
100
AcDbEntity
100
AcDbLine
  8
center_plate
 62
256
370
-1
  6
ByLayer
 10
-4.0
 20
29.7631308617080741
 30
0.0
 11
-4.0
 21
8.0
 31
0.0
  0
ARC
  5
14B
100
AcDbEntity
  8
center_plate
 62
256
370
-1
  6
ByLayer
100
AcDbCircle
 10
-5.5
 20
29.7631308617080741
 30
0.0
 40
1.5
100
AcDbArc
 50
0.0
 51
147.2246435361793999
  0
POINT
  5
14C
100
AcDbEntity
100
AcDbPoint
  8
center_plate
 62
256
370
-1
  6
ByLayer
 10
-29.7631308617081984
 20
5.5
 30
0.0
  0
POINT
  5
14D
100
AcDbEntity
100
AcDbPoint
  8
center_plate
 62
256
370
-1
  6
ByLayer
 10
-5.5
 20
29.7631308617080741
 30
0.0
  0
POINT
  5
14E
100
AcDbEntity
100
AcDbPoint
  8
center_plate
 62
256
370
-1
  6
ByLayer
 10
-8.0
 20
8.0
 30
0.0
  0
ARC
  5
14F
100
AcDbEntity
  8
center_plate
 62
256
370
-1
  6
ByLayer
100
AcDbCircle
 10
-8.0000000000000018
 20
-8.0
 30
0.0
 40
4.0
100
AcDbArc
 50
360.0
 51
90.0
  0
LINE
  5
150
100
AcDbEntity
100
AcDbLine
  8
center_plate
 62
256
370
-1
  6
ByLayer
 10
-4.0000000000000018
 20
-7.9999999999999991
 30
0.0
 11
-4.0000000000000089
 21
-29.763130861708202
 31
0.0
  0
ARC
  5
151
100
AcDbEntity
  8
center_plate
 62
256
370
-1
  6
ByLayer
100
AcDbCircle
 10
-5.4999999999999893
 20
-29.763130861708202
 30
0.0
 40
1.5
100
AcDbArc
 50
212.7753564638199748
 51
359.9999999999998295
  0
ARC
  5
152
100
AcDbEntity
  8
center_plate
 62
256
370
-1
  6
ByLayer
100
AcDbCircle
 10
-73.6256685051810393
 20
-73.6256685051808262
 30
0.0
 40
79.5248660461889898
100
AcDbArc
 50
32.7753564638199393
 51
57.2246435361798049
  0
LINE
  5
153
100
AcDbEntity
100
AcDbLine
  8
center_plate
 62
256
370
-1
  6
ByLayer
 10
-29.7631308617080741
 20
-3.999999999999996
 30
0.0
 11
-8.0000000000000018
 21
-3.9999999999999996
 31
0.0
  0
ARC
  5
154
100
AcDbEntity
  8
center_plate
 62
256
370
-1
  6
ByLayer
100
AcDbCircle
 10
-29.7631308617080741
 20
-5.4999999999999982
 30
0.0
 40
1.5
100
AcDbArc
 50
90.0
 51
237.2246435361793999
  0
POINT
  5
155
100
AcDbEntity
100
AcDbPoint
  8
center_plate
 62
256
370
-1
  6
ByLayer
 10
-5.4999999999999893
 20
-29.763130861708202
 30
0.0
  0
POINT
  5
156
100
AcDbEntity
100
AcDbPoint
  8
center_plate
 62
256
370
-1
  6
ByLayer
 10
-29.7631308617080741
 20
-5.4999999999999982
 30
0.0
  0
POINT
  5
157
100
AcDbEntity
100
AcDbPoint
  8
center_plate
 62
256
370
-1
  6
ByLayer
 10
-8.0000000000000018
 20
-8.0
 30
0.0
  0
ARC
  5
158
100
AcDbEntity
  8
center_plate
 62
256
370
-1
  6
ByLayer
100
AcDbCircle
 10
7.9999999999999982
 20
-8.0000000000000018
 30
0.0
 40
4.0
100
AcDbArc
 50
90.0
 51
180.0
  0
LINE
  5
159
100
AcDbEntity
100
AcDbLine
  8
center_plate
 62
256
370
-1
  6
ByLayer
 10
7.9999999999999991
 20
-4.0000000000000027
 30
0.0
 11
29.763130861708202
 21
-4.0000000000000107
 31
0.0
  0
ARC
  5
15A
100
AcDbEntity
  8
center_plate
 62
256
370
-1
  6
ByLayer
100
AcDbCircle
 10
29.763130861708202
 20
-5.499999999999992
 30
0.0
 40
1.5
100
AcDbArc
 50
302.7753564638200032
 51
89.9999999999998437
  0
ARC
  5
15B
100
AcDbEntity
  8
center_plate
 62
256
370
-1
  6
ByLayer
100
AcDbCircle
 10
73.6256685051808546
 20
-73.6256685051810251
 30
0.0
 40
79.5248660461889898
100
AcDbArc
 50
122.775356463819989
 51
147.2246435361797978
  0
LINE
  5
15C
100
AcDbEntity
100
AcDbLine
  8
center_plate
 62
256
370
-1
  6
ByLayer
 10
3.9999999999999809
 20
-29.7631308617080776
 30
0.0
 11
3.9999999999999991
 21
-8.0000000000000018
 31
0.0
  0
ARC
  5
15D
100
AcDbEntity
  8
center_plate
 62
256
370
-1
  6
ByLayer
100
AcDbCircle
 10
5.5000000000000089
 20
-29.7631308617080705
 30
0.0
 40
1.5
100
AcDbArc
 50
180.0
 51
327.2246435361793715
  0
POINT
  5
15E
100
AcDbEntity
100
AcDbPoint
  8
center_plate
 62
256
370
-1
  6
ByLayer
 10
29.763130861708202
 20
-5.499999999999992
 30
0.0
  0
POINT
  5
15F
100
AcDbEntity
100
AcDbPoint
  8
center_plate
 62
256
370
-1
  6
ByLayer
 10
5.5000000000000089
 20
-29.7631308617080705
 30
0.0
  0
POINT
  5
160
100
AcDbEntity
100
AcDbPoint
  8
center_plate
 62
256
370
-1
  6
ByLayer
 10
7.9999999999999982
 20
-8.0000000000000018
 30
0.0
  0
ARC
  5
161
100
AcDbEntity
  8
center_plate
 62
256
370
-1
  6
ByLayer
100
AcDbCircle
 10
8.0000000000000018
 20
7.9999999999999982
 30
0.0
 40
4.0
100
AcDbArc
 50
180.0
 51
270.0
  0
LINE
  5
162
100
AcDbEntity
100
AcDbLine
  8
center_plate
 62
256
370
-1
  6
ByLayer
 10
4.0000000000000027
 20
7.9999999999999991
 30
0.0
 11
4.0000000000000124
 21
29.763130861708202
 31
0.0
  0
ARC
  5
163
100
AcDbEntity
  8
center_plate
 62
256
370
-1
  6
ByLayer
100
AcDbCircle
 10
5.4999999999999938
 20
29.7631308617081984
 30
0.0
 40
1.5
100
AcDbArc
 50
32.775356463819989
 51
179.999999999999801
  0
ARC
  5
164
100
AcDbEntity
  8
center_plate
 62
256
370
-1
  6
ByLayer
100
AcDbCircle
 10
73.6256685051810251
 20
73.6256685051808404
 30
0.0
 40
79.5248660461889898
100
AcDbArc
 50
212.7753564638198895
 51
237.2246435361797978
  0
LINE
  5
165
100
AcDbEntity
100
AcDbLine
  8
center_plate
 62
256
370
-1
  6
ByLayer
 10
29.7631308617080776
 20
3.9999999999999787
 30
0.0
 11
8.0000000000000018
 21
3.9999999999999987
 31
0.0
  0
ARC
  5
166
100
AcDbEntity
  8
center_plate
 62
256
370
-1
  6
ByLayer
100
AcDbCircle
 10
29.7631308617080705
 20
5.5000000000000071
 30
0.0
 40
1.5
100
AcDbArc
 50
270.0
 51
57.2246435361793999
  0
POINT
  5
167
100
AcDbEntity
100
AcDbPoint
  8
center_plate
 62
256
370
-1
  6
ByLayer
 10
5.4999999999999938
 20
29.7631308617081984
 30
0.0
  0
POINT
  5
168
100
AcDbEntity
100
AcDbPoint
  8
center_plate
 62
256
370
-1
  6
ByLayer
 10
29.7631308617080705
 20
5.5000000000000071
 30
0.0
  0
POINT
  5
169
100
AcDbEntity
100
AcDbPoint
  8
center_plate
 62
256
370
-1
  6
ByLayer
 10
8.0000000000000018
 20
7.9999999999999982
 30
0.0
  0
LINE
  5
16A
100
AcDbEntity
100
AcDbLine
  8
carrier_cc_bottom
 62
256
370
-1
  6
ByLayer
 10
-4.9999999999999858
 20
30.1869176962471712
 30
0.0
 11
-4.9999999999999911
 21
33.5
 31
0.0
  0
ARC
  5
16B
100
AcDbEntity
  8
carrier_cc_bottom
 62
256
370
-1
  6
ByLayer
100
AcDbCircle
 10
-3.4999999999999907
 20
33.5
 30
0.0
 40
1.5
100
AcDbArc
 50
90.0
 51
180.0
  0
LINE
  5
16C
100
AcDbEntity
100
AcDbLine
  8
carrier_cc_bottom
 62
256
370
-1
  6
ByLayer
 10
-3.4999999999999907
 20
35.0
 30
0.0
 11
3.5000000000000111
 21
35.0
 31
0.0
  0
LINE
  5
16D
100
AcDbEntity
100
AcDbLine
  8
carrier_cc_bottom
 62
256
370
-1
  6
ByLayer
 10
5.0000000000000115
 20
33.5
 30
0.0
 11
5.0000000000000044
 21
30.1869176962471641
 31
0.0
  0
ARC
  5
16E
100
AcDbEntity
  8
carrier_cc_bottom
 62
256
370
-1
  6
ByLayer
100
AcDbCircle
 10
3.5000000000000111
 20
33.5
 30
0.0
 40
1.5
100
AcDbArc
 50
0.0
 51
90.0
  0
LINE
  5
16F
100
AcDbEntity
100
AcDbLine
  8
carrier_cc_bottom
 62
256
370
-1
  6
ByLayer
 10
30.1869176962471712
 20
4.9999999999999876
 30
0.0
 11
33.5
 21
4.9999999999999929
 31
0.0
  0
ARC
  5
170
100
AcDbEntity
  8
carrier_cc_bottom
 62
256
370
-1
  6
ByLayer
100
AcDbCircle
 10
33.5
 20
3.4999999999999929
 30
0.0
 40
1.5
100
AcDbArc
 50
0.0
 51
90.0
  0
LINE
  5
171
100
AcDbEntity
100
AcDbLine
  8
carrier_cc_bottom
 62
256
370
-1
  6
ByLayer
 10
35.0
 20
3.4999999999999929
 30
0.0
 11
35.0
 21
-3.5000000000000098
 31
0.0
  0
LINE
  5
172
100
AcDbEntity
100
AcDbLine
  8
carrier_cc_bottom
 62
256
370
-1
  6
ByLayer
 10
33.5
 20
-5.0000000000000089
 30
0.0
 11
30.1869176962471606
 21
-5.0000000000000027
 31
0.0
  0
ARC
  5
173
100
AcDbEntity
  8
carrier_cc_bottom
 62
256
370
-1
  6
ByLayer
100
AcDbCircle
 10
33.5
 20
-3.5000000000000089
 30
0.0
 40
1.5
100
AcDbArc
 50
270.0
 51
359.9999999999999432
  0
LINE
  5
174
100
AcDbEntity
100
AcDbLine
  8
carrier_cc_bottom
 62
256
370
-1
  6
ByLayer
 10
4.9999999999999893
 20
-30.1869176962471677
 30
0.0
 11
4.9999999999999947
 21
-33.5
 31
0.0
  0
ARC
  5
175
100
AcDbEntity
  8
carrier_cc_bottom
 62
256
370
-1
  6
ByLayer
100
AcDbCircle
 10
3.4999999999999947
 20
-33.5
 30
0.0
 40
1.5
100
AcDbArc
 50
270.0
 51
0.0
  0
LINE
  5
176
100
AcDbEntity
100
AcDbLine
  8
carrier_cc_bottom
 62
256
370
-1
  6
ByLayer
 10
-5.0000000000000071
 20
-33.5
 30
0.0
 11
-5.0
 21
-30.1869176962471641
 31
0.0
  0
LINE
  5
177
100
AcDbEntity
100
AcDbLine
  8
carrier_cc_bottom
 62
256
370
-1
  6
ByLayer
 10
3.4999999999999947
 20
-35.0
 30
0.0
 11
-3.500000000000008
 21
-35.0
 31
0.0
  0
ARC
  5
178
100
AcDbEntity
  8
carrier_cc_bottom
 62
256
370
-1
  6
ByLayer
100
AcDbCircle
 10
-3.5000000000000067
 20
-33.5
 30
0.0
 40
1.5
100
AcDbArc
 50
180.0
 51
269.9999999999999432
  0
LINE
  5
179
100
AcDbEntity
100
AcDbLine
  8
carrier_cc_bottom
 62
256
370
-1
  6
ByLayer
 10
-30.186917696247157
 20
-5.0
 30
0.0
 11
-33.5
 21
-5.0
 31
0.0
  0
ARC
  5
17A
100
AcDbEntity
  8
carrier_cc_bottom
 62
256
370
-1
  6
ByLayer
100
AcDbCircle
 10
-33.5
 20
-3.5
 30
0.0
 40
1.5
100
AcDbArc
 50
180.0
 51
270.0
  0
LINE
  5
17B
100
AcDbEntity
100
AcDbLine
  8
carrier_cc_bottom
 62
256
370
-1
  6
ByLayer
 10
-35.0
 20
-3.5
 30
0.0
 11
-35.0
 21
3.5
 31
0.0
  0
LINE
  5
17C
100
AcDbEntity
100
AcDbLine
  8
carrier_cc_bottom
 62
256
370
-1
  6
ByLayer
 10
-33.5
 20
5.0
 30
0.0
 11
-30.186917696247157
 21
5.0
 31
0.0
  0
ARC
  5
17D
100
AcDbEntity
  8
carrier_cc_bottom
 62
256
370
-1
  6
ByLayer
100
AcDbCircle
 10
-33.5
 20
3.5
 30
0.0
 40
1.5
100
AcDbArc
 50
90.0
 51
180.0
  0
CIRCLE
  5
17E
100
AcDbEntity
100
AcDbCircle
  8
carrier_cc_top
 62
256
370
-1
  6
ByLayer
 10
-31.5
 20
0.0
 30
0.0
 40
1.55
  0
CIRCLE
  5
17F
100
AcDbEntity
100
AcDbCircle
  8
carrier_cc_top
 62
256
370
-1
  6
ByLayer
 10
-0.0000000000000058
 20
-31.5
 30
0.0
 40
1.55
  0
CIRCLE
  5
180
100
AcDbEntity
100
AcDbCircle
  8
carrier_cc_top
 62
256
370
-1
  6
ByLayer
 10
31.5
 20
-0.0000000000000077
 30
0.0
 40
1.55
  0
CIRCLE
  5
181
100
AcDbEntity
100
AcDbCircle
  8
carrier_cc_top
 62
256
370
-1
  6
ByLayer
 10
0.0000000000000096
 20
31.5
 30
0.0
 40
1.55
  0
ARC
  5
182
100
AcDbEntity
  8
carrier_cc_top
 62
256
370
-1
  6
ByLayer
100
AcDbCircle
 10
-30.186917696247157
 20
9.0
 30
0.0
 40
4.0
100
AcDbArc
 50
270.0
 51
343.3984504009799821
  0
ARC
  5
183
100
AcDbEntity
  8
carrier_cc_top
 62
256
370
-1
  6
ByLayer
100
AcDbCircle
 10
-30.186917696247157
 20
-9.0
 30
0.0
 40
4.0
100
AcDbArc
 50
16.6015495990201778
 51
90.0
  0
ARC
  5
184
100
AcDbEntity
  8
carrier_cc_top
 62
256
370
-1
  6
ByLayer
100
AcDbCircle
 10
30.1869176962471535
 20
-9.0000000000000018
 30
0.0
 40
4.0
100
AcDbArc
 50
89.9999999999999005
 51
163.3984504009800389
  0
ARC
  5
185
100
AcDbEntity
  8
carrier_cc_top
 62
256
370
-1
  6
ByLayer
100
AcDbCircle
 10
30.1869176962471641
 20
8.9999999999999876
 30
0.0
 40
4.0
100
AcDbArc
 50
196.6015495990200179
 51
270.0000000000001137
  0
ARC
  5
186
100
AcDbEntity
  8
carrier_cc_top
 62
256
370
-1
  6
ByLayer
100
AcDbCircle
 10
-0.0000000000001477
 20
0.0000000000001527
 30
0.0
 40
27.4999999999998082
100
AcDbArc
 50
106.6015495990200321
 51
163.3984504009799537
  0
ARC
  5
187
100
AcDbEntity
  8
carrier_cc_top
 62
256
370
-1
  6
ByLayer
100
AcDbCircle
 10
-8.9999999999999858
 20
30.1869176962471641
 30
0.0
 40
4.0
100
AcDbArc
 50
286.6015495990200748
 51
0.0000000000001018
  0
ARC
  5
188
100
AcDbEntity
  8
carrier_cc_top
 62
256
370
-1
  6
ByLayer
100
AcDbCircle
 10
0.0000000000001527
 20
0.0000000000001477
 30
0.0
 40
27.4999999999998082
100
AcDbArc
 50
16.6015495990200357
 51
73.3984504009799537
  0
ARC
  5
189
100
AcDbEntity
  8
carrier_cc_top
 62
256
370
-1
  6
ByLayer
100
AcDbCircle
 10
9.0000000000000036
 20
30.1869176962471535
 30
0.0
 40
4.0
100
AcDbArc
 50
179.9999999999998579
 51
253.3984504009798968
  0
ARC
  5
18A
100
AcDbEntity
  8
carrier_cc_top
 62
256
370
-1
  6
ByLayer
100
AcDbCircle
 10
0.0000000000001477
 20
-0.0000000000001527
 30
0.0
 40
27.4999999999998082
100
AcDbArc
 50
286.6015495990200748
 51
343.3984504009799252
  0
ARC
  5
18B
100
AcDbEntity
  8
carrier_cc_top
 62
256
370
-1
  6
ByLayer
100
AcDbCircle
 10
8.9999999999999893
 20
-30.1869176962471606
 30
0.0
 40
4.0
100
AcDbArc
 50
106.6015495990200463
 51
180.0000000000001137
  0
ARC
  5
18C
100
AcDbEntity
  8
carrier_cc_top
 62
256
370
-1
  6
ByLayer
100
AcDbCircle
 10
-0.0000000000001527
 20
-0.0000000000001477
 30
0.0
 40
27.4999999999998082
100
AcDbArc
 50
196.6015495990200179
 51
253.3984504009799537
  0
ARC
  5
18D
100
AcDbEntity
  8
carrier_cc_top
 62
256
370
-1
  6
ByLayer
100
AcDbCircle
 10
-9.0
 20
-30.186917696247157
 30
0.0
 40
4.0
100
AcDbArc
 50
359.9999999999998863
 51
73.3984504009800247
  0
POINT
  5
18E
100
AcDbEntity
100
AcDbPoint
  8
carrier_cc_top
 62
256
370
-1
  6
ByLayer
 10
-31.5
 20
0.0
 30
0.0
  0
POINT
  5
18F
100
AcDbEntity
100
AcDbPoint
  8
carrier_cc_top
 62
256
370
-1
  6
ByLayer
 10
31.5
 20
-0.0000000000000077
 30
0.0
  0
POINT
  5
190
100
AcDbEntity
100
AcDbPoint
  8
carrier_cc_top
 62
256
370
-1
  6
ByLayer
 10
-0.0000000000000058
 20
-31.5
 30
0.0
  0
POINT
  5
191
100
AcDbEntity
100
AcDbPoint
  8
carrier_cc_top
 62
256
370
-1
  6
ByLayer
 10
0.0000000000000096
 20
31.5
 30
0.0
  0
LINE
  5
192
100
AcDbEntity
100
AcDbLine
  8
carrier_cc_top
 62
256
370
-1
  6
ByLayer
 10
-4.9999999999999858
 20
30.1869176962471712
 30
0.0
 11
-4.9999999999999911
 21
33.5
 31
0.0
  0
ARC
  5
193
100
AcDbEntity
  8
carrier_cc_top
 62
256
370
-1
  6
ByLayer
100
AcDbCircle
 10
-3.4999999999999907
 20
33.5
 30
0.0
 40
1.5
100
AcDbArc
 50
90.0
 51
180.0
  0
LINE
  5
194
100
AcDbEntity
100
AcDbLine
  8
carrier_cc_top
 62
256
370
-1
  6
ByLayer
 10
-3.4999999999999907
 20
35.0
 30
0.0
 11
3.5000000000000111
 21
35.0
 31
0.0
  0
LINE
  5
195
100
AcDbEntity
100
AcDbLine
  8
carrier_cc_top
 62
256
370
-1
  6
ByLayer
 10
5.0000000000000115
 20
33.5
 30
0.0
 11
5.0000000000000044
 21
30.1869176962471641
 31
0.0
  0
ARC
  5
196
100
AcDbEntity
  8
carrier_cc_top
 62
256
370
-1
  6
ByLayer
100
AcDbCircle
 10
3.5000000000000111
 20
33.5
 30
0.0
 40
1.5
100
AcDbArc
 50
0.0
 51
90.0
  0
LINE
  5
197
100
AcDbEntity
100
AcDbLine
  8
carrier_cc_top
 62
256
370
-1
  6
ByLayer
 10
30.1869176962471712
 20
4.9999999999999876
 30
0.0
 11
33.5
 21
4.9999999999999929
 31
0.0
  0
ARC
  5
198
100
AcDbEntity
  8
carrier_cc_top
 62
256
370
-1
  6
ByLayer
100
AcDbCircle
 10
33.5
 20
3.4999999999999929
 30
0.0
 40
1.5
100
AcDbArc
 50
0.0
 51
90.0
  0
LINE
  5
199
100
AcDbEntity
100
AcDbLine
  8
carrier_cc_top
 62
256
370
-1
  6
ByLayer
 10
35.0
 20
3.4999999999999929
 30
0.0
 11
35.0
 21
-3.5000000000000098
 31
0.0
  0
LINE
  5
19A
100
AcDbEntity
100
AcDbLine
  8
carrier_cc_top
 62
256
370
-1
  6
ByLayer
 10
33.5
 20
-5.0000000000000089
 30
0.0
 11
30.1869176962471606
 21
-5.0000000000000027
 31
0.0
  0
ARC
  5
19B
100
AcDbEntity
  8
carrier_cc_top
 62
256
370
-1
  6
ByLayer
100
AcDbCircle
 10
33.5
 20
-3.5000000000000089
 30
0.0
 40
1.5
100
AcDbArc
 50
270.0
 51
359.9999999999999432
  0
LINE
  5
19C
100
AcDbEntity
100
AcDbLine
  8
carrier_cc_top
 62
256
370
-1
  6
ByLayer
 10
4.9999999999999893
 20
-30.1869176962471677
 30
0.0
 11
4.9999999999999947
 21
-33.5
 31
0.0
  0
ARC
  5
19D
100
AcDbEntity
  8
carrier_cc_top
 62
256
370
-1
  6
ByLayer
100
AcDbCircle
 10
3.4999999999999947
 20
-33.5
 30
0.0
 40
1.5
100
AcDbArc
 50
270.0
 51
0.0
  0
LINE
  5
19E
100
AcDbEntity
100
AcDbLine
  8
carrier_cc_top
 62
256
370
-1
  6
ByLayer
 10
-5.0000000000000071
 20
-33.5
 30
0.0
 11
-5.0
 21
-30.1869176962471641
 31
0.0
  0
LINE
  5
19F
100
AcDbEntity
100
AcDbLine
  8
carrier_cc_top
 62
256
370
-1
  6
ByLayer
 10
3.4999999999999947
 20
-35.0
 30
0.0
 11
-3.500000000000008
 21
-35.0
 31
0.0
  0
ARC
  5
1A0
100
AcDbEntity
  8
carrier_cc_top
 62
256
370
-1
  6
ByLayer
100
AcDbCircle
 10
-3.5000000000000067
 20
-33.5
 30
0.0
 40
1.5
100
AcDbArc
 50
180.0
 51
269.9999999999999432
  0
LINE
  5
1A1
100
AcDbEntity
100
AcDbLine
  8
carrier_cc_top
 62
256
370
-1
  6
ByLayer
 10
-30.186917696247157
 20
-5.0
 30
0.0
 11
-33.5
 21
-5.0
 31
0.0
  0
ARC
  5
1A2
100
AcDbEntity
  8
carrier_cc_top
 62
256
370
-1
  6
ByLayer
100
AcDbCircle
 10
-33.5
 20
-3.5
 30
0.0
 40
1.5
100
AcDbArc
 50
180.0
 51
270.0
  0
LINE
  5
1A3
100
AcDbEntity
100
AcDbLine
  8
carrier_cc_top
 62
256
370
-1
  6
ByLayer
 10
-35.0
 20
-3.5
 30
0.0
 11
-35.0
 21
3.5
 31
0.0
  0
LINE
  5
1A4
100
AcDbEntity
100
AcDbLine
  8
carrier_cc_top
 62
256
370
-1
  6
ByLayer
 10
-33.5
 20
5.0
 30
0.0
 11
-30.186917696247157
 21
5.0
 31
0.0
  0
ARC
  5
1A5
100
AcDbEntity
  8
carrier_cc_top
 62
256
370
-1
  6
ByLayer
100
AcDbCircle
 10
-33.5
 20
3.5
 30
0.0
 40
1.5
100
AcDbArc
 50
90.0
 51
180.0
  0
LINE
  5
1A6
100
AcDbEntity
100
AcDbLine
  8
helper_carrier
 62
256
370
-1
  6
ByLayer
 10
-400.0
 20
5.0
 30
0.0
 11
400.0
 21
5.0
 31
0.0
  0
LINE
  5
1A7
100
AcDbEntity
100
AcDbLine
  8
helper_carrier
 62
256
370
-1
  6
ByLayer
 10
-400.0
 20
-5.0
 30
0.0
 11
400.0
 21
-5.0
 31
0.0
  0
LINE
  5
1A8
100
AcDbEntity
100
AcDbLine
  8
helper_carrier
 62
256
370
-1
  6
ByLayer
 10
5.0
 20
400.0
 30
0.0
 11
5.0
 21
-400.0
 31
0.0
  0
LINE
  5
1A9
100
AcDbEntity
100
AcDbLine
  8
helper_carrier
 62
256
370
-1
  6
ByLayer
 10
-5.0
 20
400.0
 30
0.0
 11
-5.0
 21
-400.0
 31
0.0
  0
CIRCLE
  5
1AA
100
AcDbEntity
100
AcDbCircle
  8
helper_carrier
 62
256
370
-1
  6
ByLayer
 10
0.0
 20
0.0
 30
0.0
 40
27.5
  0
CIRCLE
  5
1AB
100
AcDbEntity
100
AcDbCircle
  8
helper_carrier
 62
256
370
-1
  6
ByLayer
 10
0.0
 20
0.0
 30
0.0
 40
21.5
  0
ARC
  5
1AC
100
AcDbEntity
  8
carrier_cc_top
 62
256
370
-1
  6
ByLayer
100
AcDbCircle
 10
4.5
 20
19.4871752699050802
 30
0.0
 40
1.5
100
AcDbArc
 50
76.9971218370858139
 51
180.0
  0
ARC
  5
1AD
100
AcDbEntity
  8
carrier_cc_top
 62
256
370
-1
  6
ByLayer
100
AcDbCircle
 10
-0.0000000000001565
 20
-0.0000000000001969
 30
0.0
 40
21.5000000000002309
100
AcDbArc
 50
13.002878162914369
 51
76.9971218370857571
  0
ARC
  5
1AE
100
AcDbEntity
  8
carrier_cc_top
 62
256
370
-1
  6
ByLayer
100
AcDbCircle
 10
19.4871752699051122
 20
4.5
 30
0.0
 40
1.5
100
AcDbArc
 50
270.0
 51
13.0028781629143619
  0
LINE
  5
1AF
100
AcDbEntity
100
AcDbLine
  8
carrier_cc_top
 62
256
370
-1
  6
ByLayer
 10
4.5
 20
3.0
 30
0.0
 11
19.4871752699051122
 21
3.0
 31
0.0
  0
LINE
  5
1B0
100
AcDbEntity
100
AcDbLine
  8
carrier_cc_top
 62
256
370
-1
  6
ByLayer
 10
3.0
 20
4.5
 30
0.0
 11
3.0
 21
19.4871752699050802
 31
0.0
  0
ARC
  5
1B1
100
AcDbEntity
  8
carrier_cc_top
 62
256
370
-1
  6
ByLayer
100
AcDbCircle
 10
4.5
 20
4.5
 30
0.0
 40
1.5
100
AcDbArc
 50
180.0
 51
270.0
  0
ARC
  5
1B2
100
AcDbEntity
  8
carrier_cc_top
 62
256
370
-1
  6
ByLayer
100
AcDbCircle
 10
-19.4871752699050766
 20
4.5000000000000062
 30
0.0
 40
1.5
100
AcDbArc
 50
166.9971218370857855
 51
270.0
  0
ARC
  5
1B3
100
AcDbEntity
  8
carrier_cc_top
 62
256
370
-1
  6
ByLayer
100
AcDbCircle
 10
0.0000000000001969
 20
-0.0000000000001565
 30
0.0
 40
21.5000000000002309
100
AcDbArc
 50
103.0028781629143708
 51
166.9971218370857571
  0
ARC
  5
1B4
100
AcDbEntity
  8
carrier_cc_top
 62
256
370
-1
  6
ByLayer
100
AcDbCircle
 10
-4.5
 20
19.4871752699051122
 30
0.0
 40
1.5
100
AcDbArc
 50
360.0
 51
103.0028781629143566
  0
LINE
  5
1B5
100
AcDbEntity
100
AcDbLine
  8
carrier_cc_top
 62
256
370
-1
  6
ByLayer
 10
-2.9999999999999991
 20
4.5000000000000009
 30
0.0
 11
-2.9999999999999978
 21
19.4871752699051122
 31
0.0
  0
LINE
  5
1B6
100
AcDbEntity
100
AcDbLine
  8
carrier_cc_top
 62
256
370
-1
  6
ByLayer
 10
-4.5000000000000009
 20
3.0000000000000004
 30
0.0
 11
-19.4871752699050802
 21
3.0000000000000013
 31
0.0
  0
ARC
  5
1B7
100
AcDbEntity
  8
carrier_cc_top
 62
256
370
-1
  6
ByLayer
100
AcDbCircle
 10
-4.4999999999999991
 20
4.5
 30
0.0
 40
1.5
100
AcDbArc
 50
270.0
 51
360.0
  0
ARC
  5
1B8
100
AcDbEntity
  8
carrier_cc_top
 62
256
370
-1
  6
ByLayer
100
AcDbCircle
 10
-4.5000000000000071
 20
-19.4871752699050766
 30
0.0
 40
1.5
100
AcDbArc
 50
256.9971218370857855
 51
360.0
  0
ARC
  5
1B9
100
AcDbEntity
  8
carrier_cc_top
 62
256
370
-1
  6
ByLayer
100
AcDbCircle
 10
0.0000000000001565
 20
0.0000000000001969
 30
0.0
 40
21.5000000000002309
100
AcDbArc
 50
193.0028781629143566
 51
256.9971218370857287
  0
ARC
  5
1BA
100
AcDbEntity
  8
carrier_cc_top
 62
256
370
-1
  6
ByLayer
100
AcDbCircle
 10
-19.4871752699051122
 20
-4.4999999999999991
 30
0.0
 40
1.5
100
AcDbArc
 50
90.0
 51
193.0028781629143566
  0
LINE
  5
1BB
100
AcDbEntity
100
AcDbLine
  8
carrier_cc_top
 62
256
370
-1
  6
ByLayer
 10
-4.5000000000000009
 20
-2.9999999999999991
 30
0.0
 11
-19.4871752699051122
 21
-3.0000000000000013
 31
0.0
  0
LINE
  5
1BC
100
AcDbEntity
100
AcDbLine
  8
carrier_cc_top
 62
256
370
-1
  6
ByLayer
 10
-3.0000000000000022
 20
-4.4999999999999991
 30
0.0
 11
-3.0000000000000022
 21
-19.4871752699050802
 31
0.0
  0
ARC
  5
1BD
100
AcDbEntity
  8
carrier_cc_top
 62
256
370
-1
  6
ByLayer
100
AcDbCircle
 10
-4.5000000000000009
 20
-4.4999999999999991
 30
0.0
 40
1.5
100
AcDbArc
 50
360.0
 51
90.0
  0
ARC
  5
1BE
100
AcDbEntity
  8
carrier_cc_top
 62
256
370
-1
  6
ByLayer
100
AcDbCircle
 10
19.4871752699050766
 20
-4.500000000000008
 30
0.0
 40
1.5
100
AcDbArc
 50
346.9971218370857855
 51
90.0
  0
ARC
  5
1BF
100
AcDbEntity
  8
carrier_cc_top
 62
256
370
-1
  6
ByLayer
100
AcDbCircle
 10
-0.0000000000001969
 20
0.0000000000001565
 30
0.0
 40
21.5000000000002309
100
AcDbArc
 50
283.002878162914385
 51
346.9971218370857287
  0
ARC
  5
1C0
100
AcDbEntity
  8
carrier_cc_top
 62
256
370
-1
  6
ByLayer
100
AcDbCircle
 10
4.4999999999999893
 20
-19.4871752699051157
 30
0.0
 40
1.5
100
AcDbArc
 50
180.0
 51
283.002878162914385
  0
LINE
  5
1C1
100
AcDbEntity
100
AcDbLine
  8
carrier_cc_top
 62
256
370
-1
  6
ByLayer
 10
3.0000000000000009
 20
-4.5
 30
0.0
 11
3.0
 21
-19.4871752699051122
 31
0.0
  0
LINE
  5
1C2
100
AcDbEntity
100
AcDbLine
  8
carrier_cc_top
 62
256
370
-1
  6
ByLayer
 10
4.4999999999999991
 20
-3.0000000000000027
 30
0.0
 11
19.4871752699050766
 21
-3.0000000000000036
 31
0.0
  0
ARC
  5
1C3
100
AcDbEntity
  8
carrier_cc_top
 62
256
370
-1
  6
ByLayer
100
AcDbCircle
 10
4.4999999999999991
 20
-4.5000000000000009
 30
0.0
 40
1.5
100
AcDbArc
 50
90.0
 51
180.0
  0
ENDSEC
  0
SECTION
  2
OBJECTS
  0
DICTIONARY
  5
C
100
AcDbDictionary
280
0
281
1
  3
ACAD_GROUP
350
D
  3
ACAD_LAYOUT
350
1A
  3
ACAD_MLINESTYLE
350
17
  3
ACAD_PLOTSETTINGS
350
19
  3
ACAD_PLOTSTYLENAME
350
E
  3
AcDbVariableDictionary
350
1C4
  0
DICTIONARY
  5
D
100
AcDbDictionary
280
0
281
1
  0
ACDBDICTIONARYWDFLT
  5
E
100
AcDbDictionary
281
1
  3
Normal
350
F
100
AcDbDictionaryWithDefault
340
F
  0
ACDBPLACEHOLDER
  5
F
  0
DICTIONARY
  5
17
100
AcDbDictionary
280
0
281
1
  3
Standard
350
18
  0
MLINESTYLE
  5
18
100
AcDbMlineStyle
  2
STANDARD
 70
0
  3

 62
256
 51
90.0
 52
90.0
 71
2
 49
0.5
 62
256
  6
BYLAYER
 49
-0.5
 62
256
  6
BYLAYER
  0
DICTIONARY
  5
19
100
AcDbDictionary
280
0
281
1
  0
DICTIONARY
  5
1A
100
AcDbDictionary
281
1
  3
Layout1
350
1E
  3
Layout2
350
26
  3
Model
350
22
  0
LAYOUT
  5
1E
100
AcDbPlotSettings
  1

  2
C:\Program Files\AutoCAD 2002\plotters\DWF ePlot (optimized for plotting).pc3
  4

  6

 40
0.0
 41
0.0
 42
0.0
 43
0.0
 44
0.0
 45
0.0
 46
0.0
 47
0.0
 48
0.0
 49
0.0
140
0.0
141
0.0
142
1.0
143
1.0
 70
688
 72
0
 73
0
 74
5
  7

 75
16
147
1.0
148
0.0
149
0.0
100
AcDbLayout
  1
Layout1
 70
1
 71
1
 10
0.0
 20
0.0
 11
420.0
 21
297.0
 12
0.0
 22
0.0
 32
0.0
 14
100000000000000000000.0
 24
100000000000000000000.0
 34
100000000000000000000.0
 15
-100000000000000000000.0
 25
-100000000000000000000.0
 35
-100000000000000000000.0
146
0.0
 13
0.0
 23
0.0
 33
0.0
 16
1.0
 26
0.0
 36
0.0
 17
0.0
 27
1.0
 37
0.0
 76
0
330
1B
  0
LAYOUT
  5
22
100
AcDbPlotSettings
  1

  2
C:\Program Files\AutoCAD 2002\plotters\DWF ePlot (optimized for plotting).pc3
  4

  6

 40
0.0
 41
0.0
 42
0.0
 43
0.0
 44
0.0
 45
0.0
 46
0.0
 47
0.0
 48
0.0
 49
0.0
140
0.0
141
0.0
142
1.0
143
1.0
 70
1712
 72
0
 73
0
 74
0
  7

 75
0
147
1.0
148
0.0
149
0.0
100
AcDbLayout
  1
Model
 70
1
 71
0
 10
0.0
 20
0.0
 11
12.0
 21
9.0
 12
0.0
 22
0.0
 32
0.0
 14
0.0
 24
0.0
 34
0.0
 15
0.0
 25
0.0
 35
0.0
146
0.0
 13
0.0
 23
0.0
 33
0.0
 16
1.0
 26
0.0
 36
0.0
 17
0.0
 27
1.0
 37
0.0
 76
0
330
1F
  0
LAYOUT
  5
26
100
AcDbPlotSettings
  1

  2
C:\Program Files\AutoCAD 2002\plotters\DWF ePlot (optimized for plotting).pc3
  4

  6

 40
0.0
 41
0.0
 42
0.0
 43
0.0
 44
0.0
 45
0.0
 46
0.0
 47
0.0
 48
0.0
 49
0.0
140
0.0
141
0.0
142
1.0
143
1.0
 70
688
 72
0
 73
0
 74
5
  7

 75
16
147
1.0
148
0.0
149
0.0
100
AcDbLayout
  1
Layout2
 70
1
 71
2
 10
0.0
 20
0.0
 11
12.0
 21
9.0
 12
0.0
 22
0.0
 32
0.0
 14
0.0
 24
0.0
 34
0.0
 15
0.0
 25
0.0
 35
0.0
146
0.0
 13
0.0
 23
0.0
 33
0.0
 16
1.0
 26
0.0
 36
0.0
 17
0.0
 27
1.0
 37
0.0
 76
0
330
23
  0
DICTIONARY
  5
1C4
100
AcDbDictionary
281
1
  3
DIMASSOC
350
1C6
  3
HIDETEXT
350
1C5
  0
DICTIONARYVAR
  5
1C5
100
DictionaryVariables
280
0
  1
2
  0
DICTIONARYVAR
  5
1C6
100
DictionaryVariables
280
0
  1
1
  0
ENDSEC
  0
EOF
