999
dxflib 2.2.0.0
  0
SECTION
  2
HEADER
  9
$ACADVER
  1
AC1015
  9
$HANDSEED
  5
FFFF
  9
$DIMASZ
 40
2.5
  9
$PLIMMIN
 10
0.0
 20
0.0
  9
$DIMEXE
 40
1.25
  9
$DIMGAP
 40
0.625
  9
$PLIMMAX
 10
210.0
 20
297.0
  9
$INSUNITS
 70
4
  9
$DIMSTYLE
  2
Standard
  9
$DIMEXO
 40
0.625
  9
$DIMTXT
 40
2.5
  0
ENDSEC
  0
SECTION
  2
TABLES
  0
TABLE
  2
VPORT
  5
8
100
AcDbSymbolTable
 70
1
  0
VPORT
  5
30
100
AcDbSymbolTableRecord
100
AcDbViewportTableRecord
  2
*Active
 70
0
 10
0.0
 20
0.0
 11
1.0
 21
1.0
 12
286.3055555555554861
 22
148.5
 13
0.0
 23
0.0
 14
10.0
 24
10.0
 15
10.0
 25
10.0
 16
0.0
 26
0.0
 36
1.0
 17
0.0
 27
0.0
 37
0.0
 40
297.0
 41
1.92798353909465
 42
50.0
 43
0.0
 44
0.0
 50
0.0
 51
0.0
 71
0
 72
100
 73
1
 74
3
 75
1
 76
1
 77
0
 78
0
281
0
 65
1
110
0.0
120
0.0
130
0.0
111
1.0
121
0.0
131
0.0
112
0.0
122
1.0
132
0.0
 79
0
146
0.0
  0
ENDTAB
  0
TABLE
  2
LTYPE
  5
5
100
AcDbSymbolTable
 70
21
  0
LTYPE
  5
14
100
AcDbSymbolTableRecord
100
AcDbLinetypeTableRecord
  2
ByBlock
 70
0
  3

 72
65
 73
0
 40
0.0
  0
LTYPE
  5
15
100
AcDbSymbolTableRecord
100
AcDbLinetypeTableRecord
  2
ByLayer
 70
0
  3

 72
65
 73
0
 40
0.0
  0
LTYPE
  5
16
100
AcDbSymbolTableRecord
100
AcDbLinetypeTableRecord
  2
CONTINUOUS
 70
0
  3
Solid line
 72
65
 73
0
 40
0.0
  0
LTYPE
  5
31
100
AcDbSymbolTableRecord
100
AcDbLinetypeTableRecord
  2
DOT
 70
0
  3
Dot . . . . . . . . . . . . . . . . . . . . . .
 72
65
 73
2
 40
6.3499999999999996
 49
0.0
 74
0
 49
-6.3499999999999996
 74
0
  0
LTYPE
  5
32
100
AcDbSymbolTableRecord
100
AcDbLinetypeTableRecord
  2
DOT2
 70
0
  3
Dot (.5x) .....................................
 72
65
 73
2
 40
3.1749999999999998
 49
0.0
 74
0
 49
-3.1749999999999998
 74
0
  0
LTYPE
  5
33
100
AcDbSymbolTableRecord
100
AcDbLinetypeTableRecord
  2
DOTX2
 70
0
  3
Dot (2x) .  .  .  .  .  .  .  .  .  .  .  .  .
 72
65
 73
2
 40
12.6999999999999993
 49
0.0
 74
0
 49
-12.6999999999999993
 74
0
  0
LTYPE
  5
34
100
AcDbSymbolTableRecord
100
AcDbLinetypeTableRecord
  2
DASHED
 70
0
  3
Dashed __ __ __ __ __ __ __ __ __ __ __ __ __ _
 72
65
 73
2
 40
19.0500000000000007
 49
12.6999999999999993
 74
0
 49
-6.3499999999999996
 74
0
  0
LTYPE
  5
35
100
AcDbSymbolTableRecord
100
AcDbLinetypeTableRecord
  2
DASHED2
 70
0
  3
Dashed (.5x) _ _ _ _ _ _ _ _ _ _ _ _ _ _ _ _ _
 72
65
 73
2
 40
9.5250000000000004
 49
6.3499999999999996
 74
0
 49
-3.1749999999999998
 74
0
  0
LTYPE
  5
36
100
AcDbSymbolTableRecord
100
AcDbLinetypeTableRecord
  2
DASHEDX2
 70
0
  3
Dashed (2x) ____  ____  ____  ____  ____  ___
 72
65
 73
2
 40
38.1000000000000014
 49
25.3999999999999986
 74
0
 49
-12.6999999999999993
 74
0
  0
LTYPE
  5
37
100
AcDbSymbolTableRecord
100
AcDbLinetypeTableRecord
  2
DASHDOT
 70
0
  3
Dash dot __ . __ . __ . __ . __ . __ . __ . __
 72
65
 73
4
 40
25.3999999999999986
 49
12.6999999999999993
 74
0
 49
-6.3499999999999996
 74
0
 49
0.0
 74
0
 49
-6.3499999999999996
 74
0
  0
LTYPE
  5
38
100
AcDbSymbolTableRecord
100
AcDbLinetypeTableRecord
  2
DASHDOT2
 70
0
  3
Dash dot (.5x) _._._._._._._._._._._._._._._.
 72
65
 73
4
 40
12.6999999999999993
 49
6.3499999999999996
 74
0
 49
-3.1749999999999998
 74
0
 49
0.0
 74
0
 49
-3.1749999999999998
 74
0
  0
LTYPE
  5
39
100
AcDbSymbolTableRecord
100
AcDbLinetypeTableRecord
  2
DASHDOTX2
 70
0
  3
Dash dot (2x) ____  .  ____  .  ____  .  ___
 72
65
 73
4
 40
50.7999999999999972
 49
25.3999999999999986
 74
0
 49
-12.6999999999999993
 74
0
 49
0.0
 74
0
 49
-12.6999999999999993
 74
0
  0
LTYPE
  5
3A
100
AcDbSymbolTableRecord
100
AcDbLinetypeTableRecord
  2
DIVIDE
 70
0
  3
Divide ____ . . ____ . . ____ . . ____ . . ____
 72
65
 73
6
 40
31.75
 49
12.6999999999999993
 74
0
 49
-6.3499999999999996
 74
0
 49
0.0
 74
0
 49
-6.3499999999999996
 74
0
 49
0.0
 74
0
 49
-6.3499999999999996
 74
0
  0
LTYPE
  5
3B
100
AcDbSymbolTableRecord
100
AcDbLinetypeTableRecord
  2
DIVIDE2
 70
0
  3
Divide (.5x) __..__..__..__..__..__..__..__.._
 72
65
 73
6
 40
15.875
 49
6.3499999999999996
 74
0
 49
-3.1749999999999998
 74
0
 49
0.0
 74
0
 49
-3.1749999999999998
 74
0
 49
0.0
 74
0
 49
-3.1749999999999998
 74
0
  0
LTYPE
  5
3C
100
AcDbSymbolTableRecord
100
AcDbLinetypeTableRecord
  2
DIVIDEX2
 70
0
  3
Divide (2x) ________  .  .  ________  .  .  _
 72
65
 73
6
 40
63.5
 49
25.3999999999999986
 74
0
 49
-12.6999999999999993
 74
0
 49
0.0
 74
0
 49
-12.6999999999999993
 74
0
 49
0.0
 74
0
 49
-12.6999999999999993
 74
0
  0
LTYPE
  5
3D
100
AcDbSymbolTableRecord
100
AcDbLinetypeTableRecord
  2
CENTER
 70
0
  3
Center ____ _ ____ _ ____ _ ____ _ ____ _ ____
 72
65
 73
4
 40
50.7999999999999972
 49
31.75
 74
0
 49
-6.3499999999999996
 74
0
 49
6.3499999999999996
 74
0
 49
-6.3499999999999996
 74
0
  0
LTYPE
  5
3E
100
AcDbSymbolTableRecord
100
AcDbLinetypeTableRecord
  2
CENTER2
 70
0
  3
Center (.5x) ___ _ ___ _ ___ _ ___ _ ___ _ ___
 72
65
 73
4
 40
28.5749999999999993
 49
19.0500000000000007
 74
0
 49
-3.1749999999999998
 74
0
 49
3.1749999999999998
 74
0
 49
-3.1749999999999998
 74
0
  0
LTYPE
  5
3F
100
AcDbSymbolTableRecord
100
AcDbLinetypeTableRecord
  2
CENTERX2
 70
0
  3
Center (2x) ________  __  ________  __  _____
 72
65
 73
4
 40
101.5999999999999943
 49
63.5
 74
0
 49
-12.6999999999999993
 74
0
 49
12.6999999999999993
 74
0
 49
-12.6999999999999993
 74
0
  0
LTYPE
  5
40
100
AcDbSymbolTableRecord
100
AcDbLinetypeTableRecord
  2
BORDER
 70
0
  3
Border __ __ . __ __ . __ __ . __ __ . __ __ .
 72
65
 73
6
 40
44.4500000000000028
 49
12.6999999999999993
 74
0
 49
-6.3499999999999996
 74
0
 49
12.6999999999999993
 74
0
 49
-6.3499999999999996
 74
0
 49
0.0
 74
0
 49
-6.3499999999999996
 74
0
  0
LTYPE
  5
41
100
AcDbSymbolTableRecord
100
AcDbLinetypeTableRecord
  2
BORDER2
 70
0
  3
Border (.5x) __.__.__.__.__.__.__.__.__.__.__.
 72
65
 73
6
 40
22.2250000000000014
 49
6.3499999999999996
 74
0
 49
-3.1749999999999998
 74
0
 49
6.3499999999999996
 74
0
 49
-3.1749999999999998
 74
0
 49
0.0
 74
0
 49
-3.1749999999999998
 74
0
  0
LTYPE
  5
42
100
AcDbSymbolTableRecord
100
AcDbLinetypeTableRecord
  2
BORDERX2
 70
0
  3
Border (2x) ____  ____  .  ____  ____  .  ___
 72
65
 73
6
 40
88.9000000000000057
 49
25.3999999999999986
 74
0
 49
-12.6999999999999993
 74
0
 49
25.3999999999999986
 74
0
 49
-12.6999999999999993
 74
0
 49
0.0
 74
0
 49
-12.6999999999999993
 74
0
  0
ENDTAB
  0
TABLE
  2
LAYER
  5
2
100
AcDbSymbolTable
 70
6
  0
LAYER
  5
10
100
AcDbSymbolTableRecord
100
AcDbLayerTableRecord
  2
0
 70
1
 62
7
  6
CONTINUOUS
290
1
370
0
390
F
  0
LAYER
  5
43
100
AcDbSymbolTableRecord
100
AcDbLayerTableRecord
  2
center
 70
0
 62
7
  6
CONTINUOUS
290
1
370
0
390
F
  0
LAYER
  5
44
100
AcDbSymbolTableRecord
100
AcDbLayerTableRecord
  2
arms_25cm
 70
1
 62
2
  6
CONTINUOUS
290
1
370
0
390
F
  0
LAYER
  5
45
100
AcDbSymbolTableRecord
100
AcDbLayerTableRecord
  2
helper
 70
1
 62
5
  6
CONTINUOUS
290
1
370
0
390
F
  0
LAYER
  5
46
100
AcDbSymbolTableRecord
100
AcDbLayerTableRecord
  2
dimensions
 70
1
 62
1
  6
CONTINUOUS
290
1
370
0
390
F
  0
LAYER
  5
47
100
AcDbSymbolTableRecord
100
AcDbLayerTableRecord
  2
arms_20cm
 70
0
 62
4
  6
CONTINUOUS
290
1
370
0
390
F
  0
ENDTAB
  0
TABLE
  2
STYLE
  5
3
100
AcDbSymbolTable
 70
1
  0
STYLE
  5
11
100
AcDbSymbolTableRecord
100
AcDbTextStyleTableRecord
  2
Standard
 70
0
 40
0.0
 41
0.75
 50
0.0
 71
0
 42
2.5
  3
txt
  4

  0
ENDTAB
  0
TABLE
  2
VIEW
  5
6
100
AcDbSymbolTable
 70
0
  0
ENDTAB
  0
TABLE
  2
UCS
  5
7
100
AcDbSymbolTable
 70
0
  0
ENDTAB
  0
TABLE
  2
APPID
  5
9
100
AcDbSymbolTable
 70
1
  0
APPID
  5
12
100
AcDbSymbolTableRecord
100
AcDbRegAppTableRecord
  2
ACAD
 70
0
  0
ENDTAB
  0
TABLE
  2
DIMSTYLE
  5
A
100
AcDbSymbolTable
 70
1
100
AcDbDimStyleTable
 71
0
  0
DIMSTYLE
105
27
100
AcDbSymbolTableRecord
100
AcDbDimStyleTableRecord
  2
Standard
 41
2.5
 42
0.625
 43
3.75
 44
1.25
 70
0
 73
0
 74
0
 77
1
 78
8
140
2.5
141
2.5
143
0.03937007874016
147
0.625
171
3
172
1
271
2
272
2
274
3
278
44
283
0
284
8
340
11
  0
ENDTAB
  0
TABLE
  2
BLOCK_RECORD
  5
1
100
AcDbSymbolTable
 70
1
  0
BLOCK_RECORD
  5
1F
100
AcDbSymbolTableRecord
100
AcDbBlockTableRecord
  2
*Model_Space
340
22
  0
BLOCK_RECORD
  5
1B
100
AcDbSymbolTableRecord
100
AcDbBlockTableRecord
  2
*Paper_Space
340
1E
  0
BLOCK_RECORD
  5
23
100
AcDbSymbolTableRecord
100
AcDbBlockTableRecord
  2
*Paper_Space0
340
26
  0
ENDTAB
  0
ENDSEC
  0
SECTION
  2
BLOCKS
  0
BLOCK
  5
20
100
AcDbEntity
  8
0
100
AcDbBlockBegin
  2
*Model_Space
 70
0
 10
0.0
 20
0.0
 30
0.0
  3
*Model_Space
  1

  0
ENDBLK
  5
21
100
AcDbEntity
  8
0
100
AcDbBlockEnd
  0
BLOCK
  5
1C
100
AcDbEntity
 67
1
  8
0
100
AcDbBlockBegin
  2
*Paper_Space
 70
0
 10
0.0
 20
0.0
 30
0.0
  3
*Paper_Space
  1

  0
ENDBLK
  5
1D
100
AcDbEntity
 67
1
  8
0
100
AcDbBlockEnd
  0
BLOCK
  5
24
100
AcDbEntity
  8
0
100
AcDbBlockBegin
  2
*Paper_Space0
 70
0
 10
0.0
 20
0.0
 30
0.0
  3
*Paper_Space0
  1

  0
ENDBLK
  5
25
100
AcDbEntity
  8
0
100
AcDbBlockEnd
  0
ENDSEC
  0
SECTION
  2
ENTITIES
  0
CIRCLE
  5
48
100
AcDbEntity
100
AcDbCircle
  8
center
 62
256
370
-1
  6
ByLayer
 10
0.0
 20
0.0
 30
0.0
 40
10.0
  0
CIRCLE
  5
49
100
AcDbEntity
100
AcDbCircle
  8
center
 62
256
370
-1
  6
ByLayer
 10
0.0000000000000013
 20
21.5667568261896996
 30
0.0
 40
1.5
  0
CIRCLE
  5
4A
100
AcDbEntity
100
AcDbCircle
  8
center
 62
256
370
-1
  6
ByLayer
 10
-21.5667568261896996
 20
0.0000000000000026
 30
0.0
 40
1.5
  0
CIRCLE
  5
4B
100
AcDbEntity
100
AcDbCircle
  8
center
 62
256
370
-1
  6
ByLayer
 10
-0.000000000000004
 20
-21.5667568261896996
 30
0.0
 40
1.5
  0
CIRCLE
  5
4C
100
AcDbEntity
100
AcDbCircle
  8
center
 62
256
370
-1
  6
ByLayer
 10
21.5667568261896996
 20
-0.0000000000000053
 30
0.0
 40
1.5
  0
CIRCLE
  5
4D
100
AcDbEntity
100
AcDbCircle
  8
center
 62
256
370
-1
  6
ByLayer
 10
-31.7500568261897023
 20
0.0000000000000039
 30
0.0
 40
1.5
  0
CIRCLE
  5
4E
100
AcDbEntity
100
AcDbCircle
  8
center
 62
256
370
-1
  6
ByLayer
 10
-51.4350568261896939
 20
0.0000000000000063
 30
0.0
 40
1.5
  0
CIRCLE
  5
4F
100
AcDbEntity
100
AcDbCircle
  8
center
 62
256
370
-1
  6
ByLayer
 10
0.0000000000000019
 20
31.7500568261897058
 30
0.0
 40
1.5
  0
CIRCLE
  5
50
100
AcDbEntity
100
AcDbCircle
  8
center
 62
256
370
-1
  6
ByLayer
 10
0.0000000000000031
 20
51.4350568261897152
 30
0.0
 40
1.5
  0
CIRCLE
  5
51
100
AcDbEntity
100
AcDbCircle
  8
center
 62
256
370
-1
  6
ByLayer
 10
31.7500568261896916
 20
-0.0000000000000078
 30
0.0
 40
1.5
  0
CIRCLE
  5
52
100
AcDbEntity
100
AcDbCircle
  8
center
 62
256
370
-1
  6
ByLayer
 10
51.4350568261896939
 20
-0.0000000000000126
 30
0.0
 40
1.5
  0
CIRCLE
  5
53
100
AcDbEntity
100
AcDbCircle
  8
center
 62
256
370
-1
  6
ByLayer
 10
-0.0000000000000058
 20
-31.7500568261897023
 30
0.0
 40
1.5
  0
CIRCLE
  5
54
100
AcDbEntity
100
AcDbCircle
  8
center
 62
256
370
-1
  6
ByLayer
 10
-0.0000000000000094
 20
-51.4350568261896939
 30
0.0
 40
1.5
  0
ARC
  5
55
100
AcDbEntity
  8
center
 62
256
370
-1
  6
ByLayer
100
AcDbCircle
 10
-39.4116882454314137
 20
11.5000000000000053
 30
0.0
 40
4.0
100
AcDbArc
 50
135.0
 51
269.9999999999999432
  0
LINE
  5
56
100
AcDbEntity
100
AcDbLine
  8
center
 62
256
370
-1
  6
ByLayer
 10
-14.3284271247461774
 20
42.2401153701776195
 30
0.0
 11
-42.2401153701776195
 21
14.3284271247461952
 31
0.0
  0
ARC
  5
57
100
AcDbEntity
  8
center
 62
256
370
-1
  6
ByLayer
100
AcDbCircle
 10
-11.4999999999999911
 20
39.4116882454314279
 30
0.0
 40
4.0
100
AcDbArc
 50
360.0
 51
135.0
  0
ARC
  5
58
100
AcDbEntity
  8
center
 62
256
370
-1
  6
ByLayer
100
AcDbCircle
 10
11.4999999999999858
 20
39.411688245431435
 30
0.0
 40
4.0
100
AcDbArc
 50
45.0
 51
180.0
  0
LINE
  5
59
100
AcDbEntity
100
AcDbLine
  8
center
 62
256
370
-1
  6
ByLayer
 10
42.2401153701776266
 20
14.3284271247461596
 30
0.0
 11
14.3284271247461827
 21
42.2401153701776195
 31
0.0
  0
ARC
  5
5A
100
AcDbEntity
  8
center
 62
256
370
-1
  6
ByLayer
100
AcDbCircle
 10
39.411688245431435
 20
11.4999999999999751
 30
0.0
 40
4.0
100
AcDbArc
 50
270.0
 51
45.0
  0
ARC
  5
5B
100
AcDbEntity
  8
center
 62
256
370
-1
  6
ByLayer
100
AcDbCircle
 10
39.4116882454314208
 20
-11.4999999999999929
 30
0.0
 40
4.0
100
AcDbArc
 50
315.0
 51
90.0000000000000711
  0
LINE
  5
5C
100
AcDbEntity
100
AcDbLine
  8
center
 62
256
370
-1
  6
ByLayer
 10
14.3284271247461987
 20
-42.2401153701776124
 30
0.0
 11
42.2401153701775982
 21
-14.3284271247462165
 31
0.0
  0
ARC
  5
5D
100
AcDbEntity
  8
center
 62
256
370
-1
  6
ByLayer
100
AcDbCircle
 10
11.4999999999999751
 20
-39.4116882454314279
 30
0.0
 40
4.0
100
AcDbArc
 50
180.0000000000000568
 51
315.0
  0
ARC
  5
5E
100
AcDbEntity
  8
center
 62
256
370
-1
  6
ByLayer
100
AcDbCircle
 10
-11.4999999999999911
 20
-39.4116882454314208
 30
0.0
 40
4.0
100
AcDbArc
 50
225.0
 51
360.0
  0
LINE
  5
5F
100
AcDbEntity
100
AcDbLine
  8
center
 62
256
370
-1
  6
ByLayer
 10
-42.2401153701776124
 20
-14.3284271247461827
 30
0.0
 11
-14.3284271247462147
 21
-42.2401153701775982
 31
0.0
  0
ARC
  5
60
100
AcDbEntity
  8
center
 62
256
370
-1
  6
ByLayer
100
AcDbCircle
 10
-39.4116882454314208
 20
-11.4999999999999964
 30
0.0
 40
4.0
100
AcDbArc
 50
90.0000000000000711
 51
225.0
  0
LINE
  5
61
100
AcDbEntity
100
AcDbLine
  8
center
 62
256
370
-1
  6
ByLayer
 10
-39.4116882454314279
 20
7.5000000000000027
 30
0.0
 11
-21.026911934581193
 21
7.5
 31
0.0
  0
ARC
  5
62
100
AcDbEntity
  8
center
 62
256
370
-1
  6
ByLayer
100
AcDbCircle
 10
-21.0269119345811895
 20
11.5000000000000036
 30
0.0
 40
4.0
100
AcDbArc
 50
269.9999999999998863
 51
315.0
  0
LINE
  5
63
100
AcDbEntity
100
AcDbLine
  8
center
 62
256
370
-1
  6
ByLayer
 10
-18.1984848098350014
 20
8.6715728752538084
 30
0.0
 11
-8.6715728752538137
 21
18.1984848098349978
 31
0.0
  0
LINE
  5
64
100
AcDbEntity
100
AcDbLine
  8
center
 62
256
370
-1
  6
ByLayer
 10
-7.5000000000000044
 20
21.0269119345811895
 30
0.0
 11
-7.4999999999999956
 21
39.411688245431435
 31
0.0
  0
ARC
  5
65
100
AcDbEntity
  8
center
 62
256
370
-1
  6
ByLayer
100
AcDbCircle
 10
-11.5
 20
21.0269119345811895
 30
0.0
 40
4.0
100
AcDbArc
 50
315.0
 51
360.0
  0
LINE
  5
66
100
AcDbEntity
100
AcDbLine
  8
center
 62
256
370
-1
  6
ByLayer
 10
7.5000000000000009
 20
39.4116882454314279
 30
0.0
 11
7.4999999999999982
 21
21.0269119345811966
 31
0.0
  0
ARC
  5
67
100
AcDbEntity
  8
center
 62
256
370
-1
  6
ByLayer
100
AcDbCircle
 10
11.4999999999999982
 20
21.0269119345811895
 30
0.0
 40
4.0
100
AcDbArc
 50
179.9999999999999147
 51
225.0
  0
LINE
  5
68
100
AcDbEntity
100
AcDbLine
  8
center
 62
256
370
-1
  6
ByLayer
 10
8.6715728752538084
 20
18.1984848098350014
 30
0.0
 11
18.1984848098349978
 21
8.6715728752538102
 31
0.0
  0
LINE
  5
69
100
AcDbEntity
100
AcDbLine
  8
center
 62
256
370
-1
  6
ByLayer
 10
21.0269119345811966
 20
7.4999999999999911
 30
0.0
 11
39.411688245431435
 21
7.4999999999999707
 31
0.0
  0
ARC
  5
6A
100
AcDbEntity
  8
center
 62
256
370
-1
  6
ByLayer
100
AcDbCircle
 10
21.0269119345811895
 20
11.4999999999999964
 30
0.0
 40
4.0
100
AcDbArc
 50
225.0
 51
270.0
  0
LINE
  5
6B
100
AcDbEntity
100
AcDbLine
  8
center
 62
256
370
-1
  6
ByLayer
 10
39.4116882454314066
 20
-7.5000000000000222
 30
0.0
 11
21.0269119345811824
 21
-7.4999999999999982
 31
0.0
  0
ARC
  5
6C
100
AcDbEntity
  8
center
 62
256
370
-1
  6
ByLayer
100
AcDbCircle
 10
21.0269119345811824
 20
-11.5000000000000053
 30
0.0
 40
4.0
100
AcDbArc
 50
90.0
 51
135.0
  0
LINE
  5
6D
100
AcDbEntity
100
AcDbLine
  8
center
 62
256
370
-1
  6
ByLayer
 10
18.1984848098349907
 20
-8.6715728752538173
 30
0.0
 11
8.6715728752538102
 21
-18.1984848098349943
 31
0.0
  0
LINE
  5
6E
100
AcDbEntity
100
AcDbLine
  8
center
 62
256
370
-1
  6
ByLayer
 10
7.4999999999999902
 20
-21.0269119345811859
 30
0.0
 11
7.4999999999999725
 21
-39.411688245431435
 31
0.0
  0
ARC
  5
6F
100
AcDbEntity
  8
center
 62
256
370
-1
  6
ByLayer
100
AcDbCircle
 10
11.4999999999999964
 20
-21.0269119345811895
 30
0.0
 40
4.0
100
AcDbArc
 50
135.0
 51
180.0
  0
LINE
  5
70
100
AcDbEntity
100
AcDbLine
  8
center
 62
256
370
-1
  6
ByLayer
 10
-7.4999999999999858
 20
-39.4116882454314279
 30
0.0
 11
-7.4999999999999973
 21
-21.0269119345811824
 31
0.0
  0
ARC
  5
71
100
AcDbEntity
  8
center
 62
256
370
-1
  6
ByLayer
100
AcDbCircle
 10
-11.5000000000000036
 20
-21.0269119345811824
 30
0.0
 40
4.0
100
AcDbArc
 50
360.0
 51
45.0
  0
LINE
  5
72
100
AcDbEntity
100
AcDbLine
  8
center
 62
256
370
-1
  6
ByLayer
 10
-8.6715728752538155
 20
-18.1984848098349907
 30
0.0
 11
-18.1984848098349943
 21
-8.6715728752538102
 31
0.0
  0
LINE
  5
73
100
AcDbEntity
100
AcDbLine
  8
center
 62
256
370
-1
  6
ByLayer
 10
-21.0269119345811824
 20
-7.5000000000000009
 30
0.0
 11
-39.4116882454314279
 21
-7.499999999999992
 31
0.0
  0
ARC
  5
74
100
AcDbEntity
  8
center
 62
256
370
-1
  6
ByLayer
100
AcDbCircle
 10
-21.0269119345811895
 20
-11.4999999999999964
 30
0.0
 40
4.0
100
AcDbArc
 50
45.0
 51
90.0
  0
ARC
  5
75
100
AcDbEntity
  8
center
 62
256
370
-1
  6
ByLayer
100
AcDbCircle
 10
-9.55382386916237
 20
55.5
 30
0.0
 40
4.0
100
AcDbArc
 50
90.0
 51
135.0
  0
LINE
  5
76
100
AcDbEntity
100
AcDbLine
  8
center
 62
256
370
-1
  6
ByLayer
 10
-9.5538238691623611
 20
59.5
 30
0.0
 11
9.5538238691623683
 21
59.5
 31
0.0
  0
ARC
  5
77
100
AcDbEntity
  8
center
 62
256
370
-1
  6
ByLayer
100
AcDbCircle
 10
9.5538238691623754
 20
55.5
 30
0.0
 40
4.0
100
AcDbArc
 50
45.0
 51
90.0
  0
LINE
  5
78
100
AcDbEntity
100
AcDbLine
  8
center
 62
256
370
-1
  6
ByLayer
 10
12.3822509939085581
 20
58.3284271247461916
 30
0.0
 11
58.3284271247461916
 21
12.3822509939085528
 31
0.0
  0
ARC
  5
79
100
AcDbEntity
  8
center
 62
256
370
-1
  6
ByLayer
100
AcDbCircle
 10
55.5000000000000071
 20
9.5538238691623576
 30
0.0
 40
4.0
100
AcDbArc
 50
359.9999999999999432
 51
45.0
  0
LINE
  5
7A
100
AcDbEntity
100
AcDbLine
  8
center
 62
256
370
-1
  6
ByLayer
 10
59.5
 20
9.5538238691623381
 30
0.0
 11
59.5
 21
-9.5538238691623665
 31
0.0
  0
ARC
  5
7B
100
AcDbEntity
  8
center
 62
256
370
-1
  6
ByLayer
100
AcDbCircle
 10
55.4999999999999929
 20
-9.553823869162386
 30
0.0
 40
4.0
100
AcDbArc
 50
315.0
 51
0.0000000000001018
  0
LINE
  5
7C
100
AcDbEntity
100
AcDbLine
  8
center
 62
256
370
-1
  6
ByLayer
 10
58.3284271247461774
 20
-12.3822509939085794
 30
0.0
 11
12.3822509939085545
 21
-58.3284271247461845
 31
0.0
  0
ARC
  5
7D
100
AcDbEntity
  8
center
 62
256
370
-1
  6
ByLayer
100
AcDbCircle
 10
9.5538238691623611
 20
-55.4999999999999929
 30
0.0
 40
4.0
100
AcDbArc
 50
269.9999999999999432
 51
315.0000000000000568
  0
LINE
  5
7E
100
AcDbEntity
100
AcDbLine
  8
center
 62
256
370
-1
  6
ByLayer
 10
-9.5538238691624162
 20
-59.4999999999999858
 30
0.0
 11
9.5538238691623398
 21
-59.5
 31
0.0
  0
ARC
  5
7F
100
AcDbEntity
  8
center
 62
256
370
-1
  6
ByLayer
100
AcDbCircle
 10
-9.5538238691623807
 20
-55.4999999999999929
 30
0.0
 40
4.0
100
AcDbArc
 50
225.0000000000001421
 51
270.0
  0
LINE
  5
80
100
AcDbEntity
100
AcDbLine
  8
center
 62
256
370
-1
  6
ByLayer
 10
-58.3284271247461916
 20
-12.3822509939085599
 30
0.0
 11
-12.3822509939085776
 21
-58.3284271247461845
 31
0.0
  0
ARC
  5
81
100
AcDbEntity
  8
center
 62
256
370
-1
  6
ByLayer
100
AcDbCircle
 10
-55.5
 20
-9.5538238691623665
 30
0.0
 40
4.0
100
AcDbArc
 50
180.0000000000000284
 51
225.0
  0
LINE
  5
82
100
AcDbEntity
100
AcDbLine
  8
center
 62
256
370
-1
  6
ByLayer
 10
-59.5
 20
-9.55382386916237
 30
0.0
 11
-59.5000000000000071
 21
9.5538238691623594
 31
0.0
  0
LINE
  5
83
100
AcDbEntity
100
AcDbLine
  8
center
 62
256
370
-1
  6
ByLayer
 10
-58.3284271247461916
 20
12.3822509939085474
 30
0.0
 11
-12.3822509939085634
 21
58.3284271247461916
 31
0.0
  0
ARC
  5
84
100
AcDbEntity
  8
center
 62
256
370
-1
  6
ByLayer
100
AcDbCircle
 10
-55.5
 20
9.5538238691623789
 30
0.0
 40
4.0
100
AcDbArc
 50
135.0
 51
180.0000000000000568
  0
CIRCLE
  5
85
100
AcDbEntity
100
AcDbCircle
  8
center
 62
256
370
-1
  6
ByLayer
 10
-32.1733585439879093
 20
32.1733585439879164
 30
0.0
 40
1.5
  0
CIRCLE
  5
86
100
AcDbEntity
100
AcDbCircle
  8
center
 62
256
370
-1
  6
ByLayer
 10
32.1733585439879164
 20
32.1733585439879093
 30
0.0
 40
1.5
  0
CIRCLE
  5
87
100
AcDbEntity
100
AcDbCircle
  8
center
 62
256
370
-1
  6
ByLayer
 10
32.1733585439879022
 20
-32.1733585439879164
 30
0.0
 40
1.5
  0
CIRCLE
  5
88
100
AcDbEntity
100
AcDbCircle
  8
center
 62
256
370
-1
  6
ByLayer
 10
-32.1733585439879164
 20
-32.1733585439879093
 30
0.0
 40
1.5
  0
LINE
  5
89
100
AcDbEntity
100
AcDbLine
  8
helper
 62
256
370
-1
  6
ByLayer
 10
-300.0
 20
0.0
 30
0.0
 11
300.0
 21
0.0
 31
0.0
  0
LINE
  5
8A
100
AcDbEntity
100
AcDbLine
  8
helper
 62
256
370
-1
  6
ByLayer
 10
0.0
 20
300.0
 30
0.0
 11
0.0
 21
-300.0
 31
0.0
  0
LINE
  5
8B
100
AcDbEntity
100
AcDbLine
  8
helper
 62
256
370
-1
  6
ByLayer
 10
21.5667568261896996
 20
-5.0000000000000053
 30
0.0
 11
21.5667568261896996
 21
4.9999999999999947
 31
0.0
  0
LINE
  5
8C
100
AcDbEntity
100
AcDbLine
  8
helper
 62
256
370
-1
  6
ByLayer
 10
-21.5667568261896996
 20
-4.9999999999999973
 30
0.0
 11
-21.5667568261896996
 21
5.0000000000000027
 31
0.0
  0
LINE
  5
8D
100
AcDbEntity
100
AcDbLine
  8
helper
 62
256
370
-1
  6
ByLayer
 10
-31.7500568261897023
 20
-4.9999999999999964
 30
0.0
 11
-31.7500568261897023
 21
5.0000000000000036
 31
0.0
  0
LINE
  5
8E
100
AcDbEntity
100
AcDbLine
  8
helper
 62
256
370
-1
  6
ByLayer
 10
-51.4350568261896939
 20
-4.9999999999999938
 30
0.0
 11
-51.4350568261896939
 21
5.0000000000000062
 31
0.0
  0
LINE
  5
8F
100
AcDbEntity
100
AcDbLine
  8
helper
 62
256
370
-1
  6
ByLayer
 10
31.7500568261896916
 20
-5.000000000000008
 30
0.0
 11
31.7500568261896916
 21
4.999999999999992
 31
0.0
  0
LINE
  5
90
100
AcDbEntity
100
AcDbLine
  8
helper
 62
256
370
-1
  6
ByLayer
 10
51.4350568261896939
 20
-5.0000000000000124
 30
0.0
 11
51.4350568261896939
 21
4.9999999999999876
 31
0.0
  0
LINE
  5
91
100
AcDbEntity
100
AcDbLine
  8
helper
 62
256
370
-1
  6
ByLayer
 10
-4.9999999999999991
 20
21.5667568261896996
 30
0.0
 11
5.0000000000000009
 21
21.5667568261896996
 31
0.0
  0
LINE
  5
92
100
AcDbEntity
100
AcDbLine
  8
helper
 62
256
370
-1
  6
ByLayer
 10
-4.9999999999999982
 20
31.7500568261897058
 30
0.0
 11
5.0000000000000018
 21
31.7500568261897058
 31
0.0
  0
LINE
  5
93
100
AcDbEntity
100
AcDbLine
  8
helper
 62
256
370
-1
  6
ByLayer
 10
-4.9999999999999964
 20
51.4350568261897152
 30
0.0
 11
5.0000000000000036
 21
51.4350568261897152
 31
0.0
  0
LINE
  5
94
100
AcDbEntity
100
AcDbLine
  8
helper
 62
256
370
-1
  6
ByLayer
 10
-5.0000000000000036
 20
-21.5667568261896996
 30
0.0
 11
4.9999999999999964
 21
-21.5667568261896996
 31
0.0
  0
LINE
  5
95
100
AcDbEntity
100
AcDbLine
  8
helper
 62
256
370
-1
  6
ByLayer
 10
-5.0000000000000062
 20
-31.7500568261897023
 30
0.0
 11
4.9999999999999938
 21
-31.7500568261897023
 31
0.0
  0
LINE
  5
96
100
AcDbEntity
100
AcDbLine
  8
helper
 62
256
370
-1
  6
ByLayer
 10
-5.0000000000000098
 20
-51.4350568261896939
 30
0.0
 11
4.9999999999999902
 21
-51.4350568261896939
 31
0.0
  0
LINE
  5
97
100
AcDbEntity
100
AcDbLine
  8
helper
 62
256
370
-1
  6
ByLayer
 10
16.5667568261896996
 20
-5.0000000000000044
 30
0.0
 11
16.5667568261896996
 21
4.9999999999999956
 31
0.0
  0
LINE
  5
98
100
AcDbEntity
100
AcDbLine
  8
helper
 62
256
370
-1
  6
ByLayer
 10
266.5667568261897031
 20
-5.0000000000000657
 30
0.0
 11
266.5667568261897031
 21
4.9999999999999343
 31
0.0
  0
DIMENSION
  5
99
100
AcDbEntity
  8
dimensions
 62
256
370
-1
  6
ByLayer
100
AcDbDimension
 10
21.5667568261896996
 20
1.4999999999999944
 30
0.0
 11
19.0667568261896996
 21
3.3749999999999947
 31
0.0
 70
1
 71
5
 72
0
 41
1.0
 42
0.0
  1

  3
Standard
100
AcDbAlignedDimension
 13
16.5667568261896996
 23
0.0
 33
0.0
 14
21.5667568261896996
 24
0.0
 34
0.0
  0
DIMENSION
  5
9A
100
AcDbEntity
  8
dimensions
 62
256
370
-1
  6
ByLayer
100
AcDbDimension
 10
31.7500568261896916
 20
1.499999999999992
 30
0.0
 11
26.6584068261896974
 21
3.374999999999992
 31
0.0
 70
1
 71
5
 72
0
 41
1.0
 42
0.0
  1

  3
Standard
100
AcDbAlignedDimension
 13
21.5667568261896996
 23
0.0
 33
0.0
 14
31.7500568261896916
 24
0.0
 34
0.0
  0
DIMENSION
  5
9B
100
AcDbEntity
  8
dimensions
 62
256
370
-1
  6
ByLayer
100
AcDbDimension
 10
51.4350568261896939
 20
-1.5000000000000127
 30
0.0
 11
41.5925568261896927
 21
0.3749999999999873
 31
0.0
 70
1
 71
5
 72
0
 41
1.0
 42
0.0
  1

  3
Standard
100
AcDbAlignedDimension
 13
31.7500568261896916
 23
0.0
 33
0.0
 14
51.4350568261896939
 24
0.0
 34
0.0
  0
LINE
  5
9C
100
AcDbEntity
100
AcDbLine
  8
arms_25cm
 62
256
370
-1
  6
ByLayer
 10
16.5667568261896996
 20
-5.0000000000000044
 30
0.0
 11
266.5667568261897031
 21
-5.0000000000000657
 31
0.0
  0
LINE
  5
9D
100
AcDbEntity
100
AcDbLine
  8
arms_25cm
 62
256
370
-1
  6
ByLayer
 10
266.5667568261897031
 20
-5.0000000000000657
 30
0.0
 11
266.5667568261897031
 21
4.9999999999999343
 31
0.0
  0
LINE
  5
9E
100
AcDbEntity
100
AcDbLine
  8
arms_25cm
 62
256
370
-1
  6
ByLayer
 10
266.5667568261897031
 20
4.9999999999999343
 30
0.0
 11
16.5667568261896996
 21
4.9999999999999956
 31
0.0
  0
LINE
  5
9F
100
AcDbEntity
100
AcDbLine
  8
arms_25cm
 62
256
370
-1
  6
ByLayer
 10
16.5667568261896996
 20
4.9999999999999956
 30
0.0
 11
16.5667568261896996
 21
-5.0000000000000044
 31
0.0
  0
CIRCLE
  5
A0
100
AcDbEntity
100
AcDbCircle
  8
arms_25cm
 62
256
370
-1
  6
ByLayer
 10
21.5667568261896996
 20
-0.0000000000000053
 30
0.0
 40
1.55
  0
CIRCLE
  5
A1
100
AcDbEntity
100
AcDbCircle
  8
arms_25cm
 62
256
370
-1
  6
ByLayer
 10
31.7500568261896916
 20
-0.000000000000008
 30
0.0
 40
1.55
  0
CIRCLE
  5
A2
100
AcDbEntity
100
AcDbCircle
  8
arms_25cm
 62
256
370
-1
  6
ByLayer
 10
51.4350568261896939
 20
-0.0000000000000126
 30
0.0
 40
1.55
  0
CIRCLE
  5
A3
100
AcDbEntity
100
AcDbCircle
  8
arms_25cm
 62
256
370
-1
  6
ByLayer
 10
242.5667568261897031
 20
0.0
 30
0.0
 40
1.55
  0
CIRCLE
  5
A4
100
AcDbEntity
100
AcDbCircle
  8
arms_25cm
 62
256
370
-1
  6
ByLayer
 10
261.5667568261897031
 20
0.0
 30
0.0
 40
1.55
  0
CIRCLE
  5
A5
100
AcDbEntity
100
AcDbCircle
  8
arms_25cm
 62
256
370
-1
  6
ByLayer
 10
252.0667568261897031
 20
0.0
 30
0.0
 40
4.0
  0
LINE
  5
A6
100
AcDbEntity
100
AcDbLine
  8
arms_25cm
 62
256
370
-1
  6
ByLayer
 10
5.0000000000000107
 20
16.5667568261896996
 30
0.0
 11
5.000000000000199
 21
266.5667568261897031
 31
0.0
  0
LINE
  5
A7
100
AcDbEntity
100
AcDbLine
  8
arms_25cm
 62
256
370
-1
  6
ByLayer
 10
5.000000000000199
 20
266.5667568261897031
 30
0.0
 11
-4.9999999999999236
 21
266.5667568261897031
 31
0.0
  0
LINE
  5
A8
100
AcDbEntity
100
AcDbLine
  8
arms_25cm
 62
256
370
-1
  6
ByLayer
 10
-4.9999999999999236
 20
266.5667568261897031
 30
0.0
 11
-4.9999999999999956
 21
16.5667568261896996
 31
0.0
  0
LINE
  5
A9
100
AcDbEntity
100
AcDbLine
  8
arms_25cm
 62
256
370
-1
  6
ByLayer
 10
-4.9999999999999956
 20
16.5667568261896996
 30
0.0
 11
5.0000000000000107
 21
16.5667568261896996
 31
0.0
  0
CIRCLE
  5
AA
100
AcDbEntity
100
AcDbCircle
  8
arms_25cm
 62
256
370
-1
  6
ByLayer
 10
0.0000000000000066
 20
21.5667568261896996
 30
0.0
 40
1.55
  0
CIRCLE
  5
AB
100
AcDbEntity
100
AcDbCircle
  8
arms_25cm
 62
256
370
-1
  6
ByLayer
 10
0.0000000000000097
 20
31.7500568261896916
 30
0.0
 40
1.55
  0
CIRCLE
  5
AC
100
AcDbEntity
100
AcDbCircle
  8
arms_25cm
 62
256
370
-1
  6
ByLayer
 10
0.0000000000000157
 20
51.4350568261896939
 30
0.0
 40
1.55
  0
CIRCLE
  5
AD
100
AcDbEntity
100
AcDbCircle
  8
arms_25cm
 62
256
370
-1
  6
ByLayer
 10
0.0000000000000149
 20
242.5667568261897031
 30
0.0
 40
1.55
  0
CIRCLE
  5
AE
100
AcDbEntity
100
AcDbCircle
  8
arms_25cm
 62
256
370
-1
  6
ByLayer
 10
0.000000000000016
 20
261.5667568261897031
 30
0.0
 40
1.55
  0
CIRCLE
  5
AF
100
AcDbEntity
100
AcDbCircle
  8
arms_25cm
 62
256
370
-1
  6
ByLayer
 10
0.0000000000000154
 20
252.0667568261897031
 30
0.0
 40
4.0
  0
LINE
  5
B0
100
AcDbEntity
100
AcDbLine
  8
arms_25cm
 62
256
370
-1
  6
ByLayer
 10
-16.5667568261897031
 20
4.9999999999999964
 30
0.0
 11
-266.5667568261897031
 21
5.0000000000002149
 31
0.0
  0
LINE
  5
B1
100
AcDbEntity
100
AcDbLine
  8
arms_25cm
 62
256
370
-1
  6
ByLayer
 10
-266.5667568261897031
 20
5.0000000000002149
 30
0.0
 11
-266.5667568261897031
 21
-4.9999999999998472
 31
0.0
  0
LINE
  5
B2
100
AcDbEntity
100
AcDbLine
  8
arms_25cm
 62
256
370
-1
  6
ByLayer
 10
-266.5667568261897031
 20
-4.9999999999998472
 30
0.0
 11
-16.5667568261896996
 21
-4.9999999999999947
 31
0.0
  0
LINE
  5
B3
100
AcDbEntity
100
AcDbLine
  8
arms_25cm
 62
256
370
-1
  6
ByLayer
 10
-16.5667568261896996
 20
-4.9999999999999947
 30
0.0
 11
-16.5667568261897031
 21
4.9999999999999964
 31
0.0
  0
CIRCLE
  5
B4
100
AcDbEntity
100
AcDbCircle
  8
arms_25cm
 62
256
370
-1
  6
ByLayer
 10
-21.5667568261896996
 20
0.0000000000000079
 30
0.0
 40
1.55
  0
CIRCLE
  5
B5
100
AcDbEntity
100
AcDbCircle
  8
arms_25cm
 62
256
370
-1
  6
ByLayer
 10
-31.7500568261896916
 20
0.0000000000000117
 30
0.0
 40
1.55
  0
CIRCLE
  5
B6
100
AcDbEntity
100
AcDbCircle
  8
arms_25cm
 62
256
370
-1
  6
ByLayer
 10
-51.4350568261896939
 20
0.0000000000000189
 30
0.0
 40
1.55
  0
CIRCLE
  5
B7
100
AcDbEntity
100
AcDbCircle
  8
arms_25cm
 62
256
370
-1
  6
ByLayer
 10
-242.5667568261897031
 20
0.0000000000000297
 30
0.0
 40
1.55
  0
CIRCLE
  5
B8
100
AcDbEntity
100
AcDbCircle
  8
arms_25cm
 62
256
370
-1
  6
ByLayer
 10
-261.5667568261897031
 20
0.000000000000032
 30
0.0
 40
1.55
  0
CIRCLE
  5
B9
100
AcDbEntity
100
AcDbCircle
  8
arms_25cm
 62
256
370
-1
  6
ByLayer
 10
-252.0667568261897031
 20
0.0000000000000309
 30
0.0
 40
4.0
  0
LINE
  5
BA
100
AcDbEntity
100
AcDbLine
  8
arms_25cm
 62
256
370
-1
  6
ByLayer
 10
-4.9999999999999982
 20
-16.5667568261897031
 30
0.0
 11
-5.0000000000002318
 21
-266.5667568261897031
 31
0.0
  0
LINE
  5
BB
100
AcDbEntity
100
AcDbLine
  8
arms_25cm
 62
256
370
-1
  6
ByLayer
 10
-5.0000000000002318
 20
-266.5667568261897031
 30
0.0
 11
4.9999999999998321
 21
-266.5667568261897031
 31
0.0
  0
LINE
  5
BC
100
AcDbEntity
100
AcDbLine
  8
arms_25cm
 62
256
370
-1
  6
ByLayer
 10
4.9999999999998321
 20
-266.5667568261897031
 30
0.0
 11
4.9999999999999867
 21
-16.5667568261897031
 31
0.0
  0
LINE
  5
BD
100
AcDbEntity
100
AcDbLine
  8
arms_25cm
 62
256
370
-1
  6
ByLayer
 10
4.9999999999999867
 20
-16.5667568261897031
 30
0.0
 11
-4.9999999999999982
 21
-16.5667568261897031
 31
0.0
  0
CIRCLE
  5
BE
100
AcDbEntity
100
AcDbCircle
  8
arms_25cm
 62
256
370
-1
  6
ByLayer
 10
-0.0000000000000092
 20
-21.5667568261896996
 30
0.0
 40
1.55
  0
CIRCLE
  5
BF
100
AcDbEntity
100
AcDbCircle
  8
arms_25cm
 62
256
370
-1
  6
ByLayer
 10
-0.0000000000000136
 20
-31.7500568261896916
 30
0.0
 40
1.55
  0
CIRCLE
  5
C0
100
AcDbEntity
100
AcDbCircle
  8
arms_25cm
 62
256
370
-1
  6
ByLayer
 10
-0.000000000000022
 20
-51.4350568261896939
 30
0.0
 40
1.55
  0
CIRCLE
  5
C1
100
AcDbEntity
100
AcDbCircle
  8
arms_25cm
 62
256
370
-1
  6
ByLayer
 10
-0.0000000000000446
 20
-242.5667568261897031
 30
0.0
 40
1.55
  0
CIRCLE
  5
C2
100
AcDbEntity
100
AcDbCircle
  8
arms_25cm
 62
256
370
-1
  6
ByLayer
 10
-0.000000000000048
 20
-261.5667568261897031
 30
0.0
 40
1.55
  0
CIRCLE
  5
C3
100
AcDbEntity
100
AcDbCircle
  8
arms_25cm
 62
256
370
-1
  6
ByLayer
 10
-0.0000000000000463
 20
-252.0667568261897031
 30
0.0
 40
4.0
  0
LINE
  5
C4
100
AcDbEntity
100
AcDbLine
  8
arms_20cm
 62
256
370
-1
  6
ByLayer
 10
16.5667568261896996
 20
4.9999999999999956
 30
0.0
 11
16.5667568261896996
 21
-5.0000000000000044
 31
0.0
  0
CIRCLE
  5
C5
100
AcDbEntity
100
AcDbCircle
  8
arms_20cm
 62
256
370
-1
  6
ByLayer
 10
21.5667568261896996
 20
-0.0000000000000053
 30
0.0
 40
1.55
  0
CIRCLE
  5
C6
100
AcDbEntity
100
AcDbCircle
  8
arms_20cm
 62
256
370
-1
  6
ByLayer
 10
31.7500568261896916
 20
-0.000000000000008
 30
0.0
 40
1.55
  0
CIRCLE
  5
C7
100
AcDbEntity
100
AcDbCircle
  8
arms_20cm
 62
256
370
-1
  6
ByLayer
 10
51.4350568261896939
 20
-0.0000000000000126
 30
0.0
 40
1.55
  0
LINE
  5
C8
100
AcDbEntity
100
AcDbLine
  8
arms_20cm
 62
256
370
-1
  6
ByLayer
 10
216.5667568261897031
 20
-5.0000000000000657
 30
0.0
 11
216.5667568261897031
 21
4.9999999999999343
 31
0.0
  0
CIRCLE
  5
C9
100
AcDbEntity
100
AcDbCircle
  8
arms_20cm
 62
256
370
-1
  6
ByLayer
 10
192.5667568261897031
 20
0.0
 30
0.0
 40
1.55
  0
CIRCLE
  5
CA
100
AcDbEntity
100
AcDbCircle
  8
arms_20cm
 62
256
370
-1
  6
ByLayer
 10
211.5667568261897031
 20
0.0
 30
0.0
 40
1.55
  0
CIRCLE
  5
CB
100
AcDbEntity
100
AcDbCircle
  8
arms_20cm
 62
256
370
-1
  6
ByLayer
 10
202.0667568261897031
 20
0.0
 30
0.0
 40
4.0
  0
LINE
  5
CC
100
AcDbEntity
100
AcDbLine
  8
arms_20cm
 62
256
370
-1
  6
ByLayer
 10
16.5667568261896996
 20
4.9999999999999956
 30
0.0
 11
216.5667568261897031
 21
4.9999999999999343
 31
0.0
  0
LINE
  5
CD
100
AcDbEntity
100
AcDbLine
  8
arms_20cm
 62
256
370
-1
  6
ByLayer
 10
216.5667568261897031
 20
-5.0000000000000657
 30
0.0
 11
16.5667568261896996
 21
-5.0000000000000044
 31
0.0
  0
LINE
  5
CE
100
AcDbEntity
100
AcDbLine
  8
arms_20cm
 62
256
370
-1
  6
ByLayer
 10
-4.9999999999999956
 20
16.5667568261896996
 30
0.0
 11
5.0000000000000107
 21
16.5667568261896996
 31
0.0
  0
CIRCLE
  5
CF
100
AcDbEntity
100
AcDbCircle
  8
arms_20cm
 62
256
370
-1
  6
ByLayer
 10
0.0000000000000066
 20
21.5667568261896996
 30
0.0
 40
1.55
  0
CIRCLE
  5
D0
100
AcDbEntity
100
AcDbCircle
  8
arms_20cm
 62
256
370
-1
  6
ByLayer
 10
0.0000000000000097
 20
31.7500568261896916
 30
0.0
 40
1.55
  0
CIRCLE
  5
D1
100
AcDbEntity
100
AcDbCircle
  8
arms_20cm
 62
256
370
-1
  6
ByLayer
 10
0.0000000000000157
 20
51.4350568261896939
 30
0.0
 40
1.55
  0
LINE
  5
D2
100
AcDbEntity
100
AcDbLine
  8
arms_20cm
 62
256
370
-1
  6
ByLayer
 10
5.0000000000002185
 20
216.5667568261897031
 30
0.0
 11
-4.9999999999998987
 21
216.5667568261897316
 31
0.0
  0
CIRCLE
  5
D3
100
AcDbEntity
100
AcDbCircle
  8
arms_20cm
 62
256
370
-1
  6
ByLayer
 10
0.0000000000000118
 20
192.5667568261897031
 30
0.0
 40
1.55
  0
CIRCLE
  5
D4
100
AcDbEntity
100
AcDbCircle
  8
arms_20cm
 62
256
370
-1
  6
ByLayer
 10
0.000000000000013
 20
211.5667568261897031
 30
0.0
 40
1.55
  0
CIRCLE
  5
D5
100
AcDbEntity
100
AcDbCircle
  8
arms_20cm
 62
256
370
-1
  6
ByLayer
 10
0.0000000000000124
 20
202.0667568261897031
 30
0.0
 40
4.0
  0
LINE
  5
D6
100
AcDbEntity
100
AcDbLine
  8
arms_20cm
 62
256
370
-1
  6
ByLayer
 10
-4.9999999999999956
 20
16.5667568261896996
 30
0.0
 11
-4.9999999999998987
 21
216.5667568261897316
 31
0.0
  0
LINE
  5
D7
100
AcDbEntity
100
AcDbLine
  8
arms_20cm
 62
256
370
-1
  6
ByLayer
 10
5.0000000000002185
 20
216.5667568261897031
 30
0.0
 11
5.0000000000000107
 21
16.5667568261896996
 31
0.0
  0
LINE
  5
D8
100
AcDbEntity
100
AcDbLine
  8
arms_20cm
 62
256
370
-1
  6
ByLayer
 10
-16.5667568261896996
 20
-4.9999999999999947
 30
0.0
 11
-16.5667568261897031
 21
4.9999999999999964
 31
0.0
  0
CIRCLE
  5
D9
100
AcDbEntity
100
AcDbCircle
  8
arms_20cm
 62
256
370
-1
  6
ByLayer
 10
-21.5667568261896996
 20
0.0000000000000079
 30
0.0
 40
1.55
  0
CIRCLE
  5
DA
100
AcDbEntity
100
AcDbCircle
  8
arms_20cm
 62
256
370
-1
  6
ByLayer
 10
-31.7500568261896916
 20
0.0000000000000117
 30
0.0
 40
1.55
  0
CIRCLE
  5
DB
100
AcDbEntity
100
AcDbCircle
  8
arms_20cm
 62
256
370
-1
  6
ByLayer
 10
-51.4350568261896939
 20
0.0000000000000189
 30
0.0
 40
1.55
  0
LINE
  5
DC
100
AcDbEntity
100
AcDbLine
  8
arms_20cm
 62
256
370
-1
  6
ByLayer
 10
-216.5667568261897316
 20
5.0000000000000391
 30
0.0
 11
-216.5667568261897316
 21
-4.9999999999999334
 31
0.0
  0
CIRCLE
  5
DD
100
AcDbEntity
100
AcDbCircle
  8
arms_20cm
 62
256
370
-1
  6
ByLayer
 10
-192.5667568261897031
 20
0.0000000000000236
 30
0.0
 40
1.55
  0
CIRCLE
  5
DE
100
AcDbEntity
100
AcDbCircle
  8
arms_20cm
 62
256
370
-1
  6
ByLayer
 10
-211.5667568261897031
 20
0.0000000000000259
 30
0.0
 40
1.55
  0
CIRCLE
  5
DF
100
AcDbEntity
100
AcDbCircle
  8
arms_20cm
 62
256
370
-1
  6
ByLayer
 10
-202.0667568261897031
 20
0.0000000000000247
 30
0.0
 40
4.0
  0
LINE
  5
E0
100
AcDbEntity
100
AcDbLine
  8
arms_20cm
 62
256
370
-1
  6
ByLayer
 10
-16.5667568261896996
 20
-4.9999999999999947
 30
0.0
 11
-216.5667568261897316
 21
-4.9999999999999334
 31
0.0
  0
LINE
  5
E1
100
AcDbEntity
100
AcDbLine
  8
arms_20cm
 62
256
370
-1
  6
ByLayer
 10
-216.5667568261897316
 20
5.0000000000000391
 30
0.0
 11
-16.5667568261897031
 21
4.9999999999999964
 31
0.0
  0
LINE
  5
E2
100
AcDbEntity
100
AcDbLine
  8
arms_20cm
 62
256
370
-1
  6
ByLayer
 10
4.9999999999999867
 20
-16.5667568261897031
 30
0.0
 11
-4.9999999999999982
 21
-16.5667568261897031
 31
0.0
  0
CIRCLE
  5
E3
100
AcDbEntity
100
AcDbCircle
  8
arms_20cm
 62
256
370
-1
  6
ByLayer
 10
-0.0000000000000092
 20
-21.5667568261896996
 30
0.0
 40
1.55
  0
CIRCLE
  5
E4
100
AcDbEntity
100
AcDbCircle
  8
arms_20cm
 62
256
370
-1
  6
ByLayer
 10
-0.0000000000000136
 20
-31.7500568261896916
 30
0.0
 40
1.55
  0
CIRCLE
  5
E5
100
AcDbEntity
100
AcDbCircle
  8
arms_20cm
 62
256
370
-1
  6
ByLayer
 10
-0.000000000000022
 20
-51.4350568261896939
 30
0.0
 40
1.55
  0
LINE
  5
E6
100
AcDbEntity
100
AcDbLine
  8
arms_20cm
 62
256
370
-1
  6
ByLayer
 10
-5.0000000000000524
 20
-216.5667568261897316
 30
0.0
 11
4.999999999999921
 21
-216.5667568261897316
 31
0.0
  0
CIRCLE
  5
E7
100
AcDbEntity
100
AcDbCircle
  8
arms_20cm
 62
256
370
-1
  6
ByLayer
 10
-0.0000000000000354
 20
-192.5667568261897031
 30
0.0
 40
1.55
  0
CIRCLE
  5
E8
100
AcDbEntity
100
AcDbCircle
  8
arms_20cm
 62
256
370
-1
  6
ByLayer
 10
-0.0000000000000389
 20
-211.5667568261897031
 30
0.0
 40
1.55
  0
CIRCLE
  5
E9
100
AcDbEntity
100
AcDbCircle
  8
arms_20cm
 62
256
370
-1
  6
ByLayer
 10
-0.0000000000000371
 20
-202.0667568261897031
 30
0.0
 40
4.0
  0
LINE
  5
EA
100
AcDbEntity
100
AcDbLine
  8
arms_20cm
 62
256
370
-1
  6
ByLayer
 10
4.9999999999999867
 20
-16.5667568261897031
 30
0.0
 11
4.999999999999921
 21
-216.5667568261897316
 31
0.0
  0
LINE
  5
EB
100
AcDbEntity
100
AcDbLine
  8
arms_20cm
 62
256
370
-1
  6
ByLayer
 10
-5.0000000000000524
 20
-216.5667568261897316
 30
0.0
 11
-4.9999999999999982
 21
-16.5667568261897031
 31
0.0
  0
ENDSEC
  0
SECTION
  2
OBJECTS
  0
DICTIONARY
  5
C
100
AcDbDictionary
280
0
281
1
  3
ACAD_GROUP
350
D
  3
ACAD_LAYOUT
350
1A
  3
ACAD_MLINESTYLE
350
17
  3
ACAD_PLOTSETTINGS
350
19
  3
ACAD_PLOTSTYLENAME
350
E
  3
AcDbVariableDictionary
350
EC
  0
DICTIONARY
  5
D
100
AcDbDictionary
280
0
281
1
  0
ACDBDICTIONARYWDFLT
  5
E
100
AcDbDictionary
281
1
  3
Normal
350
F
100
AcDbDictionaryWithDefault
340
F
  0
ACDBPLACEHOLDER
  5
F
  0
DICTIONARY
  5
17
100
AcDbDictionary
280
0
281
1
  3
Standard
350
18
  0
MLINESTYLE
  5
18
100
AcDbMlineStyle
  2
STANDARD
 70
0
  3

 62
256
 51
90.0
 52
90.0
 71
2
 49
0.5
 62
256
  6
BYLAYER
 49
-0.5
 62
256
  6
BYLAYER
  0
DICTIONARY
  5
19
100
AcDbDictionary
280
0
281
1
  0
DICTIONARY
  5
1A
100
AcDbDictionary
281
1
  3
Layout1
350
1E
  3
Layout2
350
26
  3
Model
350
22
  0
LAYOUT
  5
1E
100
AcDbPlotSettings
  1

  2
C:\Program Files\AutoCAD 2002\plotters\DWF ePlot (optimized for plotting).pc3
  4

  6

 40
0.0
 41
0.0
 42
0.0
 43
0.0
 44
0.0
 45
0.0
 46
0.0
 47
0.0
 48
0.0
 49
0.0
140
0.0
141
0.0
142
1.0
143
1.0
 70
688
 72
0
 73
0
 74
5
  7

 75
16
147
1.0
148
0.0
149
0.0
100
AcDbLayout
  1
Layout1
 70
1
 71
1
 10
0.0
 20
0.0
 11
420.0
 21
297.0
 12
0.0
 22
0.0
 32
0.0
 14
100000000000000000000.0
 24
100000000000000000000.0
 34
100000000000000000000.0
 15
-100000000000000000000.0
 25
-100000000000000000000.0
 35
-100000000000000000000.0
146
0.0
 13
0.0
 23
0.0
 33
0.0
 16
1.0
 26
0.0
 36
0.0
 17
0.0
 27
1.0
 37
0.0
 76
0
330
1B
  0
LAYOUT
  5
22
100
AcDbPlotSettings
  1

  2
C:\Program Files\AutoCAD 2002\plotters\DWF ePlot (optimized for plotting).pc3
  4

  6

 40
0.0
 41
0.0
 42
0.0
 43
0.0
 44
0.0
 45
0.0
 46
0.0
 47
0.0
 48
0.0
 49
0.0
140
0.0
141
0.0
142
1.0
143
1.0
 70
1712
 72
0
 73
0
 74
0
  7

 75
0
147
1.0
148
0.0
149
0.0
100
AcDbLayout
  1
Model
 70
1
 71
0
 10
0.0
 20
0.0
 11
12.0
 21
9.0
 12
0.0
 22
0.0
 32
0.0
 14
0.0
 24
0.0
 34
0.0
 15
0.0
 25
0.0
 35
0.0
146
0.0
 13
0.0
 23
0.0
 33
0.0
 16
1.0
 26
0.0
 36
0.0
 17
0.0
 27
1.0
 37
0.0
 76
0
330
1F
  0
LAYOUT
  5
26
100
AcDbPlotSettings
  1

  2
C:\Program Files\AutoCAD 2002\plotters\DWF ePlot (optimized for plotting).pc3
  4

  6

 40
0.0
 41
0.0
 42
0.0
 43
0.0
 44
0.0
 45
0.0
 46
0.0
 47
0.0
 48
0.0
 49
0.0
140
0.0
141
0.0
142
1.0
143
1.0
 70
688
 72
0
 73
0
 74
5
  7

 75
16
147
1.0
148
0.0
149
0.0
100
AcDbLayout
  1
Layout2
 70
1
 71
2
 10
0.0
 20
0.0
 11
12.0
 21
9.0
 12
0.0
 22
0.0
 32
0.0
 14
0.0
 24
0.0
 34
0.0
 15
0.0
 25
0.0
 35
0.0
146
0.0
 13
0.0
 23
0.0
 33
0.0
 16
1.0
 26
0.0
 36
0.0
 17
0.0
 27
1.0
 37
0.0
 76
0
330
23
  0
DICTIONARY
  5
EC
100
AcDbDictionary
281
1
  3
DIMASSOC
350
EE
  3
HIDETEXT
350
ED
  0
DICTIONARYVAR
  5
ED
100
DictionaryVariables
280
0
  1
2
  0
DICTIONARYVAR
  5
EE
100
DictionaryVariables
280
0
  1
1
  0
ENDSEC
  0
EOF
