999
dxflib 2.2.0.0
  0
SECTION
  2
HEADER
  9
$ACADVER
  1
AC1015
  9
$HANDSEED
  5
FFFF
  9
$DIMASZ
 40
2.5
  9
$PLIMMIN
 10
0.0
 20
0.0
  9
$DIMEXE
 40
1.25
  9
$DIMGAP
 40
0.625
  9
$PLIMMAX
 10
210.0
 20
297.0
  9
$PSVPSCALE
 40
1.0
  9
$PINSBASE
 10
74.8947368421052175
 20
221.4473684210525448
 30
0.0
  9
$INSUNITS
 70
4
  9
$DIMSTYLE
  2
Standard
  9
$DIMEXO
 40
0.625
  9
$DIMTXT
 40
2.5
  0
ENDSEC
  0
SECTION
  2
TABLES
  0
TABLE
  2
VPORT
  5
8
100
AcDbSymbolTable
 70
1
  0
VPORT
  5
30
100
AcDbSymbolTableRecord
100
AcDbViewportTableRecord
  2
*Active
 70
0
 10
0.0
 20
0.0
 11
1.0
 21
1.0
 12
286.3055555555554861
 22
148.5
 13
0.0
 23
0.0
 14
10.0
 24
10.0
 15
10.0
 25
10.0
 16
0.0
 26
0.0
 36
1.0
 17
0.0
 27
0.0
 37
0.0
 40
297.0
 41
1.92798353909465
 42
50.0
 43
0.0
 44
0.0
 50
0.0
 51
0.0
 71
0
 72
100
 73
1
 74
3
 75
1
 76
1
 77
0
 78
0
281
0
 65
1
110
0.0
120
0.0
130
0.0
111
1.0
121
0.0
131
0.0
112
0.0
122
1.0
132
0.0
 79
0
146
0.0
  0
ENDTAB
  0
TABLE
  2
LTYPE
  5
5
100
AcDbSymbolTable
 70
21
  0
LTYPE
  5
14
100
AcDbSymbolTableRecord
100
AcDbLinetypeTableRecord
  2
ByBlock
 70
0
  3

 72
65
 73
0
 40
0.0
  0
LTYPE
  5
15
100
AcDbSymbolTableRecord
100
AcDbLinetypeTableRecord
  2
ByLayer
 70
0
  3

 72
65
 73
0
 40
0.0
  0
LTYPE
  5
16
100
AcDbSymbolTableRecord
100
AcDbLinetypeTableRecord
  2
CONTINUOUS
 70
0
  3
Solid line
 72
65
 73
0
 40
0.0
  0
LTYPE
  5
31
100
AcDbSymbolTableRecord
100
AcDbLinetypeTableRecord
  2
DOT
 70
0
  3
Dot . . . . . . . . . . . . . . . . . . . . . .
 72
65
 73
2
 40
6.3499999999999996
 49
0.0
 74
0
 49
-6.3499999999999996
 74
0
  0
LTYPE
  5
32
100
AcDbSymbolTableRecord
100
AcDbLinetypeTableRecord
  2
DOT2
 70
0
  3
Dot (.5x) .....................................
 72
65
 73
2
 40
3.1749999999999998
 49
0.0
 74
0
 49
-3.1749999999999998
 74
0
  0
LTYPE
  5
33
100
AcDbSymbolTableRecord
100
AcDbLinetypeTableRecord
  2
DOTX2
 70
0
  3
Dot (2x) .  .  .  .  .  .  .  .  .  .  .  .  .
 72
65
 73
2
 40
12.6999999999999993
 49
0.0
 74
0
 49
-12.6999999999999993
 74
0
  0
LTYPE
  5
34
100
AcDbSymbolTableRecord
100
AcDbLinetypeTableRecord
  2
DASHED
 70
0
  3
Dashed __ __ __ __ __ __ __ __ __ __ __ __ __ _
 72
65
 73
2
 40
19.0500000000000007
 49
12.6999999999999993
 74
0
 49
-6.3499999999999996
 74
0
  0
LTYPE
  5
35
100
AcDbSymbolTableRecord
100
AcDbLinetypeTableRecord
  2
DASHED2
 70
0
  3
Dashed (.5x) _ _ _ _ _ _ _ _ _ _ _ _ _ _ _ _ _
 72
65
 73
2
 40
9.5250000000000004
 49
6.3499999999999996
 74
0
 49
-3.1749999999999998
 74
0
  0
LTYPE
  5
36
100
AcDbSymbolTableRecord
100
AcDbLinetypeTableRecord
  2
DASHEDX2
 70
0
  3
Dashed (2x) ____  ____  ____  ____  ____  ___
 72
65
 73
2
 40
38.1000000000000014
 49
25.3999999999999986
 74
0
 49
-12.6999999999999993
 74
0
  0
LTYPE
  5
37
100
AcDbSymbolTableRecord
100
AcDbLinetypeTableRecord
  2
DASHDOT
 70
0
  3
Dash dot __ . __ . __ . __ . __ . __ . __ . __
 72
65
 73
4
 40
25.3999999999999986
 49
12.6999999999999993
 74
0
 49
-6.3499999999999996
 74
0
 49
0.0
 74
0
 49
-6.3499999999999996
 74
0
  0
LTYPE
  5
38
100
AcDbSymbolTableRecord
100
AcDbLinetypeTableRecord
  2
DASHDOT2
 70
0
  3
Dash dot (.5x) _._._._._._._._._._._._._._._.
 72
65
 73
4
 40
12.6999999999999993
 49
6.3499999999999996
 74
0
 49
-3.1749999999999998
 74
0
 49
0.0
 74
0
 49
-3.1749999999999998
 74
0
  0
LTYPE
  5
39
100
AcDbSymbolTableRecord
100
AcDbLinetypeTableRecord
  2
DASHDOTX2
 70
0
  3
Dash dot (2x) ____  .  ____  .  ____  .  ___
 72
65
 73
4
 40
50.7999999999999972
 49
25.3999999999999986
 74
0
 49
-12.6999999999999993
 74
0
 49
0.0
 74
0
 49
-12.6999999999999993
 74
0
  0
LTYPE
  5
3A
100
AcDbSymbolTableRecord
100
AcDbLinetypeTableRecord
  2
DIVIDE
 70
0
  3
Divide ____ . . ____ . . ____ . . ____ . . ____
 72
65
 73
6
 40
31.75
 49
12.6999999999999993
 74
0
 49
-6.3499999999999996
 74
0
 49
0.0
 74
0
 49
-6.3499999999999996
 74
0
 49
0.0
 74
0
 49
-6.3499999999999996
 74
0
  0
LTYPE
  5
3B
100
AcDbSymbolTableRecord
100
AcDbLinetypeTableRecord
  2
DIVIDE2
 70
0
  3
Divide (.5x) __..__..__..__..__..__..__..__.._
 72
65
 73
6
 40
15.875
 49
6.3499999999999996
 74
0
 49
-3.1749999999999998
 74
0
 49
0.0
 74
0
 49
-3.1749999999999998
 74
0
 49
0.0
 74
0
 49
-3.1749999999999998
 74
0
  0
LTYPE
  5
3C
100
AcDbSymbolTableRecord
100
AcDbLinetypeTableRecord
  2
DIVIDEX2
 70
0
  3
Divide (2x) ________  .  .  ________  .  .  _
 72
65
 73
6
 40
63.5
 49
25.3999999999999986
 74
0
 49
-12.6999999999999993
 74
0
 49
0.0
 74
0
 49
-12.6999999999999993
 74
0
 49
0.0
 74
0
 49
-12.6999999999999993
 74
0
  0
LTYPE
  5
3D
100
AcDbSymbolTableRecord
100
AcDbLinetypeTableRecord
  2
CENTER
 70
0
  3
Center ____ _ ____ _ ____ _ ____ _ ____ _ ____
 72
65
 73
4
 40
50.7999999999999972
 49
31.75
 74
0
 49
-6.3499999999999996
 74
0
 49
6.3499999999999996
 74
0
 49
-6.3499999999999996
 74
0
  0
LTYPE
  5
3E
100
AcDbSymbolTableRecord
100
AcDbLinetypeTableRecord
  2
CENTER2
 70
0
  3
Center (.5x) ___ _ ___ _ ___ _ ___ _ ___ _ ___
 72
65
 73
4
 40
28.5749999999999993
 49
19.0500000000000007
 74
0
 49
-3.1749999999999998
 74
0
 49
3.1749999999999998
 74
0
 49
-3.1749999999999998
 74
0
  0
LTYPE
  5
3F
100
AcDbSymbolTableRecord
100
AcDbLinetypeTableRecord
  2
CENTERX2
 70
0
  3
Center (2x) ________  __  ________  __  _____
 72
65
 73
4
 40
101.5999999999999943
 49
63.5
 74
0
 49
-12.6999999999999993
 74
0
 49
12.6999999999999993
 74
0
 49
-12.6999999999999993
 74
0
  0
LTYPE
  5
40
100
AcDbSymbolTableRecord
100
AcDbLinetypeTableRecord
  2
BORDER
 70
0
  3
Border __ __ . __ __ . __ __ . __ __ . __ __ .
 72
65
 73
6
 40
44.4500000000000028
 49
12.6999999999999993
 74
0
 49
-6.3499999999999996
 74
0
 49
12.6999999999999993
 74
0
 49
-6.3499999999999996
 74
0
 49
0.0
 74
0
 49
-6.3499999999999996
 74
0
  0
LTYPE
  5
41
100
AcDbSymbolTableRecord
100
AcDbLinetypeTableRecord
  2
BORDER2
 70
0
  3
Border (.5x) __.__.__.__.__.__.__.__.__.__.__.
 72
65
 73
6
 40
22.2250000000000014
 49
6.3499999999999996
 74
0
 49
-3.1749999999999998
 74
0
 49
6.3499999999999996
 74
0
 49
-3.1749999999999998
 74
0
 49
0.0
 74
0
 49
-3.1749999999999998
 74
0
  0
LTYPE
  5
42
100
AcDbSymbolTableRecord
100
AcDbLinetypeTableRecord
  2
BORDERX2
 70
0
  3
Border (2x) ____  ____  .  ____  ____  .  ___
 72
65
 73
6
 40
88.9000000000000057
 49
25.3999999999999986
 74
0
 49
-12.6999999999999993
 74
0
 49
25.3999999999999986
 74
0
 49
-12.6999999999999993
 74
0
 49
0.0
 74
0
 49
-12.6999999999999993
 74
0
  0
ENDTAB
  0
TABLE
  2
LAYER
  5
2
100
AcDbSymbolTable
 70
19
  0
LAYER
  5
10
100
AcDbSymbolTableRecord
100
AcDbLayerTableRecord
  2
0
 70
0
 62
7
  6
CONTINUOUS
290
1
370
0
390
F
  0
LAYER
  5
43
100
AcDbSymbolTableRecord
100
AcDbLayerTableRecord
  2
props_8inch
 70
0
 62
9
  6
CONTINUOUS
290
1
370
0
390
F
  0
LAYER
  5
44
100
AcDbSymbolTableRecord
100
AcDbLayerTableRecord
  2
motor
 70
1
 62
8
  6
CONTINUOUS
290
1
370
0
390
F
  0
LAYER
  5
45
100
AcDbSymbolTableRecord
100
AcDbLayerTableRecord
  2
motor_mount
 70
0
 62
6
  6
CONTINUOUS
290
1
370
0
390
F
  0
LAYER
  5
46
100
AcDbSymbolTableRecord
100
AcDbLayerTableRecord
  2
helper
 70
1
 62
5
  6
CONTINUOUS
290
1
370
0
390
F
  0
LAYER
  5
47
100
AcDbSymbolTableRecord
100
AcDbLayerTableRecord
  2
dimensions
 70
1
 62
1
  6
CONTINUOUS
290
1
370
0
390
F
  0
LAYER
  5
48
100
AcDbSymbolTableRecord
100
AcDbLayerTableRecord
  2
boom
 70
0
 62
2
  6
CONTINUOUS
290
1
370
0
390
F
  0
LAYER
  5
49
100
AcDbSymbolTableRecord
100
AcDbLayerTableRecord
  2
boom_holder
 70
0
 62
6
  6
CONTINUOUS
290
1
370
0
390
F
  0
LAYER
  5
4A
100
AcDbSymbolTableRecord
100
AcDbLayerTableRecord
  2
helper_center
 70
1
 62
5
  6
DOT
290
1
370
0
390
F
  0
LAYER
  5
4B
100
AcDbSymbolTableRecord
100
AcDbLayerTableRecord
  2
helper_battery
 70
1
 62
5
  6
DASHED
290
1
370
0
390
F
  0
LAYER
  5
4C
100
AcDbSymbolTableRecord
100
AcDbLayerTableRecord
  2
center_plate_curved
 70
1
 62
3
  6
CONTINUOUS
290
1
370
0
390
F
  0
LAYER
  5
4D
100
AcDbSymbolTableRecord
100
AcDbLayerTableRecord
  2
center_plate_battery
 70
1
 62
3
  6
CONTINUOUS
290
1
370
0
390
F
  0
LAYER
  5
4E
100
AcDbSymbolTableRecord
100
AcDbLayerTableRecord
  2
center_plate_cross
 70
1
 62
3
  6
CONTINUOUS
290
1
370
0
390
F
  0
LAYER
  5
4F
100
AcDbSymbolTableRecord
100
AcDbLayerTableRecord
  2
helper_new
 70
1
 62
5
  6
DIVIDE
290
1
370
0
390
F
  0
LAYER
  5
50
100
AcDbSymbolTableRecord
100
AcDbLayerTableRecord
  2
carrier_cc_top
 70
0
 62
4
  6
CONTINUOUS
290
1
370
0
390
F
  0
LAYER
  5
51
100
AcDbSymbolTableRecord
100
AcDbLayerTableRecord
  2
helper_cc
 70
1
 62
5
  6
CENTER
290
1
370
0
390
F
  0
LAYER
  5
52
100
AcDbSymbolTableRecord
100
AcDbLayerTableRecord
  2
center_plate_light
 70
0
 62
3
  6
CONTINUOUS
290
1
370
0
390
F
  0
LAYER
  5
53
100
AcDbSymbolTableRecord
100
AcDbLayerTableRecord
  2
motor_plate
 70
0
 62
4
  6
CONTINUOUS
290
1
370
0
390
F
  0
LAYER
  5
54
100
AcDbSymbolTableRecord
100
AcDbLayerTableRecord
  2
carrier_cc_bottom
 70
1
 62
134
  6
CONTINUOUS
290
1
370
0
390
F
  0
ENDTAB
  0
TABLE
  2
STYLE
  5
3
100
AcDbSymbolTable
 70
1
  0
STYLE
  5
11
100
AcDbSymbolTableRecord
100
AcDbTextStyleTableRecord
  2
Standard
 70
0
 40
0.0
 41
0.75
 50
0.0
 71
0
 42
2.5
  3
txt
  4

  0
ENDTAB
  0
TABLE
  2
VIEW
  5
6
100
AcDbSymbolTable
 70
0
  0
ENDTAB
  0
TABLE
  2
UCS
  5
7
100
AcDbSymbolTable
 70
0
  0
ENDTAB
  0
TABLE
  2
APPID
  5
9
100
AcDbSymbolTable
 70
1
  0
APPID
  5
12
100
AcDbSymbolTableRecord
100
AcDbRegAppTableRecord
  2
ACAD
 70
0
  0
ENDTAB
  0
TABLE
  2
DIMSTYLE
  5
A
100
AcDbSymbolTable
 70
1
100
AcDbDimStyleTable
 71
0
  0
DIMSTYLE
105
27
100
AcDbSymbolTableRecord
100
AcDbDimStyleTableRecord
  2
Standard
 41
2.5
 42
0.625
 43
3.75
 44
1.25
 70
0
 73
0
 74
0
 77
1
 78
8
140
2.5
141
2.5
143
0.03937007874016
147
0.625
171
3
172
1
271
2
272
2
274
3
278
44
283
0
284
8
340
11
  0
ENDTAB
  0
TABLE
  2
BLOCK_RECORD
  5
1
100
AcDbSymbolTable
 70
1
  0
BLOCK_RECORD
  5
1F
100
AcDbSymbolTableRecord
100
AcDbBlockTableRecord
  2
*Model_Space
340
22
  0
BLOCK_RECORD
  5
1B
100
AcDbSymbolTableRecord
100
AcDbBlockTableRecord
  2
*Paper_Space
340
1E
  0
BLOCK_RECORD
  5
23
100
AcDbSymbolTableRecord
100
AcDbBlockTableRecord
  2
*Paper_Space0
340
26
  0
ENDTAB
  0
ENDSEC
  0
SECTION
  2
BLOCKS
  0
BLOCK
  5
20
100
AcDbEntity
  8
0
100
AcDbBlockBegin
  2
*Model_Space
 70
0
 10
0.0
 20
0.0
 30
0.0
  3
*Model_Space
  1

  0
ENDBLK
  5
21
100
AcDbEntity
  8
0
100
AcDbBlockEnd
  0
BLOCK
  5
1C
100
AcDbEntity
 67
1
  8
0
100
AcDbBlockBegin
  2
*Paper_Space
 70
0
 10
0.0
 20
0.0
 30
0.0
  3
*Paper_Space
  1

  0
ENDBLK
  5
1D
100
AcDbEntity
 67
1
  8
0
100
AcDbBlockEnd
  0
BLOCK
  5
24
100
AcDbEntity
  8
0
100
AcDbBlockBegin
  2
*Paper_Space0
 70
0
 10
0.0
 20
0.0
 30
0.0
  3
*Paper_Space0
  1

  0
ENDBLK
  5
25
100
AcDbEntity
  8
0
100
AcDbBlockEnd
  0
ENDSEC
  0
SECTION
  2
ENTITIES
  0
LINE
  5
55
100
AcDbEntity
100
AcDbLine
  8
helper
 62
256
370
-1
  6
ByLayer
 10
-400.0
 20
0.0
 30
0.0
 11
400.0
 21
0.0
 31
0.0
  0
LINE
  5
56
100
AcDbEntity
100
AcDbLine
  8
helper
 62
256
370
-1
  6
ByLayer
 10
0.0
 20
400.0
 30
0.0
 11
0.0
 21
-400.0
 31
0.0
  0
LINE
  5
57
100
AcDbEntity
100
AcDbLine
  8
helper
 62
256
370
-1
  6
ByLayer
 10
-400.0
 20
5.0
 30
0.0
 11
400.0
 21
5.0
 31
0.0
  0
LINE
  5
58
100
AcDbEntity
100
AcDbLine
  8
helper
 62
256
370
-1
  6
ByLayer
 10
-400.0
 20
-5.0
 30
0.0
 11
400.0
 21
-5.0
 31
0.0
  0
LINE
  5
59
100
AcDbEntity
100
AcDbLine
  8
helper
 62
256
370
-1
  6
ByLayer
 10
-400.0
 20
4.0
 30
0.0
 11
400.0
 21
4.0
 31
0.0
  0
LINE
  5
5A
100
AcDbEntity
100
AcDbLine
  8
helper
 62
256
370
-1
  6
ByLayer
 10
-400.0
 20
-4.0
 30
0.0
 11
400.0
 21
-4.0
 31
0.0
  0
LINE
  5
5B
100
AcDbEntity
100
AcDbLine
  8
helper
 62
256
370
-1
  6
ByLayer
 10
5.0
 20
400.0
 30
0.0
 11
5.0
 21
-400.0
 31
0.0
  0
LINE
  5
5C
100
AcDbEntity
100
AcDbLine
  8
helper
 62
256
370
-1
  6
ByLayer
 10
-5.0
 20
400.0
 30
0.0
 11
-5.0
 21
-400.0
 31
0.0
  0
LINE
  5
5D
100
AcDbEntity
100
AcDbLine
  8
helper
 62
256
370
-1
  6
ByLayer
 10
-160.0
 20
0.0
 30
0.0
 11
0.0
 21
160.0
 31
0.0
  0
LINE
  5
5E
100
AcDbEntity
100
AcDbLine
  8
helper
 62
256
370
-1
  6
ByLayer
 10
-3.5355339059327067
 20
103.5355339059327378
 30
0.0
 11
3.5355339059327675
 21
96.4644660940672622
 31
0.0
  0
LINE
  5
5F
100
AcDbEntity
100
AcDbLine
  8
helper
 62
256
370
-1
  6
ByLayer
 10
1.7677669529664009
 20
108.8388347648318444
 30
0.0
 11
8.8388347648318746
 21
101.7677669529663689
 31
0.0
  0
CIRCLE
  5
60
100
AcDbEntity
100
AcDbCircle
  8
helper
 62
256
370
-1
  6
ByLayer
 10
0.0
 20
0.0
 30
0.0
 40
31.5
  0
LINE
  5
61
100
AcDbEntity
100
AcDbLine
  8
helper
 62
256
370
-1
  6
ByLayer
 10
10.0000000000000018
 20
4.9999999999999973
 30
0.0
 11
10.0
 21
-5.0000000000000009
 31
0.0
  0
LINE
  5
62
100
AcDbEntity
100
AcDbLine
  8
helper
 62
256
370
-1
  6
ByLayer
 10
-4.9999999999999964
 20
10.0000000000000018
 30
0.0
 11
5.0000000000000018
 21
10.0
 31
0.0
  0
LINE
  5
63
100
AcDbEntity
100
AcDbLine
  8
helper
 62
256
370
-1
  6
ByLayer
 10
4.9999999999999982
 20
-10.0000000000000018
 30
0.0
 11
-5.0
 21
-10.0
 31
0.0
  0
LINE
  5
64
100
AcDbEntity
100
AcDbLine
  8
helper
 62
256
370
-1
  6
ByLayer
 10
-9.9999999999999982
 20
5.0000000000000044
 30
0.0
 11
-10.0
 21
-4.9999999999999938
 31
0.0
  0
LINE
  5
65
100
AcDbEntity
100
AcDbLine
  8
helper
 62
256
370
-1
  6
ByLayer
 10
-17.5
 20
5.0000000000000071
 30
0.0
 11
-17.5
 21
-4.9999999999999911
 31
0.0
  0
LINE
  5
66
100
AcDbEntity
100
AcDbLine
  8
helper
 62
256
370
-1
  6
ByLayer
 10
-200.0
 20
200.0
 30
0.0
 11
200.0
 21
-200.0
 31
0.0
  0
LINE
  5
67
100
AcDbEntity
100
AcDbLine
  8
helper
 62
256
370
-1
  6
ByLayer
 10
200.0
 20
200.0
 30
0.0
 11
-200.0
 21
-200.0
 31
0.0
  0
LINE
  5
68
100
AcDbEntity
100
AcDbLine
  8
helper
 62
256
370
-1
  6
ByLayer
 10
-25.0
 20
5.0000000000000098
 30
0.0
 11
-25.0
 21
-4.9999999999999885
 31
0.0
  0
CIRCLE
  5
69
100
AcDbEntity
100
AcDbCircle
  8
props_8inch
 62
256
370
-1
  6
ByLayer
 10
-155.0
 20
0.0
 30
0.0
 40
101.5999999999999943
  0
CIRCLE
  5
6A
100
AcDbEntity
100
AcDbCircle
  8
props_8inch
 62
256
370
-1
  6
ByLayer
 10
-0.0000000000000285
 20
-155.0
 30
0.0
 40
101.5999999999999943
  0
CIRCLE
  5
6B
100
AcDbEntity
100
AcDbCircle
  8
props_8inch
 62
256
370
-1
  6
ByLayer
 10
155.0
 20
-0.000000000000038
 30
0.0
 40
101.5999999999999943
  0
CIRCLE
  5
6C
100
AcDbEntity
100
AcDbCircle
  8
props_8inch
 62
256
370
-1
  6
ByLayer
 10
0.0000000000000475
 20
155.0
 30
0.0
 40
101.5999999999999943
  0
DIMENSION
  5
6D
100
AcDbEntity
  8
dimensions
 62
256
370
-1
  6
ByLayer
100
AcDbDimension
 10
155.0
 20
-0.0000000000000384
 30
0.0
 11
0.0000000000000006
 21
1.8749999999999807
 31
0.0
 70
1
 71
5
 72
0
 41
1.0
 42
0.0
  1

  3
Standard
100
AcDbAlignedDimension
 13
-155.0
 23
0.0
 33
0.0
 14
155.0
 24
-0.000000000000038
 34
0.0
  0
CIRCLE
  5
6E
100
AcDbEntity
100
AcDbCircle
  8
motor_mount
 62
256
370
-1
  6
ByLayer
 10
-164.5
 20
0.0
 30
0.0
 40
1.55
  0
CIRCLE
  5
6F
100
AcDbEntity
100
AcDbCircle
  8
motor_mount
 62
256
370
-1
  6
ByLayer
 10
-145.5
 20
0.0
 30
0.0
 40
1.55
  0
LINE
  5
70
100
AcDbEntity
100
AcDbLine
  8
motor_mount
 62
256
370
-1
  6
ByLayer
 10
-175.0
 20
-5.0
 30
0.0
 11
-175.0
 21
5.0
 31
0.0
  0
LINE
  5
71
100
AcDbEntity
100
AcDbLine
  8
motor_mount
 62
256
370
-1
  6
ByLayer
 10
-175.0
 20
-5.0
 30
0.0
 11
-135.0
 21
-5.0
 31
0.0
  0
LINE
  5
72
100
AcDbEntity
100
AcDbLine
  8
motor_mount
 62
256
370
-1
  6
ByLayer
 10
-135.0
 20
-5.0
 30
0.0
 11
-135.0
 21
5.0
 31
0.0
  0
LINE
  5
73
100
AcDbEntity
100
AcDbLine
  8
motor_mount
 62
256
370
-1
  6
ByLayer
 10
-135.0
 20
5.0
 30
0.0
 11
-175.0
 21
5.0
 31
0.0
  0
CIRCLE
  5
74
100
AcDbEntity
100
AcDbCircle
  8
motor_mount
 62
256
370
-1
  6
ByLayer
 10
-0.0000000000000302
 20
-164.5
 30
0.0
 40
1.55
  0
CIRCLE
  5
75
100
AcDbEntity
100
AcDbCircle
  8
motor_mount
 62
256
370
-1
  6
ByLayer
 10
-0.0000000000000267
 20
-145.5
 30
0.0
 40
1.55
  0
LINE
  5
76
100
AcDbEntity
100
AcDbLine
  8
motor_mount
 62
256
370
-1
  6
ByLayer
 10
4.9999999999998961
 20
-175.0
 30
0.0
 11
-4.99999999999996
 21
-175.0
 31
0.0
  0
LINE
  5
77
100
AcDbEntity
100
AcDbLine
  8
motor_mount
 62
256
370
-1
  6
ByLayer
 10
4.9999999999998961
 20
-175.0
 30
0.0
 11
4.9999999999999796
 21
-135.0
 31
0.0
  0
LINE
  5
78
100
AcDbEntity
100
AcDbLine
  8
motor_mount
 62
256
370
-1
  6
ByLayer
 10
4.9999999999999796
 20
-135.0
 30
0.0
 11
-5.0000000000000293
 21
-135.0
 31
0.0
  0
LINE
  5
79
100
AcDbEntity
100
AcDbLine
  8
motor_mount
 62
256
370
-1
  6
ByLayer
 10
-5.0000000000000293
 20
-135.0
 30
0.0
 11
-4.99999999999996
 21
-175.0
 31
0.0
  0
CIRCLE
  5
7A
100
AcDbEntity
100
AcDbCircle
  8
motor_mount
 62
256
370
-1
  6
ByLayer
 10
164.5
 20
-0.0000000000000403
 30
0.0
 40
1.55
  0
CIRCLE
  5
7B
100
AcDbEntity
100
AcDbCircle
  8
motor_mount
 62
256
370
-1
  6
ByLayer
 10
145.5
 20
-0.0000000000000356
 30
0.0
 40
1.55
  0
LINE
  5
7C
100
AcDbEntity
100
AcDbLine
  8
motor_mount
 62
256
370
-1
  6
ByLayer
 10
175.0
 20
4.9999999999998845
 30
0.0
 11
175.0
 21
-4.9999999999999707
 31
0.0
  0
LINE
  5
7D
100
AcDbEntity
100
AcDbLine
  8
motor_mount
 62
256
370
-1
  6
ByLayer
 10
175.0
 20
4.9999999999998845
 30
0.0
 11
135.0
 21
4.9999999999999716
 31
0.0
  0
LINE
  5
7E
100
AcDbEntity
100
AcDbLine
  8
motor_mount
 62
256
370
-1
  6
ByLayer
 10
135.0
 20
4.9999999999999716
 30
0.0
 11
135.0
 21
-5.0000000000000382
 31
0.0
  0
LINE
  5
7F
100
AcDbEntity
100
AcDbLine
  8
motor_mount
 62
256
370
-1
  6
ByLayer
 10
135.0
 20
-5.0000000000000382
 30
0.0
 11
175.0
 21
-4.9999999999999707
 31
0.0
  0
CIRCLE
  5
80
100
AcDbEntity
100
AcDbCircle
  8
motor_mount
 62
256
370
-1
  6
ByLayer
 10
0.0000000000000504
 20
164.5
 30
0.0
 40
1.55
  0
CIRCLE
  5
81
100
AcDbEntity
100
AcDbCircle
  8
motor_mount
 62
256
370
-1
  6
ByLayer
 10
0.0000000000000445
 20
145.5
 30
0.0
 40
1.55
  0
LINE
  5
82
100
AcDbEntity
100
AcDbLine
  8
motor_mount
 62
256
370
-1
  6
ByLayer
 10
-4.9999999999998748
 20
175.0
 30
0.0
 11
4.9999999999999813
 21
175.0
 31
0.0
  0
LINE
  5
83
100
AcDbEntity
100
AcDbLine
  8
motor_mount
 62
256
370
-1
  6
ByLayer
 10
-4.9999999999998748
 20
175.0
 30
0.0
 11
-4.9999999999999627
 21
135.0
 31
0.0
  0
LINE
  5
84
100
AcDbEntity
100
AcDbLine
  8
motor_mount
 62
256
370
-1
  6
ByLayer
 10
-4.9999999999999627
 20
135.0
 30
0.0
 11
5.0000000000000462
 21
135.0
 31
0.0
  0
LINE
  5
85
100
AcDbEntity
100
AcDbLine
  8
motor_mount
 62
256
370
-1
  6
ByLayer
 10
5.0000000000000462
 20
135.0
 30
0.0
 11
4.9999999999999813
 21
175.0
 31
0.0
  0
CIRCLE
  5
86
100
AcDbEntity
100
AcDbCircle
  8
motor
 62
256
370
-1
  6
ByLayer
 10
-155.0
 20
0.0
 30
0.0
 40
14.0
  0
CIRCLE
  5
87
100
AcDbEntity
100
AcDbCircle
  8
motor
 62
256
370
-1
  6
ByLayer
 10
-0.0000000000000285
 20
-155.0
 30
0.0
 40
14.0
  0
CIRCLE
  5
88
100
AcDbEntity
100
AcDbCircle
  8
motor
 62
256
370
-1
  6
ByLayer
 10
155.0
 20
-0.000000000000038
 30
0.0
 40
14.0
  0
CIRCLE
  5
89
100
AcDbEntity
100
AcDbCircle
  8
motor
 62
256
370
-1
  6
ByLayer
 10
0.0000000000000475
 20
155.0
 30
0.0
 40
14.0
  0
LINE
  5
8A
100
AcDbEntity
100
AcDbLine
  8
helper
 62
256
370
-1
  6
ByLayer
 10
-155.0
 20
-70.0
 30
0.0
 11
-155.0
 21
70.0
 31
0.0
  0
LINE
  5
8B
100
AcDbEntity
100
AcDbLine
  8
helper
 62
256
370
-1
  6
ByLayer
 10
-145.5
 20
-70.0
 30
0.0
 11
-145.5
 21
70.0
 31
0.0
  0
LINE
  5
8C
100
AcDbEntity
100
AcDbLine
  8
helper
 62
256
370
-1
  6
ByLayer
 10
-164.5
 20
-70.0
 30
0.0
 11
-164.5
 21
70.0
 31
0.0
  0
LINE
  5
8D
100
AcDbEntity
100
AcDbLine
  8
helper
 62
256
370
-1
  6
ByLayer
 10
-175.0
 20
-70.0
 30
0.0
 11
-175.0
 21
70.0
 31
0.0
  0
LINE
  5
8E
100
AcDbEntity
100
AcDbLine
  8
helper
 62
256
370
-1
  6
ByLayer
 10
-135.0
 20
-70.0
 30
0.0
 11
-135.0
 21
70.0
 31
0.0
  0
LINE
  5
8F
100
AcDbEntity
100
AcDbLine
  8
boom
 62
256
370
-1
  6
ByLayer
 10
-9.9999999999999982
 20
4.0
 30
0.0
 11
-175.0
 21
4.0
 31
0.0
  0
LINE
  5
90
100
AcDbEntity
100
AcDbLine
  8
boom
 62
256
370
-1
  6
ByLayer
 10
-175.0
 20
4.0
 30
0.0
 11
-175.0
 21
-4.0
 31
0.0
  0
LINE
  5
91
100
AcDbEntity
100
AcDbLine
  8
boom
 62
256
370
-1
  6
ByLayer
 10
-175.0
 20
-4.0
 30
0.0
 11
-10.0
 21
-4.0
 31
0.0
  0
LINE
  5
92
100
AcDbEntity
100
AcDbLine
  8
boom
 62
256
370
-1
  6
ByLayer
 10
-10.0
 20
-4.0
 30
0.0
 11
-9.9999999999999982
 21
4.0
 31
0.0
  0
CIRCLE
  5
93
100
AcDbEntity
100
AcDbCircle
  8
boom
 62
256
370
-1
  6
ByLayer
 10
-164.5
 20
0.0
 30
0.0
 40
1.55
  0
CIRCLE
  5
94
100
AcDbEntity
100
AcDbCircle
  8
boom
 62
256
370
-1
  6
ByLayer
 10
-145.5
 20
0.0
 30
0.0
 40
1.55
  0
DIMENSION
  5
95
100
AcDbEntity
  8
dimensions
 62
256
370
-1
  6
ByLayer
100
AcDbDimension
 10
-9.9999999999999964
 20
9.9999999999999734
 30
0.0
 11
-92.5
 21
11.8749999999999822
 31
0.0
 70
1
 71
5
 72
0
 41
1.0
 42
0.0
  1

  3
Standard
100
AcDbAlignedDimension
 13
-175.0
 23
0.0
 33
0.0
 14
-10.0
 24
-0.0000000000000182
 34
0.0
  0
DIMENSION
  5
96
100
AcDbEntity
  8
dimensions
 62
256
370
-1
  6
ByLayer
100
AcDbDimension
 10
-0.0000000000000163
 20
10.0
 30
0.0
 11
-5.0000000000000053
 21
11.875
 31
0.0
 70
1
 71
5
 72
1
 41
1.0
 42
0.0
  1

  3
Standard
100
AcDbAlignedDimension
 13
-10.0
 23
-0.0000000000000182
 33
0.0
 14
-0.0000000000000194
 24
-0.0000000000000194
 34
0.0
  0
LINE
  5
97
100
AcDbEntity
100
AcDbLine
  8
helper
 62
256
370
-1
  6
ByLayer
 10
-65.0
 20
-5.0
 30
0.0
 11
-65.0
 21
5.0
 31
0.0
  0
LINE
  5
98
100
AcDbEntity
100
AcDbLine
  8
helper
 62
256
370
-1
  6
ByLayer
 10
-57.5
 20
-5.0000000000000018
 30
0.0
 11
-57.5
 21
4.9999999999999982
 31
0.0
  0
LINE
  5
99
100
AcDbEntity
100
AcDbLine
  8
helper
 62
256
370
-1
  6
ByLayer
 10
-72.5
 20
-4.9999999999999991
 30
0.0
 11
-72.5
 21
5.0000000000000009
 31
0.0
  0
LINE
  5
9A
100
AcDbEntity
100
AcDbLine
  8
boom_holder
 62
256
370
-1
  6
ByLayer
 10
-25.0
 20
-5.0
 30
0.0
 11
-25.0
 21
5.0
 31
0.0
  0
LINE
  5
9B
100
AcDbEntity
100
AcDbLine
  8
boom_holder
 62
256
370
-1
  6
ByLayer
 10
-25.0
 20
5.0
 30
0.0
 11
-9.9999999999999982
 21
5.0
 31
0.0
  0
LINE
  5
9C
100
AcDbEntity
100
AcDbLine
  8
boom_holder
 62
256
370
-1
  6
ByLayer
 10
-9.9999999999999982
 20
5.0
 30
0.0
 11
-10.0
 21
-5.0
 31
0.0
  0
LINE
  5
9D
100
AcDbEntity
100
AcDbLine
  8
boom_holder
 62
256
370
-1
  6
ByLayer
 10
-10.0
 20
-5.0
 30
0.0
 11
-25.0
 21
-5.0
 31
0.0
  0
LINE
  5
9E
100
AcDbEntity
100
AcDbLine
  8
boom
 62
256
370
-1
  6
ByLayer
 10
-4.0000000000000018
 20
-9.9999999999999982
 30
0.0
 11
-3.9999999999999969
 21
-175.0000000000000284
 31
0.0
  0
LINE
  5
9F
100
AcDbEntity
100
AcDbLine
  8
boom
 62
256
370
-1
  6
ByLayer
 10
-3.9999999999999969
 20
-175.0000000000000284
 30
0.0
 11
3.9999999999999334
 21
-175.0000000000000284
 31
0.0
  0
LINE
  5
A0
100
AcDbEntity
100
AcDbLine
  8
boom
 62
256
370
-1
  6
ByLayer
 10
3.9999999999999334
 20
-175.0000000000000284
 30
0.0
 11
3.9999999999999978
 21
-10.0
 31
0.0
  0
LINE
  5
A1
100
AcDbEntity
100
AcDbLine
  8
boom
 62
256
370
-1
  6
ByLayer
 10
3.9999999999999978
 20
-10.0
 30
0.0
 11
-4.0000000000000018
 21
-9.9999999999999982
 31
0.0
  0
CIRCLE
  5
A2
100
AcDbEntity
100
AcDbCircle
  8
boom
 62
256
370
-1
  6
ByLayer
 10
-0.0000000000000302
 20
-164.5
 30
0.0
 40
1.55
  0
CIRCLE
  5
A3
100
AcDbEntity
100
AcDbCircle
  8
boom
 62
256
370
-1
  6
ByLayer
 10
-0.0000000000000267
 20
-145.5
 30
0.0
 40
1.55
  0
LINE
  5
A4
100
AcDbEntity
100
AcDbLine
  8
boom
 62
256
370
-1
  6
ByLayer
 10
9.9999999999999982
 20
-4.0000000000000018
 30
0.0
 11
175.0000000000000284
 21
-4.000000000000008
 31
0.0
  0
LINE
  5
A5
100
AcDbEntity
100
AcDbLine
  8
boom
 62
256
370
-1
  6
ByLayer
 10
175.0000000000000284
 20
-4.000000000000008
 30
0.0
 11
175.0000000000000284
 21
3.9999999999999223
 31
0.0
  0
LINE
  5
A6
100
AcDbEntity
100
AcDbLine
  8
boom
 62
256
370
-1
  6
ByLayer
 10
175.0000000000000284
 20
3.9999999999999223
 30
0.0
 11
10.0
 21
3.9999999999999973
 31
0.0
  0
LINE
  5
A7
100
AcDbEntity
100
AcDbLine
  8
boom
 62
256
370
-1
  6
ByLayer
 10
10.0
 20
3.9999999999999973
 30
0.0
 11
9.9999999999999982
 21
-4.0000000000000018
 31
0.0
  0
CIRCLE
  5
A8
100
AcDbEntity
100
AcDbCircle
  8
boom
 62
256
370
-1
  6
ByLayer
 10
164.5
 20
-0.0000000000000403
 30
0.0
 40
1.55
  0
CIRCLE
  5
A9
100
AcDbEntity
100
AcDbCircle
  8
boom
 62
256
370
-1
  6
ByLayer
 10
145.5
 20
-0.0000000000000356
 30
0.0
 40
1.55
  0
LINE
  5
AA
100
AcDbEntity
100
AcDbLine
  8
boom
 62
256
370
-1
  6
ByLayer
 10
4.0000000000000027
 20
9.9999999999999982
 30
0.0
 11
4.0000000000000187
 21
175.0000000000000284
 31
0.0
  0
LINE
  5
AB
100
AcDbEntity
100
AcDbLine
  8
boom
 62
256
370
-1
  6
ByLayer
 10
4.0000000000000187
 20
175.0000000000000284
 30
0.0
 11
-3.9999999999999112
 21
175.0000000000000284
 31
0.0
  0
LINE
  5
AC
100
AcDbEntity
100
AcDbLine
  8
boom
 62
256
370
-1
  6
ByLayer
 10
-3.9999999999999112
 20
175.0000000000000284
 30
0.0
 11
-3.9999999999999969
 21
10.0
 31
0.0
  0
LINE
  5
AD
100
AcDbEntity
100
AcDbLine
  8
boom
 62
256
370
-1
  6
ByLayer
 10
-3.9999999999999969
 20
10.0
 30
0.0
 11
4.0000000000000027
 21
9.9999999999999982
 31
0.0
  0
CIRCLE
  5
AE
100
AcDbEntity
100
AcDbCircle
  8
boom
 62
256
370
-1
  6
ByLayer
 10
0.0000000000000504
 20
164.5
 30
0.0
 40
1.55
  0
CIRCLE
  5
AF
100
AcDbEntity
100
AcDbCircle
  8
boom
 62
256
370
-1
  6
ByLayer
 10
0.0000000000000445
 20
145.5
 30
0.0
 40
1.55
  0
LINE
  5
B0
100
AcDbEntity
100
AcDbLine
  8
boom_holder
 62
256
370
-1
  6
ByLayer
 10
4.9999999999999876
 20
-25.0
 30
0.0
 11
-4.9999999999999964
 21
-25.0
 31
0.0
  0
LINE
  5
B1
100
AcDbEntity
100
AcDbLine
  8
boom_holder
 62
256
370
-1
  6
ByLayer
 10
-4.9999999999999964
 20
-25.0
 30
0.0
 11
-5.0000000000000018
 21
-9.9999999999999982
 31
0.0
  0
LINE
  5
B2
100
AcDbEntity
100
AcDbLine
  8
boom_holder
 62
256
370
-1
  6
ByLayer
 10
-5.0000000000000018
 20
-9.9999999999999982
 30
0.0
 11
4.9999999999999991
 21
-10.0000000000000018
 31
0.0
  0
LINE
  5
B3
100
AcDbEntity
100
AcDbLine
  8
boom_holder
 62
256
370
-1
  6
ByLayer
 10
4.9999999999999991
 20
-10.0000000000000018
 30
0.0
 11
4.9999999999999876
 21
-25.0
 31
0.0
  0
LINE
  5
B4
100
AcDbEntity
100
AcDbLine
  8
boom_holder
 62
256
370
-1
  6
ByLayer
 10
25.0
 20
4.9999999999999858
 30
0.0
 11
25.0
 21
-4.9999999999999982
 31
0.0
  0
LINE
  5
B5
100
AcDbEntity
100
AcDbLine
  8
boom_holder
 62
256
370
-1
  6
ByLayer
 10
25.0
 20
-4.9999999999999982
 30
0.0
 11
9.9999999999999982
 21
-5.0000000000000027
 31
0.0
  0
LINE
  5
B6
100
AcDbEntity
100
AcDbLine
  8
boom_holder
 62
256
370
-1
  6
ByLayer
 10
9.9999999999999982
 20
-5.0000000000000027
 30
0.0
 11
10.0000000000000018
 21
4.9999999999999982
 31
0.0
  0
LINE
  5
B7
100
AcDbEntity
100
AcDbLine
  8
boom_holder
 62
256
370
-1
  6
ByLayer
 10
10.0000000000000018
 20
4.9999999999999982
 30
0.0
 11
25.0
 21
4.9999999999999858
 31
0.0
  0
LINE
  5
B8
100
AcDbEntity
100
AcDbLine
  8
boom_holder
 62
256
370
-1
  6
ByLayer
 10
-4.9999999999999849
 20
25.0000000000000036
 30
0.0
 11
5.0
 21
25.0
 31
0.0
  0
LINE
  5
B9
100
AcDbEntity
100
AcDbLine
  8
boom_holder
 62
256
370
-1
  6
ByLayer
 10
5.0
 20
25.0
 30
0.0
 11
5.0000000000000027
 21
9.9999999999999982
 31
0.0
  0
LINE
  5
BA
100
AcDbEntity
100
AcDbLine
  8
boom_holder
 62
256
370
-1
  6
ByLayer
 10
5.0000000000000027
 20
9.9999999999999982
 30
0.0
 11
-5.0000000000000062
 21
9.9999999999999982
 31
0.0
  0
LINE
  5
BB
100
AcDbEntity
100
AcDbLine
  8
boom_holder
 62
256
370
-1
  6
ByLayer
 10
-5.0000000000000062
 20
9.9999999999999982
 30
0.0
 11
-4.9999999999999849
 21
25.0000000000000036
 31
0.0
  0
DIMENSION
  5
BC
100
AcDbEntity
  8
dimensions
 62
256
370
-1
  6
ByLayer
100
AcDbDimension
 10
-135.0
 20
20.0
 30
0.0
 11
-155.0
 21
21.875
 31
0.0
 70
1
 71
5
 72
1
 41
1.0
 42
0.0
  1

  3
Standard
100
AcDbAlignedDimension
 13
-175.0
 23
4.0
 33
0.0
 14
-135.0
 24
4.0
 34
0.0
  0
DIMENSION
  5
BD
100
AcDbEntity
  8
dimensions
 62
256
370
-1
  6
ByLayer
100
AcDbDimension
 10
-9.9999999999999947
 20
19.9999999999999645
 30
0.0
 11
-17.4999999999999929
 21
21.8749999999999645
 31
0.0
 70
1
 71
5
 72
1
 41
1.0
 42
0.0
  1

  3
Standard
100
AcDbAlignedDimension
 13
-25.0
 23
-0.0000000000000163
 33
0.0
 14
-10.0
 24
-0.0000000000000182
 34
0.0
  0
LINE
  5
BE
100
AcDbEntity
100
AcDbLine
  8
helper
 62
256
370
-1
  6
ByLayer
 10
-42.5
 20
-5.0000000000000053
 30
0.0
 11
-42.5
 21
4.9999999999999947
 31
0.0
  0
LINE
  5
BF
100
AcDbEntity
100
AcDbLine
  8
helper
 62
256
370
-1
  6
ByLayer
 10
4.9999999999999867
 20
-42.5
 30
0.0
 11
-5.0000000000000018
 21
-42.4999999999999929
 31
0.0
  0
LINE
  5
C0
100
AcDbEntity
100
AcDbLine
  8
helper
 62
256
370
-1
  6
ByLayer
 10
42.5
 20
4.999999999999984
 30
0.0
 11
42.4999999999999929
 21
-5.0000000000000044
 31
0.0
  0
LINE
  5
C1
100
AcDbEntity
100
AcDbLine
  8
helper
 62
256
370
-1
  6
ByLayer
 10
-4.9999999999999813
 20
42.5
 30
0.0
 11
5.0000000000000071
 21
42.4999999999999929
 31
0.0
  0
LINE
  5
C2
100
AcDbEntity
100
AcDbLine
  8
helper_center
 62
256
370
-1
  6
ByLayer
 10
-171.715728752538098
 20
228.284271247461902
 30
0.0
 11
228.284271247461902
 21
-171.715728752538098
 31
0.0
  0
LINE
  5
C3
100
AcDbEntity
100
AcDbLine
  8
helper_center
 62
256
370
-1
  6
ByLayer
 10
-228.2842712474618736
 20
171.715728752538098
 30
0.0
 11
171.7157287525381264
 21
-228.284271247461902
 31
0.0
  0
LINE
  5
C4
100
AcDbEntity
100
AcDbLine
  8
helper_center
 62
256
370
-1
  6
ByLayer
 10
171.7157287525381264
 20
228.2842712474619304
 30
0.0
 11
-228.2842712474618736
 21
-171.7157287525380696
 31
0.0
  0
LINE
  5
C5
100
AcDbEntity
100
AcDbLine
  8
helper_center
 62
256
370
-1
  6
ByLayer
 10
228.284271247461902
 20
171.715728752538098
 30
0.0
 11
-171.715728752538098
 21
-228.284271247461902
 31
0.0
  0
LINE
  5
C6
100
AcDbEntity
100
AcDbLine
  8
helper_center
 62
256
370
-1
  6
ByLayer
 10
-178.7867965644035735
 20
221.2132034355964265
 30
0.0
 11
221.2132034355964265
 21
-178.7867965644035735
 31
0.0
  0
LINE
  5
C7
100
AcDbEntity
100
AcDbLine
  8
helper_center
 62
256
370
-1
  6
ByLayer
 10
221.2132034355964265
 20
178.7867965644035735
 30
0.0
 11
-178.7867965644035735
 21
-221.2132034355964265
 31
0.0
  0
LINE
  5
C8
100
AcDbEntity
100
AcDbLine
  8
helper_center
 62
256
370
-1
  6
ByLayer
 10
-221.2132034355963981
 20
178.7867965644035735
 30
0.0
 11
178.7867965644036019
 21
-221.2132034355964265
 31
0.0
  0
LINE
  5
C9
100
AcDbEntity
100
AcDbLine
  8
helper_center
 62
256
370
-1
  6
ByLayer
 10
178.7867965644036019
 20
221.2132034355964549
 30
0.0
 11
-221.2132034355963981
 21
-178.7867965644035451
 31
0.0
  0
LINE
  5
CA
100
AcDbEntity
100
AcDbLine
  8
helper_center
 62
256
370
-1
  6
ByLayer
 10
194.6966991411009076
 20
205.3033008588991208
 30
0.0
 11
-205.3033008588990924
 21
-194.6966991411008792
 31
0.0
  0
LINE
  5
CB
100
AcDbEntity
100
AcDbLine
  8
helper_center
 62
256
370
-1
  6
ByLayer
 10
205.3033008588990924
 20
194.6966991411008792
 30
0.0
 11
-194.6966991411009076
 21
-205.3033008588991208
 31
0.0
  0
LINE
  5
CC
100
AcDbEntity
100
AcDbLine
  8
helper_battery
 62
256
370
-1
  6
ByLayer
 10
-164.6446609406726225
 20
235.3553390593273775
 30
0.0
 11
235.3553390593273775
 21
-164.6446609406726225
 31
0.0
  0
LINE
  5
CD
100
AcDbEntity
100
AcDbLine
  8
helper_battery
 62
256
370
-1
  6
ByLayer
 10
-235.3553390593273491
 20
164.6446609406726225
 30
0.0
 11
164.6446609406726509
 21
-235.3553390593273775
 31
0.0
  0
LINE
  5
CE
100
AcDbEntity
100
AcDbLine
  8
helper_battery
 62
256
370
-1
  6
ByLayer
 10
189.3933982822017867
 20
210.6066017177982133
 30
0.0
 11
-210.6066017177982133
 21
-189.3933982822017867
 31
0.0
  0
LINE
  5
CF
100
AcDbEntity
100
AcDbLine
  8
helper_battery
 62
256
370
-1
  6
ByLayer
 10
210.6066017177982133
 20
189.3933982822017867
 30
0.0
 11
-189.3933982822017867
 21
-210.6066017177982133
 31
0.0
  0
LINE
  5
D0
100
AcDbEntity
100
AcDbLine
  8
helper_battery
 62
256
370
-1
  6
ByLayer
 10
-175.2512626584708357
 20
224.7487373415291643
 30
0.0
 11
224.7487373415291643
 21
-175.2512626584708357
 31
0.0
  0
LINE
  5
D1
100
AcDbEntity
100
AcDbLine
  8
helper_battery
 62
256
370
-1
  6
ByLayer
 10
-224.7487373415291358
 20
175.2512626584708073
 30
0.0
 11
175.2512626584708642
 21
-224.7487373415291927
 31
0.0
  0
LINE
  5
D2
100
AcDbEntity
100
AcDbLine
  8
helper_battery
 62
256
370
-1
  6
ByLayer
 10
205.3033008588990924
 20
194.6966991411008792
 30
0.0
 11
-194.6966991411009076
 21
-205.3033008588991208
 31
0.0
  0
LINE
  5
D3
100
AcDbEntity
100
AcDbLine
  8
helper_battery
 62
256
370
-1
  6
ByLayer
 10
194.6966991411009076
 20
205.3033008588991208
 30
0.0
 11
-205.3033008588990924
 21
-194.6966991411008792
 31
0.0
  0
LINE
  5
D4
100
AcDbEntity
100
AcDbLine
  8
helper_battery
 62
256
370
-1
  6
ByLayer
 10
5.0000000000000036
 20
53.5231060782800654
 30
0.0
 11
53.5231060782800796
 21
5.0000000000000329
 31
0.0
  0
LINE
  5
D5
100
AcDbEntity
100
AcDbLine
  8
helper_battery
 62
256
370
-1
  6
ByLayer
 10
-2.0710678118654675
 20
46.4520382664145899
 30
0.0
 11
46.4520382664146112
 21
-2.0710678118654462
 31
0.0
  0
SPLINE
  5
D6
  8
center_plate_curved
 62
256
370
-1
  6
ByLayer
100
AcDbEntity
100
AcDbSpline
 70
8
 71
3
 72
8
 73
4
 74
0
 40
0.0
 40
0.0
 40
0.0
 40
0.0
 40
1.0
 40
1.0
 40
1.0
 40
1.0
 10
-5.0000000000000284
 20
53.5231060782800796
 30
0.0
 10
-15.2499999999999982
 20
15.2500000000000018
 30
0.0
 10
-53.5231060782800725
 20
5.0000000000000133
 30
0.0
 10
-53.5231060782800725
 20
5.0000000000000133
 30
0.0
  0
SPLINE
  5
D7
  8
center_plate_curved
 62
256
370
-1
  6
ByLayer
100
AcDbEntity
100
AcDbSpline
 70
8
 71
3
 72
8
 73
4
 74
0
 40
0.0
 40
0.0
 40
0.0
 40
0.0
 40
1.0
 40
1.0
 40
1.0
 40
1.0
 10
5.0000000000000453
 20
-53.5231060782800796
 30
0.0
 10
15.2499999999999964
 20
-15.2500000000000036
 30
0.0
 10
53.5231060782800725
 20
-5.0000000000000195
 30
0.0
 10
53.5231060782800725
 20
-5.0000000000000195
 30
0.0
  0
SPLINE
  5
D8
  8
center_plate_curved
 62
256
370
-1
  6
ByLayer
100
AcDbEntity
100
AcDbSpline
 70
8
 71
3
 72
8
 73
4
 74
0
 40
0.0
 40
0.0
 40
0.0
 40
0.0
 40
1.0
 40
1.0
 40
1.0
 40
1.0
 10
-53.5231060782800796
 20
-5.000000000000024
 30
0.0
 10
-15.2500000000000036
 20
-15.2499999999999982
 30
0.0
 10
-5.000000000000016
 20
-53.5231060782800725
 30
0.0
 10
-5.000000000000016
 20
-53.5231060782800725
 30
0.0
  0
SPLINE
  5
D9
  8
center_plate_curved
 62
256
370
-1
  6
ByLayer
100
AcDbEntity
100
AcDbSpline
 70
8
 71
3
 72
8
 73
4
 74
0
 40
0.0
 40
0.0
 40
0.0
 40
0.0
 40
1.0
 40
1.0
 40
1.0
 40
1.0
 10
53.5231060782800796
 20
5.0000000000000417
 30
0.0
 10
15.2500000000000036
 20
15.2499999999999964
 30
0.0
 10
5.0000000000000231
 20
53.5231060782800725
 30
0.0
 10
5.0000000000000231
 20
53.5231060782800725
 30
0.0
  0
SPLINE
  5
DA
  8
center_plate_battery
 62
256
370
-1
  6
ByLayer
100
AcDbEntity
100
AcDbSpline
 70
8
 71
3
 72
8
 73
4
 74
0
 40
0.0
 40
0.0
 40
0.0
 40
0.0
 40
1.0
 40
1.0
 40
1.0
 40
1.0
 10
-5.0000000000000284
 20
53.5231060782800796
 30
0.0
 10
-15.2499999999999982
 20
15.2500000000000018
 30
0.0
 10
-53.5231060782800725
 20
5.0000000000000133
 30
0.0
 10
-53.5231060782800725
 20
5.0000000000000133
 30
0.0
  0
SPLINE
  5
DB
  8
center_plate_battery
 62
256
370
-1
  6
ByLayer
100
AcDbEntity
100
AcDbSpline
 70
8
 71
3
 72
8
 73
4
 74
0
 40
0.0
 40
0.0
 40
0.0
 40
0.0
 40
1.0
 40
1.0
 40
1.0
 40
1.0
 10
5.0000000000000453
 20
-53.5231060782800796
 30
0.0
 10
15.2499999999999964
 20
-15.2500000000000036
 30
0.0
 10
53.5231060782800725
 20
-5.0000000000000195
 30
0.0
 10
53.5231060782800725
 20
-5.0000000000000195
 30
0.0
  0
LINE
  5
DC
100
AcDbEntity
100
AcDbLine
  8
helper
 62
256
370
-1
  6
ByLayer
 10
176.9500492995387617
 20
223.0499507004612951
 30
0.0
 11
-223.0499507004612383
 21
-176.9500492995387049
 31
0.0
  0
LINE
  5
DD
100
AcDbEntity
100
AcDbLine
  8
helper
 62
256
370
-1
  6
ByLayer
 10
180.4855832054714995
 20
219.5144167945285574
 30
0.0
 11
-219.5144167945285005
 21
-180.4855832054714426
 31
0.0
  0
CIRCLE
  5
DE
100
AcDbEntity
100
AcDbCircle
  8
center_plate_curved
 62
256
370
-1
  6
ByLayer
 10
-19.514416794528529
 20
19.514416794528529
 30
0.0
 40
1.55
  0
CIRCLE
  5
DF
100
AcDbEntity
100
AcDbCircle
  8
center_plate_curved
 62
256
370
-1
  6
ByLayer
 10
-19.5144167945285325
 20
-19.5144167945285254
 30
0.0
 40
1.55
  0
CIRCLE
  5
E0
100
AcDbEntity
100
AcDbCircle
  8
center_plate_curved
 62
256
370
-1
  6
ByLayer
 10
19.5144167945285218
 20
-19.5144167945285325
 30
0.0
 40
1.55
  0
CIRCLE
  5
E1
100
AcDbEntity
100
AcDbCircle
  8
center_plate_curved
 62
256
370
-1
  6
ByLayer
 10
19.5144167945285325
 20
19.5144167945285218
 30
0.0
 40
1.55
  0
CIRCLE
  5
E2
100
AcDbEntity
100
AcDbCircle
  8
center_plate_battery
 62
256
370
-1
  6
ByLayer
 10
-19.514416794528529
 20
19.514416794528529
 30
0.0
 40
1.55
  0
CIRCLE
  5
E3
100
AcDbEntity
100
AcDbCircle
  8
center_plate_battery
 62
256
370
-1
  6
ByLayer
 10
19.5144167945285325
 20
19.5144167945285218
 30
0.0
 40
1.55
  0
CIRCLE
  5
E4
100
AcDbEntity
100
AcDbCircle
  8
center_plate_battery
 62
256
370
-1
  6
ByLayer
 10
19.5144167945285218
 20
-19.5144167945285325
 30
0.0
 40
1.55
  0
CIRCLE
  5
E5
100
AcDbEntity
100
AcDbCircle
  8
center_plate_battery
 62
256
370
-1
  6
ByLayer
 10
-19.5144167945285325
 20
-19.5144167945285254
 30
0.0
 40
1.55
  0
LINE
  5
E6
100
AcDbEntity
100
AcDbLine
  8
helper_battery
 62
256
370
-1
  6
ByLayer
 10
192.9289321881345245
 20
207.0710678118654755
 30
0.0
 11
-207.0710678118654755
 21
-192.9289321881345245
 31
0.0
  0
LINE
  5
E7
100
AcDbEntity
100
AcDbLine
  8
helper_battery
 62
256
370
-1
  6
ByLayer
 10
207.0710678118654755
 20
192.9289321881345245
 30
0.0
 11
-192.9289321881345245
 21
-207.0710678118654755
 31
0.0
  0
LINE
  5
E8
100
AcDbEntity
100
AcDbLine
  8
center_plate_battery
 62
256
370
-1
  6
ByLayer
 10
11.8284271247461916
 20
25.9705627484771426
 30
0.0
 11
16.5920748748647995
 21
30.7342104985957505
 31
0.0
  0
ARC
  5
E9
100
AcDbEntity
  8
center_plate_battery
 62
256
370
-1
  6
ByLayer
100
AcDbCircle
 10
9.0000000000000018
 20
28.7989898732233343
 30
0.0
 40
4.0
100
AcDbArc
 50
180.0
 51
315.0
  0
LINE
  5
EA
100
AcDbEntity
100
AcDbLine
  8
center_plate_battery
 62
256
370
-1
  6
ByLayer
 10
30.5114381759778759
 20
16.3693025522469249
 30
0.0
 11
25.9705627484771249
 21
11.8284271247461739
 31
0.0
  0
ARC
  5
EB
100
AcDbEntity
  8
center_plate_battery
 62
256
370
-1
  6
ByLayer
100
AcDbCircle
 10
28.7989898732233165
 20
8.999999999999984
 30
0.0
 40
4.0
100
AcDbArc
 50
135.0000000000000284
 51
269.9999999999999432
  0
LINE
  5
EC
100
AcDbEntity
100
AcDbLine
  8
center_plate_battery
 62
256
370
-1
  6
ByLayer
 10
-16.3693025522469213
 20
-30.5114381759778581
 30
0.0
 11
-11.8284271247461845
 21
-25.9705627484771284
 31
0.0
  0
ARC
  5
ED
100
AcDbEntity
  8
center_plate_battery
 62
256
370
-1
  6
ByLayer
100
AcDbCircle
 10
-8.9999999999999964
 20
-28.79898987322332
 30
0.0
 40
4.0
100
AcDbArc
 50
0.0000000000001018
 51
134.9999999999999716
  0
LINE
  5
EE
100
AcDbEntity
100
AcDbLine
  8
center_plate_battery
 62
256
370
-1
  6
ByLayer
 10
-25.9705627484771497
 20
-11.8284271247461916
 30
0.0
 11
-30.7342104985957718
 21
-16.5920748748648066
 31
0.0
  0
ARC
  5
EF
100
AcDbEntity
  8
center_plate_battery
 62
256
370
-1
  6
ByLayer
100
AcDbCircle
 10
-28.7989898732233414
 20
-9.0000000000000018
 30
0.0
 40
4.0
100
AcDbArc
 50
315.0
 51
90.0
  0
LINE
  5
F0
100
AcDbEntity
100
AcDbLine
  8
center_plate_battery
 62
256
370
-1
  6
ByLayer
 10
30.5114381759778759
 20
16.3693025522469249
 30
0.0
 11
31.8198051533946398
 21
17.6776695296636888
 31
0.0
  0
LINE
  5
F1
100
AcDbEntity
100
AcDbLine
  8
center_plate_battery
 62
256
370
-1
  6
ByLayer
 10
31.8198051533946398
 20
17.6776695296636888
 30
0.0
 11
17.6776695296636888
 21
31.8198051533946398
 31
0.0
  0
LINE
  5
F2
100
AcDbEntity
100
AcDbLine
  8
center_plate_battery
 62
256
370
-1
  6
ByLayer
 10
17.6776695296636888
 20
31.8198051533946398
 30
0.0
 11
16.5920748748647995
 21
30.7342104985957505
 31
0.0
  0
LINE
  5
F3
100
AcDbEntity
100
AcDbLine
  8
center_plate_battery
 62
256
370
-1
  6
ByLayer
 10
-30.7342104985957718
 20
-16.5920748748648066
 30
0.0
 11
-31.8198051533946398
 21
-17.6776695296636888
 31
0.0
  0
LINE
  5
F4
100
AcDbEntity
100
AcDbLine
  8
center_plate_battery
 62
256
370
-1
  6
ByLayer
 10
-31.8198051533946398
 20
-17.6776695296636888
 30
0.0
 11
-17.6776695296636888
 21
-31.8198051533946398
 31
0.0
  0
LINE
  5
F5
100
AcDbEntity
100
AcDbLine
  8
center_plate_battery
 62
256
370
-1
  6
ByLayer
 10
-17.6776695296636888
 20
-31.8198051533946398
 30
0.0
 11
-16.3693025522469142
 21
-30.5114381759778652
 31
0.0
  0
CIRCLE
  5
F6
100
AcDbEntity
100
AcDbCircle
  8
center_plate_curved
 62
256
370
-1
  6
ByLayer
 10
0.0
 20
0.0
 30
0.0
 40
4.0
  0
CIRCLE
  5
F7
100
AcDbEntity
100
AcDbCircle
  8
center_plate_battery
 62
256
370
-1
  6
ByLayer
 10
0.0
 20
0.0
 30
0.0
 40
4.0
  0
LINE
  5
F8
100
AcDbEntity
100
AcDbLine
  8
helper
 62
256
370
-1
  6
ByLayer
 10
-180.5545635173699281
 20
219.4454364826300434
 30
0.0
 11
219.4454364826300719
 21
-180.5545635173699566
 31
0.0
  0
LINE
  5
F9
100
AcDbEntity
100
AcDbLine
  8
helper
 62
256
370
-1
  6
ByLayer
 10
-219.4454364826300434
 20
180.5545635173699281
 30
0.0
 11
180.5545635173699566
 21
-219.4454364826300719
 31
0.0
  0
LINE
  5
FA
100
AcDbEntity
100
AcDbLine
  8
helper
 62
256
370
-1
  6
ByLayer
 10
219.4454364826300434
 20
180.5545635173699281
 30
0.0
 11
-180.5545635173699566
 21
-219.4454364826300719
 31
0.0
  0
CIRCLE
  5
FB
100
AcDbEntity
100
AcDbCircle
  8
center_plate_curved
 62
256
370
-1
  6
ByLayer
 10
-31.5
 20
0.0
 30
0.0
 40
1.55
  0
CIRCLE
  5
FC
100
AcDbEntity
100
AcDbCircle
  8
center_plate_curved
 62
256
370
-1
  6
ByLayer
 10
31.5
 20
0.0
 30
0.0
 40
1.55
  0
CIRCLE
  5
FD
100
AcDbEntity
100
AcDbCircle
  8
center_plate_curved
 62
256
370
-1
  6
ByLayer
 10
0.0
 20
31.5
 30
0.0
 40
1.55
  0
CIRCLE
  5
FE
100
AcDbEntity
100
AcDbCircle
  8
center_plate_curved
 62
256
370
-1
  6
ByLayer
 10
0.0
 20
-31.5
 30
0.0
 40
1.55
  0
CIRCLE
  5
FF
100
AcDbEntity
100
AcDbCircle
  8
center_plate_curved
 62
256
370
-1
  6
ByLayer
 10
-0.0000000000000032
 20
-17.5
 30
0.0
 40
1.55
  0
CIRCLE
  5
100
100
AcDbEntity
100
AcDbCircle
  8
center_plate_curved
 62
256
370
-1
  6
ByLayer
 10
17.5
 20
-0.0000000000000043
 30
0.0
 40
1.55
  0
CIRCLE
  5
101
100
AcDbEntity
100
AcDbCircle
  8
center_plate_curved
 62
256
370
-1
  6
ByLayer
 10
0.0000000000000054
 20
17.5
 30
0.0
 40
1.55
  0
CIRCLE
  5
102
100
AcDbEntity
100
AcDbCircle
  8
center_plate_curved
 62
256
370
-1
  6
ByLayer
 10
-17.5
 20
0.0
 30
0.0
 40
1.55
  0
CIRCLE
  5
103
100
AcDbEntity
100
AcDbCircle
  8
center_plate_battery
 62
256
370
-1
  6
ByLayer
 10
17.5
 20
-0.0000000000000043
 30
0.0
 40
1.55
  0
CIRCLE
  5
104
100
AcDbEntity
100
AcDbCircle
  8
center_plate_battery
 62
256
370
-1
  6
ByLayer
 10
0.0000000000000054
 20
17.5
 30
0.0
 40
1.55
  0
CIRCLE
  5
105
100
AcDbEntity
100
AcDbCircle
  8
center_plate_battery
 62
256
370
-1
  6
ByLayer
 10
-17.5
 20
0.0
 30
0.0
 40
1.55
  0
CIRCLE
  5
106
100
AcDbEntity
100
AcDbCircle
  8
center_plate_battery
 62
256
370
-1
  6
ByLayer
 10
-0.0000000000000032
 20
-17.5
 30
0.0
 40
1.55
  0
LINE
  5
107
100
AcDbEntity
100
AcDbLine
  8
boom_holder
 62
256
370
-1
  6
ByLayer
 10
-62.5
 20
-5.0
 30
0.0
 11
-62.5
 21
5.0
 31
0.0
  0
LINE
  5
108
100
AcDbEntity
100
AcDbLine
  8
boom_holder
 62
256
370
-1
  6
ByLayer
 10
-62.5
 20
5.0
 30
0.0
 11
-47.5
 21
5.0
 31
0.0
  0
LINE
  5
109
100
AcDbEntity
100
AcDbLine
  8
boom_holder
 62
256
370
-1
  6
ByLayer
 10
-47.5
 20
5.0
 30
0.0
 11
-47.5
 21
-5.0
 31
0.0
  0
LINE
  5
10A
100
AcDbEntity
100
AcDbLine
  8
boom_holder
 62
256
370
-1
  6
ByLayer
 10
-47.5
 20
-5.0
 30
0.0
 11
-62.5
 21
-5.0
 31
0.0
  0
CIRCLE
  5
10B
100
AcDbEntity
100
AcDbCircle
  8
boom_holder
 62
256
370
-1
  6
ByLayer
 10
-55.0
 20
0.0
 30
0.0
 40
1.55
  0
LINE
  5
10C
100
AcDbEntity
100
AcDbLine
  8
boom_holder
 62
256
370
-1
  6
ByLayer
 10
4.9999999999999885
 20
-62.5
 30
0.0
 11
-5.0000000000000115
 21
-62.4999999999999929
 31
0.0
  0
LINE
  5
10D
100
AcDbEntity
100
AcDbLine
  8
boom_holder
 62
256
370
-1
  6
ByLayer
 10
-5.0000000000000115
 20
-62.4999999999999929
 30
0.0
 11
-5.0000000000000115
 21
-47.5
 31
0.0
  0
LINE
  5
10E
100
AcDbEntity
100
AcDbLine
  8
boom_holder
 62
256
370
-1
  6
ByLayer
 10
-5.0000000000000115
 20
-47.5
 30
0.0
 11
4.9999999999999947
 21
-47.5
 31
0.0
  0
LINE
  5
10F
100
AcDbEntity
100
AcDbLine
  8
boom_holder
 62
256
370
-1
  6
ByLayer
 10
4.9999999999999947
 20
-47.5
 30
0.0
 11
4.9999999999999885
 21
-62.5
 31
0.0
  0
CIRCLE
  5
110
100
AcDbEntity
100
AcDbCircle
  8
boom_holder
 62
256
370
-1
  6
ByLayer
 10
-0.0000000000000101
 20
-55.0
 30
0.0
 40
1.55
  0
LINE
  5
111
100
AcDbEntity
100
AcDbLine
  8
boom_holder
 62
256
370
-1
  6
ByLayer
 10
62.5
 20
4.9999999999999849
 30
0.0
 11
62.4999999999999929
 21
-5.0000000000000151
 31
0.0
  0
LINE
  5
112
100
AcDbEntity
100
AcDbLine
  8
boom_holder
 62
256
370
-1
  6
ByLayer
 10
62.4999999999999929
 20
-5.0000000000000151
 30
0.0
 11
47.5
 21
-5.0000000000000142
 31
0.0
  0
LINE
  5
113
100
AcDbEntity
100
AcDbLine
  8
boom_holder
 62
256
370
-1
  6
ByLayer
 10
47.5
 20
-5.0000000000000142
 30
0.0
 11
47.5
 21
4.9999999999999911
 31
0.0
  0
LINE
  5
114
100
AcDbEntity
100
AcDbLine
  8
boom_holder
 62
256
370
-1
  6
ByLayer
 10
47.5
 20
4.9999999999999911
 30
0.0
 11
62.5
 21
4.9999999999999849
 31
0.0
  0
CIRCLE
  5
115
100
AcDbEntity
100
AcDbCircle
  8
boom_holder
 62
256
370
-1
  6
ByLayer
 10
55.0
 20
-0.0000000000000135
 30
0.0
 40
1.55
  0
LINE
  5
116
100
AcDbEntity
100
AcDbLine
  8
boom_holder
 62
256
370
-1
  6
ByLayer
 10
-4.9999999999999813
 20
62.5
 30
0.0
 11
5.0000000000000195
 21
62.4999999999999929
 31
0.0
  0
LINE
  5
117
100
AcDbEntity
100
AcDbLine
  8
boom_holder
 62
256
370
-1
  6
ByLayer
 10
5.0000000000000195
 20
62.4999999999999929
 30
0.0
 11
5.0000000000000178
 21
47.5
 31
0.0
  0
LINE
  5
118
100
AcDbEntity
100
AcDbLine
  8
boom_holder
 62
256
370
-1
  6
ByLayer
 10
5.0000000000000178
 20
47.5
 30
0.0
 11
-4.9999999999999885
 21
47.5
 31
0.0
  0
LINE
  5
119
100
AcDbEntity
100
AcDbLine
  8
boom_holder
 62
256
370
-1
  6
ByLayer
 10
-4.9999999999999885
 20
47.5
 30
0.0
 11
-4.9999999999999813
 21
62.5
 31
0.0
  0
CIRCLE
  5
11A
100
AcDbEntity
100
AcDbCircle
  8
boom_holder
 62
256
370
-1
  6
ByLayer
 10
0.0000000000000168
 20
55.0
 30
0.0
 40
1.55
  0
LINE
  5
11B
100
AcDbEntity
100
AcDbLine
  8
center_plate_battery
 62
256
370
-1
  6
ByLayer
 10
-28.7989898732233414
 20
-5.0000000000000018
 30
0.0
 11
-62.5
 21
-5.0
 31
0.0
  0
LINE
  5
11C
100
AcDbEntity
100
AcDbLine
  8
center_plate_battery
 62
256
370
-1
  6
ByLayer
 10
-62.5
 20
-5.0
 30
0.0
 11
-62.5
 21
5.0
 31
0.0
  0
LINE
  5
11D
100
AcDbEntity
100
AcDbLine
  8
center_plate_battery
 62
256
370
-1
  6
ByLayer
 10
-62.5
 20
5.0
 30
0.0
 11
-53.5231060782800725
 21
5.0000000000000133
 31
0.0
  0
LINE
  5
11E
100
AcDbEntity
100
AcDbLine
  8
center_plate_battery
 62
256
370
-1
  6
ByLayer
 10
-5.0000000000000284
 20
53.5231060782800796
 30
0.0
 11
-4.9999999999999813
 21
62.5
 31
0.0
  0
LINE
  5
11F
100
AcDbEntity
100
AcDbLine
  8
center_plate_battery
 62
256
370
-1
  6
ByLayer
 10
-4.9999999999999813
 20
62.5
 30
0.0
 11
5.0000000000000195
 21
62.4999999999999929
 31
0.0
  0
LINE
  5
120
100
AcDbEntity
100
AcDbLine
  8
center_plate_battery
 62
256
370
-1
  6
ByLayer
 10
5.0000000000000195
 20
62.4999999999999929
 30
0.0
 11
5.0000000000000018
 21
28.7989898732233343
 31
0.0
  0
LINE
  5
121
100
AcDbEntity
100
AcDbLine
  8
center_plate_battery
 62
256
370
-1
  6
ByLayer
 10
28.7989898732233129
 20
4.999999999999984
 30
0.0
 11
62.5
 21
4.9999999999999849
 31
0.0
  0
LINE
  5
122
100
AcDbEntity
100
AcDbLine
  8
center_plate_battery
 62
256
370
-1
  6
ByLayer
 10
62.5
 20
4.9999999999999849
 30
0.0
 11
62.4999999999999929
 21
-5.0000000000000151
 31
0.0
  0
LINE
  5
123
100
AcDbEntity
100
AcDbLine
  8
center_plate_battery
 62
256
370
-1
  6
ByLayer
 10
62.4999999999999929
 20
-5.0000000000000151
 30
0.0
 11
53.5231060782800725
 21
-5.0000000000000195
 31
0.0
  0
LINE
  5
124
100
AcDbEntity
100
AcDbLine
  8
center_plate_battery
 62
256
370
-1
  6
ByLayer
 10
5.0000000000000453
 20
-53.5231060782800796
 30
0.0
 11
4.9999999999999885
 21
-62.5
 31
0.0
  0
LINE
  5
125
100
AcDbEntity
100
AcDbLine
  8
center_plate_battery
 62
256
370
-1
  6
ByLayer
 10
4.9999999999999885
 20
-62.5
 30
0.0
 11
-5.0000000000000115
 21
-62.4999999999999929
 31
0.0
  0
LINE
  5
126
100
AcDbEntity
100
AcDbLine
  8
center_plate_battery
 62
256
370
-1
  6
ByLayer
 10
-5.0000000000000115
 20
-62.4999999999999929
 30
0.0
 11
-4.9999999999999964
 21
-28.7989898732233129
 31
0.0
  0
CIRCLE
  5
127
100
AcDbEntity
100
AcDbCircle
  8
center_plate_battery
 62
256
370
-1
  6
ByLayer
 10
-55.0
 20
0.0
 30
0.0
 40
1.55
  0
CIRCLE
  5
128
100
AcDbEntity
100
AcDbCircle
  8
center_plate_battery
 62
256
370
-1
  6
ByLayer
 10
0.0000000000000168
 20
55.0
 30
0.0
 40
1.55
  0
CIRCLE
  5
129
100
AcDbEntity
100
AcDbCircle
  8
center_plate_battery
 62
256
370
-1
  6
ByLayer
 10
55.0
 20
-0.0000000000000135
 30
0.0
 40
1.55
  0
CIRCLE
  5
12A
100
AcDbEntity
100
AcDbCircle
  8
center_plate_battery
 62
256
370
-1
  6
ByLayer
 10
-0.0000000000000101
 20
-55.0
 30
0.0
 40
1.55
  0
LINE
  5
12B
100
AcDbEntity
100
AcDbLine
  8
center_plate_curved
 62
256
370
-1
  6
ByLayer
 10
-53.5231060782800796
 20
-5.000000000000024
 30
0.0
 11
-62.5
 21
-5.0
 31
0.0
  0
LINE
  5
12C
100
AcDbEntity
100
AcDbLine
  8
center_plate_curved
 62
256
370
-1
  6
ByLayer
 10
-62.5
 20
-5.0
 30
0.0
 11
-62.5
 21
5.0
 31
0.0
  0
LINE
  5
12D
100
AcDbEntity
100
AcDbLine
  8
center_plate_curved
 62
256
370
-1
  6
ByLayer
 10
-62.5
 20
5.0
 30
0.0
 11
-53.5231060782800725
 21
5.0000000000000133
 31
0.0
  0
CIRCLE
  5
12E
100
AcDbEntity
100
AcDbCircle
  8
center_plate_curved
 62
256
370
-1
  6
ByLayer
 10
-55.0
 20
0.0
 30
0.0
 40
1.55
  0
LINE
  5
12F
100
AcDbEntity
100
AcDbLine
  8
center_plate_curved
 62
256
370
-1
  6
ByLayer
 10
4.9999999999999973
 20
-53.5231060782800796
 30
0.0
 11
4.9999999999999885
 21
-62.5
 31
0.0
  0
LINE
  5
130
100
AcDbEntity
100
AcDbLine
  8
center_plate_curved
 62
256
370
-1
  6
ByLayer
 10
4.9999999999999885
 20
-62.5
 30
0.0
 11
-5.0000000000000115
 21
-62.4999999999999929
 31
0.0
  0
LINE
  5
131
100
AcDbEntity
100
AcDbLine
  8
center_plate_curved
 62
256
370
-1
  6
ByLayer
 10
-5.0000000000000115
 20
-62.4999999999999929
 30
0.0
 11
-5.000000000000016
 21
-53.5231060782800725
 31
0.0
  0
CIRCLE
  5
132
100
AcDbEntity
100
AcDbCircle
  8
center_plate_curved
 62
256
370
-1
  6
ByLayer
 10
-0.0000000000000101
 20
-55.0
 30
0.0
 40
1.55
  0
LINE
  5
133
100
AcDbEntity
100
AcDbLine
  8
center_plate_curved
 62
256
370
-1
  6
ByLayer
 10
53.5231060782800796
 20
4.9999999999999947
 30
0.0
 11
62.5
 21
4.9999999999999849
 31
0.0
  0
LINE
  5
134
100
AcDbEntity
100
AcDbLine
  8
center_plate_curved
 62
256
370
-1
  6
ByLayer
 10
62.5
 20
4.9999999999999849
 30
0.0
 11
62.4999999999999929
 21
-5.0000000000000151
 31
0.0
  0
LINE
  5
135
100
AcDbEntity
100
AcDbLine
  8
center_plate_curved
 62
256
370
-1
  6
ByLayer
 10
62.4999999999999929
 20
-5.0000000000000151
 30
0.0
 11
53.5231060782800725
 21
-5.0000000000000195
 31
0.0
  0
CIRCLE
  5
136
100
AcDbEntity
100
AcDbCircle
  8
center_plate_curved
 62
256
370
-1
  6
ByLayer
 10
55.0
 20
-0.0000000000000135
 30
0.0
 40
1.55
  0
LINE
  5
137
100
AcDbEntity
100
AcDbLine
  8
center_plate_curved
 62
256
370
-1
  6
ByLayer
 10
-4.9999999999999911
 20
53.5231060782800796
 30
0.0
 11
-4.9999999999999813
 21
62.5
 31
0.0
  0
LINE
  5
138
100
AcDbEntity
100
AcDbLine
  8
center_plate_curved
 62
256
370
-1
  6
ByLayer
 10
-4.9999999999999813
 20
62.5
 30
0.0
 11
5.0000000000000195
 21
62.4999999999999929
 31
0.0
  0
LINE
  5
139
100
AcDbEntity
100
AcDbLine
  8
center_plate_curved
 62
256
370
-1
  6
ByLayer
 10
5.0000000000000195
 20
62.4999999999999929
 30
0.0
 11
5.0000000000000231
 21
53.5231060782800725
 31
0.0
  0
CIRCLE
  5
13A
100
AcDbEntity
100
AcDbCircle
  8
center_plate_curved
 62
256
370
-1
  6
ByLayer
 10
0.0000000000000168
 20
55.0
 30
0.0
 40
1.55
  0
CIRCLE
  5
13B
100
AcDbEntity
100
AcDbCircle
  8
boom
 62
256
370
-1
  6
ByLayer
 10
-55.0
 20
0.0
 30
0.0
 40
1.55
  0
CIRCLE
  5
13C
100
AcDbEntity
100
AcDbCircle
  8
boom
 62
256
370
-1
  6
ByLayer
 10
0.0000000000000168
 20
55.0
 30
0.0
 40
1.55
  0
CIRCLE
  5
13D
100
AcDbEntity
100
AcDbCircle
  8
boom
 62
256
370
-1
  6
ByLayer
 10
55.0
 20
-0.0000000000000135
 30
0.0
 40
1.55
  0
CIRCLE
  5
13E
100
AcDbEntity
100
AcDbCircle
  8
boom
 62
256
370
-1
  6
ByLayer
 10
-0.0000000000000101
 20
-55.0
 30
0.0
 40
1.55
  0
DIMENSION
  5
13F
100
AcDbEntity
  8
dimensions
 62
256
370
-1
  6
ByLayer
100
AcDbDimension
 10
-62.4999999999999929
 20
19.9999999999999822
 30
0.0
 11
-98.75
 21
21.8749999999999858
 31
0.0
 70
1
 71
5
 72
1
 41
1.0
 42
0.0
  1

  3
Standard
100
AcDbAlignedDimension
 13
-135.0
 23
-0.0000000000000029
 33
0.0
 14
-62.5
 24
-0.0000000000000117
 34
0.0
  0
DIMENSION
  5
140
100
AcDbEntity
  8
dimensions
 62
256
370
-1
  6
ByLayer
100
AcDbDimension
 10
-47.4999999999999929
 20
19.9999999999999787
 30
0.0
 11
-54.9999999999999929
 21
21.8749999999999787
 31
0.0
 70
1
 71
5
 72
1
 41
1.0
 42
0.0
  1

  3
Standard
100
AcDbAlignedDimension
 13
-62.5
 23
-0.0000000000000117
 33
0.0
 14
-47.5
 24
-0.0000000000000136
 34
0.0
  0
DIMENSION
  5
141
100
AcDbEntity
  8
dimensions
 62
256
370
-1
  6
ByLayer
100
AcDbDimension
 10
-24.9999999999999929
 20
19.9999999999999716
 30
0.0
 11
-36.2499999999999929
 21
21.8749999999999716
 31
0.0
 70
1
 71
5
 72
1
 41
1.0
 42
0.0
  1

  3
Standard
100
AcDbAlignedDimension
 13
-47.5
 23
-0.0000000000000136
 33
0.0
 14
-25.0
 24
-0.0000000000000163
 34
0.0
  0
DIMENSION
  5
142
100
AcDbEntity
  8
dimensions
 62
256
370
-1
  6
ByLayer
100
AcDbDimension
 10
-4.9999999999999813
 20
62.5
 30
0.0
 11
-35.075825214724766
 21
35.0758252147247731
 31
0.0
 70
1
 71
5
 72
1
 41
1.0
 42
0.0
  1

  3
Standard
100
AcDbAlignedDimension
 13
-62.5
 23
5.0
 33
0.0
 14
-4.9999999999999813
 24
62.5
 34
0.0
  0
DIMENSION
  5
143
100
AcDbEntity
  8
dimensions
 62
256
370
-1
  6
ByLayer
100
AcDbDimension
 10
-155.0
 20
-10.0
 30
0.0
 11
-159.75
 21
-8.125
 31
0.0
 70
1
 71
5
 72
1
 41
1.0
 42
0.0
  1

  3
Standard
100
AcDbAlignedDimension
 13
-164.5
 23
0.0
 33
0.0
 14
-155.0
 24
0.0
 34
0.0
  0
DIMENSION
  5
144
100
AcDbEntity
  8
dimensions
 62
256
370
-1
  6
ByLayer
100
AcDbDimension
 10
-145.5
 20
-10.0
 30
0.0
 11
-150.25
 21
-8.125
 31
0.0
 70
1
 71
5
 72
1
 41
1.0
 42
0.0
  1

  3
Standard
100
AcDbAlignedDimension
 13
-155.0
 23
0.0
 33
0.0
 14
-145.5
 24
0.0
 34
0.0
  0
DIMENSION
  5
145
100
AcDbEntity
  8
dimensions
 62
256
370
-1
  6
ByLayer
100
AcDbDimension
 10
-55.0
 20
-10.0000000000000053
 30
0.0
 11
-100.25
 21
-8.1250000000000053
 31
0.0
 70
1
 71
5
 72
1
 41
1.0
 42
0.0
  1

  3
Standard
100
AcDbAlignedDimension
 13
-145.5
 23
0.0
 33
0.0
 14
-55.0
 24
0.0
 34
0.0
  0
DIMENSION
  5
146
100
AcDbEntity
  8
dimensions
 62
256
370
-1
  6
ByLayer
100
AcDbDimension
 10
-17.5
 20
-10.0000000000000018
 30
0.0
 11
-36.25
 21
-8.1250000000000018
 31
0.0
 70
1
 71
5
 72
1
 41
1.0
 42
0.0
  1

  3
Standard
100
AcDbAlignedDimension
 13
-55.0
 23
0.0
 33
0.0
 14
-17.5
 24
0.0
 34
0.0
  0
SPLINE
  5
147
  8
helper_new
 62
256
370
-1
  6
ByLayer
100
AcDbEntity
100
AcDbSpline
 70
8
 71
3
 72
8
 73
4
 74
0
 40
0.0
 40
0.0
 40
0.0
 40
0.0
 40
1.0
 40
1.0
 40
1.0
 40
1.0
 10
2.0709999999999713
 20
46.4521060782800816
 30
0.0
 10
-8.1789999999999985
 20
8.179000000000002
 30
0.0
 10
-46.4521060782800745
 20
-2.0709999999999864
 30
0.0
 10
-46.4521060782800745
 20
-2.0709999999999864
 30
0.0
  0
LINE
  5
148
100
AcDbEntity
100
AcDbLine
  8
helper_new
 62
256
370
-1
  6
ByLayer
 10
-53.5231060782800583
 20
5.0000000000000169
 30
0.0
 11
-4.9999999999999858
 21
53.5231060782802217
 31
0.0
  0
LINE
  5
149
100
AcDbEntity
100
AcDbLine
  8
helper_new
 62
256
370
-1
  6
ByLayer
 10
-46.4520382664145757
 20
-2.0710678118654533
 30
0.0
 11
2.0710678118654942
 21
46.4520382664147533
 31
0.0
  0
SPLINE
  5
14A
  8
helper_new
 62
256
370
-1
  6
ByLayer
100
AcDbEntity
100
AcDbSpline
 70
8
 71
3
 72
8
 73
4
 74
0
 40
0.0
 40
0.0
 40
0.0
 40
0.0
 40
1.0
 40
1.0
 40
1.0
 40
1.0
 10
-5.0000000000000284
 20
53.5231060782800796
 30
0.0
 10
-15.2499999999999982
 20
15.2500000000000018
 30
0.0
 10
-53.5231060782800725
 20
5.0000000000000133
 30
0.0
 10
-53.5231060782800725
 20
5.0000000000000133
 30
0.0
  0
LINE
  5
14B
100
AcDbEntity
100
AcDbLine
  8
center_plate_cross
 62
256
370
-1
  6
ByLayer
 10
-4.9999999999999813
 20
62.5
 30
0.0
 11
5.0000000000000195
 21
62.4999999999999929
 31
0.0
  0
LINE
  5
14C
100
AcDbEntity
100
AcDbLine
  8
center_plate_cross
 62
256
370
-1
  6
ByLayer
 10
-62.5
 20
-4.999999999999992
 30
0.0
 11
-62.4999999999999858
 21
5.0000000000000062
 31
0.0
  0
LINE
  5
14D
100
AcDbEntity
100
AcDbLine
  8
center_plate_cross
 62
256
370
-1
  6
ByLayer
 10
4.9999999999999885
 20
-62.5
 30
0.0
 11
-5.0000000000000107
 21
-62.4999999999999858
 31
0.0
  0
LINE
  5
14E
100
AcDbEntity
100
AcDbLine
  8
center_plate_cross
 62
256
370
-1
  6
ByLayer
 10
62.5
 20
4.9999999999999849
 30
0.0
 11
62.4999999999999858
 21
-5.0000000000000142
 31
0.0
  0
ARC
  5
14F
100
AcDbEntity
  8
center_plate_cross
 62
256
370
-1
  6
ByLayer
100
AcDbCircle
 10
-29.7241162050567844
 20
9.0
 30
0.0
 40
4.0
100
AcDbArc
 50
135.0000000000002558
 51
270.0
  0
LINE
  5
150
100
AcDbEntity
100
AcDbLine
  8
center_plate_cross
 62
256
370
-1
  6
ByLayer
 10
-11.8284271247461952
 20
32.5525433298030222
 30
0.0
 11
-32.5525433298029867
 21
11.8284271247461774
 31
0.0
  0
ARC
  5
151
100
AcDbEntity
  8
center_plate_cross
 62
256
370
-1
  6
ByLayer
100
AcDbCircle
 10
-9.0
 20
29.7241162050568342
 30
0.0
 40
4.0
100
AcDbArc
 50
0.0
 51
135.0000000000000853
  0
LINE
  5
152
100
AcDbEntity
100
AcDbLine
  8
center_plate_cross
 62
256
370
-1
  6
ByLayer
 10
-5.0
 20
9.0
 30
0.0
 11
-5.0
 21
29.7241162050568342
 31
0.0
  0
LINE
  5
153
100
AcDbEntity
100
AcDbLine
  8
center_plate_cross
 62
256
370
-1
  6
ByLayer
 10
-29.7241162050567844
 20
5.0
 30
0.0
 11
-9.0
 21
5.0
 31
0.0
  0
ARC
  5
154
100
AcDbEntity
  8
center_plate_cross
 62
256
370
-1
  6
ByLayer
100
AcDbCircle
 10
-9.0
 20
9.0
 30
0.0
 40
4.0
100
AcDbArc
 50
270.0
 51
0.0
  0
ARC
  5
155
100
AcDbEntity
  8
center_plate_cross
 62
256
370
-1
  6
ByLayer
100
AcDbCircle
 10
-29.7241162050568448
 20
-8.9999999999999929
 30
0.0
 40
4.0
100
AcDbArc
 50
90.0
 51
225.0000000000001137
  0
LINE
  5
156
100
AcDbEntity
100
AcDbLine
  8
center_plate_cross
 62
256
370
-1
  6
ByLayer
 10
-9.0000000000000036
 20
-4.9999999999999991
 30
0.0
 11
-29.7241162050568448
 21
-4.999999999999992
 31
0.0
  0
ARC
  5
157
100
AcDbEntity
  8
center_plate_cross
 62
256
370
-1
  6
ByLayer
100
AcDbCircle
 10
-9.0000000000000036
 20
-8.9999999999999982
 30
0.0
 40
4.0
100
AcDbArc
 50
360.0
 51
90.0
  0
LINE
  5
158
100
AcDbEntity
100
AcDbLine
  8
center_plate_cross
 62
256
370
-1
  6
ByLayer
 10
-5.0000000000000178
 20
-29.7241162050567844
 30
0.0
 11
-5.0000000000000036
 21
-9.0
 31
0.0
  0
LINE
  5
159
100
AcDbEntity
100
AcDbLine
  8
center_plate_cross
 62
256
370
-1
  6
ByLayer
 10
-32.5525433298030293
 20
-11.8284271247461881
 30
0.0
 11
-11.8284271247462023
 21
-32.5525433298029725
 31
0.0
  0
ARC
  5
15A
100
AcDbEntity
  8
center_plate_cross
 62
256
370
-1
  6
ByLayer
100
AcDbCircle
 10
-9.0000000000000178
 20
-29.7241162050567809
 30
0.0
 40
4.0
100
AcDbArc
 50
225.0000000000000853
 51
359.9999999999999432
  0
ARC
  5
15B
100
AcDbEntity
  8
center_plate_cross
 62
256
370
-1
  6
ByLayer
100
AcDbCircle
 10
8.9999999999999893
 20
-29.7241162050568484
 30
0.0
 40
4.0
100
AcDbArc
 50
180.0000000000000568
 51
315.0000000000000568
  0
LINE
  5
15C
100
AcDbEntity
100
AcDbLine
  8
center_plate_cross
 62
256
370
-1
  6
ByLayer
 10
4.9999999999999973
 20
-9.0000000000000036
 30
0.0
 11
4.9999999999999902
 21
-29.7241162050568519
 31
0.0
  0
ARC
  5
15D
100
AcDbEntity
  8
center_plate_cross
 62
256
370
-1
  6
ByLayer
100
AcDbCircle
 10
8.9999999999999982
 20
-9.0000000000000036
 30
0.0
 40
4.0
100
AcDbArc
 50
89.9999999999999716
 51
180.0
  0
LINE
  5
15E
100
AcDbEntity
100
AcDbLine
  8
center_plate_cross
 62
256
370
-1
  6
ByLayer
 10
29.7241162050567809
 20
-5.0000000000000195
 30
0.0
 11
9.0
 21
-5.0000000000000036
 31
0.0
  0
LINE
  5
15F
100
AcDbEntity
100
AcDbLine
  8
center_plate_cross
 62
256
370
-1
  6
ByLayer
 10
11.828427124746181
 20
-32.5525433298030364
 30
0.0
 11
32.5525433298029725
 21
-11.8284271247462023
 31
0.0
  0
ARC
  5
160
100
AcDbEntity
  8
center_plate_cross
 62
256
370
-1
  6
ByLayer
100
AcDbCircle
 10
29.7241162050567773
 20
-9.0000000000000195
 30
0.0
 40
4.0
100
AcDbArc
 50
315.0000000000001705
 51
89.9999999999999432
  0
ARC
  5
161
100
AcDbEntity
  8
center_plate_cross
 62
256
370
-1
  6
ByLayer
100
AcDbCircle
 10
9.0000000000000036
 20
8.9999999999999982
 30
0.0
 40
4.0
100
AcDbArc
 50
179.9999999999999716
 51
270.0
  0
LINE
  5
162
100
AcDbEntity
100
AcDbLine
  8
center_plate_cross
 62
256
370
-1
  6
ByLayer
 10
5.0000000000000204
 20
29.7241162050567809
 30
0.0
 11
5.0000000000000044
 21
9.0
 31
0.0
  0
ARC
  5
163
100
AcDbEntity
  8
center_plate_cross
 62
256
370
-1
  6
ByLayer
100
AcDbCircle
 10
9.0000000000000213
 20
29.7241162050567773
 30
0.0
 40
4.0
100
AcDbArc
 50
45.0000000000001066
 51
179.9999999999999432
  0
LINE
  5
164
100
AcDbEntity
100
AcDbLine
  8
center_plate_cross
 62
256
370
-1
  6
ByLayer
 10
32.5525433298030364
 20
11.8284271247461774
 30
0.0
 11
11.8284271247462058
 21
32.5525433298029725
 31
0.0
  0
LINE
  5
165
100
AcDbEntity
100
AcDbLine
  8
center_plate_cross
 62
256
370
-1
  6
ByLayer
 10
9.0000000000000018
 20
4.9999999999999973
 30
0.0
 11
29.7241162050568448
 21
4.9999999999999876
 31
0.0
  0
ARC
  5
166
100
AcDbEntity
  8
center_plate_cross
 62
256
370
-1
  6
ByLayer
100
AcDbCircle
 10
29.7241162050568484
 20
8.9999999999999876
 30
0.0
 40
4.0
100
AcDbArc
 50
269.9999999999999432
 51
45.0000000000000213
  0
LINE
  5
167
100
AcDbEntity
100
AcDbLine
  8
center_plate_cross
 62
256
370
-1
  6
ByLayer
 10
-5.0000000000001128
 20
55.1799603277723989
 30
0.0
 11
-4.9999999999999813
 21
62.5
 31
0.0
  0
ARC
  5
168
100
AcDbEntity
  8
center_plate_cross
 62
256
370
-1
  6
ByLayer
100
AcDbCircle
 10
-9.0000000000001119
 20
55.17996032777247
 30
0.0
 40
4.0
100
AcDbArc
 50
315.0000000000002274
 51
359.9999999999989768
  0
LINE
  5
169
100
AcDbEntity
100
AcDbLine
  8
center_plate_cross
 62
256
370
-1
  6
ByLayer
 10
5.0000000000000195
 20
62.4999999999999929
 30
0.0
 11
5.0000000000000187
 21
55.1799603277724344
 31
0.0
  0
ARC
  5
16A
100
AcDbEntity
  8
center_plate_cross
 62
256
370
-1
  6
ByLayer
100
AcDbCircle
 10
9.0000000000000178
 20
55.1799603277724344
 30
0.0
 40
4.0
100
AcDbArc
 50
180.0
 51
225.0000000000000853
  0
LINE
  5
16B
100
AcDbEntity
100
AcDbLine
  8
center_plate_cross
 62
256
370
-1
  6
ByLayer
 10
6.1715728752538332
 20
52.3515332030262428
 30
0.0
 11
52.3515332030262783
 21
6.1715728752539221
 31
0.0
  0
LINE
  5
16C
100
AcDbEntity
100
AcDbLine
  8
center_plate_cross
 62
256
370
-1
  6
ByLayer
 10
55.179960327772406
 20
5.0000000000001084
 30
0.0
 11
62.5
 21
4.9999999999999849
 31
0.0
  0
ARC
  5
16D
100
AcDbEntity
  8
center_plate_cross
 62
256
370
-1
  6
ByLayer
100
AcDbCircle
 10
55.1799603277724771
 20
9.0000000000001066
 30
0.0
 40
4.0
100
AcDbArc
 50
224.9999999999998579
 51
269.9999999999989768
  0
LINE
  5
16E
100
AcDbEntity
100
AcDbLine
  8
center_plate_cross
 62
256
370
-1
  6
ByLayer
 10
62.4999999999999858
 20
-5.0000000000000142
 30
0.0
 11
55.1799603277724344
 21
-5.0000000000000187
 31
0.0
  0
ARC
  5
16F
100
AcDbEntity
  8
center_plate_cross
 62
256
370
-1
  6
ByLayer
100
AcDbCircle
 10
55.1799603277724344
 20
-9.0000000000000178
 30
0.0
 40
4.0
100
AcDbArc
 50
90.0
 51
135.0000000000000568
  0
LINE
  5
170
100
AcDbEntity
100
AcDbLine
  8
center_plate_cross
 62
256
370
-1
  6
ByLayer
 10
52.3515332030262428
 20
-6.1715728752538315
 30
0.0
 11
6.1715728752539221
 21
-52.3515332030262854
 31
0.0
  0
LINE
  5
171
100
AcDbEntity
100
AcDbLine
  8
center_plate_cross
 62
256
370
-1
  6
ByLayer
 10
5.0000000000001119
 20
-55.179960327772406
 30
0.0
 11
4.9999999999999885
 21
-62.5
 31
0.0
  0
ARC
  5
172
100
AcDbEntity
  8
center_plate_cross
 62
256
370
-1
  6
ByLayer
100
AcDbCircle
 10
9.0000000000001101
 20
-55.17996032777247
 30
0.0
 40
4.0
100
AcDbArc
 50
135.0000000000000568
 51
179.9999999999990905
  0
LINE
  5
173
100
AcDbEntity
100
AcDbLine
  8
center_plate_cross
 62
256
370
-1
  6
ByLayer
 10
-5.0000000000000107
 20
-62.4999999999999858
 30
0.0
 11
-5.0000000000000151
 21
-55.1799603277724273
 31
0.0
  0
ARC
  5
174
100
AcDbEntity
  8
center_plate_cross
 62
256
370
-1
  6
ByLayer
100
AcDbCircle
 10
-9.0000000000000142
 20
-55.1799603277724273
 30
0.0
 40
4.0
100
AcDbArc
 50
0.0
 51
45.0000000000000924
  0
LINE
  5
175
100
AcDbEntity
100
AcDbLine
  8
center_plate_cross
 62
256
370
-1
  6
ByLayer
 10
-6.1715728752538315
 20
-52.3515332030262357
 30
0.0
 11
-52.3515332030262783
 21
-6.1715728752539292
 31
0.0
  0
LINE
  5
176
100
AcDbEntity
100
AcDbLine
  8
center_plate_cross
 62
256
370
-1
  6
ByLayer
 10
-55.179960327772406
 20
-5.0000000000001155
 30
0.0
 11
-62.5
 21
-4.999999999999992
 31
0.0
  0
ARC
  5
177
100
AcDbEntity
  8
center_plate_cross
 62
256
370
-1
  6
ByLayer
100
AcDbCircle
 10
-55.17996032777247
 20
-9.0000000000001137
 30
0.0
 40
4.0
100
AcDbArc
 50
44.9999999999999289
 51
89.9999999999990905
  0
LINE
  5
178
100
AcDbEntity
100
AcDbLine
  8
center_plate_cross
 62
256
370
-1
  6
ByLayer
 10
-52.351533203026257
 20
6.1715728752538253
 30
0.0
 11
-6.171572875253915
 21
52.3515332030262925
 31
0.0
  0
LINE
  5
179
100
AcDbEntity
100
AcDbLine
  8
center_plate_cross
 62
256
370
-1
  6
ByLayer
 10
-62.4999999999999858
 20
5.0000000000000062
 30
0.0
 11
-55.1799603277724486
 21
5.0000000000000115
 31
0.0
  0
ARC
  5
17A
100
AcDbEntity
  8
center_plate_cross
 62
256
370
-1
  6
ByLayer
100
AcDbCircle
 10
-55.1799603277724486
 20
9.0000000000000107
 30
0.0
 40
4.0
100
AcDbArc
 50
270.0
 51
315.0000000000000568
  0
CIRCLE
  5
17B
100
AcDbEntity
100
AcDbCircle
  8
center_plate_cross
 62
256
370
-1
  6
ByLayer
 10
-55.0
 20
0.0
 30
0.0
 40
1.55
  0
CIRCLE
  5
17C
100
AcDbEntity
100
AcDbCircle
  8
center_plate_cross
 62
256
370
-1
  6
ByLayer
 10
-31.5
 20
0.0
 30
0.0
 40
1.55
  0
CIRCLE
  5
17D
100
AcDbEntity
100
AcDbCircle
  8
center_plate_cross
 62
256
370
-1
  6
ByLayer
 10
-17.5
 20
0.0
 30
0.0
 40
1.55
  0
CIRCLE
  5
17E
100
AcDbEntity
100
AcDbCircle
  8
center_plate_cross
 62
256
370
-1
  6
ByLayer
 10
17.5
 20
-0.0000000000000043
 30
0.0
 40
1.55
  0
CIRCLE
  5
17F
100
AcDbEntity
100
AcDbCircle
  8
center_plate_cross
 62
256
370
-1
  6
ByLayer
 10
31.5
 20
0.0
 30
0.0
 40
1.55
  0
CIRCLE
  5
180
100
AcDbEntity
100
AcDbCircle
  8
center_plate_cross
 62
256
370
-1
  6
ByLayer
 10
55.0
 20
-0.0000000000000135
 30
0.0
 40
1.55
  0
CIRCLE
  5
181
100
AcDbEntity
100
AcDbCircle
  8
center_plate_cross
 62
256
370
-1
  6
ByLayer
 10
0.0000000000000054
 20
17.5
 30
0.0
 40
1.55
  0
CIRCLE
  5
182
100
AcDbEntity
100
AcDbCircle
  8
center_plate_cross
 62
256
370
-1
  6
ByLayer
 10
0.0
 20
31.5
 30
0.0
 40
1.55
  0
CIRCLE
  5
183
100
AcDbEntity
100
AcDbCircle
  8
center_plate_cross
 62
256
370
-1
  6
ByLayer
 10
0.0000000000000168
 20
55.0
 30
0.0
 40
1.55
  0
CIRCLE
  5
184
100
AcDbEntity
100
AcDbCircle
  8
center_plate_cross
 62
256
370
-1
  6
ByLayer
 10
-0.0000000000000032
 20
-17.5
 30
0.0
 40
1.55
  0
CIRCLE
  5
185
100
AcDbEntity
100
AcDbCircle
  8
center_plate_cross
 62
256
370
-1
  6
ByLayer
 10
0.0
 20
-31.5
 30
0.0
 40
1.55
  0
CIRCLE
  5
186
100
AcDbEntity
100
AcDbCircle
  8
center_plate_cross
 62
256
370
-1
  6
ByLayer
 10
-0.0000000000000101
 20
-55.0
 30
0.0
 40
1.55
  0
LINE
  5
187
100
AcDbEntity
100
AcDbLine
  8
helper_new
 62
256
370
-1
  6
ByLayer
 10
-49.9875721723473205
 20
1.4644660940672818
 30
0.0
 11
-1.4644660940672458
 21
49.987572172347484
 31
0.0
  0
LINE
  5
188
100
AcDbEntity
100
AcDbLine
  8
helper_new
 62
256
370
-1
  6
ByLayer
 10
2.6360389693210977
 20
48.815999297093505
 30
0.0
 11
48.8159992970935406
 21
2.6360389693211825
 31
0.0
  0
LINE
  5
189
100
AcDbEntity
100
AcDbLine
  8
helper_new
 62
256
370
-1
  6
ByLayer
 10
48.815999297093505
 20
-2.6360389693210959
 30
0.0
 11
2.6360389693211825
 21
-48.8159992970935477
 31
0.0
  0
LINE
  5
18A
100
AcDbEntity
100
AcDbLine
  8
helper_new
 62
256
370
-1
  6
ByLayer
 10
-2.636038969321099
 20
-48.8159992970934908
 30
0.0
 11
-48.8159992970935477
 21
-2.6360389693211861
 31
0.0
  0
CIRCLE
  5
18B
100
AcDbEntity
100
AcDbCircle
  8
center_plate_cross
 62
256
370
-1
  6
ByLayer
 10
-25.7260191332073305
 20
-25.7260191332073305
 30
0.0
 40
1.55
  0
CIRCLE
  5
18C
100
AcDbEntity
100
AcDbCircle
  8
center_plate_cross
 62
256
370
-1
  6
ByLayer
 10
-25.726019133207334
 20
25.726019133207334
 30
0.0
 40
1.55
  0
CIRCLE
  5
18D
100
AcDbEntity
100
AcDbCircle
  8
center_plate_cross
 62
256
370
-1
  6
ByLayer
 10
25.7260191332073305
 20
25.7260191332073305
 30
0.0
 40
1.55
  0
CIRCLE
  5
18E
100
AcDbEntity
100
AcDbCircle
  8
center_plate_cross
 62
256
370
-1
  6
ByLayer
 10
25.726019133207334
 20
-25.726019133207334
 30
0.0
 40
1.55
  0
CIRCLE
  5
18F
100
AcDbEntity
100
AcDbCircle
  8
center_plate_cross
 62
256
370
-1
  6
ByLayer
 10
0.0
 20
0.0
 30
0.0
 40
4.0499999999999998
  0
CIRCLE
  5
190
100
AcDbEntity
100
AcDbCircle
  8
helper_cc
 62
256
370
-1
  6
ByLayer
 10
0.0
 20
0.0
 30
0.0
 40
21.5667568261896996
  0
LINE
  5
191
100
AcDbEntity
100
AcDbLine
  8
helper_cc
 62
256
370
-1
  6
ByLayer
 10
-400.0
 20
18.0
 30
0.0
 11
400.0
 21
18.0
 31
0.0
  0
LINE
  5
192
100
AcDbEntity
100
AcDbLine
  8
helper_cc
 62
256
370
-1
  6
ByLayer
 10
-400.0
 20
-18.0
 30
0.0
 11
400.0
 21
-18.0
 31
0.0
  0
LINE
  5
193
100
AcDbEntity
100
AcDbLine
  8
helper_cc
 62
256
370
-1
  6
ByLayer
 10
18.0
 20
400.0
 30
0.0
 11
18.0
 21
-400.0
 31
0.0
  0
LINE
  5
194
100
AcDbEntity
100
AcDbLine
  8
helper_cc
 62
256
370
-1
  6
ByLayer
 10
-18.0
 20
400.0
 30
0.0
 11
-18.0
 21
-400.0
 31
0.0
  0
LINE
  5
195
100
AcDbEntity
100
AcDbLine
  8
helper_cc
 62
256
370
-1
  6
ByLayer
 10
-187.2720779386421555
 20
212.7279220613578445
 30
0.0
 11
212.7279220613578445
 21
-187.2720779386421555
 31
0.0
  0
LINE
  5
196
100
AcDbEntity
100
AcDbLine
  8
helper_cc
 62
256
370
-1
  6
ByLayer
 10
-212.7279220613578445
 20
187.272077938642127
 30
0.0
 11
187.2720779386421555
 21
-212.727922061357873
 31
0.0
  0
LINE
  5
197
100
AcDbEntity
100
AcDbLine
  8
helper_cc
 62
256
370
-1
  6
ByLayer
 10
212.7279220613578445
 20
187.2720779386421555
 30
0.0
 11
-187.2720779386421555
 21
-212.7279220613578445
 31
0.0
  0
LINE
  5
198
100
AcDbEntity
100
AcDbLine
  8
helper_cc
 62
256
370
-1
  6
ByLayer
 10
187.2720779386421555
 20
212.727922061357873
 30
0.0
 11
-212.7279220613578445
 21
-187.272077938642127
 31
0.0
  0
CIRCLE
  5
199
100
AcDbEntity
100
AcDbCircle
  8
helper_cc
 62
256
370
-1
  6
ByLayer
 10
0.0
 20
0.0
 30
0.0
 40
27.5
  0
LINE
  5
19A
100
AcDbEntity
100
AcDbLine
  8
helper_cc
 62
256
370
-1
  6
ByLayer
 10
-12.5
 20
5.0000000000000062
 30
0.0
 11
-12.5
 21
-4.999999999999992
 31
0.0
  0
CIRCLE
  5
19B
100
AcDbEntity
100
AcDbCircle
  8
helper_cc
 62
256
370
-1
  6
ByLayer
 10
0.0
 20
0.0
 30
0.0
 40
12.5
  0
CIRCLE
  5
19C
100
AcDbEntity
100
AcDbCircle
  8
carrier_cc_top
 62
256
370
-1
  6
ByLayer
 10
0.0
 20
0.0
 30
0.0
 40
27.5
  0
CIRCLE
  5
19D
100
AcDbEntity
100
AcDbCircle
  8
carrier_cc_top
 62
256
370
-1
  6
ByLayer
 10
0.0
 20
0.0
 30
0.0
 40
12.5
  0
CIRCLE
  5
19E
100
AcDbEntity
100
AcDbCircle
  8
carrier_cc_top
 62
256
370
-1
  6
ByLayer
 10
15.25
 20
15.25
 30
0.0
 40
1.55
  0
CIRCLE
  5
19F
100
AcDbEntity
100
AcDbCircle
  8
carrier_cc_top
 62
256
370
-1
  6
ByLayer
 10
-15.25
 20
15.25
 30
0.0
 40
1.55
  0
CIRCLE
  5
1A0
100
AcDbEntity
100
AcDbCircle
  8
carrier_cc_top
 62
256
370
-1
  6
ByLayer
 10
-15.25
 20
-15.25
 30
0.0
 40
1.55
  0
CIRCLE
  5
1A1
100
AcDbEntity
100
AcDbCircle
  8
carrier_cc_top
 62
256
370
-1
  6
ByLayer
 10
15.25
 20
-15.25
 30
0.0
 40
1.55
  0
SPLINE
  5
1A2
  8
center_plate_light
 62
256
370
-1
  6
ByLayer
100
AcDbEntity
100
AcDbSpline
 70
8
 71
3
 72
8
 73
4
 74
0
 40
0.0
 40
0.0
 40
0.0
 40
0.0
 40
1.0
 40
1.0
 40
1.0
 40
1.0
 10
-5.0000000000000284
 20
53.5231060782800796
 30
0.0
 10
-15.2499999999999982
 20
15.2500000000000018
 30
0.0
 10
-53.5231060782800725
 20
5.0000000000000133
 30
0.0
 10
-53.5231060782800725
 20
5.0000000000000133
 30
0.0
  0
LINE
  5
1A3
100
AcDbEntity
100
AcDbLine
  8
center_plate_light
 62
256
370
-1
  6
ByLayer
 10
-4.9999999999999858
 20
53.5231060782802217
 30
0.0
 11
-4.9999999999999813
 21
62.5
 31
0.0
  0
LINE
  5
1A4
100
AcDbEntity
100
AcDbLine
  8
center_plate_light
 62
256
370
-1
  6
ByLayer
 10
-4.9999999999999813
 20
62.5
 30
0.0
 11
5.0000000000000195
 21
62.4999999999999929
 31
0.0
  0
LINE
  5
1A5
100
AcDbEntity
100
AcDbLine
  8
center_plate_light
 62
256
370
-1
  6
ByLayer
 10
5.0000000000000195
 20
62.4999999999999929
 30
0.0
 11
5.0000000000000187
 21
53.5231060782800654
 31
0.0
  0
ARC
  5
1A6
100
AcDbEntity
  8
center_plate_light
 62
256
370
-1
  6
ByLayer
100
AcDbCircle
 10
-9.0
 20
9.0
 30
0.0
 40
4.0
100
AcDbArc
 50
270.0000000000000568
 51
0.0
  0
SPLINE
  5
1A7
  8
center_plate_light
 62
256
370
-1
  6
ByLayer
100
AcDbEntity
100
AcDbSpline
 70
8
 71
3
 72
8
 73
4
 74
0
 40
0.0
 40
0.0
 40
0.0
 40
0.0
 40
1.0
 40
1.0
 40
1.0
 40
1.0
 10
-53.5231060782800796
 20
-5.000000000000024
 30
0.0
 10
-15.2500000000000036
 20
-15.2499999999999982
 30
0.0
 10
-5.000000000000016
 20
-53.5231060782800725
 30
0.0
 10
-5.000000000000016
 20
-53.5231060782800725
 30
0.0
  0
LINE
  5
1A8
100
AcDbEntity
100
AcDbLine
  8
center_plate_light
 62
256
370
-1
  6
ByLayer
 10
-53.5231060782802288
 20
-4.9999999999999662
 30
0.0
 11
-62.5
 21
-4.999999999999992
 31
0.0
  0
LINE
  5
1A9
100
AcDbEntity
100
AcDbLine
  8
center_plate_light
 62
256
370
-1
  6
ByLayer
 10
-62.5
 20
-4.999999999999992
 30
0.0
 11
-62.4999999999999858
 21
5.0000000000000062
 31
0.0
  0
LINE
  5
1AA
100
AcDbEntity
100
AcDbLine
  8
center_plate_light
 62
256
370
-1
  6
ByLayer
 10
-62.4999999999999858
 20
5.0000000000000062
 30
0.0
 11
-53.5231060782800654
 21
5.0000000000000124
 31
0.0
  0
ARC
  5
1AB
100
AcDbEntity
  8
center_plate_light
 62
256
370
-1
  6
ByLayer
100
AcDbCircle
 10
-9.0000000000000018
 20
-8.9999999999999982
 30
0.0
 40
4.0
100
AcDbArc
 50
0.0000000000000509
 51
90.0
  0
SPLINE
  5
1AC
  8
center_plate_light
 62
256
370
-1
  6
ByLayer
100
AcDbEntity
100
AcDbSpline
 70
8
 71
3
 72
8
 73
4
 74
0
 40
0.0
 40
0.0
 40
0.0
 40
0.0
 40
1.0
 40
1.0
 40
1.0
 40
1.0
 10
4.9999999999999973
 20
-53.5231060782800796
 30
0.0
 10
15.2499999999999964
 20
-15.2500000000000036
 30
0.0
 10
53.5231060782800725
 20
-5.0000000000000195
 30
0.0
 10
53.5231060782800725
 20
-5.0000000000000195
 30
0.0
  0
LINE
  5
1AD
100
AcDbEntity
100
AcDbLine
  8
center_plate_light
 62
256
370
-1
  6
ByLayer
 10
4.9999999999999627
 20
-53.5231060782802288
 30
0.0
 11
4.9999999999999885
 21
-62.5
 31
0.0
  0
LINE
  5
1AE
100
AcDbEntity
100
AcDbLine
  8
center_plate_light
 62
256
370
-1
  6
ByLayer
 10
4.9999999999999885
 20
-62.5
 30
0.0
 11
-5.0000000000000107
 21
-62.4999999999999858
 31
0.0
  0
LINE
  5
1AF
100
AcDbEntity
100
AcDbLine
  8
center_plate_light
 62
256
370
-1
  6
ByLayer
 10
-5.0000000000000107
 20
-62.4999999999999858
 30
0.0
 11
-5.000000000000016
 21
-53.5231060782800654
 31
0.0
  0
ARC
  5
1B0
100
AcDbEntity
  8
center_plate_light
 62
256
370
-1
  6
ByLayer
100
AcDbCircle
 10
8.9999999999999982
 20
-9.0000000000000018
 30
0.0
 40
4.0
100
AcDbArc
 50
90.0000000000000568
 51
180.0
  0
SPLINE
  5
1B1
  8
center_plate_light
 62
256
370
-1
  6
ByLayer
100
AcDbEntity
100
AcDbSpline
 70
8
 71
3
 72
8
 73
4
 74
0
 40
0.0
 40
0.0
 40
0.0
 40
0.0
 40
1.0
 40
1.0
 40
1.0
 40
1.0
 10
53.5231060782800796
 20
4.9999999999999947
 30
0.0
 10
15.2500000000000036
 20
15.2499999999999964
 30
0.0
 10
5.0000000000000231
 20
53.5231060782800725
 30
0.0
 10
5.0000000000000231
 20
53.5231060782800725
 30
0.0
  0
LINE
  5
1B2
100
AcDbEntity
100
AcDbLine
  8
center_plate_light
 62
256
370
-1
  6
ByLayer
 10
53.5231060782802288
 20
4.99999999999996
 30
0.0
 11
62.5
 21
4.9999999999999849
 31
0.0
  0
LINE
  5
1B3
100
AcDbEntity
100
AcDbLine
  8
center_plate_light
 62
256
370
-1
  6
ByLayer
 10
62.5
 20
4.9999999999999849
 30
0.0
 11
62.4999999999999858
 21
-5.0000000000000142
 31
0.0
  0
LINE
  5
1B4
100
AcDbEntity
100
AcDbLine
  8
center_plate_light
 62
256
370
-1
  6
ByLayer
 10
62.4999999999999858
 20
-5.0000000000000142
 30
0.0
 11
53.5231060782800654
 21
-5.0000000000000195
 31
0.0
  0
ARC
  5
1B5
100
AcDbEntity
  8
center_plate_light
 62
256
370
-1
  6
ByLayer
100
AcDbCircle
 10
9.0000000000000018
 20
8.9999999999999982
 30
0.0
 40
4.0
100
AcDbArc
 50
180.0
 51
270.0
  0
CIRCLE
  5
1B6
100
AcDbEntity
100
AcDbCircle
  8
center_plate_light
 62
256
370
-1
  6
ByLayer
 10
-55.0
 20
0.0
 30
0.0
 40
1.55
  0
CIRCLE
  5
1B7
100
AcDbEntity
100
AcDbCircle
  8
center_plate_light
 62
256
370
-1
  6
ByLayer
 10
-17.5
 20
0.0
 30
0.0
 40
1.55
  0
CIRCLE
  5
1B8
100
AcDbEntity
100
AcDbCircle
  8
center_plate_light
 62
256
370
-1
  6
ByLayer
 10
0.0000000000000054
 20
17.5
 30
0.0
 40
1.55
  0
CIRCLE
  5
1B9
100
AcDbEntity
100
AcDbCircle
  8
center_plate_light
 62
256
370
-1
  6
ByLayer
 10
0.0000000000000168
 20
55.0
 30
0.0
 40
1.55
  0
CIRCLE
  5
1BA
100
AcDbEntity
100
AcDbCircle
  8
center_plate_light
 62
256
370
-1
  6
ByLayer
 10
17.5
 20
-0.0000000000000043
 30
0.0
 40
1.55
  0
CIRCLE
  5
1BB
100
AcDbEntity
100
AcDbCircle
  8
center_plate_light
 62
256
370
-1
  6
ByLayer
 10
55.0
 20
-0.0000000000000135
 30
0.0
 40
1.55
  0
CIRCLE
  5
1BC
100
AcDbEntity
100
AcDbCircle
  8
center_plate_light
 62
256
370
-1
  6
ByLayer
 10
-0.0000000000000032
 20
-17.5
 30
0.0
 40
1.55
  0
CIRCLE
  5
1BD
100
AcDbEntity
100
AcDbCircle
  8
center_plate_light
 62
256
370
-1
  6
ByLayer
 10
-0.0000000000000101
 20
-55.0
 30
0.0
 40
1.55
  0
CIRCLE
  5
1BE
100
AcDbEntity
100
AcDbCircle
  8
center_plate_light
 62
256
370
-1
  6
ByLayer
 10
19.5144167945285218
 20
-19.5144167945285325
 30
0.0
 40
1.55
  0
CIRCLE
  5
1BF
100
AcDbEntity
100
AcDbCircle
  8
center_plate_light
 62
256
370
-1
  6
ByLayer
 10
19.5144167945285325
 20
19.5144167945285218
 30
0.0
 40
1.55
  0
CIRCLE
  5
1C0
100
AcDbEntity
100
AcDbCircle
  8
center_plate_light
 62
256
370
-1
  6
ByLayer
 10
-19.514416794528529
 20
19.514416794528529
 30
0.0
 40
1.55
  0
CIRCLE
  5
1C1
100
AcDbEntity
100
AcDbCircle
  8
center_plate_light
 62
256
370
-1
  6
ByLayer
 10
-19.5144167945285325
 20
-19.5144167945285254
 30
0.0
 40
1.55
  0
CIRCLE
  5
1C2
100
AcDbEntity
100
AcDbCircle
  8
center_plate_light
 62
256
370
-1
  6
ByLayer
 10
0.0
 20
0.0
 30
0.0
 40
4.0
  0
LINE
  5
1C3
100
AcDbEntity
100
AcDbLine
  8
center_plate_light
 62
256
370
-1
  6
ByLayer
 10
-26.9600034328177998
 20
5.0
 30
0.0
 11
-8.9999999999999964
 21
5.0
 31
0.0
  0
ARC
  5
1C4
100
AcDbEntity
  8
center_plate_light
 62
256
370
-1
  6
ByLayer
100
AcDbCircle
 10
-26.9600034328177998
 20
6.0
 30
0.0
 40
1.0
100
AcDbArc
 50
122.5204731313275204
 51
270.0
  0
ARC
  5
1C5
100
AcDbEntity
  8
center_plate_light
 62
256
370
-1
  6
ByLayer
100
AcDbCircle
 10
-65.9527828502349536
 20
67.1581676858758811
 30
0.0
 40
71.5310852075788546
100
AcDbArc
 50
302.5204731313259003
 51
325.7490614645072355
  0
LINE
  5
1C6
100
AcDbEntity
100
AcDbLine
  8
center_plate_light
 62
256
370
-1
  6
ByLayer
 10
-5.0
 20
9.0
 30
0.0
 11
-5.0
 21
26.336333455875419
 31
0.0
  0
ARC
  5
1C7
100
AcDbEntity
  8
center_plate_light
 62
256
370
-1
  6
ByLayer
100
AcDbCircle
 10
-6.0
 20
26.336333455875419
 30
0.0
 40
1.0
100
AcDbArc
 50
0.0
 51
145.7490614645097082
  0
LINE
  5
1C8
100
AcDbEntity
100
AcDbLine
  8
center_plate_light
 62
256
370
-1
  6
ByLayer
 10
5.0000000000000071
 20
26.9600034328178353
 30
0.0
 11
5.0
 21
8.9999999999999964
 31
0.0
  0
ARC
  5
1C9
100
AcDbEntity
  8
center_plate_light
 62
256
370
-1
  6
ByLayer
100
AcDbCircle
 10
6.0000000000000071
 20
26.9600034328178353
 30
0.0
 40
1.0
100
AcDbArc
 50
32.5204731313275275
 51
180.0
  0
ARC
  5
1CA
100
AcDbEntity
  8
center_plate_light
 62
256
370
-1
  6
ByLayer
100
AcDbCircle
 10
67.158167685875938
 20
65.9527828502349109
 30
0.0
 40
71.5310852075788546
100
AcDbArc
 50
212.5204731313258151
 51
235.7490614645072071
  0
LINE
  5
1CB
100
AcDbEntity
100
AcDbLine
  8
center_plate_light
 62
256
370
-1
  6
ByLayer
 10
9.0000000000000018
 20
4.9999999999999973
 30
0.0
 11
26.3363334558754119
 21
4.9999999999999938
 31
0.0
  0
ARC
  5
1CC
100
AcDbEntity
  8
center_plate_light
 62
256
370
-1
  6
ByLayer
100
AcDbCircle
 10
26.3363334558754119
 20
5.9999999999999938
 30
0.0
 40
1.0
100
AcDbArc
 50
270.0
 51
55.7490614645087774
  0
LINE
  5
1CD
100
AcDbEntity
100
AcDbLine
  8
center_plate_light
 62
256
370
-1
  6
ByLayer
 10
26.9600034328178353
 20
-5.0000000000000062
 30
0.0
 11
8.9999999999999964
 21
-5.0
 31
0.0
  0
ARC
  5
1CE
100
AcDbEntity
  8
center_plate_light
 62
256
370
-1
  6
ByLayer
100
AcDbCircle
 10
26.9600034328178353
 20
-6.0000000000000062
 30
0.0
 40
1.0
100
AcDbArc
 50
302.5204731313255024
 51
90.0
  0
ARC
  5
1CF
100
AcDbEntity
  8
center_plate_light
 62
256
370
-1
  6
ByLayer
100
AcDbCircle
 10
65.9527828502349109
 20
-67.158167685875938
 30
0.0
 40
71.5310852075788546
100
AcDbArc
 50
122.5204731313258435
 51
145.7490614645072355
  0
LINE
  5
1D0
100
AcDbEntity
100
AcDbLine
  8
center_plate_light
 62
256
370
-1
  6
ByLayer
 10
4.9999999999999973
 20
-9.0000000000000018
 30
0.0
 11
4.9999999999999947
 21
-26.3363334558754119
 31
0.0
  0
ARC
  5
1D1
100
AcDbEntity
  8
center_plate_light
 62
256
370
-1
  6
ByLayer
100
AcDbCircle
 10
5.9999999999999947
 20
-26.3363334558754119
 30
0.0
 40
1.0
100
AcDbArc
 50
180.0
 51
325.7490614645069513
  0
LINE
  5
1D2
100
AcDbEntity
100
AcDbLine
  8
center_plate_light
 62
256
370
-1
  6
ByLayer
 10
-5.0000000000000044
 20
-26.9600034328177998
 30
0.0
 11
-4.9999999999999991
 21
-8.9999999999999964
 31
0.0
  0
ARC
  5
1D3
100
AcDbEntity
  8
center_plate_light
 62
256
370
-1
  6
ByLayer
100
AcDbCircle
 10
-6.0000000000000044
 20
-26.9600034328177998
 30
0.0
 40
1.0
100
AcDbArc
 50
212.5204731313259572
 51
0.0
  0
LINE
  5
1D4
100
AcDbEntity
100
AcDbLine
  8
center_plate_light
 62
256
370
-1
  6
ByLayer
 10
-9.0000000000000018
 20
-4.9999999999999982
 30
0.0
 11
-26.3363334558754119
 21
-4.9999999999999964
 31
0.0
  0
ARC
  5
1D5
100
AcDbEntity
  8
center_plate_light
 62
256
370
-1
  6
ByLayer
100
AcDbCircle
 10
-67.1581676858758954
 20
-65.9527828502349394
 30
0.0
 40
71.5310852075788546
100
AcDbArc
 50
32.5204731313258932
 51
55.7490614645072569
  0
ARC
  5
1D6
100
AcDbEntity
  8
center_plate_light
 62
256
370
-1
  6
ByLayer
100
AcDbCircle
 10
-26.3363334558754119
 20
-5.9999999999999964
 30
0.0
 40
1.0
100
AcDbArc
 50
90.0
 51
235.7490614645074061
  0
POINT
  5
1D7
100
AcDbEntity
100
AcDbPoint
  8
center_plate_light
 62
256
370
-1
  6
ByLayer
 10
-19.514416794528529
 20
19.514416794528529
 30
0.0
  0
POINT
  5
1D8
100
AcDbEntity
100
AcDbPoint
  8
center_plate_light
 62
256
370
-1
  6
ByLayer
 10
0.0000000000000054
 20
17.5
 30
0.0
  0
POINT
  5
1D9
100
AcDbEntity
100
AcDbPoint
  8
center_plate_light
 62
256
370
-1
  6
ByLayer
 10
19.5144167945285325
 20
19.5144167945285218
 30
0.0
  0
POINT
  5
1DA
100
AcDbEntity
100
AcDbPoint
  8
center_plate_light
 62
256
370
-1
  6
ByLayer
 10
19.5144167945285218
 20
-19.5144167945285325
 30
0.0
  0
POINT
  5
1DB
100
AcDbEntity
100
AcDbPoint
  8
center_plate_light
 62
256
370
-1
  6
ByLayer
 10
-0.0000000000000032
 20
-17.5
 30
0.0
  0
POINT
  5
1DC
100
AcDbEntity
100
AcDbPoint
  8
center_plate_light
 62
256
370
-1
  6
ByLayer
 10
-19.5144167945285325
 20
-19.5144167945285254
 30
0.0
  0
POINT
  5
1DD
100
AcDbEntity
100
AcDbPoint
  8
center_plate_light
 62
256
370
-1
  6
ByLayer
 10
-55.0
 20
0.0
 30
0.0
  0
POINT
  5
1DE
100
AcDbEntity
100
AcDbPoint
  8
center_plate_light
 62
256
370
-1
  6
ByLayer
 10
-17.5
 20
0.0
 30
0.0
  0
POINT
  5
1DF
100
AcDbEntity
100
AcDbPoint
  8
center_plate_light
 62
256
370
-1
  6
ByLayer
 10
17.5
 20
-0.0000000000000043
 30
0.0
  0
POINT
  5
1E0
100
AcDbEntity
100
AcDbPoint
  8
center_plate_light
 62
256
370
-1
  6
ByLayer
 10
55.0
 20
-0.0000000000000135
 30
0.0
  0
POINT
  5
1E1
100
AcDbEntity
100
AcDbPoint
  8
center_plate_light
 62
256
370
-1
  6
ByLayer
 10
0.0
 20
0.0
 30
0.0
  0
POINT
  5
1E2
100
AcDbEntity
100
AcDbPoint
  8
center_plate_light
 62
256
370
-1
  6
ByLayer
 10
-0.0000000000000101
 20
-55.0
 30
0.0
  0
POINT
  5
1E3
100
AcDbEntity
100
AcDbPoint
  8
center_plate_light
 62
256
370
-1
  6
ByLayer
 10
0.0000000000000168
 20
55.0
 30
0.0
  0
POINT
  5
1E4
100
AcDbEntity
100
AcDbPoint
  8
center_plate_light
 62
256
370
-1
  6
ByLayer
 10
-6.0000000000000044
 20
-26.9600034328177998
 30
0.0
  0
POINT
  5
1E5
100
AcDbEntity
100
AcDbPoint
  8
center_plate_light
 62
256
370
-1
  6
ByLayer
 10
-9.0000000000000018
 20
-8.9999999999999982
 30
0.0
  0
POINT
  5
1E6
100
AcDbEntity
100
AcDbPoint
  8
center_plate_light
 62
256
370
-1
  6
ByLayer
 10
-26.3363334558754119
 20
-5.9999999999999964
 30
0.0
  0
POINT
  5
1E7
100
AcDbEntity
100
AcDbPoint
  8
center_plate_light
 62
256
370
-1
  6
ByLayer
 10
-26.9600034328177998
 20
6.0
 30
0.0
  0
POINT
  5
1E8
100
AcDbEntity
100
AcDbPoint
  8
center_plate_light
 62
256
370
-1
  6
ByLayer
 10
-9.0
 20
9.0
 30
0.0
  0
POINT
  5
1E9
100
AcDbEntity
100
AcDbPoint
  8
center_plate_light
 62
256
370
-1
  6
ByLayer
 10
-6.0
 20
26.336333455875419
 30
0.0
  0
POINT
  5
1EA
100
AcDbEntity
100
AcDbPoint
  8
center_plate_light
 62
256
370
-1
  6
ByLayer
 10
6.0000000000000071
 20
26.9600034328178353
 30
0.0
  0
POINT
  5
1EB
100
AcDbEntity
100
AcDbPoint
  8
center_plate_light
 62
256
370
-1
  6
ByLayer
 10
26.3363334558754119
 20
5.9999999999999938
 30
0.0
  0
POINT
  5
1EC
100
AcDbEntity
100
AcDbPoint
  8
center_plate_light
 62
256
370
-1
  6
ByLayer
 10
9.0000000000000018
 20
8.9999999999999982
 30
0.0
  0
POINT
  5
1ED
100
AcDbEntity
100
AcDbPoint
  8
center_plate_light
 62
256
370
-1
  6
ByLayer
 10
8.9999999999999982
 20
-9.0000000000000018
 30
0.0
  0
POINT
  5
1EE
100
AcDbEntity
100
AcDbPoint
  8
center_plate_light
 62
256
370
-1
  6
ByLayer
 10
26.9600034328178353
 20
-6.0000000000000062
 30
0.0
  0
POINT
  5
1EF
100
AcDbEntity
100
AcDbPoint
  8
center_plate_light
 62
256
370
-1
  6
ByLayer
 10
5.9999999999999947
 20
-26.3363334558754119
 30
0.0
  0
POINT
  5
1F0
100
AcDbEntity
100
AcDbPoint
  8
center_plate_light
 62
256
370
-1
  6
ByLayer
 10
-31.5
 20
0.0
 30
0.0
  0
POINT
  5
1F1
100
AcDbEntity
100
AcDbPoint
  8
center_plate_light
 62
256
370
-1
  6
ByLayer
 10
31.5
 20
0.0
 30
0.0
  0
POINT
  5
1F2
100
AcDbEntity
100
AcDbPoint
  8
center_plate_light
 62
256
370
-1
  6
ByLayer
 10
0.0
 20
31.5
 30
0.0
  0
POINT
  5
1F3
100
AcDbEntity
100
AcDbPoint
  8
center_plate_light
 62
256
370
-1
  6
ByLayer
 10
0.0
 20
-31.5
 30
0.0
  0
CIRCLE
  5
1F4
100
AcDbEntity
100
AcDbCircle
  8
center_plate_light
 62
256
370
-1
  6
ByLayer
 10
0.0
 20
31.5
 30
0.0
 40
1.55
  0
CIRCLE
  5
1F5
100
AcDbEntity
100
AcDbCircle
  8
center_plate_light
 62
256
370
-1
  6
ByLayer
 10
31.5
 20
0.0
 30
0.0
 40
1.55
  0
CIRCLE
  5
1F6
100
AcDbEntity
100
AcDbCircle
  8
center_plate_light
 62
256
370
-1
  6
ByLayer
 10
0.0
 20
-31.5
 30
0.0
 40
1.55
  0
CIRCLE
  5
1F7
100
AcDbEntity
100
AcDbCircle
  8
center_plate_light
 62
256
370
-1
  6
ByLayer
 10
-31.5
 20
0.0
 30
0.0
 40
1.55
  0
LINE
  5
1F8
100
AcDbEntity
100
AcDbLine
  8
helper
 62
256
370
-1
  6
ByLayer
 10
-167.5
 20
-70.0
 30
0.0
 11
-167.5
 21
70.0
 31
0.0
  0
LINE
  5
1F9
100
AcDbEntity
100
AcDbLine
  8
helper
 62
256
370
-1
  6
ByLayer
 10
-142.5
 20
-70.0
 30
0.0
 11
-142.5
 21
70.0
 31
0.0
  0
LINE
  5
1FA
100
AcDbEntity
100
AcDbLine
  8
motor_plate
 62
256
370
-1
  6
ByLayer
 10
-167.5
 20
5.0
 30
0.0
 11
-142.5
 21
5.0
 31
0.0
  0
LINE
  5
1FB
100
AcDbEntity
100
AcDbLine
  8
motor_plate
 62
256
370
-1
  6
ByLayer
 10
-142.5
 20
5.0
 30
0.0
 11
-142.5
 21
-5.0
 31
0.0
  0
LINE
  5
1FC
100
AcDbEntity
100
AcDbLine
  8
motor_plate
 62
256
370
-1
  6
ByLayer
 10
-142.5
 20
-5.0
 30
0.0
 11
-167.5
 21
-5.0
 31
0.0
  0
LINE
  5
1FD
100
AcDbEntity
100
AcDbLine
  8
motor_plate
 62
256
370
-1
  6
ByLayer
 10
-167.5
 20
-5.0
 30
0.0
 11
-167.5
 21
5.0
 31
0.0
  0
CIRCLE
  5
1FE
100
AcDbEntity
100
AcDbCircle
  8
motor_plate
 62
256
370
-1
  6
ByLayer
 10
-164.5
 20
0.0
 30
0.0
 40
1.55
  0
CIRCLE
  5
1FF
100
AcDbEntity
100
AcDbCircle
  8
motor_plate
 62
256
370
-1
  6
ByLayer
 10
-145.5
 20
0.0
 30
0.0
 40
1.55
  0
LINE
  5
200
100
AcDbEntity
100
AcDbLine
  8
motor_plate
 62
256
370
-1
  6
ByLayer
 10
-4.9999999999999156
 20
-167.5
 30
0.0
 11
-5.0000000000000249
 21
-142.4999999999999716
 31
0.0
  0
LINE
  5
201
100
AcDbEntity
100
AcDbLine
  8
motor_plate
 62
256
370
-1
  6
ByLayer
 10
-5.0000000000000249
 20
-142.4999999999999716
 30
0.0
 11
4.9999999999999734
 21
-142.5
 31
0.0
  0
LINE
  5
202
100
AcDbEntity
100
AcDbLine
  8
motor_plate
 62
256
370
-1
  6
ByLayer
 10
4.9999999999999734
 20
-142.5
 30
0.0
 11
4.9999999999998543
 21
-167.5000000000000284
 31
0.0
  0
LINE
  5
203
100
AcDbEntity
100
AcDbLine
  8
motor_plate
 62
256
370
-1
  6
ByLayer
 10
4.9999999999998543
 20
-167.5000000000000284
 30
0.0
 11
-4.9999999999999156
 21
-167.5
 31
0.0
  0
CIRCLE
  5
204
100
AcDbEntity
100
AcDbCircle
  8
motor_plate
 62
256
370
-1
  6
ByLayer
 10
-0.0000000000000302
 20
-164.5
 30
0.0
 40
1.55
  0
CIRCLE
  5
205
100
AcDbEntity
100
AcDbCircle
  8
motor_plate
 62
256
370
-1
  6
ByLayer
 10
-0.0000000000000267
 20
-145.5
 30
0.0
 40
1.55
  0
LINE
  5
206
100
AcDbEntity
100
AcDbLine
  8
motor_plate
 62
256
370
-1
  6
ByLayer
 10
167.5
 20
-4.9999999999999263
 30
0.0
 11
142.4999999999999716
 21
-5.0000000000000338
 31
0.0
  0
LINE
  5
207
100
AcDbEntity
100
AcDbLine
  8
motor_plate
 62
256
370
-1
  6
ByLayer
 10
142.4999999999999716
 20
-5.0000000000000338
 30
0.0
 11
142.5
 21
4.9999999999999645
 31
0.0
  0
LINE
  5
208
100
AcDbEntity
100
AcDbLine
  8
motor_plate
 62
256
370
-1
  6
ByLayer
 10
142.5
 20
4.9999999999999645
 30
0.0
 11
167.5000000000000284
 21
4.9999999999998437
 31
0.0
  0
LINE
  5
209
100
AcDbEntity
100
AcDbLine
  8
motor_plate
 62
256
370
-1
  6
ByLayer
 10
167.5000000000000284
 20
4.9999999999998437
 30
0.0
 11
167.5
 21
-4.9999999999999263
 31
0.0
  0
CIRCLE
  5
20A
100
AcDbEntity
100
AcDbCircle
  8
motor_plate
 62
256
370
-1
  6
ByLayer
 10
164.5
 20
-0.0000000000000403
 30
0.0
 40
1.55
  0
CIRCLE
  5
20B
100
AcDbEntity
100
AcDbCircle
  8
motor_plate
 62
256
370
-1
  6
ByLayer
 10
145.5
 20
-0.0000000000000356
 30
0.0
 40
1.55
  0
LINE
  5
20C
100
AcDbEntity
100
AcDbLine
  8
motor_plate
 62
256
370
-1
  6
ByLayer
 10
4.9999999999999361
 20
167.5
 30
0.0
 11
5.0000000000000426
 21
142.4999999999999716
 31
0.0
  0
LINE
  5
20D
100
AcDbEntity
100
AcDbLine
  8
motor_plate
 62
256
370
-1
  6
ByLayer
 10
5.0000000000000426
 20
142.4999999999999716
 30
0.0
 11
-4.9999999999999556
 21
142.5
 31
0.0
  0
LINE
  5
20E
100
AcDbEntity
100
AcDbLine
  8
motor_plate
 62
256
370
-1
  6
ByLayer
 10
-4.9999999999999556
 20
142.5
 30
0.0
 11
-4.9999999999998339
 21
167.5000000000000284
 31
0.0
  0
LINE
  5
20F
100
AcDbEntity
100
AcDbLine
  8
motor_plate
 62
256
370
-1
  6
ByLayer
 10
-4.9999999999998339
 20
167.5000000000000284
 30
0.0
 11
4.9999999999999361
 21
167.5
 31
0.0
  0
CIRCLE
  5
210
100
AcDbEntity
100
AcDbCircle
  8
motor_plate
 62
256
370
-1
  6
ByLayer
 10
0.0000000000000504
 20
164.5
 30
0.0
 40
1.55
  0
CIRCLE
  5
211
100
AcDbEntity
100
AcDbCircle
  8
motor_plate
 62
256
370
-1
  6
ByLayer
 10
0.0000000000000445
 20
145.5
 30
0.0
 40
1.55
  0
CIRCLE
  5
212
100
AcDbEntity
100
AcDbCircle
  8
carrier_cc_top
 62
256
370
-1
  6
ByLayer
 10
0.0
 20
21.5667568261896463
 30
0.0
 40
1.55
  0
CIRCLE
  5
213
100
AcDbEntity
100
AcDbCircle
  8
carrier_cc_top
 62
256
370
-1
  6
ByLayer
 10
-21.5667568261896463
 20
0.0
 30
0.0
 40
1.55
  0
CIRCLE
  5
214
100
AcDbEntity
100
AcDbCircle
  8
carrier_cc_top
 62
256
370
-1
  6
ByLayer
 10
0.0
 20
-21.5667568261896463
 30
0.0
 40
1.55
  0
CIRCLE
  5
215
100
AcDbEntity
100
AcDbCircle
  8
carrier_cc_top
 62
256
370
-1
  6
ByLayer
 10
21.5667568261896463
 20
0.0
 30
0.0
 40
1.55
  0
POINT
  5
216
100
AcDbEntity
100
AcDbPoint
  8
carrier_cc_top
 62
256
370
-1
  6
ByLayer
 10
-15.25
 20
15.25
 30
0.0
  0
POINT
  5
217
100
AcDbEntity
100
AcDbPoint
  8
carrier_cc_top
 62
256
370
-1
  6
ByLayer
 10
0.0
 20
21.5667568261896463
 30
0.0
  0
POINT
  5
218
100
AcDbEntity
100
AcDbPoint
  8
carrier_cc_top
 62
256
370
-1
  6
ByLayer
 10
15.25
 20
15.25
 30
0.0
  0
POINT
  5
219
100
AcDbEntity
100
AcDbPoint
  8
carrier_cc_top
 62
256
370
-1
  6
ByLayer
 10
21.5667568261896463
 20
0.0
 30
0.0
  0
POINT
  5
21A
100
AcDbEntity
100
AcDbPoint
  8
carrier_cc_top
 62
256
370
-1
  6
ByLayer
 10
15.25
 20
-15.25
 30
0.0
  0
POINT
  5
21B
100
AcDbEntity
100
AcDbPoint
  8
carrier_cc_top
 62
256
370
-1
  6
ByLayer
 10
0.0
 20
-21.5667568261896463
 30
0.0
  0
POINT
  5
21C
100
AcDbEntity
100
AcDbPoint
  8
carrier_cc_top
 62
256
370
-1
  6
ByLayer
 10
-15.25
 20
-15.25
 30
0.0
  0
POINT
  5
21D
100
AcDbEntity
100
AcDbPoint
  8
carrier_cc_top
 62
256
370
-1
  6
ByLayer
 10
-21.5667568261896463
 20
0.0
 30
0.0
  0
LINE
  5
21E
100
AcDbEntity
100
AcDbLine
  8
helper_cc
 62
256
370
-1
  6
ByLayer
 10
-35.0
 20
5.0000000000000133
 30
0.0
 11
-35.0
 21
-4.9999999999999849
 31
0.0
  0
LINE
  5
21F
100
AcDbEntity
100
AcDbLine
  8
helper_cc
 62
256
370
-1
  6
ByLayer
 10
35.0
 20
4.9999999999999947
 30
0.0
 11
35.0
 21
-5.0000000000000036
 31
0.0
  0
LINE
  5
220
100
AcDbEntity
100
AcDbLine
  8
carrier_cc_bottom
 62
256
370
-1
  6
ByLayer
 10
-35.0
 20
-5.0
 30
0.0
 11
-35.0
 21
5.0
 31
0.0
  0
CIRCLE
  5
221
100
AcDbEntity
100
AcDbCircle
  8
carrier_cc_bottom
 62
256
370
-1
  6
ByLayer
 10
-31.5
 20
0.0
 30
0.0
 40
1.55
  0
CIRCLE
  5
222
100
AcDbEntity
100
AcDbCircle
  8
carrier_cc_bottom
 62
256
370
-1
  6
ByLayer
 10
-21.5667568261896463
 20
0.0
 30
0.0
 40
1.55
  0
CIRCLE
  5
223
100
AcDbEntity
100
AcDbCircle
  8
carrier_cc_bottom
 62
256
370
-1
  6
ByLayer
 10
-15.25
 20
15.25
 30
0.0
 40
1.55
  0
LINE
  5
224
100
AcDbEntity
100
AcDbLine
  8
carrier_cc_bottom
 62
256
370
-1
  6
ByLayer
 10
4.9999999999999973
 20
-35.0
 30
0.0
 11
-5.0000000000000098
 21
-35.0
 31
0.0
  0
CIRCLE
  5
225
100
AcDbEntity
100
AcDbCircle
  8
carrier_cc_bottom
 62
256
370
-1
  6
ByLayer
 10
-0.0000000000000058
 20
-31.5
 30
0.0
 40
1.55
  0
CIRCLE
  5
226
100
AcDbEntity
100
AcDbCircle
  8
carrier_cc_bottom
 62
256
370
-1
  6
ByLayer
 10
-0.000000000000004
 20
-21.5667568261896463
 30
0.0
 40
1.55
  0
CIRCLE
  5
227
100
AcDbEntity
100
AcDbCircle
  8
carrier_cc_bottom
 62
256
370
-1
  6
ByLayer
 10
-15.2500000000000036
 20
-15.2499999999999982
 30
0.0
 40
1.55
  0
LINE
  5
228
100
AcDbEntity
100
AcDbLine
  8
carrier_cc_bottom
 62
256
370
-1
  6
ByLayer
 10
35.0
 20
4.9999999999999956
 30
0.0
 11
35.0
 21
-5.0000000000000115
 31
0.0
  0
CIRCLE
  5
229
100
AcDbEntity
100
AcDbCircle
  8
carrier_cc_bottom
 62
256
370
-1
  6
ByLayer
 10
31.5
 20
-0.0000000000000077
 30
0.0
 40
1.55
  0
CIRCLE
  5
22A
100
AcDbEntity
100
AcDbCircle
  8
carrier_cc_bottom
 62
256
370
-1
  6
ByLayer
 10
21.5667568261896463
 20
-0.0000000000000053
 30
0.0
 40
1.55
  0
CIRCLE
  5
22B
100
AcDbEntity
100
AcDbCircle
  8
carrier_cc_bottom
 62
256
370
-1
  6
ByLayer
 10
15.2499999999999964
 20
-15.2500000000000036
 30
0.0
 40
1.55
  0
LINE
  5
22C
100
AcDbEntity
100
AcDbLine
  8
carrier_cc_bottom
 62
256
370
-1
  6
ByLayer
 10
-4.9999999999999929
 20
35.0
 30
0.0
 11
5.0000000000000142
 21
35.0
 31
0.0
  0
CIRCLE
  5
22D
100
AcDbEntity
100
AcDbCircle
  8
carrier_cc_bottom
 62
256
370
-1
  6
ByLayer
 10
0.0000000000000096
 20
31.5
 30
0.0
 40
1.55
  0
CIRCLE
  5
22E
100
AcDbEntity
100
AcDbCircle
  8
carrier_cc_bottom
 62
256
370
-1
  6
ByLayer
 10
0.0000000000000066
 20
21.5667568261896463
 30
0.0
 40
1.55
  0
CIRCLE
  5
22F
100
AcDbEntity
100
AcDbCircle
  8
carrier_cc_bottom
 62
256
370
-1
  6
ByLayer
 10
15.2500000000000036
 20
15.2499999999999964
 30
0.0
 40
1.55
  0
CIRCLE
  5
230
100
AcDbEntity
100
AcDbCircle
  8
carrier_cc_bottom
 62
256
370
-1
  6
ByLayer
 10
0.0
 20
0.0
 30
0.0
 40
17.5
  0
LINE
  5
231
100
AcDbEntity
100
AcDbLine
  8
carrier_cc_bottom
 62
256
370
-1
  6
ByLayer
 10
-35.0
 20
5.0
 30
0.0
 11
-30.186917696247157
 21
5.0
 31
0.0
  0
ARC
  5
232
100
AcDbEntity
  8
carrier_cc_bottom
 62
256
370
-1
  6
ByLayer
100
AcDbCircle
 10
-30.186917696247157
 20
9.0
 30
0.0
 40
4.0
100
AcDbArc
 50
270.0
 51
343.3984504009799821
  0
LINE
  5
233
100
AcDbEntity
100
AcDbLine
  8
carrier_cc_bottom
 62
256
370
-1
  6
ByLayer
 10
-30.186917696247157
 20
-5.0
 30
0.0
 11
-35.0
 21
-5.0
 31
0.0
  0
ARC
  5
234
100
AcDbEntity
  8
carrier_cc_bottom
 62
256
370
-1
  6
ByLayer
100
AcDbCircle
 10
-30.186917696247157
 20
-9.0
 30
0.0
 40
4.0
100
AcDbArc
 50
16.6015495990201778
 51
90.0
  0
LINE
  5
235
100
AcDbEntity
100
AcDbLine
  8
carrier_cc_bottom
 62
256
370
-1
  6
ByLayer
 10
35.0
 20
-5.0000000000000115
 30
0.0
 11
30.1869176962471606
 21
-5.0000000000000027
 31
0.0
  0
ARC
  5
236
100
AcDbEntity
  8
carrier_cc_bottom
 62
256
370
-1
  6
ByLayer
100
AcDbCircle
 10
30.1869176962471535
 20
-9.0000000000000018
 30
0.0
 40
4.0
100
AcDbArc
 50
89.9999999999999005
 51
163.3984504009800389
  0
LINE
  5
237
100
AcDbEntity
100
AcDbLine
  8
carrier_cc_bottom
 62
256
370
-1
  6
ByLayer
 10
30.1869176962471712
 20
4.9999999999999876
 30
0.0
 11
35.0
 21
4.9999999999999956
 31
0.0
  0
ARC
  5
238
100
AcDbEntity
  8
carrier_cc_bottom
 62
256
370
-1
  6
ByLayer
100
AcDbCircle
 10
30.1869176962471641
 20
8.9999999999999876
 30
0.0
 40
4.0
100
AcDbArc
 50
196.6015495990200179
 51
270.0000000000001137
  0
ARC
  5
239
100
AcDbEntity
  8
carrier_cc_bottom
 62
256
370
-1
  6
ByLayer
100
AcDbCircle
 10
-0.0000000000001477
 20
0.0000000000001527
 30
0.0
 40
27.4999999999998082
100
AcDbArc
 50
106.6015495990200321
 51
163.3984504009799537
  0
LINE
  5
23A
100
AcDbEntity
100
AcDbLine
  8
carrier_cc_bottom
 62
256
370
-1
  6
ByLayer
 10
-4.9999999999999858
 20
30.1869176962471712
 30
0.0
 11
-4.9999999999999929
 21
35.0
 31
0.0
  0
ARC
  5
23B
100
AcDbEntity
  8
carrier_cc_bottom
 62
256
370
-1
  6
ByLayer
100
AcDbCircle
 10
-8.9999999999999858
 20
30.1869176962471641
 30
0.0
 40
4.0
100
AcDbArc
 50
286.6015495990200748
 51
0.0000000000001018
  0
LINE
  5
23C
100
AcDbEntity
100
AcDbLine
  8
carrier_cc_bottom
 62
256
370
-1
  6
ByLayer
 10
5.0000000000000142
 20
35.0
 30
0.0
 11
5.0000000000000044
 21
30.1869176962471641
 31
0.0
  0
ARC
  5
23D
100
AcDbEntity
  8
carrier_cc_bottom
 62
256
370
-1
  6
ByLayer
100
AcDbCircle
 10
0.0000000000001527
 20
0.0000000000001477
 30
0.0
 40
27.4999999999998082
100
AcDbArc
 50
16.6015495990200357
 51
73.3984504009799537
  0
ARC
  5
23E
100
AcDbEntity
  8
carrier_cc_bottom
 62
256
370
-1
  6
ByLayer
100
AcDbCircle
 10
9.0000000000000036
 20
30.1869176962471535
 30
0.0
 40
4.0
100
AcDbArc
 50
179.9999999999998579
 51
253.3984504009798968
  0
ARC
  5
23F
100
AcDbEntity
  8
carrier_cc_bottom
 62
256
370
-1
  6
ByLayer
100
AcDbCircle
 10
0.0000000000001477
 20
-0.0000000000001527
 30
0.0
 40
27.4999999999998082
100
AcDbArc
 50
286.6015495990200748
 51
343.3984504009799252
  0
LINE
  5
240
100
AcDbEntity
100
AcDbLine
  8
carrier_cc_bottom
 62
256
370
-1
  6
ByLayer
 10
4.9999999999999893
 20
-30.1869176962471677
 30
0.0
 11
4.9999999999999973
 21
-35.0
 31
0.0
  0
ARC
  5
241
100
AcDbEntity
  8
carrier_cc_bottom
 62
256
370
-1
  6
ByLayer
100
AcDbCircle
 10
8.9999999999999893
 20
-30.1869176962471606
 30
0.0
 40
4.0
100
AcDbArc
 50
106.6015495990200463
 51
180.0000000000001137
  0
ARC
  5
242
100
AcDbEntity
  8
carrier_cc_bottom
 62
256
370
-1
  6
ByLayer
100
AcDbCircle
 10
-0.0000000000001527
 20
-0.0000000000001477
 30
0.0
 40
27.4999999999998082
100
AcDbArc
 50
196.6015495990200179
 51
253.3984504009799537
  0
LINE
  5
243
100
AcDbEntity
100
AcDbLine
  8
carrier_cc_bottom
 62
256
370
-1
  6
ByLayer
 10
-5.0000000000000098
 20
-35.0
 30
0.0
 11
-5.0
 21
-30.1869176962471641
 31
0.0
  0
ARC
  5
244
100
AcDbEntity
  8
carrier_cc_bottom
 62
256
370
-1
  6
ByLayer
100
AcDbCircle
 10
-9.0
 20
-30.186917696247157
 30
0.0
 40
4.0
100
AcDbArc
 50
359.9999999999998863
 51
73.3984504009800247
  0
POINT
  5
245
100
AcDbEntity
100
AcDbPoint
  8
carrier_cc_bottom
 62
256
370
-1
  6
ByLayer
 10
-31.5
 20
0.0
 30
0.0
  0
POINT
  5
246
100
AcDbEntity
100
AcDbPoint
  8
carrier_cc_bottom
 62
256
370
-1
  6
ByLayer
 10
-21.5667568261896463
 20
0.0
 30
0.0
  0
POINT
  5
247
100
AcDbEntity
100
AcDbPoint
  8
carrier_cc_bottom
 62
256
370
-1
  6
ByLayer
 10
-15.25
 20
15.25
 30
0.0
  0
POINT
  5
248
100
AcDbEntity
100
AcDbPoint
  8
carrier_cc_bottom
 62
256
370
-1
  6
ByLayer
 10
0.0000000000000066
 20
21.5667568261896463
 30
0.0
  0
POINT
  5
249
100
AcDbEntity
100
AcDbPoint
  8
carrier_cc_bottom
 62
256
370
-1
  6
ByLayer
 10
15.2500000000000036
 20
15.2499999999999964
 30
0.0
  0
POINT
  5
24A
100
AcDbEntity
100
AcDbPoint
  8
carrier_cc_bottom
 62
256
370
-1
  6
ByLayer
 10
21.5667568261896463
 20
-0.0000000000000053
 30
0.0
  0
POINT
  5
24B
100
AcDbEntity
100
AcDbPoint
  8
carrier_cc_bottom
 62
256
370
-1
  6
ByLayer
 10
31.5
 20
-0.0000000000000077
 30
0.0
  0
POINT
  5
24C
100
AcDbEntity
100
AcDbPoint
  8
carrier_cc_bottom
 62
256
370
-1
  6
ByLayer
 10
15.2499999999999964
 20
-15.2500000000000036
 30
0.0
  0
POINT
  5
24D
100
AcDbEntity
100
AcDbPoint
  8
carrier_cc_bottom
 62
256
370
-1
  6
ByLayer
 10
-0.000000000000004
 20
-21.5667568261896463
 30
0.0
  0
POINT
  5
24E
100
AcDbEntity
100
AcDbPoint
  8
carrier_cc_bottom
 62
256
370
-1
  6
ByLayer
 10
-15.2500000000000036
 20
-15.2499999999999982
 30
0.0
  0
POINT
  5
24F
100
AcDbEntity
100
AcDbPoint
  8
carrier_cc_bottom
 62
256
370
-1
  6
ByLayer
 10
-0.0000000000000058
 20
-31.5
 30
0.0
  0
POINT
  5
250
100
AcDbEntity
100
AcDbPoint
  8
carrier_cc_bottom
 62
256
370
-1
  6
ByLayer
 10
0.0000000000000096
 20
31.5
 30
0.0
  0
CIRCLE
  5
251
100
AcDbEntity
100
AcDbCircle
  8
boom_holder
 62
256
370
-1
  6
ByLayer
 10
-155.0
 20
0.0
 30
0.0
 40
2.5
  0
CIRCLE
  5
252
100
AcDbEntity
100
AcDbCircle
  8
boom_holder
 62
256
370
-1
  6
ByLayer
 10
0.0000000000000475
 20
155.0
 30
0.0
 40
2.5
  0
CIRCLE
  5
253
100
AcDbEntity
100
AcDbCircle
  8
boom_holder
 62
256
370
-1
  6
ByLayer
 10
155.0
 20
-0.000000000000038
 30
0.0
 40
2.5
  0
CIRCLE
  5
254
100
AcDbEntity
100
AcDbCircle
  8
boom_holder
 62
256
370
-1
  6
ByLayer
 10
-0.0000000000000285
 20
-155.0
 30
0.0
 40
2.5
  0
CIRCLE
  5
255
100
AcDbEntity
100
AcDbCircle
  8
boom
 62
256
370
-1
  6
ByLayer
 10
155.0
 20
-0.000000000000038
 30
0.0
 40
2.5
  0
CIRCLE
  5
256
100
AcDbEntity
100
AcDbCircle
  8
boom
 62
256
370
-1
  6
ByLayer
 10
0.0000000000000475
 20
155.0
 30
0.0
 40
2.5
  0
CIRCLE
  5
257
100
AcDbEntity
100
AcDbCircle
  8
boom
 62
256
370
-1
  6
ByLayer
 10
-155.0
 20
0.0
 30
0.0
 40
2.5
  0
CIRCLE
  5
258
100
AcDbEntity
100
AcDbCircle
  8
boom
 62
256
370
-1
  6
ByLayer
 10
-0.0000000000000285
 20
-155.0
 30
0.0
 40
2.5
  0
CIRCLE
  5
259
100
AcDbEntity
100
AcDbCircle
  8
motor_plate
 62
256
370
-1
  6
ByLayer
 10
155.0
 20
-0.000000000000038
 30
0.0
 40
2.5
  0
CIRCLE
  5
25A
100
AcDbEntity
100
AcDbCircle
  8
motor_plate
 62
256
370
-1
  6
ByLayer
 10
-155.0
 20
0.0
 30
0.0
 40
2.5
  0
CIRCLE
  5
25B
100
AcDbEntity
100
AcDbCircle
  8
motor_plate
 62
256
370
-1
  6
ByLayer
 10
0.0000000000000475
 20
155.0
 30
0.0
 40
2.5
  0
CIRCLE
  5
25C
100
AcDbEntity
100
AcDbCircle
  8
motor_plate
 62
256
370
-1
  6
ByLayer
 10
-0.0000000000000285
 20
-155.0
 30
0.0
 40
2.5
  0
ENDSEC
  0
SECTION
  2
OBJECTS
  0
DICTIONARY
  5
C
100
AcDbDictionary
280
0
281
1
  3
ACAD_GROUP
350
D
  3
ACAD_LAYOUT
350
1A
  3
ACAD_MLINESTYLE
350
17
  3
ACAD_PLOTSETTINGS
350
19
  3
ACAD_PLOTSTYLENAME
350
E
  3
AcDbVariableDictionary
350
25D
  0
DICTIONARY
  5
D
100
AcDbDictionary
280
0
281
1
  0
ACDBDICTIONARYWDFLT
  5
E
100
AcDbDictionary
281
1
  3
Normal
350
F
100
AcDbDictionaryWithDefault
340
F
  0
ACDBPLACEHOLDER
  5
F
  0
DICTIONARY
  5
17
100
AcDbDictionary
280
0
281
1
  3
Standard
350
18
  0
MLINESTYLE
  5
18
100
AcDbMlineStyle
  2
STANDARD
 70
0
  3

 62
256
 51
90.0
 52
90.0
 71
2
 49
0.5
 62
256
  6
BYLAYER
 49
-0.5
 62
256
  6
BYLAYER
  0
DICTIONARY
  5
19
100
AcDbDictionary
280
0
281
1
  0
DICTIONARY
  5
1A
100
AcDbDictionary
281
1
  3
Layout1
350
1E
  3
Layout2
350
26
  3
Model
350
22
  0
LAYOUT
  5
1E
100
AcDbPlotSettings
  1

  2
C:\Program Files\AutoCAD 2002\plotters\DWF ePlot (optimized for plotting).pc3
  4

  6

 40
0.0
 41
0.0
 42
0.0
 43
0.0
 44
0.0
 45
0.0
 46
0.0
 47
0.0
 48
0.0
 49
0.0
140
0.0
141
0.0
142
1.0
143
1.0
 70
688
 72
0
 73
0
 74
5
  7

 75
16
147
1.0
148
0.0
149
0.0
100
AcDbLayout
  1
Layout1
 70
1
 71
1
 10
0.0
 20
0.0
 11
420.0
 21
297.0
 12
0.0
 22
0.0
 32
0.0
 14
100000000000000000000.0
 24
100000000000000000000.0
 34
100000000000000000000.0
 15
-100000000000000000000.0
 25
-100000000000000000000.0
 35
-100000000000000000000.0
146
0.0
 13
0.0
 23
0.0
 33
0.0
 16
1.0
 26
0.0
 36
0.0
 17
0.0
 27
1.0
 37
0.0
 76
0
330
1B
  0
LAYOUT
  5
22
100
AcDbPlotSettings
  1

  2
C:\Program Files\AutoCAD 2002\plotters\DWF ePlot (optimized for plotting).pc3
  4

  6

 40
0.0
 41
0.0
 42
0.0
 43
0.0
 44
0.0
 45
0.0
 46
0.0
 47
0.0
 48
0.0
 49
0.0
140
0.0
141
0.0
142
1.0
143
1.0
 70
1712
 72
0
 73
0
 74
0
  7

 75
0
147
1.0
148
0.0
149
0.0
100
AcDbLayout
  1
Model
 70
1
 71
0
 10
0.0
 20
0.0
 11
12.0
 21
9.0
 12
0.0
 22
0.0
 32
0.0
 14
0.0
 24
0.0
 34
0.0
 15
0.0
 25
0.0
 35
0.0
146
0.0
 13
0.0
 23
0.0
 33
0.0
 16
1.0
 26
0.0
 36
0.0
 17
0.0
 27
1.0
 37
0.0
 76
0
330
1F
  0
LAYOUT
  5
26
100
AcDbPlotSettings
  1

  2
C:\Program Files\AutoCAD 2002\plotters\DWF ePlot (optimized for plotting).pc3
  4

  6

 40
0.0
 41
0.0
 42
0.0
 43
0.0
 44
0.0
 45
0.0
 46
0.0
 47
0.0
 48
0.0
 49
0.0
140
0.0
141
0.0
142
1.0
143
1.0
 70
688
 72
0
 73
0
 74
5
  7

 75
16
147
1.0
148
0.0
149
0.0
100
AcDbLayout
  1
Layout2
 70
1
 71
2
 10
0.0
 20
0.0
 11
12.0
 21
9.0
 12
0.0
 22
0.0
 32
0.0
 14
0.0
 24
0.0
 34
0.0
 15
0.0
 25
0.0
 35
0.0
146
0.0
 13
0.0
 23
0.0
 33
0.0
 16
1.0
 26
0.0
 36
0.0
 17
0.0
 27
1.0
 37
0.0
 76
0
330
23
  0
DICTIONARY
  5
25D
100
AcDbDictionary
281
1
  3
DIMASSOC
350
25F
  3
HIDETEXT
350
25E
  0
DICTIONARYVAR
  5
25E
100
DictionaryVariables
280
0
  1
2
  0
DICTIONARYVAR
  5
25F
100
DictionaryVariables
280
0
  1
1
  0
ENDSEC
  0
EOF
