999
dxflib 2.2.0.0
  0
SECTION
  2
HEADER
  9
$ACADVER
  1
AC1015
  9
$HANDSEED
  5
FFFF
  9
$DIMASZ
 40
2.5
  9
$PLIMMIN
 10
0.0
 20
0.0
  9
$DIMEXE
 40
1.25
  9
$DIMGAP
 40
0.625
  9
$PLIMMAX
 10
210.0
 20
297.0
  9
$INSUNITS
 70
4
  9
$DIMSTYLE
  2
Standard
  9
$DIMEXO
 40
0.625
  9
$DIMTXT
 40
2.5
  0
ENDSEC
  0
SECTION
  2
TABLES
  0
TABLE
  2
VPORT
  5
8
100
AcDbSymbolTable
 70
1
  0
VPORT
  5
30
100
AcDbSymbolTableRecord
100
AcDbViewportTableRecord
  2
*Active
 70
0
 10
0.0
 20
0.0
 11
1.0
 21
1.0
 12
286.3055555555554861
 22
148.5
 13
0.0
 23
0.0
 14
10.0
 24
10.0
 15
10.0
 25
10.0
 16
0.0
 26
0.0
 36
1.0
 17
0.0
 27
0.0
 37
0.0
 40
297.0
 41
1.92798353909465
 42
50.0
 43
0.0
 44
0.0
 50
0.0
 51
0.0
 71
0
 72
100
 73
1
 74
3
 75
1
 76
1
 77
0
 78
0
281
0
 65
1
110
0.0
120
0.0
130
0.0
111
1.0
121
0.0
131
0.0
112
0.0
122
1.0
132
0.0
 79
0
146
0.0
  0
ENDTAB
  0
TABLE
  2
LTYPE
  5
5
100
AcDbSymbolTable
 70
21
  0
LTYPE
  5
14
100
AcDbSymbolTableRecord
100
AcDbLinetypeTableRecord
  2
ByBlock
 70
0
  3

 72
65
 73
0
 40
0.0
  0
LTYPE
  5
15
100
AcDbSymbolTableRecord
100
AcDbLinetypeTableRecord
  2
ByLayer
 70
0
  3

 72
65
 73
0
 40
0.0
  0
LTYPE
  5
16
100
AcDbSymbolTableRecord
100
AcDbLinetypeTableRecord
  2
CONTINUOUS
 70
0
  3
Solid line
 72
65
 73
0
 40
0.0
  0
LTYPE
  5
31
100
AcDbSymbolTableRecord
100
AcDbLinetypeTableRecord
  2
DOT
 70
0
  3
Dot . . . . . . . . . . . . . . . . . . . . . .
 72
65
 73
2
 40
6.3499999999999996
 49
0.0
 74
0
 49
-6.3499999999999996
 74
0
  0
LTYPE
  5
32
100
AcDbSymbolTableRecord
100
AcDbLinetypeTableRecord
  2
DOT2
 70
0
  3
Dot (.5x) .....................................
 72
65
 73
2
 40
3.1749999999999998
 49
0.0
 74
0
 49
-3.1749999999999998
 74
0
  0
LTYPE
  5
33
100
AcDbSymbolTableRecord
100
AcDbLinetypeTableRecord
  2
DOTX2
 70
0
  3
Dot (2x) .  .  .  .  .  .  .  .  .  .  .  .  .
 72
65
 73
2
 40
12.6999999999999993
 49
0.0
 74
0
 49
-12.6999999999999993
 74
0
  0
LTYPE
  5
34
100
AcDbSymbolTableRecord
100
AcDbLinetypeTableRecord
  2
DASHED
 70
0
  3
Dashed __ __ __ __ __ __ __ __ __ __ __ __ __ _
 72
65
 73
2
 40
19.0500000000000007
 49
12.6999999999999993
 74
0
 49
-6.3499999999999996
 74
0
  0
LTYPE
  5
35
100
AcDbSymbolTableRecord
100
AcDbLinetypeTableRecord
  2
DASHED2
 70
0
  3
Dashed (.5x) _ _ _ _ _ _ _ _ _ _ _ _ _ _ _ _ _
 72
65
 73
2
 40
9.5250000000000004
 49
6.3499999999999996
 74
0
 49
-3.1749999999999998
 74
0
  0
LTYPE
  5
36
100
AcDbSymbolTableRecord
100
AcDbLinetypeTableRecord
  2
DASHEDX2
 70
0
  3
Dashed (2x) ____  ____  ____  ____  ____  ___
 72
65
 73
2
 40
38.1000000000000014
 49
25.3999999999999986
 74
0
 49
-12.6999999999999993
 74
0
  0
LTYPE
  5
37
100
AcDbSymbolTableRecord
100
AcDbLinetypeTableRecord
  2
DASHDOT
 70
0
  3
Dash dot __ . __ . __ . __ . __ . __ . __ . __
 72
65
 73
4
 40
25.3999999999999986
 49
12.6999999999999993
 74
0
 49
-6.3499999999999996
 74
0
 49
0.0
 74
0
 49
-6.3499999999999996
 74
0
  0
LTYPE
  5
38
100
AcDbSymbolTableRecord
100
AcDbLinetypeTableRecord
  2
DASHDOT2
 70
0
  3
Dash dot (.5x) _._._._._._._._._._._._._._._.
 72
65
 73
4
 40
12.6999999999999993
 49
6.3499999999999996
 74
0
 49
-3.1749999999999998
 74
0
 49
0.0
 74
0
 49
-3.1749999999999998
 74
0
  0
LTYPE
  5
39
100
AcDbSymbolTableRecord
100
AcDbLinetypeTableRecord
  2
DASHDOTX2
 70
0
  3
Dash dot (2x) ____  .  ____  .  ____  .  ___
 72
65
 73
4
 40
50.7999999999999972
 49
25.3999999999999986
 74
0
 49
-12.6999999999999993
 74
0
 49
0.0
 74
0
 49
-12.6999999999999993
 74
0
  0
LTYPE
  5
3A
100
AcDbSymbolTableRecord
100
AcDbLinetypeTableRecord
  2
DIVIDE
 70
0
  3
Divide ____ . . ____ . . ____ . . ____ . . ____
 72
65
 73
6
 40
31.75
 49
12.6999999999999993
 74
0
 49
-6.3499999999999996
 74
0
 49
0.0
 74
0
 49
-6.3499999999999996
 74
0
 49
0.0
 74
0
 49
-6.3499999999999996
 74
0
  0
LTYPE
  5
3B
100
AcDbSymbolTableRecord
100
AcDbLinetypeTableRecord
  2
DIVIDE2
 70
0
  3
Divide (.5x) __..__..__..__..__..__..__..__.._
 72
65
 73
6
 40
15.875
 49
6.3499999999999996
 74
0
 49
-3.1749999999999998
 74
0
 49
0.0
 74
0
 49
-3.1749999999999998
 74
0
 49
0.0
 74
0
 49
-3.1749999999999998
 74
0
  0
LTYPE
  5
3C
100
AcDbSymbolTableRecord
100
AcDbLinetypeTableRecord
  2
DIVIDEX2
 70
0
  3
Divide (2x) ________  .  .  ________  .  .  _
 72
65
 73
6
 40
63.5
 49
25.3999999999999986
 74
0
 49
-12.6999999999999993
 74
0
 49
0.0
 74
0
 49
-12.6999999999999993
 74
0
 49
0.0
 74
0
 49
-12.6999999999999993
 74
0
  0
LTYPE
  5
3D
100
AcDbSymbolTableRecord
100
AcDbLinetypeTableRecord
  2
CENTER
 70
0
  3
Center ____ _ ____ _ ____ _ ____ _ ____ _ ____
 72
65
 73
4
 40
50.7999999999999972
 49
31.75
 74
0
 49
-6.3499999999999996
 74
0
 49
6.3499999999999996
 74
0
 49
-6.3499999999999996
 74
0
  0
LTYPE
  5
3E
100
AcDbSymbolTableRecord
100
AcDbLinetypeTableRecord
  2
CENTER2
 70
0
  3
Center (.5x) ___ _ ___ _ ___ _ ___ _ ___ _ ___
 72
65
 73
4
 40
28.5749999999999993
 49
19.0500000000000007
 74
0
 49
-3.1749999999999998
 74
0
 49
3.1749999999999998
 74
0
 49
-3.1749999999999998
 74
0
  0
LTYPE
  5
3F
100
AcDbSymbolTableRecord
100
AcDbLinetypeTableRecord
  2
CENTERX2
 70
0
  3
Center (2x) ________  __  ________  __  _____
 72
65
 73
4
 40
101.5999999999999943
 49
63.5
 74
0
 49
-12.6999999999999993
 74
0
 49
12.6999999999999993
 74
0
 49
-12.6999999999999993
 74
0
  0
LTYPE
  5
40
100
AcDbSymbolTableRecord
100
AcDbLinetypeTableRecord
  2
BORDER
 70
0
  3
Border __ __ . __ __ . __ __ . __ __ . __ __ .
 72
65
 73
6
 40
44.4500000000000028
 49
12.6999999999999993
 74
0
 49
-6.3499999999999996
 74
0
 49
12.6999999999999993
 74
0
 49
-6.3499999999999996
 74
0
 49
0.0
 74
0
 49
-6.3499999999999996
 74
0
  0
LTYPE
  5
41
100
AcDbSymbolTableRecord
100
AcDbLinetypeTableRecord
  2
BORDER2
 70
0
  3
Border (.5x) __.__.__.__.__.__.__.__.__.__.__.
 72
65
 73
6
 40
22.2250000000000014
 49
6.3499999999999996
 74
0
 49
-3.1749999999999998
 74
0
 49
6.3499999999999996
 74
0
 49
-3.1749999999999998
 74
0
 49
0.0
 74
0
 49
-3.1749999999999998
 74
0
  0
LTYPE
  5
42
100
AcDbSymbolTableRecord
100
AcDbLinetypeTableRecord
  2
BORDERX2
 70
0
  3
Border (2x) ____  ____  .  ____  ____  .  ___
 72
65
 73
6
 40
88.9000000000000057
 49
25.3999999999999986
 74
0
 49
-12.6999999999999993
 74
0
 49
25.3999999999999986
 74
0
 49
-12.6999999999999993
 74
0
 49
0.0
 74
0
 49
-12.6999999999999993
 74
0
  0
ENDTAB
  0
TABLE
  2
LAYER
  5
2
100
AcDbSymbolTable
 70
3
  0
LAYER
  5
10
100
AcDbSymbolTableRecord
100
AcDbLayerTableRecord
  2
0
 70
0
 62
7
  6
CONTINUOUS
370
0
390
F
  0
LAYER
  5
43
100
AcDbSymbolTableRecord
100
AcDbLayerTableRecord
  2
helper
 70
1
 62
5
  6
CONTINUOUS
370
0
390
F
  0
LAYER
  5
44
100
AcDbSymbolTableRecord
100
AcDbLayerTableRecord
  2
dimension
 70
0
 62
1
  6
CONTINUOUS
370
0
390
F
  0
ENDTAB
  0
TABLE
  2
STYLE
  5
3
100
AcDbSymbolTable
 70
1
  0
STYLE
  5
11
100
AcDbSymbolTableRecord
100
AcDbTextStyleTableRecord
  2
Standard
 70
0
 40
0.0
 41
0.75
 50
0.0
 71
0
 42
2.5
  3
txt
  4

  0
ENDTAB
  0
TABLE
  2
VIEW
  5
6
100
AcDbSymbolTable
 70
0
  0
ENDTAB
  0
TABLE
  2
UCS
  5
7
100
AcDbSymbolTable
 70
0
  0
ENDTAB
  0
TABLE
  2
APPID
  5
9
100
AcDbSymbolTable
 70
1
  0
APPID
  5
12
100
AcDbSymbolTableRecord
100
AcDbRegAppTableRecord
  2
ACAD
 70
0
  0
ENDTAB
  0
TABLE
  2
DIMSTYLE
  5
A
100
AcDbSymbolTable
 70
1
100
AcDbDimStyleTable
 71
0
  0
DIMSTYLE
105
27
100
AcDbSymbolTableRecord
100
AcDbDimStyleTableRecord
  2
Standard
 41
2.5
 42
0.625
 43
3.75
 44
1.25
 70
0
 73
0
 74
0
 77
1
 78
8
140
2.5
141
2.5
143
0.03937007874016
147
0.625
171
3
172
1
271
2
272
2
274
3
278
44
283
0
284
8
340
11
  0
ENDTAB
  0
TABLE
  2
BLOCK_RECORD
  5
1
100
AcDbSymbolTable
 70
1
  0
BLOCK_RECORD
  5
1F
100
AcDbSymbolTableRecord
100
AcDbBlockTableRecord
  2
*Model_Space
340
22
  0
BLOCK_RECORD
  5
1B
100
AcDbSymbolTableRecord
100
AcDbBlockTableRecord
  2
*Paper_Space
340
1E
  0
BLOCK_RECORD
  5
23
100
AcDbSymbolTableRecord
100
AcDbBlockTableRecord
  2
*Paper_Space0
340
26
  0
ENDTAB
  0
ENDSEC
  0
SECTION
  2
BLOCKS
  0
BLOCK
  5
20
100
AcDbEntity
  8
0
100
AcDbBlockBegin
  2
*Model_Space
 70
0
 10
0.0
 20
0.0
 30
0.0
  3
*Model_Space
  1

  0
ENDBLK
  5
21
100
AcDbEntity
  8
0
100
AcDbBlockEnd
  0
BLOCK
  5
1C
100
AcDbEntity
 67
1
  8
0
100
AcDbBlockBegin
  2
*Paper_Space
 70
0
 10
0.0
 20
0.0
 30
0.0
  3
*Paper_Space
  1

  0
ENDBLK
  5
1D
100
AcDbEntity
 67
1
  8
0
100
AcDbBlockEnd
  0
BLOCK
  5
24
100
AcDbEntity
  8
0
100
AcDbBlockBegin
  2
*Paper_Space0
 70
0
 10
0.0
 20
0.0
 30
0.0
  3
*Paper_Space0
  1

  0
ENDBLK
  5
25
100
AcDbEntity
  8
0
100
AcDbBlockEnd
  0
ENDSEC
  0
SECTION
  2
ENTITIES
  0
LINE
  5
45
100
AcDbEntity
100
AcDbLine
  8
helper
 62
256
370
-1
  6
ByLayer
 10
0.0
 20
100.0
 30
0.0
 11
100.0
 21
0.0
 31
0.0
  0
LINE
  5
46
100
AcDbEntity
100
AcDbLine
  8
helper
 62
256
370
-1
  6
ByLayer
 10
0.0
 20
0.0
 30
0.0
 11
100.0
 21
100.0
 31
0.0
  0
LINE
  5
47
100
AcDbEntity
100
AcDbLine
  8
helper
 62
256
370
-1
  6
ByLayer
 10
0.0
 20
50.0
 30
0.0
 11
100.0
 21
50.0
 31
0.0
  0
LINE
  5
48
100
AcDbEntity
100
AcDbLine
  8
helper
 62
256
370
-1
  6
ByLayer
 10
50.0
 20
100.0
 30
0.0
 11
50.0
 21
0.0
 31
0.0
  0
LINE
  5
49
100
AcDbEntity
100
AcDbLine
  8
helper
 62
256
370
-1
  6
ByLayer
 10
-42.0728534805995551
 20
57.9271465194004023
 30
0.0
 11
57.9271465194004449
 21
-42.0728534805995977
 31
0.0
  0
LINE
  5
4A
100
AcDbEntity
100
AcDbLine
  8
helper
 62
256
370
-1
  6
ByLayer
 10
42.0728534805995906
 20
142.0728534805995764
 30
0.0
 11
142.0728534805995764
 21
42.0728534805995693
 31
0.0
  0
LINE
  5
4B
100
AcDbEntity
100
AcDbLine
  8
helper
 62
256
370
-1
  6
ByLayer
 10
-42.0728534805995764
 20
42.0728534805995835
 30
0.0
 11
57.9271465194004236
 21
142.0728534805995764
 31
0.0
  0
LINE
  5
4C
100
AcDbEntity
100
AcDbLine
  8
helper
 62
256
370
-1
  6
ByLayer
 10
42.0728534805995693
 20
-42.0728534805995906
 30
0.0
 11
142.0728534805995764
 21
57.9271465194004094
 31
0.0
  0
LINE
  5
4D
100
AcDbEntity
100
AcDbLine
  8
helper
 62
256
370
-1
  6
ByLayer
 10
0.0000000000000006
 20
10.0
 30
0.0
 11
100.0
 21
10.0
 31
0.0
  0
LINE
  5
4E
100
AcDbEntity
100
AcDbLine
  8
helper
 62
256
370
-1
  6
ByLayer
 10
90.0
 20
0.0000000000000012
 30
0.0
 11
90.0
 21
100.0
 31
0.0
  0
LINE
  5
4F
100
AcDbEntity
100
AcDbLine
  8
helper
 62
256
370
-1
  6
ByLayer
 10
100.0
 20
90.0
 30
0.0
 11
-0.0000000000000018
 21
90.0
 31
0.0
  0
LINE
  5
50
100
AcDbEntity
100
AcDbLine
  8
helper
 62
256
370
-1
  6
ByLayer
 10
10.0
 20
100.0
 30
0.0
 11
10.0
 21
-0.0000000000000024
 31
0.0
  0
LINE
  5
51
100
AcDbEntity
100
AcDbLine
  8
helper
 62
256
370
-1
  6
ByLayer
 10
-5.3033008588991031
 20
94.6966991411008934
 30
0.0
 11
94.6966991411008934
 21
-5.3033008588991093
 31
0.0
  0
LINE
  5
52
100
AcDbEntity
100
AcDbLine
  8
helper
 62
256
370
-1
  6
ByLayer
 10
5.3033008588991075
 20
105.3033008588991066
 30
0.0
 11
105.3033008588991066
 21
5.3033008588991049
 31
0.0
  0
LINE
  5
53
100
AcDbEntity
100
AcDbLine
  8
helper
 62
256
370
-1
  6
ByLayer
 10
-5.3033008588991057
 20
5.3033008588991066
 30
0.0
 11
94.6966991411008934
 21
105.3033008588991066
 31
0.0
  0
LINE
  5
54
100
AcDbEntity
100
AcDbLine
  8
helper
 62
256
370
-1
  6
ByLayer
 10
5.3033008588991049
 20
-5.3033008588991075
 30
0.0
 11
105.3033008588991066
 21
94.6966991411008934
 31
0.0
  0
CIRCLE
  5
55
100
AcDbEntity
100
AcDbCircle
  8
0
 62
256
370
-1
  6
ByLayer
 10
50.0
 20
50.0
 30
0.0
 40
10.0
  0
LINE
  5
56
100
AcDbEntity
100
AcDbLine
  8
helper
 62
256
370
-1
  6
ByLayer
 10
0.0000000000000012
 20
69.0
 30
0.0
 11
100.0
 21
69.0
 31
0.0
  0
LINE
  5
57
100
AcDbEntity
100
AcDbLine
  8
helper
 62
256
370
-1
  6
ByLayer
 10
69.0
 20
100.0
 30
0.0
 11
69.0
 21
-0.0000000000000047
 31
0.0
  0
LINE
  5
58
100
AcDbEntity
100
AcDbLine
  8
helper
 62
256
370
-1
  6
ByLayer
 10
-0.0000000000000035
 20
31.0
 30
0.0
 11
100.0
 21
31.0
 31
0.0
  0
LINE
  5
59
100
AcDbEntity
100
AcDbLine
  8
helper
 62
256
370
-1
  6
ByLayer
 10
31.0
 20
100.0
 30
0.0
 11
31.0
 21
0.000000000000007
 31
0.0
  0
LINE
  5
5A
100
AcDbEntity
100
AcDbLine
  8
helper
 62
256
370
-1
  6
ByLayer
 10
65.25
 20
100.0
 30
0.0
 11
65.25
 21
-0.0000000000000037
 31
0.0
  0
LINE
  5
5B
100
AcDbEntity
100
AcDbLine
  8
helper
 62
256
370
-1
  6
ByLayer
 10
34.75
 20
100.0
 30
0.0
 11
34.75
 21
0.0000000000000056
 31
0.0
  0
CIRCLE
  5
5C
100
AcDbEntity
100
AcDbCircle
  8
0
 62
256
370
-1
  6
ByLayer
 10
65.25
 20
65.25
 30
0.0
 40
1.5
  0
CIRCLE
  5
5D
100
AcDbEntity
100
AcDbCircle
  8
0
 62
256
370
-1
  6
ByLayer
 10
34.75
 20
65.25
 30
0.0
 40
1.5
  0
CIRCLE
  5
5E
100
AcDbEntity
100
AcDbCircle
  8
0
 62
256
370
-1
  6
ByLayer
 10
34.75
 20
34.75
 30
0.0
 40
1.5
  0
CIRCLE
  5
5F
100
AcDbEntity
100
AcDbCircle
  8
0
 62
256
370
-1
  6
ByLayer
 10
65.25
 20
34.75
 30
0.0
 40
1.5
  0
DIMENSION
  5
60
100
AcDbEntity
  8
dimension
 62
256
370
-1
  6
ByLayer
100
AcDbDimension
 10
65.25
 20
65.25
 30
0.0
 11
50.0
 21
67.125
 31
0.0
 70
1
 71
5
 72
1
 41
1.0
 42
0.0
  1

  3
Standard
100
AcDbAlignedDimension
 13
34.75
 23
65.25
 33
0.0
 14
65.25
 24
65.25
 34
0.0
  0
LINE
  5
61
100
AcDbEntity
100
AcDbLine
  8
helper
 62
256
370
-1
  6
ByLayer
 10
72.3210678118654755
 20
58.1789321881345245
 30
0.0
 11
58.1789321881345245
 21
72.3210678118654755
 31
0.0
  0
LINE
  5
62
100
AcDbEntity
100
AcDbLine
  8
helper
 62
256
370
-1
  6
ByLayer
 10
41.8210678118654755
 20
27.6789321881345245
 30
0.0
 11
27.6789321881345245
 21
41.8210678118654755
 31
0.0
  0
LINE
  5
63
100
AcDbEntity
100
AcDbLine
  8
helper
 62
256
370
-1
  6
ByLayer
 10
27.6789321881345245
 20
58.1789321881345245
 30
0.0
 11
41.8210678118654755
 21
72.3210678118654755
 31
0.0
  0
LINE
  5
64
100
AcDbEntity
100
AcDbLine
  8
helper
 62
256
370
-1
  6
ByLayer
 10
58.1789321881345245
 20
27.6789321881345245
 30
0.0
 11
72.3210678118654755
 21
41.8210678118654755
 31
0.0
  0
LINE
  5
65
100
AcDbEntity
100
AcDbLine
  8
helper
 62
256
370
-1
  6
ByLayer
 10
68.7855339059327378
 20
54.6433982822017867
 30
0.0
 11
54.6433982822017867
 21
68.7855339059327378
 31
0.0
  0
LINE
  5
66
100
AcDbEntity
100
AcDbLine
  8
helper
 62
256
370
-1
  6
ByLayer
 10
31.2144660940672622
 20
54.6433982822017867
 30
0.0
 11
45.3566017177982133
 21
68.7855339059327378
 31
0.0
  0
LINE
  5
67
100
AcDbEntity
100
AcDbLine
  8
helper
 62
256
370
-1
  6
ByLayer
 10
45.3566017177982133
 20
31.2144660940672622
 30
0.0
 11
31.2144660940672622
 21
45.3566017177982133
 31
0.0
  0
LINE
  5
68
100
AcDbEntity
100
AcDbLine
  8
helper
 62
256
370
-1
  6
ByLayer
 10
54.6433982822017867
 20
31.2144660940672622
 30
0.0
 11
68.7855339059327378
 21
45.3566017177982133
 31
0.0
  0
LINE
  5
69
100
AcDbEntity
100
AcDbLine
  8
helper
 62
256
370
-1
  6
ByLayer
 10
79.5217482967224498
 20
65.3796126729914846
 30
0.0
 11
65.3796126729914988
 21
79.5217482967224356
 31
0.0
  0
LINE
  5
6A
100
AcDbEntity
100
AcDbLine
  8
helper
 62
256
370
-1
  6
ByLayer
 10
20.4782517032775573
 20
65.3796126729914988
 30
0.0
 11
34.6203873270085083
 21
79.5217482967224498
 31
0.0
  0
LINE
  5
6B
100
AcDbEntity
100
AcDbLine
  8
helper
 62
256
370
-1
  6
ByLayer
 10
34.6203873270085012
 20
20.4782517032775573
 30
0.0
 11
20.4782517032775537
 21
34.6203873270085083
 31
0.0
  0
LINE
  5
6C
100
AcDbEntity
100
AcDbLine
  8
helper
 62
256
370
-1
  6
ByLayer
 10
65.3796126729914846
 20
20.4782517032775537
 30
0.0
 11
79.5217482967224356
 21
34.6203873270085012
 31
0.0
  0
LINE
  5
6D
100
AcDbEntity
100
AcDbLine
  8
helper
 62
256
370
-1
  6
ByLayer
 10
93.441145284379644
 20
79.2990096606486787
 30
0.0
 11
79.2990096606486929
 21
93.4411452843796297
 31
0.0
  0
LINE
  5
6E
100
AcDbEntity
100
AcDbLine
  8
helper
 62
256
370
-1
  6
ByLayer
 10
6.5588547156203703
 20
79.2990096606486787
 30
0.0
 11
20.7009903393513213
 21
93.4411452843796297
 31
0.0
  0
LINE
  5
6F
100
AcDbEntity
100
AcDbLine
  8
helper
 62
256
370
-1
  6
ByLayer
 10
20.7009903393513142
 20
6.5588547156203703
 30
0.0
 11
6.5588547156203632
 21
20.7009903393513213
 31
0.0
  0
LINE
  5
70
100
AcDbEntity
100
AcDbLine
  8
helper
 62
256
370
-1
  6
ByLayer
 10
79.2990096606486787
 20
6.5588547156203632
 30
0.0
 11
93.4411452843796297
 21
20.7009903393513142
 31
0.0
  0
CIRCLE
  5
71
100
AcDbEntity
100
AcDbCircle
  8
0
 62
256
370
-1
  6
ByLayer
 10
27.5493195151430292
 20
72.4506804848569743
 30
0.0
 40
1.5
  0
CIRCLE
  5
72
100
AcDbEntity
100
AcDbCircle
  8
0
 62
256
370
-1
  6
ByLayer
 10
13.6299225274858458
 20
86.3700774725141542
 30
0.0
 40
1.5
  0
CIRCLE
  5
73
100
AcDbEntity
100
AcDbCircle
  8
0
 62
256
370
-1
  6
ByLayer
 10
72.4506804848569743
 20
72.4506804848569743
 30
0.0
 40
1.5
  0
CIRCLE
  5
74
100
AcDbEntity
100
AcDbCircle
  8
0
 62
256
370
-1
  6
ByLayer
 10
86.3700774725141684
 20
86.3700774725141684
 30
0.0
 40
1.5
  0
CIRCLE
  5
75
100
AcDbEntity
100
AcDbCircle
  8
0
 62
256
370
-1
  6
ByLayer
 10
72.4506804848569601
 20
27.5493195151430328
 30
0.0
 40
1.5
  0
CIRCLE
  5
76
100
AcDbEntity
100
AcDbCircle
  8
0
 62
256
370
-1
  6
ByLayer
 10
86.3700774725141542
 20
13.6299225274858422
 30
0.0
 40
1.5
  0
CIRCLE
  5
77
100
AcDbEntity
100
AcDbCircle
  8
0
 62
256
370
-1
  6
ByLayer
 10
27.5493195151430292
 20
27.5493195151430292
 30
0.0
 40
1.5
  0
CIRCLE
  5
78
100
AcDbEntity
100
AcDbCircle
  8
0
 62
256
370
-1
  6
ByLayer
 10
13.6299225274858422
 20
13.6299225274858422
 30
0.0
 40
1.5
  0
ARC
  5
79
100
AcDbEntity
  8
0
 62
256
370
-1
  6
ByLayer
100
AcDbCircle
 10
30.2634559672905894
 20
86.0
 30
0.0
 40
4.0
100
AcDbArc
 50
90.0
 51
224.9999999999999432
  0
LINE
  5
7A
100
AcDbEntity
100
AcDbLine
  8
0
 62
256
370
-1
  6
ByLayer
 10
69.7365440327094177
 20
90.0
 30
0.0
 11
30.2634559672905894
 21
90.0
 31
0.0
  0
ARC
  5
7B
100
AcDbEntity
  8
0
 62
256
370
-1
  6
ByLayer
100
AcDbCircle
 10
69.7365440327094177
 20
86.0
 30
0.0
 40
4.0
100
AcDbArc
 50
315.0
 51
90.0
  0
ARC
  5
7C
100
AcDbEntity
  8
0
 62
256
370
-1
  6
ByLayer
100
AcDbCircle
 10
86.0
 20
69.7365440327094177
 30
0.0
 40
4.0
100
AcDbArc
 50
0.0
 51
135.0
  0
LINE
  5
7D
100
AcDbEntity
100
AcDbLine
  8
0
 62
256
370
-1
  6
ByLayer
 10
90.0
 20
30.2634559672905858
 30
0.0
 11
90.0
 21
69.7365440327094177
 31
0.0
  0
ARC
  5
7E
100
AcDbEntity
  8
0
 62
256
370
-1
  6
ByLayer
100
AcDbCircle
 10
86.0
 20
30.2634559672905858
 30
0.0
 40
4.0
100
AcDbArc
 50
225.0000000000000284
 51
0.0
  0
ARC
  5
7F
100
AcDbEntity
  8
0
 62
256
370
-1
  6
ByLayer
100
AcDbCircle
 10
69.7365440327094035
 20
14.0
 30
0.0
 40
4.0
100
AcDbArc
 50
270.0
 51
45.0000000000000782
  0
LINE
  5
80
100
AcDbEntity
100
AcDbLine
  8
0
 62
256
370
-1
  6
ByLayer
 10
30.263455967290593
 20
10.0
 30
0.0
 11
69.7365440327094035
 21
10.0
 31
0.0
  0
ARC
  5
81
100
AcDbEntity
  8
0
 62
256
370
-1
  6
ByLayer
100
AcDbCircle
 10
30.263455967290593
 20
14.0
 30
0.0
 40
4.0
100
AcDbArc
 50
135.0000000000000568
 51
270.0
  0
ARC
  5
82
100
AcDbEntity
  8
0
 62
256
370
-1
  6
ByLayer
100
AcDbCircle
 10
14.0
 20
30.2634559672905965
 30
0.0
 40
4.0
100
AcDbArc
 50
180.0
 51
315.0
  0
LINE
  5
83
100
AcDbEntity
100
AcDbLine
  8
0
 62
256
370
-1
  6
ByLayer
 10
10.0
 20
69.7365440327094035
 30
0.0
 11
10.0
 21
30.2634559672905965
 31
0.0
  0
ARC
  5
84
100
AcDbEntity
  8
0
 62
256
370
-1
  6
ByLayer
100
AcDbCircle
 10
14.0
 20
69.7365440327094035
 30
0.0
 40
4.0
100
AcDbArc
 50
45.0000000000000782
 51
180.0
  0
LINE
  5
85
100
AcDbEntity
100
AcDbLine
  8
0
 62
256
370
-1
  6
ByLayer
 10
27.4350288425444013
 20
83.1715728752538155
 30
0.0
 11
40.4350288425443978
 21
70.1715728752538155
 31
0.0
  0
ARC
  5
86
100
AcDbEntity
  8
0
 62
256
370
-1
  6
ByLayer
100
AcDbCircle
 10
43.2634559672905894
 20
73.0
 30
0.0
 40
4.0
100
AcDbArc
 50
224.9999999999999147
 51
270.0
  0
LINE
  5
87
100
AcDbEntity
100
AcDbLine
  8
0
 62
256
370
-1
  6
ByLayer
 10
43.2634559672905894
 20
69.0
 30
0.0
 11
56.7365440327094106
 21
69.0
 31
0.0
  0
LINE
  5
88
100
AcDbEntity
100
AcDbLine
  8
0
 62
256
370
-1
  6
ByLayer
 10
59.5649711574555951
 20
70.1715728752538155
 30
0.0
 11
72.5649711574556022
 21
83.1715728752538155
 31
0.0
  0
ARC
  5
89
100
AcDbEntity
  8
0
 62
256
370
-1
  6
ByLayer
100
AcDbCircle
 10
56.7365440327094106
 20
73.0
 30
0.0
 40
4.0
100
AcDbArc
 50
270.0
 51
315.0
  0
LINE
  5
8A
100
AcDbEntity
100
AcDbLine
  8
0
 62
256
370
-1
  6
ByLayer
 10
83.1715728752538155
 20
72.5649711574556022
 30
0.0
 11
70.1715728752538155
 21
59.5649711574556022
 31
0.0
  0
ARC
  5
8B
100
AcDbEntity
  8
0
 62
256
370
-1
  6
ByLayer
100
AcDbCircle
 10
73.0
 20
56.7365440327094106
 30
0.0
 40
4.0
100
AcDbArc
 50
134.9999999999999147
 51
180.0
  0
LINE
  5
8C
100
AcDbEntity
100
AcDbLine
  8
0
 62
256
370
-1
  6
ByLayer
 10
69.0
 20
56.7365440327094106
 30
0.0
 11
69.0
 21
43.2634559672905894
 31
0.0
  0
LINE
  5
8D
100
AcDbEntity
100
AcDbLine
  8
0
 62
256
370
-1
  6
ByLayer
 10
70.1715728752538155
 20
40.4350288425444049
 30
0.0
 11
83.1715728752538155
 21
27.4350288425443978
 31
0.0
  0
ARC
  5
8E
100
AcDbEntity
  8
0
 62
256
370
-1
  6
ByLayer
100
AcDbCircle
 10
73.0
 20
43.2634559672905894
 30
0.0
 40
4.0
100
AcDbArc
 50
180.0
 51
225.0
  0
LINE
  5
8F
100
AcDbEntity
100
AcDbLine
  8
0
 62
256
370
-1
  6
ByLayer
 10
72.564971157455588
 20
16.8284271247461916
 30
0.0
 11
59.5649711574555951
 21
29.8284271247461916
 31
0.0
  0
ARC
  5
90
100
AcDbEntity
  8
0
 62
256
370
-1
  6
ByLayer
100
AcDbCircle
 10
56.7365440327094035
 20
27.0
 30
0.0
 40
4.0
100
AcDbArc
 50
45.0
 51
90.0
  0
LINE
  5
91
100
AcDbEntity
100
AcDbLine
  8
0
 62
256
370
-1
  6
ByLayer
 10
56.7365440327094035
 20
31.0
 30
0.0
 11
43.2634559672905965
 21
31.0
 31
0.0
  0
LINE
  5
92
100
AcDbEntity
100
AcDbLine
  8
0
 62
256
370
-1
  6
ByLayer
 10
40.4350288425444049
 20
29.8284271247461916
 30
0.0
 11
27.4350288425444013
 21
16.8284271247461881
 31
0.0
  0
ARC
  5
93
100
AcDbEntity
  8
0
 62
256
370
-1
  6
ByLayer
100
AcDbCircle
 10
43.2634559672905965
 20
27.0
 30
0.0
 40
4.0
100
AcDbArc
 50
90.0
 51
135.0
  0
LINE
  5
94
100
AcDbEntity
100
AcDbLine
  8
0
 62
256
370
-1
  6
ByLayer
 10
16.8284271247461916
 20
27.4350288425444049
 30
0.0
 11
29.8284271247461916
 21
40.4350288425444049
 31
0.0
  0
ARC
  5
95
100
AcDbEntity
  8
0
 62
256
370
-1
  6
ByLayer
100
AcDbCircle
 10
27.0
 20
43.2634559672905965
 30
0.0
 40
4.0
100
AcDbArc
 50
315.0
 51
0.0
  0
LINE
  5
96
100
AcDbEntity
100
AcDbLine
  8
0
 62
256
370
-1
  6
ByLayer
 10
31.0
 20
43.2634559672905965
 30
0.0
 11
31.0
 21
56.7365440327094035
 31
0.0
  0
LINE
  5
97
100
AcDbEntity
100
AcDbLine
  8
0
 62
256
370
-1
  6
ByLayer
 10
29.8284271247461916
 20
59.5649711574555951
 30
0.0
 11
16.8284271247461916
 21
72.5649711574556022
 31
0.0
  0
ARC
  5
98
100
AcDbEntity
  8
0
 62
256
370
-1
  6
ByLayer
100
AcDbCircle
 10
27.0
 20
56.7365440327094035
 30
0.0
 40
4.0
100
AcDbArc
 50
0.0
 51
45.0
  0
ARC
  5
99
100
AcDbEntity
  8
0
 62
256
370
-1
  6
ByLayer
100
AcDbCircle
 10
82.4888527117067838
 20
96.0
 30
0.0
 40
4.0
100
AcDbArc
 50
45.0
 51
90.0
  0
LINE
  5
9A
100
AcDbEntity
100
AcDbLine
  8
0
 62
256
370
-1
  6
ByLayer
 10
85.3172798364529683
 20
98.8284271247461845
 30
0.0
 11
98.8284271247461845
 21
85.3172798364529683
 31
0.0
  0
ARC
  5
9B
100
AcDbEntity
  8
0
 62
256
370
-1
  6
ByLayer
100
AcDbCircle
 10
96.0
 20
82.4888527117067838
 30
0.0
 40
4.0
100
AcDbArc
 50
0.0
 51
45.0
  0
LINE
  5
9C
100
AcDbEntity
100
AcDbLine
  8
0
 62
256
370
-1
  6
ByLayer
 10
100.0
 20
82.4888527117067838
 30
0.0
 11
100.0
 21
17.5111472882932162
 31
0.0
  0
ARC
  5
9D
100
AcDbEntity
  8
0
 62
256
370
-1
  6
ByLayer
100
AcDbCircle
 10
96.0
 20
17.5111472882932162
 30
0.0
 40
4.0
100
AcDbArc
 50
314.9999999999999432
 51
0.0
  0
LINE
  5
9E
100
AcDbEntity
100
AcDbLine
  8
0
 62
256
370
-1
  6
ByLayer
 10
98.8284271247461845
 20
14.6827201635470281
 30
0.0
 11
85.3172798364529683
 21
1.1715728752538119
 31
0.0
  0
ARC
  5
9F
100
AcDbEntity
  8
0
 62
256
370
-1
  6
ByLayer
100
AcDbCircle
 10
82.4888527117067696
 20
4.0
 30
0.0
 40
4.0
100
AcDbArc
 50
270.0
 51
315.0000000000001137
  0
LINE
  5
A0
100
AcDbEntity
100
AcDbLine
  8
0
 62
256
370
-1
  6
ByLayer
 10
82.4888527117067696
 20
0.0
 30
0.0
 11
17.5111472882932304
 21
0.0
 31
0.0
  0
ARC
  5
A1
100
AcDbEntity
  8
0
 62
256
370
-1
  6
ByLayer
100
AcDbCircle
 10
17.5111472882932269
 20
4.0
 30
0.0
 40
4.0
100
AcDbArc
 50
224.9999999999999432
 51
270.0000000000000568
  0
LINE
  5
A2
100
AcDbEntity
100
AcDbLine
  8
0
 62
256
370
-1
  6
ByLayer
 10
1.1715728752538099
 20
14.682720163547037
 30
0.0
 11
14.6827201635470352
 21
1.1715728752538119
 31
0.0
  0
ARC
  5
A3
100
AcDbEntity
  8
0
 62
256
370
-1
  6
ByLayer
100
AcDbCircle
 10
4.0
 20
17.5111472882932269
 30
0.0
 40
4.0
100
AcDbArc
 50
180.0000000000001421
 51
225.0
  0
LINE
  5
A4
100
AcDbEntity
100
AcDbLine
  8
0
 62
256
370
-1
  6
ByLayer
 10
0.0
 20
82.4888527117067838
 30
0.0
 11
0.0
 21
17.5111472882932162
 31
0.0
  0
ARC
  5
A5
100
AcDbEntity
  8
0
 62
256
370
-1
  6
ByLayer
100
AcDbCircle
 10
4.0
 20
82.4888527117067838
 30
0.0
 40
4.0
100
AcDbArc
 50
135.0000000000000284
 51
180.0
  0
LINE
  5
A6
100
AcDbEntity
100
AcDbLine
  8
0
 62
256
370
-1
  6
ByLayer
 10
1.1715728752538148
 20
85.3172798364529683
 30
0.0
 11
14.6827201635470246
 21
98.8284271247461845
 31
0.0
  0
LINE
  5
A7
100
AcDbEntity
100
AcDbLine
  8
0
 62
256
370
-1
  6
ByLayer
 10
17.5111472882932127
 20
100.0
 30
0.0
 11
82.4888527117067838
 21
100.0
 31
0.0
  0
ARC
  5
A8
100
AcDbEntity
  8
0
 62
256
370
-1
  6
ByLayer
100
AcDbCircle
 10
17.5111472882932127
 20
96.0
 30
0.0
 40
4.0
100
AcDbArc
 50
90.0
 51
135.0000000000000568
  0
LINE
  5
A9
100
AcDbEntity
100
AcDbLine
  8
helper
 62
256
370
-1
  6
ByLayer
 10
95.5
 20
99.9999999999999858
 30
0.0
 11
95.5
 21
-0.0000000000000111
 31
0.0
  0
LINE
  5
AA
100
AcDbEntity
100
AcDbLine
  8
helper
 62
256
370
-1
  6
ByLayer
 10
4.5
 20
100.0000000000000142
 30
0.0
 11
4.5
 21
0.0000000000000167
 31
0.0
  0
LINE
  5
AB
100
AcDbEntity
100
AcDbLine
  8
helper
 62
256
370
-1
  6
ByLayer
 10
0.0000000000000028
 20
95.5
 30
0.0
 11
100.0
 21
95.5
 31
0.0
  0
LINE
  5
AC
100
AcDbEntity
100
AcDbLine
  8
helper
 62
256
370
-1
  6
ByLayer
 10
-0.0000000000000084
 20
4.5
 30
0.0
 11
99.9999999999999858
 21
4.5
 31
0.0
  0
CIRCLE
  5
AD
100
AcDbEntity
100
AcDbCircle
  8
0
 62
256
370
-1
  6
ByLayer
 10
50.0
 20
95.5
 30
0.0
 40
1.5
  0
CIRCLE
  5
AE
100
AcDbEntity
100
AcDbCircle
  8
0
 62
256
370
-1
  6
ByLayer
 10
95.5
 20
50.0
 30
0.0
 40
1.5
  0
CIRCLE
  5
AF
100
AcDbEntity
100
AcDbCircle
  8
0
 62
256
370
-1
  6
ByLayer
 10
50.0
 20
4.5
 30
0.0
 40
1.5
  0
CIRCLE
  5
B0
100
AcDbEntity
100
AcDbCircle
  8
0
 62
256
370
-1
  6
ByLayer
 10
4.5
 20
50.0
 30
0.0
 40
1.5
  0
DIMENSION
  5
B1
100
AcDbEntity
  8
dimension
 62
256
370
-1
  6
ByLayer
100
AcDbDimension
 10
95.5
 20
50.0
 30
0.0
 11
50.0
 21
51.875
 31
0.0
 70
1
 71
5
 72
1
 41
1.0
 42
0.0
  1

  3
Standard
100
AcDbAlignedDimension
 13
4.5
 23
50.0
 33
0.0
 14
95.5
 24
50.0
 34
0.0
  0
DIMENSION
  5
B2
100
AcDbEntity
  8
dimension
 62
256
370
-1
  6
ByLayer
100
AcDbDimension
 10
86.3700774725141542
 20
13.6299225274858422
 30
0.0
 11
50.0
 21
15.5049225274858422
 31
0.0
 70
0
 71
5
 72
0
 41
1.0
 42
0.0
  1

  3
Standard
100
AcDbAlignedDimension
 13
13.6299225274858422
 23
13.6299225274858422
 33
0.0
 14
86.3700774725141542
 24
13.6299225274858422
 34
0.0
 50
0.0
100
AcDbRotatedDimension
  0
DIMENSION
  5
B3
100
AcDbEntity
  8
dimension
 62
256
370
-1
  6
ByLayer
100
AcDbDimension
 10
78.2383494888688773
 20
94.5018054561594596
 30
0.0
 11
40.5424468016299429
 21
59.4575531983700785
 31
0.0
 70
1
 71
5
 72
0
 41
1.0
 42
0.0
  1

  3
Standard
100
AcDbAlignedDimension
 13
13.6299225274858422
 23
13.6299225274858422
 33
0.0
 14
86.3700774725141684
 24
86.3700774725141684
 34
0.0
  0
DIMENSION
  5
B4
100
AcDbEntity
  8
dimension
 62
256
370
-1
  6
ByLayer
100
AcDbDimension
 10
72.4506804848569743
 20
72.4506804848569743
 30
0.0
 11
50.0
 21
74.3256804848569743
 31
0.0
 70
0
 71
5
 72
1
 41
1.0
 42
0.0
  1

  3
Standard
100
AcDbAlignedDimension
 13
27.5493195151430292
 23
72.4506804848569743
 33
0.0
 14
72.4506804848569743
 24
72.4506804848569743
 34
0.0
 50
0.0
100
AcDbRotatedDimension
  0
DIMENSION
  5
B5
100
AcDbEntity
  8
dimension
 62
256
370
-1
  6
ByLayer
100
AcDbDimension
 10
67.1473796259578535
 20
22.2460186562439262
 30
0.0
 11
46.0225243558256665
 21
46.0225243558256665
 31
0.0
 70
1
 71
5
 72
1
 41
1.0
 42
0.0
  1

  3
Standard
100
AcDbAlignedDimension
 13
27.5493195151430292
 23
72.4506804848569743
 33
0.0
 14
72.4506804848569601
 24
27.5493195151430328
 34
0.0
  0
ENDSEC
  0
SECTION
  2
OBJECTS
  0
DICTIONARY
  5
C
100
AcDbDictionary
280
0
281
1
  3
ACAD_GROUP
350
D
  3
ACAD_LAYOUT
350
1A
  3
ACAD_MLINESTYLE
350
17
  3
ACAD_PLOTSETTINGS
350
19
  3
ACAD_PLOTSTYLENAME
350
E
  3
AcDbVariableDictionary
350
B6
  0
DICTIONARY
  5
D
100
AcDbDictionary
280
0
281
1
  0
ACDBDICTIONARYWDFLT
  5
E
100
AcDbDictionary
281
1
  3
Normal
350
F
100
AcDbDictionaryWithDefault
340
F
  0
ACDBPLACEHOLDER
  5
F
  0
DICTIONARY
  5
17
100
AcDbDictionary
280
0
281
1
  3
Standard
350
18
  0
MLINESTYLE
  5
18
100
AcDbMlineStyle
  2
STANDARD
 70
0
  3

 62
256
 51
90.0
 52
90.0
 71
2
 49
0.5
 62
256
  6
BYLAYER
 49
-0.5
 62
256
  6
BYLAYER
  0
DICTIONARY
  5
19
100
AcDbDictionary
280
0
281
1
  0
DICTIONARY
  5
1A
100
AcDbDictionary
281
1
  3
Layout1
350
1E
  3
Layout2
350
26
  3
Model
350
22
  0
LAYOUT
  5
1E
100
AcDbPlotSettings
  1

  2
C:\Program Files\AutoCAD 2002\plotters\DWF ePlot (optimized for plotting).pc3
  4

  6

 40
0.0
 41
0.0
 42
0.0
 43
0.0
 44
0.0
 45
0.0
 46
0.0
 47
0.0
 48
0.0
 49
0.0
140
0.0
141
0.0
142
1.0
143
1.0
 70
688
 72
0
 73
0
 74
5
  7

 75
16
147
1.0
148
0.0
149
0.0
100
AcDbLayout
  1
Layout1
 70
1
 71
1
 10
0.0
 20
0.0
 11
420.0
 21
297.0
 12
0.0
 22
0.0
 32
0.0
 14
100000000000000000000.0
 24
100000000000000000000.0
 34
100000000000000000000.0
 15
-100000000000000000000.0
 25
-100000000000000000000.0
 35
-100000000000000000000.0
146
0.0
 13
0.0
 23
0.0
 33
0.0
 16
1.0
 26
0.0
 36
0.0
 17
0.0
 27
1.0
 37
0.0
 76
0
330
1B
  0
LAYOUT
  5
22
100
AcDbPlotSettings
  1

  2
C:\Program Files\AutoCAD 2002\plotters\DWF ePlot (optimized for plotting).pc3
  4

  6

 40
0.0
 41
0.0
 42
0.0
 43
0.0
 44
0.0
 45
0.0
 46
0.0
 47
0.0
 48
0.0
 49
0.0
140
0.0
141
0.0
142
1.0
143
1.0
 70
1712
 72
0
 73
0
 74
0
  7

 75
0
147
1.0
148
0.0
149
0.0
100
AcDbLayout
  1
Model
 70
1
 71
0
 10
0.0
 20
0.0
 11
12.0
 21
9.0
 12
0.0
 22
0.0
 32
0.0
 14
0.0
 24
0.0
 34
0.0
 15
0.0
 25
0.0
 35
0.0
146
0.0
 13
0.0
 23
0.0
 33
0.0
 16
1.0
 26
0.0
 36
0.0
 17
0.0
 27
1.0
 37
0.0
 76
0
330
1F
  0
LAYOUT
  5
26
100
AcDbPlotSettings
  1

  2
C:\Program Files\AutoCAD 2002\plotters\DWF ePlot (optimized for plotting).pc3
  4

  6

 40
0.0
 41
0.0
 42
0.0
 43
0.0
 44
0.0
 45
0.0
 46
0.0
 47
0.0
 48
0.0
 49
0.0
140
0.0
141
0.0
142
1.0
143
1.0
 70
688
 72
0
 73
0
 74
5
  7

 75
16
147
1.0
148
0.0
149
0.0
100
AcDbLayout
  1
Layout2
 70
1
 71
2
 10
0.0
 20
0.0
 11
12.0
 21
9.0
 12
0.0
 22
0.0
 32
0.0
 14
0.0
 24
0.0
 34
0.0
 15
0.0
 25
0.0
 35
0.0
146
0.0
 13
0.0
 23
0.0
 33
0.0
 16
1.0
 26
0.0
 36
0.0
 17
0.0
 27
1.0
 37
0.0
 76
0
330
23
  0
DICTIONARY
  5
B6
100
AcDbDictionary
281
1
  3
DIMASSOC
350
B8
  3
HIDETEXT
350
B7
  0
DICTIONARYVAR
  5
B7
100
DictionaryVariables
280
0
  1
2
  0
DICTIONARYVAR
  5
B8
100
DictionaryVariables
280
0
  1
1
  0
ENDSEC
  0
EOF
